<!-- Generated by readme-aura https://github.com/collectioneur/readme-aura -->
<svg width="100" height="44" viewBox="0 0 100 44" xmlns="http://www.w3.org/2000/svg"><mask id="satori_om-id"><rect x="0" y="0" width="100" height="44" fill="#fff"/></mask><path x="0" y="0" width="100" height="44" fill="#000000" d="M22,0 h56 a22,22 0 0 1 22,22 v0 a22,22 0 0 1 -22,22 h-56 a22,22 0 0 1 -22,-22 v0 a22,22 0 0 1 22,-22"/><clipPath id="satori_cp-id-0"><rect x="0" y="0" width="100" height="44"/></clipPath><mask id="satori_om-id-0"><rect x="0" y="0" width="100" height="44" fill="#fff"/></mask><svg x="0" y="0" width="100" height="44" preserveAspectRatio="none" clip-path="url(#satori_cp-id-0)" mask="url(#satori_om-id-0)"><defs><linearGradient id="smb-grad-Linux" gradientUnits="objectBoundingBox" x1="0" y1="0" x2="1" y2="1"><stop offset="0%" stop-color="#d855f7"></stop><stop offset="30%" stop-color="#000000"></stop><stop offset="60%" stop-color="#b557e8"></stop><stop offset="80%" stop-color="#000000"></stop><stop offset="100%" stop-color="#cc6ef9"></stop><animateTransform attributeName="gradientTransform" type="rotate" from="0 0.5 0.5" to="360 0.5 0.5" dur="8s" repeatCount="indefinite"></animateTransform></linearGradient></defs><rect x="1.25" y="1.25" width="97.5" height="41.5" rx="20.75" ry="20.75" fill="none" stroke="url(#smb-grad-Linux)" stroke-width="2" stroke-linecap="round" stroke-linejoin="round"></rect><rect x="0.25" y="0.25" width="99.5" height="43.5" rx="21.75" ry="21.75" fill="none" stroke="#AAAAAA" stroke-width="0.5" stroke-linecap="round" stroke-linejoin="round"></rect></svg><mask id="satori_om-id-0-0"><rect x="0" y="0" width="0" height="44" fill="#fff"/></mask><mask id="satori_om-id-0-0-0"><rect x="0" y="0" width="0" height="44" fill="#fff"/></mask><mask id="satori_om-id-0-0-0-0"><rect x="0" y="0" width="0" height="44" fill="#fff"/></mask><mask id="satori_om-id-0-0-0-1"><rect x="0" y="0" width="0" height="44" fill="#fff"/></mask><mask id="satori_om-id-0-0-0-2"><rect x="0" y="0" width="0" height="44" fill="#fff"/></mask><mask id="satori_om-id-0-0-0-3"><rect x="0" y="0" width="0" height="44" fill="#fff"/></mask><mask id="satori_om-id-0-0-0-4"><rect x="0" y="0" width="0" height="44" fill="#fff"/></mask><mask id="satori_om-id-0-0-0-5"><rect x="0" y="0" width="0" height="44" fill="#fff"/></mask><mask id="satori_om-id-0-1"><rect x="0" y="0" width="0" height="44" fill="#fff"/></mask><mask id="satori_om-id-0-2"><rect x="0" y="0" width="0" height="44" fill="#fff"/></mask><mask id="satori_om-id-1"><rect x="0" y="0" width="100" height="44" fill="#fff"/></mask><mask id="satori_om-id-1-0"><rect x="22" y="13" width="18" height="18" fill="#fff"/></mask><mask id="satori_om-id-1-1"><rect x="45" y="14" width="34" height="16" fill="#fff"/></mask><g  ><path fill="#f5f5f5" d="M51.9 27L45.9 27L45.9 17.5L47.8 17.5L47.8 25.4L51.9 25.4L51.9 27ZM54.9 27L53.0 27L53.0 19.9L54.9 19.9L54.9 27ZM53.9 19.0L53.9 19.0Q53.5 19.0 53.2 18.7Q52.9 18.4 52.9 18.0L52.9 18.0Q52.9 17.6 53.2 17.3Q53.5 17.0 53.9 17.0L53.9 17.0Q54.3 17.0 54.7 17.3Q55.0 17.6 55.0 18.0L55.0 18.0Q55.0 18.4 54.7 18.7Q54.3 19.0 53.9 19.0ZM58.2 22.9L58.2 22.9L58.2 27L56.3 27L56.3 19.9L58.1 19.9L58.1 21.4Q58.4 20.7 58.9 20.3L58.9 20.3Q59.4 19.8 60.3 19.8L60.3 19.8Q61.1 19.8 61.6 20.1Q62.2 20.5 62.5 21.1Q62.8 21.7 62.8 22.5L62.8 22.5L62.8 27L60.8 27L60.8 22.8Q60.8 22.2 60.5 21.8Q60.2 21.4 59.6 21.4L59.6 21.4Q59.2 21.4 58.9 21.6Q58.5 21.8 58.4 22.1Q58.2 22.4 58.2 22.9ZM66.6 27.1L66.6 27.1Q65.9 27.1 65.3 26.8Q64.8 26.4 64.5 25.8Q64.2 25.2 64.2 24.4L64.2 24.4L64.2 19.9L66.1 19.9L66.1 24.1Q66.1 24.7 66.4 25.1Q66.8 25.5 67.4 25.5L67.4 25.5Q67.8 25.5 68.1 25.3Q68.4 25.1 68.6 24.8Q68.7 24.5 68.7 24.0L68.7 24.0L68.7 19.9L70.7 19.9L70.7 27L68.9 27L68.8 25.5Q68.6 26.2 68.1 26.6L68.1 26.6Q67.5 27.1 66.6 27.1ZM73.5 27L71.5 27L73.8 23.4L71.7 19.9L73.7 19.9L74.4 21.0Q74.7 21.6 74.9 22.1L74.9 22.1Q75.0 22.3 75.0 22.4L75.0 22.4Q75.1 22.3 75.2 22.1L75.2 22.1Q75.4 21.6 75.7 21.0L75.7 21.0L76.4 19.9L78.4 19.9L76.2 23.4L78.5 27L76.5 27L75.7 25.7Q75.4 25.1 75.1 24.6L75.1 24.6Q75.1 24.4 75.0 24.3L75.0 24.3Q74.9 24.4 74.9 24.6L74.9 24.6Q74.6 25.1 74.3 25.7L74.3 25.7L73.5 27Z "/></g></svg>