<!-- Generated by readme-aura https://github.com/collectioneur/readme-aura -->
<svg width="100" height="44" viewBox="0 0 100 44" xmlns="http://www.w3.org/2000/svg"><mask id="satori_om-id"><rect x="0" y="0" width="100" height="44" fill="#fff"/></mask><path x="0" y="0" width="100" height="44" fill="#3a1508" d="M22,0 h56 a22,22 0 0 1 22,22 v0 a22,22 0 0 1 -22,22 h-56 a22,22 0 0 1 -22,-22 v0 a22,22 0 0 1 22,-22"/><clipPath id="satori_cp-id-0"><rect x="0" y="0" width="100" height="44"/></clipPath><mask id="satori_om-id-0"><rect x="0" y="0" width="100" height="44" fill="#fff"/></mask><svg x="0" y="0" width="100" height="44" preserveAspectRatio="none" clip-path="url(#satori_cp-id-0)" mask="url(#satori_om-id-0)"><defs><linearGradient id="smb-grad-Ubuntu" gradientUnits="objectBoundingBox" x1="0" y1="0" x2="1" y2="1"><stop offset="0%" stop-color="#ffffff"></stop><stop offset="15%" stop-color="#3a1508"></stop><stop offset="30%" stop-color="#cccccc"></stop><stop offset="50%" stop-color="#E95420"></stop><stop offset="65%" stop-color="#3a1508"></stop><stop offset="80%" stop-color="#888888"></stop><stop offset="100%" stop-color="#444444"></stop><animateTransform attributeName="gradientTransform" type="rotate" from="0 0.5 0.5" to="360 0.5 0.5" dur="8s" repeatCount="indefinite"></animateTransform></linearGradient></defs><rect x="1.25" y="1.25" width="97.5" height="41.5" rx="20.75" ry="20.75" fill="none" stroke="url(#smb-grad-Ubuntu)" stroke-width="2" stroke-linecap="round" stroke-linejoin="round"></rect><rect x="0.25" y="0.25" width="99.5" height="43.5" rx="21.75" ry="21.75" fill="none" stroke="#AAAAAA" stroke-width="0.5" stroke-linecap="round" stroke-linejoin="round"></rect></svg><mask id="satori_om-id-0-0"><rect x="0" y="0" width="0" height="44" fill="#fff"/></mask><mask id="satori_om-id-0-0-0"><rect x="0" y="0" width="0" height="44" fill="#fff"/></mask><mask id="satori_om-id-0-0-0-0"><rect x="0" y="0" width="0" height="44" fill="#fff"/></mask><mask id="satori_om-id-0-0-0-1"><rect x="0" y="0" width="0" height="44" fill="#fff"/></mask><mask id="satori_om-id-0-0-0-2"><rect x="0" y="0" width="0" height="44" fill="#fff"/></mask><mask id="satori_om-id-0-0-0-3"><rect x="0" y="0" width="0" height="44" fill="#fff"/></mask><mask id="satori_om-id-0-0-0-4"><rect x="0" y="0" width="0" height="44" fill="#fff"/></mask><mask id="satori_om-id-0-0-0-5"><rect x="0" y="0" width="0" height="44" fill="#fff"/></mask><mask id="satori_om-id-0-0-0-6"><rect x="0" y="0" width="0" height="44" fill="#fff"/></mask><mask id="satori_om-id-0-0-0-7"><rect x="0" y="0" width="0" height="44" fill="#fff"/></mask><mask id="satori_om-id-0-1"><rect x="0" y="0" width="0" height="44" fill="#fff"/></mask><mask id="satori_om-id-0-2"><rect x="0" y="0" width="0" height="44" fill="#fff"/></mask><mask id="satori_om-id-1"><rect x="0" y="0" width="100" height="44" fill="#fff"/></mask><mask id="satori_om-id-1-0"><rect x="14" y="11" width="22" height="22" fill="#fff"/></mask><mask id="satori_om-id-1-1"><rect x="41" y="14" width="46" height="16" fill="#fff"/></mask><g  ><path fill="#ffffff" d="M45.8 27.1L45.8 27.1Q44.6 27.1 43.7 26.7Q42.8 26.3 42.3 25.5Q41.9 24.7 41.9 23.7L41.9 23.7L41.9 17.5L43.8 17.5L43.8 23.5Q43.8 24.1 44.0 24.5Q44.3 24.9 44.7 25.2Q45.2 25.4 45.8 25.4L45.8 25.4Q46.4 25.4 46.8 25.2Q47.2 24.9 47.5 24.5Q47.7 24.1 47.7 23.5L47.7 23.5L47.7 17.5L49.7 17.5L49.7 23.7Q49.7 24.7 49.2 25.5Q48.7 26.3 47.8 26.7Q46.9 27.1 45.8 27.1ZM55.1 27.1L55.1 27.1Q54.5 27.1 54.1 26.9Q53.7 26.7 53.5 26.4Q53.2 26.1 53.1 25.9L53.1 25.9L53.0 25.9L53.0 27L51.1 27L51.1 17.5L53.0 17.5L53.0 21.1L53.1 21.1Q53.2 20.8 53.5 20.5Q53.7 20.2 54.1 20.0Q54.5 19.8 55.1 19.8L55.1 19.8Q55.9 19.8 56.6 20.2Q57.2 20.6 57.6 21.4Q58.0 22.3 58.0 23.5L58.0 23.5Q58.0 24.6 57.6 25.5Q57.2 26.3 56.6 26.7Q55.9 27.1 55.1 27.1ZM54.5 25.6L54.5 25.6Q55.0 25.6 55.4 25.3Q55.7 25.0 55.9 24.6Q56.0 24.1 56.0 23.5L56.0 23.5Q56.0 22.8 55.9 22.4Q55.7 21.9 55.4 21.6Q55.0 21.3 54.5 21.3L54.5 21.3Q54.0 21.3 53.7 21.6Q53.3 21.9 53.2 22.3Q53.0 22.8 53.0 23.5L53.0 23.5Q53.0 24.1 53.2 24.6Q53.3 25.1 53.7 25.3Q54.0 25.6 54.5 25.6ZM61.6 27.1L61.6 27.1Q60.8 27.1 60.3 26.8Q59.7 26.4 59.4 25.8Q59.1 25.2 59.1 24.4L59.1 24.4L59.1 19.9L61.0 19.9L61.0 24.1Q61.0 24.7 61.4 25.1Q61.7 25.5 62.3 25.5L62.3 25.5Q62.7 25.5 63.0 25.3Q63.3 25.1 63.5 24.8Q63.7 24.5 63.7 24.0L63.7 24.0L63.7 19.9L65.6 19.9L65.6 27L63.8 27L63.8 25.5Q63.5 26.2 63.0 26.6L63.0 26.6Q62.4 27.1 61.6 27.1ZM68.9 22.9L68.9 22.9L68.9 27L67.0 27L67.0 19.9L68.8 19.9L68.8 21.4Q69.1 20.7 69.6 20.3L69.6 20.3Q70.1 19.8 71.0 19.8L71.0 19.8Q71.8 19.8 72.3 20.1Q72.9 20.5 73.2 21.1Q73.5 21.7 73.5 22.5L73.5 22.5L73.5 27L71.6 27L71.6 22.8Q71.6 22.2 71.2 21.8Q70.9 21.4 70.3 21.4L70.3 21.4Q69.9 21.4 69.6 21.6Q69.3 21.8 69.1 22.1Q68.9 22.4 68.9 22.9ZM77.1 19.9L78.4 19.9L78.4 21.4L77.1 21.4L77.1 24.9Q77.1 25.3 77.3 25.4Q77.4 25.6 77.8 25.6L77.8 25.6Q77.9 25.6 78.1 25.6Q78.3 25.5 78.4 25.5L78.4 25.5L78.6 26.9Q78.3 27.0 78.0 27.1Q77.7 27.1 77.4 27.1L77.4 27.1Q76.3 27.1 75.8 26.6Q75.2 26.1 75.2 25.1L75.2 25.1L75.2 21.4L74.2 21.4L74.2 19.9L75.2 19.9L75.2 18.2L77.1 18.2L77.1 19.9ZM81.9 27.1L81.9 27.1Q81.2 27.1 80.6 26.8Q80.1 26.4 79.8 25.8Q79.5 25.2 79.5 24.4L79.5 24.4L79.5 19.9L81.4 19.9L81.4 24.1Q81.4 24.7 81.7 25.1Q82.1 25.5 82.7 25.5L82.7 25.5Q83.1 25.5 83.4 25.3Q83.7 25.1 83.9 24.8Q84.0 24.5 84.0 24.0L84.0 24.0L84.0 19.9L85.9 19.9L85.9 27L84.1 27L84.1 25.5Q83.8 26.2 83.4 26.6L83.4 26.6Q82.8 27.1 81.9 27.1Z "/></g></svg>