<!-- Generated by readme-aura https://github.com/collectioneur/readme-aura -->
<svg width="90" height="44" viewBox="0 0 90 44" xmlns="http://www.w3.org/2000/svg"><mask id="satori_om-id"><rect x="0" y="0" width="90" height="44" fill="#fff"/></mask><path x="0" y="0" width="90" height="44" fill="#000000" d="M22,0 h46 a22,22 0 0 1 22,22 v0 a22,22 0 0 1 -22,22 h-46 a22,22 0 0 1 -22,-22 v0 a22,22 0 0 1 22,-22"/><clipPath id="satori_cp-id-0"><rect x="0" y="0" width="90" height="44"/></clipPath><mask id="satori_om-id-0"><rect x="0" y="0" width="90" height="44" fill="#fff"/></mask><svg x="0" y="0" width="90" height="44" preserveAspectRatio="none" clip-path="url(#satori_cp-id-0)" mask="url(#satori_om-id-0)"><defs><linearGradient id="smb-grad-Bash" gradientUnits="objectBoundingBox" x1="0" y1="0" x2="1" y2="1"><stop offset="0%" stop-color="#d855f7"></stop><stop offset="30%" stop-color="#000000"></stop><stop offset="60%" stop-color="#b557e8"></stop><stop offset="80%" stop-color="#000000"></stop><stop offset="100%" stop-color="#cc6ef9"></stop><animateTransform attributeName="gradientTransform" type="rotate" from="0 0.5 0.5" to="360 0.5 0.5" dur="8s" repeatCount="indefinite"></animateTransform></linearGradient></defs><rect x="1.25" y="1.25" width="87.5" height="41.5" rx="20.75" ry="20.75" fill="none" stroke="url(#smb-grad-Bash)" stroke-width="2" stroke-linecap="round" stroke-linejoin="round"></rect><rect x="0.25" y="0.25" width="89.5" height="43.5" rx="21.75" ry="21.75" fill="none" stroke="#AAAAAA" stroke-width="0.5" stroke-linecap="round" stroke-linejoin="round"></rect></svg><mask id="satori_om-id-0-0"><rect x="0" y="0" width="0" height="44" fill="#fff"/></mask><mask id="satori_om-id-0-0-0"><rect x="0" y="0" width="0" height="44" fill="#fff"/></mask><mask id="satori_om-id-0-0-0-0"><rect x="0" y="0" width="0" height="44" fill="#fff"/></mask><mask id="satori_om-id-0-0-0-1"><rect x="0" y="0" width="0" height="44" fill="#fff"/></mask><mask id="satori_om-id-0-0-0-2"><rect x="0" y="0" width="0" height="44" fill="#fff"/></mask><mask id="satori_om-id-0-0-0-3"><rect x="0" y="0" width="0" height="44" fill="#fff"/></mask><mask id="satori_om-id-0-0-0-4"><rect x="0" y="0" width="0" height="44" fill="#fff"/></mask><mask id="satori_om-id-0-0-0-5"><rect x="0" y="0" width="0" height="44" fill="#fff"/></mask><mask id="satori_om-id-0-1"><rect x="0" y="0" width="0" height="44" fill="#fff"/></mask><mask id="satori_om-id-0-2"><rect x="0" y="0" width="0" height="44" fill="#fff"/></mask><mask id="satori_om-id-1"><rect x="0" y="0" width="90" height="44" fill="#fff"/></mask><mask id="satori_om-id-1-0"><rect x="18" y="13" width="18" height="18" fill="#fff"/></mask><mask id="satori_om-id-1-1"><rect x="41" y="14" width="31" height="16" fill="#fff"/></mask><g  ><path fill="#f5f5f5" d="M45.8 27L41.9 27L41.9 17.5L45.6 17.5Q46.6 17.5 47.3 17.9Q48.0 18.2 48.4 18.7Q48.7 19.3 48.7 20.0L48.7 20.0Q48.7 20.5 48.5 20.9Q48.3 21.4 47.9 21.6Q47.5 21.9 47.0 22.0L47.0 22.0L47.0 22.1Q47.6 22.1 48.0 22.4Q48.5 22.7 48.8 23.2Q49.1 23.7 49.1 24.4L49.1 24.4Q49.1 25.1 48.7 25.7Q48.4 26.3 47.6 26.7Q46.9 27 45.8 27L45.8 27ZM43.8 22.8L43.8 25.4L45.5 25.4Q46.3 25.4 46.7 25.1Q47.1 24.7 47.1 24.2L47.1 24.2Q47.1 23.8 46.9 23.5Q46.7 23.2 46.4 23.0Q46.0 22.8 45.5 22.8L45.5 22.8L43.8 22.8ZM43.8 19.1L43.8 21.5L45.3 21.5Q45.7 21.5 46.1 21.4Q46.4 21.2 46.6 20.9Q46.8 20.7 46.8 20.3L46.8 20.3Q46.8 19.8 46.4 19.4Q46.0 19.1 45.4 19.1L45.4 19.1L43.8 19.1ZM52.2 27.1L52.2 27.1Q51.5 27.1 51.0 26.9Q50.4 26.7 50.1 26.2Q49.8 25.7 49.8 25.0L49.8 25.0Q49.8 24.4 50.1 24.0Q50.3 23.6 50.6 23.4Q51.0 23.1 51.5 23.0Q52.0 22.9 52.5 22.8L52.5 22.8Q53.1 22.8 53.5 22.7Q53.9 22.7 54.1 22.5Q54.2 22.4 54.2 22.2L54.2 22.2L54.2 22.2Q54.2 21.9 54.1 21.7Q54.0 21.4 53.7 21.3Q53.5 21.2 53.1 21.2L53.1 21.2Q52.8 21.2 52.5 21.3Q52.2 21.4 52.0 21.6Q51.9 21.8 51.8 22.0L51.8 22.0L50.0 21.8Q50.2 21.1 50.6 20.7Q51.1 20.3 51.7 20.0Q52.3 19.8 53.1 19.8L53.1 19.8Q53.7 19.8 54.2 20.0Q54.8 20.1 55.2 20.4Q55.6 20.7 55.9 21.1Q56.1 21.6 56.1 22.2L56.1 22.2L56.1 27L54.3 27L54.3 26.0L54.3 26.0Q54.1 26.3 53.8 26.6Q53.5 26.8 53.1 27.0Q52.7 27.1 52.2 27.1ZM52.7 25.8L52.7 25.8Q53.2 25.8 53.5 25.6Q53.9 25.4 54.1 25.1Q54.2 24.8 54.2 24.5L54.2 24.5L54.2 23.7Q54.2 23.8 54.0 23.8Q53.8 23.9 53.6 23.9Q53.4 23.9 53.2 24.0Q53.0 24.0 52.8 24.0L52.8 24.0Q52.5 24.1 52.2 24.2Q52.0 24.3 51.8 24.5Q51.7 24.7 51.7 25.0L51.7 25.0Q51.7 25.2 51.8 25.4Q51.9 25.6 52.2 25.7Q52.4 25.8 52.7 25.8ZM60.4 27.1L60.4 27.1Q59.5 27.1 58.9 26.9Q58.2 26.7 57.8 26.2Q57.4 25.7 57.2 25.1L57.2 25.1L59.0 24.8Q59.2 25.2 59.5 25.5Q59.9 25.7 60.4 25.7L60.4 25.7Q61.0 25.7 61.3 25.5Q61.6 25.3 61.6 25.0L61.6 25.0Q61.6 24.7 61.4 24.6Q61.2 24.4 60.7 24.3L60.7 24.3L59.5 24.0Q58.4 23.8 57.9 23.3Q57.4 22.8 57.4 22.0L57.4 22.0Q57.4 21.3 57.8 20.8Q58.2 20.3 58.8 20.1Q59.5 19.8 60.4 19.8L60.4 19.8Q61.2 19.8 61.9 20.0Q62.5 20.3 62.9 20.7Q63.2 21.1 63.4 21.7L63.4 21.7L61.7 22.0Q61.6 21.6 61.3 21.4Q61.0 21.2 60.4 21.2L60.4 21.2Q60.0 21.2 59.6 21.4Q59.3 21.6 59.3 21.9L59.3 21.9Q59.3 22.2 59.5 22.4Q59.7 22.5 60.2 22.6L60.2 22.6L61.5 22.9Q62.6 23.1 63.1 23.6Q63.6 24.0 63.6 24.8L63.6 24.8Q63.6 25.5 63.1 26.0Q62.7 26.6 62.0 26.8Q61.3 27.1 60.4 27.1ZM66.5 22.9L66.5 22.9L66.5 27L64.6 27L64.6 17.5L66.5 17.5L66.5 21.3Q66.8 20.7 67.2 20.3L67.2 20.3Q67.8 19.8 68.7 19.8L68.7 19.8Q69.4 19.8 70.0 20.1Q70.5 20.5 70.8 21.1Q71.1 21.7 71.1 22.5L71.1 22.5L71.1 27L69.2 27L69.2 22.8Q69.2 22.2 68.9 21.8Q68.5 21.4 67.9 21.4L67.9 21.4Q67.5 21.4 67.2 21.6Q66.9 21.8 66.7 22.1Q66.5 22.4 66.5 22.9Z "/></g></svg>