<!-- Generated by readme-aura https://github.com/collectioneur/readme-aura -->
<svg width="860" height="80" viewBox="0 0 860 80" xmlns="http://www.w3.org/2000/svg"><defs><clipPath id="satori_bc-id"><path x="0" y="0" width="860" height="80" d="M12,0 h836 a12,12 0 0 1 12,12 v56 a12,12 0 0 1 -12,12 h-836 a12,12 0 0 1 -12,-12 v-56 a12,12 0 0 1 12,-12"/></clipPath></defs><clipPath id="satori_cp-id"><path x="0" y="0" width="860" height="80" d="M12,0 h836 a12,12 0 0 1 12,12 v56 a12,12 0 0 1 -12,12 h-836 a12,12 0 0 1 -12,-12 v-56 a12,12 0 0 1 12,-12"/></clipPath><mask id="satori_om-id"><rect x="1" y="1" width="858" height="78" fill="#fff"/><path width="860" height="80" fill="none" stroke="#000" stroke-width="2" d="M3.5150000000000006,3.5150000000000006 A12,12 0 0 1 12,0 h836 a12,12 0 0 1 12,12 v56 a12,12 0 0 1 -12,12 h-836 a12,12 0 0 1 -12,-12 v-56 A12,12 0 0 1 3.5150000000000006,3.5150000000000006"/></mask><path x="0" y="0" width="860" height="80" fill="#08080c" d="M12,0 h836 a12,12 0 0 1 12,12 v56 a12,12 0 0 1 -12,12 h-836 a12,12 0 0 1 -12,-12 v-56 a12,12 0 0 1 12,-12"/><path width="860" height="80" clip-path="url(#satori_bc-id)" fill="none" stroke="rgba(110,80,220,0.2)" stroke-width="2" d="M3.5150000000000006,3.5150000000000006 A12,12 0 0 1 12,0 h836 a12,12 0 0 1 12,12 v56 a12,12 0 0 1 -12,12 h-836 a12,12 0 0 1 -12,-12 v-56 A12,12 0 0 1 3.5150000000000006,3.5150000000000006"/><clipPath id="satori_cp-id-0" clip-path="url(#satori_cp-id)"><rect x="1" y="1" width="860" height="80"/></clipPath><mask id="satori_om-id-0"><rect x="1" y="1" width="860" height="80" fill="#fff" mask="url(#satori_om-id)"/></mask><svg x="1" y="1" width="860" height="80" preserveAspectRatio="none" clip-path="url(#satori_cp-id-0)" mask="url(#satori_om-id-0)"><defs><radialGradient id="bg5" cx="50%" cy="50%" r="50%"><stop offset="0%" stop-color="rgba(240,180,40,0.25)"></stop><stop offset="100%" stop-color="transparent"></stop></radialGradient></defs><rect width="860" height="80" fill="url(#bg5)"></rect><style>
 @keyframes pulse-text5 { 0%, 100% { text-shadow: 0 0 10px rgba(240,180,40,0.5); } 50% { text-shadow: 0 0 25px rgba(255,200,80,0.9); } } #title5 { animation: pulse-text5 3s infinite; } 
</style>
</svg><mask id="satori_om-id-0-0"><rect x="1" y="1" width="0" height="80" fill="#fff" mask="url(#satori_om-id)"/></mask><mask id="satori_om-id-0-0-0"><rect x="1" y="1" width="0" height="80" fill="#fff" mask="url(#satori_om-id)"/></mask><mask id="satori_om-id-0-0-0-0"><rect x="1" y="1" width="0" height="80" fill="#fff" mask="url(#satori_om-id)"/></mask><mask id="satori_om-id-0-0-0-1"><rect x="1" y="1" width="0" height="80" fill="#fff" mask="url(#satori_om-id)"/></mask><mask id="satori_om-id-0-1"><rect x="1" y="1" width="0" height="80" fill="#fff" mask="url(#satori_om-id)"/></mask><mask id="satori_om-id-1"><rect x="276" y="25" width="308" height="31" fill="#fff" mask="url(#satori_om-id)"/></mask><g mask="url(#satori_om-id)" clip-path="url(#satori_cp-id)"><path fill="#fff" d="M286.1 50.3L286.1 50.3Q283.4 50.3 281.4 49.1Q279.4 47.9 278.3 45.7Q277.2 43.6 277.2 40.6L277.2 40.6Q277.2 37.5 278.4 35.3Q279.5 33.1 281.5 32.0Q283.5 30.8 286.0 30.8L286.0 30.8Q287.6 30.8 289.0 31.3Q290.4 31.8 291.4 32.6Q292.5 33.5 293.2 34.6Q293.9 35.8 294.1 37.2L294.1 37.2L290.1 37.2Q289.9 36.5 289.6 36.0Q289.2 35.4 288.7 35.0Q288.2 34.7 287.5 34.5Q286.9 34.3 286.1 34.3L286.1 34.3Q284.6 34.3 283.5 35.0Q282.4 35.7 281.8 37.1Q281.1 38.5 281.1 40.5Q281.1 42.5 281.7 43.9Q282.4 45.3 283.5 46.1Q284.6 46.8 286.1 46.8L286.1 46.8Q287.5 46.8 288.5 46.3Q289.4 45.8 290.0 44.9L290.0 44.9Q290.5 44.0 290.5 42.9L290.5 42.9L286.4 42.9L286.4 39.9L294.3 39.9L294.3 42.3Q294.3 44.8 293.2 46.6Q292.1 48.3 290.3 49.3Q288.5 50.3 286.1 50.3ZM300.2 31.1L304.1 31.1L304.1 50L300.2 50L300.2 31.1ZM315.6 34.3L309.8 34.3L309.8 31.1L325.2 31.1L325.2 34.3L319.4 34.3L319.4 50L315.6 50L315.6 34.3ZM334.8 50L330.9 50L330.9 31.1L334.8 31.1L334.8 38.7L343.0 38.7L343.0 31.1L346.9 31.1L346.9 50L343.0 50L343.0 41.9L334.8 41.9L334.8 50ZM361.1 50.3L361.1 50.3Q358.8 50.3 357.0 49.4Q355.2 48.5 354.3 47.0Q353.3 45.4 353.3 43.4L353.3 43.4L353.3 31.1L357.2 31.1L357.2 43.0Q357.2 44.1 357.7 45.0Q358.2 45.9 359.0 46.4Q359.9 46.8 361.1 46.8L361.1 46.8Q362.3 46.8 363.2 46.4Q364.1 45.9 364.5 45.0Q365.0 44.1 365.0 43.0L365.0 43.0L365.0 31.1L368.9 31.1L368.9 43.4Q368.9 45.4 367.9 47.0Q367.0 48.5 365.2 49.4Q363.4 50.3 361.1 50.3ZM383.3 50L375.3 50L375.3 31.1L382.8 31.1Q384.9 31.1 386.3 31.7Q387.7 32.3 388.4 33.4Q389.1 34.5 389.1 35.9L389.1 35.9Q389.1 37.1 388.6 37.9Q388.2 38.7 387.4 39.3Q386.7 39.8 385.7 40.0L385.7 40.0L385.7 40.2Q386.7 40.2 387.7 40.8Q388.6 41.4 389.2 42.4Q389.8 43.4 389.8 44.8L389.8 44.8Q389.8 46.3 389.1 47.5Q388.3 48.6 386.9 49.3Q385.5 50 383.3 50L383.3 50ZM379.2 41.7L379.2 46.8L382.6 46.8Q384.3 46.8 385.0 46.2Q385.8 45.5 385.8 44.4L385.8 44.4Q385.8 43.6 385.4 43.0Q385.1 42.4 384.3 42.0Q383.6 41.7 382.7 41.7L382.7 41.7L379.2 41.7ZM379.2 34.2L379.2 39.0L382.3 39.0Q383.1 39.0 383.8 38.7Q384.4 38.4 384.8 37.9Q385.2 37.3 385.2 36.6L385.2 36.6Q385.2 35.5 384.4 34.9Q383.7 34.2 382.3 34.2L382.3 34.2L379.2 34.2Z M407.9 50L403.6 50L410.1 31.1L415.1 31.1L421.8 50L417.5 50L416.0 45.6L409.3 45.6L407.9 50ZM410.3 42.6L415.0 42.6L414.4 40.9Q413.9 39.1 413.3 37L413.3 37Q413.0 35.6 412.6 34.1L412.6 34.1Q412.2 35.7 411.9 37.0L411.9 37.0Q411.3 39.1 410.8 40.9L410.8 40.9L410.3 42.6ZM431.1 50L427.1 50L427.1 31.1L431.4 31.1L437.4 40.7Q437.9 41.4 438.3 42.3Q438.8 43.1 439.3 44.2L439.3 44.2Q439.5 44.7 439.8 45.3L439.8 45.3Q439.7 44.8 439.7 44.3L439.7 44.3Q439.6 43.1 439.6 42.0Q439.5 40.9 439.5 40.2L439.5 40.2L439.5 31.1L443.5 31.1L443.5 50L439.2 50L433.7 41.3Q433.1 40.3 432.6 39.4Q432.1 38.5 431.6 37.4L431.6 37.4Q431.2 36.7 430.8 35.9L430.8 35.9Q430.9 36.6 430.9 37.4L430.9 37.4Q431.0 38.6 431.0 39.6Q431.1 40.7 431.1 41.3L431.1 41.3L431.1 50ZM453.1 50L448.8 50L455.3 31.1L460.4 31.1L467.0 50L462.7 50L461.2 45.6L454.5 45.6L453.1 50ZM455.5 42.6L460.2 42.6L459.7 40.9Q459.1 39.1 458.6 37L458.6 37Q458.2 35.6 457.8 34.1L457.8 34.1Q457.4 35.7 457.1 37.0L457.1 37.0Q456.5 39.1 456.0 40.9L456.0 40.9L455.5 42.6ZM484.4 50L472.3 50L472.3 31.1L476.2 31.1L476.2 46.8L484.4 46.8L484.4 50ZM499.8 50L496.0 50L496.0 42.9L488.9 31.1L493.5 31.1L496.7 37.0Q497.2 37.9 497.6 38.7L497.6 38.7Q497.7 39.1 497.9 39.6L497.9 39.6Q498.1 39.1 498.2 38.7L498.2 38.7Q498.6 37.9 499.1 37.0L499.1 37.0L502.2 31.1L506.7 31.1L499.8 42.9L499.8 50ZM517.1 34.3L511.3 34.3L511.3 31.1L526.7 31.1L526.7 34.3L521.0 34.3L521.0 50L517.1 50L517.1 34.3ZM532.4 31.1L536.3 31.1L536.3 50L532.4 50L532.4 31.1ZM551.0 50.3L551.0 50.3Q548.4 50.3 546.5 49.1Q544.5 48.0 543.3 45.8Q542.2 43.6 542.2 40.6L542.2 40.6Q542.2 37.5 543.3 35.3Q544.5 33.1 546.5 32.0Q548.5 30.8 551.0 30.8L551.0 30.8Q552.6 30.8 554.0 31.3Q555.4 31.7 556.4 32.6Q557.5 33.5 558.2 34.7Q558.9 36.0 559.1 37.6L559.1 37.6L555.2 37.6Q555.0 36.8 554.7 36.2Q554.3 35.6 553.8 35.1Q553.2 34.7 552.5 34.5Q551.8 34.3 551.0 34.3L551.0 34.3Q549.6 34.3 548.5 35.0Q547.3 35.7 546.7 37.1Q546.1 38.5 546.1 40.6L546.1 40.6Q546.1 42.6 546.7 44.0Q547.4 45.4 548.5 46.1Q549.6 46.8 551.0 46.8L551.0 46.8Q551.8 46.8 552.5 46.6Q553.2 46.4 553.8 45.9Q554.3 45.5 554.7 44.9Q555.0 44.3 555.2 43.5L555.2 43.5L559.1 43.5Q559.0 44.8 558.3 46.1Q557.7 47.3 556.7 48.2Q555.6 49.2 554.2 49.7Q552.7 50.3 551.0 50.3ZM571.9 50.3L571.9 50.3Q569.6 50.3 567.9 49.6Q566.2 48.9 565.3 47.5Q564.3 46.1 564.3 44.1L564.3 44.1L568.1 44.1Q568.1 45.1 568.6 45.7Q569.1 46.4 570.0 46.7Q570.8 47.0 571.8 47.0L571.8 47.0Q572.9 47.0 573.6 46.7Q574.4 46.4 574.8 45.9Q575.3 45.3 575.3 44.6L575.3 44.6Q575.3 43.9 574.9 43.5Q574.5 43.1 573.8 42.8Q573.0 42.4 572.0 42.2L572.0 42.2L569.9 41.7Q567.5 41.1 566.2 39.8Q564.8 38.6 564.8 36.5L564.8 36.5Q564.8 34.8 565.7 33.5Q566.6 32.3 568.2 31.5Q569.9 30.8 571.9 30.8L571.9 30.8Q574.0 30.8 575.6 31.5Q577.1 32.3 578.0 33.5Q578.9 34.8 578.9 36.5L578.9 36.5L575.2 36.5Q575.1 35.3 574.2 34.7Q573.3 34.1 571.9 34.1L571.9 34.1Q570.9 34.1 570.2 34.4Q569.5 34.7 569.1 35.1Q568.8 35.6 568.8 36.3L568.8 36.3Q568.8 37.0 569.2 37.4Q569.6 37.9 570.3 38.2Q571.0 38.5 571.8 38.7L571.8 38.7L573.5 39.1Q574.7 39.3 575.7 39.8Q576.8 40.3 577.5 40.9Q578.3 41.6 578.7 42.5Q579.2 43.4 579.2 44.6L579.2 44.6Q579.2 46.3 578.3 47.6Q577.4 48.9 575.8 49.6Q574.2 50.3 571.9 50.3Z "/></g></svg>