<!-- Generated by readme-aura https://github.com/collectioneur/readme-aura -->
<svg width="100" height="44" viewBox="0 0 100 44" xmlns="http://www.w3.org/2000/svg"><mask id="satori_om-id"><rect x="0" y="0" width="100" height="44" fill="#fff"/></mask><path x="0" y="0" width="100" height="44" fill="#2a2e33" d="M22,0 h56 a22,22 0 0 1 22,22 v0 a22,22 0 0 1 -22,22 h-56 a22,22 0 0 1 -22,-22 v0 a22,22 0 0 1 22,-22"/><clipPath id="satori_cp-id-0"><rect x="0" y="0" width="100" height="44"/></clipPath><mask id="satori_om-id-0"><rect x="0" y="0" width="100" height="44" fill="#fff"/></mask><svg x="0" y="0" width="100" height="44" preserveAspectRatio="none" clip-path="url(#satori_cp-id-0)" mask="url(#satori_om-id-0)"><defs><linearGradient id="smb-grad-C" gradientUnits="objectBoundingBox" x1="0" y1="0" x2="1" y2="1"><stop offset="0%" stop-color="#ffffff"></stop><stop offset="15%" stop-color="#2a2e33"></stop><stop offset="30%" stop-color="#cccccc"></stop><stop offset="50%" stop-color="#A8B9CC"></stop><stop offset="65%" stop-color="#2a2e33"></stop><stop offset="80%" stop-color="#888888"></stop><stop offset="100%" stop-color="#444444"></stop><animateTransform attributeName="gradientTransform" type="rotate" from="0 0.5 0.5" to="360 0.5 0.5" dur="8s" repeatCount="indefinite"></animateTransform></linearGradient></defs><rect x="1.25" y="1.25" width="97.5" height="41.5" rx="20.75" ry="20.75" fill="none" stroke="url(#smb-grad-C)" stroke-width="2" stroke-linecap="round" stroke-linejoin="round"></rect><rect x="0.25" y="0.25" width="99.5" height="43.5" rx="21.75" ry="21.75" fill="none" stroke="#AAAAAA" stroke-width="0.5" stroke-linecap="round" stroke-linejoin="round"></rect></svg><mask id="satori_om-id-0-0"><rect x="0" y="0" width="0" height="44" fill="#fff"/></mask><mask id="satori_om-id-0-0-0"><rect x="0" y="0" width="0" height="44" fill="#fff"/></mask><mask id="satori_om-id-0-0-0-0"><rect x="0" y="0" width="0" height="44" fill="#fff"/></mask><mask id="satori_om-id-0-0-0-1"><rect x="0" y="0" width="0" height="44" fill="#fff"/></mask><mask id="satori_om-id-0-0-0-2"><rect x="0" y="0" width="0" height="44" fill="#fff"/></mask><mask id="satori_om-id-0-0-0-3"><rect x="0" y="0" width="0" height="44" fill="#fff"/></mask><mask id="satori_om-id-0-0-0-4"><rect x="0" y="0" width="0" height="44" fill="#fff"/></mask><mask id="satori_om-id-0-0-0-5"><rect x="0" y="0" width="0" height="44" fill="#fff"/></mask><mask id="satori_om-id-0-0-0-6"><rect x="0" y="0" width="0" height="44" fill="#fff"/></mask><mask id="satori_om-id-0-0-0-7"><rect x="0" y="0" width="0" height="44" fill="#fff"/></mask><mask id="satori_om-id-0-1"><rect x="0" y="0" width="0" height="44" fill="#fff"/></mask><mask id="satori_om-id-0-2"><rect x="0" y="0" width="0" height="44" fill="#fff"/></mask><mask id="satori_om-id-1"><rect x="0" y="0" width="100" height="44" fill="#fff"/></mask><mask id="satori_om-id-1-0"><rect x="32" y="11" width="22" height="22" fill="#fff"/></mask><mask id="satori_om-id-1-1"><rect x="59" y="14" width="10" height="16" fill="#fff"/></mask><g  ><path fill="#ffffff" d="M64.0 27.1L64.0 27.1Q62.7 27.1 61.7 26.6Q60.7 26.0 60.2 24.9Q59.6 23.8 59.6 22.3L59.6 22.3Q59.6 20.7 60.2 19.6Q60.8 18.6 61.7 18.0Q62.7 17.4 64.0 17.4L64.0 17.4Q64.8 17.4 65.5 17.6Q66.2 17.9 66.7 18.3Q67.3 18.7 67.6 19.4Q68.0 20.0 68.1 20.8L68.1 20.8L66.1 20.8Q66.0 20.4 65.9 20.1Q65.7 19.8 65.4 19.6Q65.1 19.4 64.8 19.2Q64.4 19.1 64.0 19.1L64.0 19.1Q63.3 19.1 62.7 19.5Q62.2 19.9 61.9 20.6Q61.6 21.3 61.6 22.3L61.6 22.3Q61.6 23.3 61.9 24.0Q62.2 24.7 62.7 25.1Q63.3 25.4 64.0 25.4L64.0 25.4Q64.4 25.4 64.8 25.3Q65.1 25.2 65.4 25.0Q65.7 24.8 65.9 24.5Q66.0 24.1 66.1 23.8L66.1 23.8L68.1 23.8Q68.0 24.4 67.7 25.0Q67.4 25.6 66.8 26.1Q66.3 26.6 65.6 26.9Q64.9 27.1 64.0 27.1Z "/></g></svg>