<!-- Generated by readme-aura https://github.com/collectioneur/readme-aura -->
<svg width="90" height="44" viewBox="0 0 90 44" xmlns="http://www.w3.org/2000/svg"><mask id="satori_om-id"><rect x="0" y="0" width="90" height="44" fill="#fff"/></mask><path x="0" y="0" width="90" height="44" fill="#000000" d="M22,0 h46 a22,22 0 0 1 22,22 v0 a22,22 0 0 1 -22,22 h-46 a22,22 0 0 1 -22,-22 v0 a22,22 0 0 1 22,-22"/><clipPath id="satori_cp-id-0"><rect x="0" y="0" width="90" height="44"/></clipPath><mask id="satori_om-id-0"><rect x="0" y="0" width="90" height="44" fill="#fff"/></mask><svg x="0" y="0" width="90" height="44" preserveAspectRatio="none" clip-path="url(#satori_cp-id-0)" mask="url(#satori_om-id-0)"><defs><linearGradient id="smb-grad-Git" gradientUnits="objectBoundingBox" x1="0" y1="0" x2="1" y2="1"><stop offset="0%" stop-color="#d855f7"></stop><stop offset="30%" stop-color="#000000"></stop><stop offset="60%" stop-color="#b557e8"></stop><stop offset="80%" stop-color="#000000"></stop><stop offset="100%" stop-color="#cc6ef9"></stop><animateTransform attributeName="gradientTransform" type="rotate" from="0 0.5 0.5" to="360 0.5 0.5" dur="8s" repeatCount="indefinite"></animateTransform></linearGradient></defs><rect x="1.25" y="1.25" width="87.5" height="41.5" rx="20.75" ry="20.75" fill="none" stroke="url(#smb-grad-Git)" stroke-width="2" stroke-linecap="round" stroke-linejoin="round"></rect><rect x="0.25" y="0.25" width="89.5" height="43.5" rx="21.75" ry="21.75" fill="none" stroke="#AAAAAA" stroke-width="0.5" stroke-linecap="round" stroke-linejoin="round"></rect></svg><mask id="satori_om-id-0-0"><rect x="0" y="0" width="0" height="44" fill="#fff"/></mask><mask id="satori_om-id-0-0-0"><rect x="0" y="0" width="0" height="44" fill="#fff"/></mask><mask id="satori_om-id-0-0-0-0"><rect x="0" y="0" width="0" height="44" fill="#fff"/></mask><mask id="satori_om-id-0-0-0-1"><rect x="0" y="0" width="0" height="44" fill="#fff"/></mask><mask id="satori_om-id-0-0-0-2"><rect x="0" y="0" width="0" height="44" fill="#fff"/></mask><mask id="satori_om-id-0-0-0-3"><rect x="0" y="0" width="0" height="44" fill="#fff"/></mask><mask id="satori_om-id-0-0-0-4"><rect x="0" y="0" width="0" height="44" fill="#fff"/></mask><mask id="satori_om-id-0-0-0-5"><rect x="0" y="0" width="0" height="44" fill="#fff"/></mask><mask id="satori_om-id-0-1"><rect x="0" y="0" width="0" height="44" fill="#fff"/></mask><mask id="satori_om-id-0-2"><rect x="0" y="0" width="0" height="44" fill="#fff"/></mask><mask id="satori_om-id-1"><rect x="0" y="0" width="90" height="44" fill="#fff"/></mask><mask id="satori_om-id-1-0"><rect x="25" y="13" width="18" height="18" fill="#fff"/></mask><mask id="satori_om-id-1-1"><rect x="48" y="14" width="18" height="16" fill="#fff"/></mask><g  ><path fill="#f5f5f5" d="M53.0 27.1L53.0 27.1Q51.7 27.1 50.7 26.5Q49.7 26.0 49.2 24.9Q48.6 23.8 48.6 22.3L48.6 22.3Q48.6 20.7 49.2 19.7Q49.8 18.6 50.8 18.0Q51.8 17.4 53.0 17.4L53.0 17.4Q53.8 17.4 54.5 17.6Q55.2 17.9 55.7 18.3Q56.3 18.7 56.6 19.3Q56.9 19.9 57.0 20.6L57.0 20.6L55.1 20.6Q55.0 20.3 54.8 20.0Q54.6 19.7 54.3 19.5Q54.1 19.3 53.8 19.2Q53.4 19.1 53.0 19.1L53.0 19.1Q52.3 19.1 51.7 19.5Q51.2 19.9 50.9 20.6Q50.6 21.3 50.6 22.3Q50.6 23.3 50.9 24.0Q51.2 24.7 51.7 25.0Q52.3 25.4 53.1 25.4L53.1 25.4Q53.7 25.4 54.2 25.2Q54.7 24.9 55.0 24.4L55.0 24.4Q55.2 24.0 55.2 23.4L55.2 23.4L53.2 23.4L53.2 22.0L57.1 22.0L57.1 23.1Q57.1 24.4 56.6 25.3Q56.1 26.2 55.2 26.6Q54.2 27.1 53.0 27.1ZM60.3 27L58.4 27L58.4 19.9L60.3 19.9L60.3 27ZM59.3 19.0L59.3 19.0Q58.9 19.0 58.6 18.7Q58.3 18.4 58.3 18.0L58.3 18.0Q58.3 17.6 58.6 17.3Q58.9 17.0 59.3 17.0L59.3 17.0Q59.8 17.0 60.1 17.3Q60.4 17.6 60.4 18.0L60.4 18.0Q60.4 18.4 60.1 18.7Q59.8 19.0 59.3 19.0ZM63.9 19.9L65.2 19.9L65.2 21.4L63.9 21.4L63.9 24.9Q63.9 25.3 64.0 25.4Q64.2 25.6 64.5 25.6L64.5 25.6Q64.6 25.6 64.8 25.6Q65.0 25.5 65.1 25.5L65.1 25.5L65.4 26.9Q65.1 27.0 64.8 27.1Q64.5 27.1 64.2 27.1L64.2 27.1Q63.1 27.1 62.5 26.6Q62.0 26.1 62.0 25.1L62.0 25.1L62.0 21.4L61.0 21.4L61.0 19.9L62.0 19.9L62.0 18.2L63.9 18.2L63.9 19.9Z "/></g></svg>