<!-- Generated by readme-aura https://github.com/collectioneur/readme-aura -->
<svg width="130" height="44" viewBox="0 0 130 44" xmlns="http://www.w3.org/2000/svg"><mask id="satori_om-id"><rect x="0" y="0" width="130" height="44" fill="#fff"/></mask><path x="0" y="0" width="130" height="44" fill="#40001a" d="M22,0 h86 a22,22 0 0 1 22,22 v0 a22,22 0 0 1 -22,22 h-86 a22,22 0 0 1 -22,-22 v0 a22,22 0 0 1 22,-22"/><clipPath id="satori_cp-id-0"><rect x="0" y="0" width="130" height="44"/></clipPath><mask id="satori_om-id-0"><rect x="0" y="0" width="130" height="44" fill="#fff"/></mask><svg x="0" y="0" width="130" height="44" preserveAspectRatio="none" clip-path="url(#satori_cp-id-0)" mask="url(#satori_om-id-0)"><defs><linearGradient id="smb-grad-Instagram" gradientUnits="objectBoundingBox" x1="0" y1="0" x2="1" y2="1"><stop offset="0%" stop-color="#ffffff"></stop><stop offset="15%" stop-color="#40001a"></stop><stop offset="30%" stop-color="#cccccc"></stop><stop offset="50%" stop-color="#FF0069"></stop><stop offset="65%" stop-color="#40001a"></stop><stop offset="80%" stop-color="#888888"></stop><stop offset="100%" stop-color="#444444"></stop><animateTransform attributeName="gradientTransform" type="rotate" from="0 0.5 0.5" to="360 0.5 0.5" dur="8s" repeatCount="indefinite"></animateTransform></linearGradient></defs><rect x="1.25" y="1.25" width="127.5" height="41.5" rx="20.75" ry="20.75" fill="none" stroke="url(#smb-grad-Instagram)" stroke-width="2" stroke-linecap="round" stroke-linejoin="round"></rect><rect x="0.25" y="0.25" width="129.5" height="43.5" rx="21.75" ry="21.75" fill="none" stroke="#AAAAAA" stroke-width="0.5" stroke-linecap="round" stroke-linejoin="round"></rect></svg><mask id="satori_om-id-0-0"><rect x="0" y="0" width="0" height="44" fill="#fff"/></mask><mask id="satori_om-id-0-0-0"><rect x="0" y="0" width="0" height="44" fill="#fff"/></mask><mask id="satori_om-id-0-0-0-0"><rect x="0" y="0" width="0" height="44" fill="#fff"/></mask><mask id="satori_om-id-0-0-0-1"><rect x="0" y="0" width="0" height="44" fill="#fff"/></mask><mask id="satori_om-id-0-0-0-2"><rect x="0" y="0" width="0" height="44" fill="#fff"/></mask><mask id="satori_om-id-0-0-0-3"><rect x="0" y="0" width="0" height="44" fill="#fff"/></mask><mask id="satori_om-id-0-0-0-4"><rect x="0" y="0" width="0" height="44" fill="#fff"/></mask><mask id="satori_om-id-0-0-0-5"><rect x="0" y="0" width="0" height="44" fill="#fff"/></mask><mask id="satori_om-id-0-0-0-6"><rect x="0" y="0" width="0" height="44" fill="#fff"/></mask><mask id="satori_om-id-0-0-0-7"><rect x="0" y="0" width="0" height="44" fill="#fff"/></mask><mask id="satori_om-id-0-1"><rect x="0" y="0" width="0" height="44" fill="#fff"/></mask><mask id="satori_om-id-0-2"><rect x="0" y="0" width="0" height="44" fill="#fff"/></mask><mask id="satori_om-id-1"><rect x="0" y="0" width="130" height="44" fill="#fff"/></mask><mask id="satori_om-id-1-0"><rect x="20" y="11" width="22" height="22" fill="#fff"/></mask><mask id="satori_om-id-1-1"><rect x="47" y="14" width="63" height="16" fill="#fff"/></mask><g  ><path fill="#ffffff" d="M47.9 17.5L49.8 17.5L49.8 27L47.9 27L47.9 17.5ZM53.2 22.9L53.2 22.9L53.2 27L51.3 27L51.3 19.9L53.1 19.9L53.1 21.4Q53.4 20.7 53.8 20.3L53.8 20.3Q54.4 19.8 55.3 19.8L55.3 19.8Q56.0 19.8 56.6 20.1Q57.1 20.5 57.4 21.1Q57.7 21.7 57.7 22.5L57.7 22.5L57.7 27L55.8 27L55.8 22.8Q55.8 22.2 55.5 21.8Q55.1 21.4 54.5 21.4L54.5 21.4Q54.1 21.4 53.8 21.6Q53.5 21.8 53.3 22.1Q53.2 22.4 53.2 22.9ZM62.0 27.1L62.0 27.1Q61.1 27.1 60.5 26.9Q59.8 26.7 59.4 26.2Q59.0 25.7 58.8 25.1L58.8 25.1L60.6 24.8Q60.7 25.2 61.1 25.5Q61.4 25.7 62.0 25.7L62.0 25.7Q62.6 25.7 62.9 25.5Q63.2 25.3 63.2 25.0L63.2 25.0Q63.2 24.7 63.0 24.6Q62.8 24.4 62.3 24.3L62.3 24.3L61.1 24.0Q60.0 23.8 59.5 23.3Q59.0 22.8 59.0 22.0L59.0 22.0Q59.0 21.3 59.4 20.8Q59.8 20.3 60.4 20.1Q61.1 19.8 62.0 19.8L62.0 19.8Q62.8 19.8 63.5 20.0Q64.1 20.3 64.5 20.7Q64.8 21.1 65.0 21.7L65.0 21.7L63.3 22.0Q63.2 21.6 62.9 21.4Q62.6 21.2 62.0 21.2L62.0 21.2Q61.6 21.2 61.2 21.4Q60.9 21.6 60.9 21.9L60.9 21.9Q60.9 22.2 61.1 22.4Q61.3 22.5 61.8 22.6L61.8 22.6L63.1 22.9Q64.1 23.1 64.6 23.6Q65.1 24.0 65.1 24.8L65.1 24.8Q65.1 25.5 64.7 26.0Q64.3 26.6 63.6 26.8Q62.9 27.1 62.0 27.1ZM68.4 19.9L69.8 19.9L69.8 21.4L68.4 21.4L68.4 24.9Q68.4 25.3 68.6 25.4Q68.7 25.6 69.1 25.6L69.1 25.6Q69.2 25.6 69.4 25.6Q69.6 25.5 69.7 25.5L69.7 25.5L70.0 26.9Q69.6 27.0 69.3 27.1Q69.0 27.1 68.7 27.1L68.7 27.1Q67.7 27.1 67.1 26.6Q66.5 26.1 66.5 25.1L66.5 25.1L66.5 21.4L65.6 21.4L65.6 19.9L66.5 19.9L66.5 18.2L68.4 18.2L68.4 19.9ZM72.8 27.1L72.8 27.1Q72.1 27.1 71.6 26.9Q71.0 26.7 70.7 26.2Q70.4 25.7 70.4 25.0L70.4 25.0Q70.4 24.4 70.6 24.0Q70.9 23.6 71.2 23.4Q71.6 23.1 72.1 23.0Q72.6 22.9 73.1 22.8L73.1 22.8Q73.7 22.8 74.1 22.7Q74.5 22.7 74.6 22.5Q74.8 22.4 74.8 22.2L74.8 22.2L74.8 22.2Q74.8 21.9 74.7 21.7Q74.6 21.4 74.3 21.3Q74.1 21.2 73.7 21.2L73.7 21.2Q73.3 21.2 73.1 21.3Q72.8 21.4 72.6 21.6Q72.4 21.8 72.4 22.0L72.4 22.0L70.6 21.8Q70.8 21.1 71.2 20.7Q71.7 20.3 72.3 20.0Q72.9 19.8 73.7 19.8L73.7 19.8Q74.3 19.8 74.8 20.0Q75.4 20.1 75.8 20.4Q76.2 20.7 76.5 21.1Q76.7 21.6 76.7 22.2L76.7 22.2L76.7 27L74.9 27L74.9 26.0L74.9 26.0Q74.7 26.3 74.4 26.6Q74.1 26.8 73.7 27.0Q73.3 27.1 72.8 27.1ZM73.3 25.8L73.3 25.8Q73.8 25.8 74.1 25.6Q74.4 25.4 74.6 25.1Q74.8 24.8 74.8 24.5L74.8 24.5L74.8 23.7Q74.7 23.8 74.6 23.8Q74.4 23.9 74.2 23.9Q74.0 23.9 73.8 24.0Q73.6 24.0 73.4 24.0L73.4 24.0Q73.1 24.1 72.8 24.2Q72.5 24.3 72.4 24.5Q72.2 24.7 72.2 25.0L72.2 25.0Q72.2 25.2 72.4 25.4Q72.5 25.6 72.8 25.7Q73.0 25.8 73.3 25.8ZM81.3 29.8L81.3 29.8Q80.4 29.8 79.8 29.6Q79.1 29.4 78.7 29.0Q78.3 28.6 78.1 28.1L78.1 28.1L79.7 27.6Q79.8 27.8 80.0 28.0Q80.2 28.2 80.5 28.3Q80.8 28.4 81.3 28.4L81.3 28.4Q82.0 28.4 82.4 28.1Q82.8 27.8 82.8 27.1L82.8 27.1L82.8 25.7L82.7 25.7Q82.6 26.0 82.3 26.3Q82.1 26.6 81.7 26.7Q81.3 26.9 80.7 26.9L80.7 26.9Q79.9 26.9 79.3 26.5Q78.6 26.1 78.2 25.4Q77.8 24.6 77.8 23.4L77.8 23.4Q77.8 22.2 78.2 21.4Q78.6 20.6 79.3 20.2Q80.0 19.8 80.7 19.8L80.7 19.8Q81.3 19.8 81.7 20.0Q82.1 20.2 82.4 20.5Q82.7 20.8 82.8 21.1L82.8 21.1L82.9 21.1L82.9 19.9L84.7 19.9L84.7 26.9Q84.7 27.9 84.3 28.5Q83.9 29.2 83.1 29.5Q82.3 29.8 81.3 29.8ZM81.3 25.5L81.3 25.5Q81.8 25.5 82.2 25.2Q82.5 25.0 82.7 24.5Q82.9 24.1 82.9 23.4L82.9 23.4Q82.9 22.8 82.7 22.3Q82.5 21.9 82.2 21.6Q81.8 21.3 81.3 21.3L81.3 21.3Q80.8 21.3 80.5 21.6Q80.2 21.9 80.0 22.3Q79.8 22.8 79.8 23.4L79.8 23.4Q79.8 24.0 80.0 24.5Q80.2 25.0 80.5 25.2Q80.8 25.5 81.3 25.5ZM88.1 27L86.2 27L86.2 19.9L88.0 19.9L88.0 21.1L88.1 21.1Q88.3 20.5 88.7 20.1Q89.2 19.8 89.8 19.8L89.8 19.8Q89.9 19.8 90.1 19.8Q90.3 19.8 90.4 19.9L90.4 19.9L90.4 21.6Q90.3 21.5 90.0 21.5Q89.8 21.5 89.6 21.5L89.6 21.5Q89.1 21.5 88.8 21.7Q88.4 21.9 88.3 22.2Q88.1 22.5 88.1 23.0L88.1 23.0L88.1 27ZM93.2 27.1L93.2 27.1Q92.6 27.1 92.0 26.9Q91.5 26.7 91.2 26.2Q90.9 25.7 90.9 25.0L90.9 25.0Q90.9 24.4 91.1 24.0Q91.3 23.6 91.7 23.4Q92.1 23.1 92.5 23.0Q93.0 22.9 93.6 22.8L93.6 22.8Q94.2 22.8 94.5 22.7Q94.9 22.7 95.1 22.5Q95.3 22.4 95.3 22.2L95.3 22.2L95.3 22.2Q95.3 21.9 95.1 21.7Q95.0 21.4 94.8 21.3Q94.5 21.2 94.2 21.2L94.2 21.2Q93.8 21.2 93.5 21.3Q93.2 21.4 93.1 21.6Q92.9 21.8 92.8 22.0L92.8 22.0L91.1 21.8Q91.3 21.1 91.7 20.7Q92.1 20.3 92.7 20.0Q93.4 19.8 94.2 19.8L94.2 19.8Q94.7 19.8 95.3 20.0Q95.8 20.1 96.2 20.4Q96.7 20.7 96.9 21.1Q97.2 21.6 97.2 22.2L97.2 22.2L97.2 27L95.4 27L95.4 26.0L95.3 26.0Q95.1 26.3 94.9 26.6Q94.6 26.8 94.2 27.0Q93.8 27.1 93.2 27.1ZM93.8 25.8L93.8 25.8Q94.2 25.8 94.6 25.6Q94.9 25.4 95.1 25.1Q95.3 24.8 95.3 24.5L95.3 24.5L95.3 23.7Q95.2 23.8 95.0 23.8Q94.9 23.9 94.6 23.9Q94.4 23.9 94.2 24.0Q94.0 24.0 93.9 24.0L93.9 24.0Q93.5 24.1 93.3 24.2Q93.0 24.3 92.8 24.5Q92.7 24.7 92.7 25.0L92.7 25.0Q92.7 25.2 92.8 25.4Q93.0 25.6 93.2 25.7Q93.5 25.8 93.8 25.8ZM100.5 27L98.6 27L98.6 19.9L100.4 19.9L100.4 21.3Q100.6 20.9 100.8 20.6L100.8 20.6Q101.1 20.2 101.6 20.0Q102.0 19.8 102.5 19.8L102.5 19.8Q103.2 19.8 103.7 20.3L103.7 20.3Q104.1 20.7 104.3 21.4L104.3 21.4Q104.4 21.0 104.7 20.7L104.7 20.7Q105.0 20.2 105.5 20.0Q106.0 19.8 106.6 19.8L106.6 19.8Q107.2 19.8 107.7 20.1Q108.2 20.4 108.5 20.9Q108.8 21.4 108.8 22.2L108.8 22.2L108.8 27L106.9 27L106.9 22.6Q106.9 22.0 106.6 21.7Q106.3 21.4 105.8 21.4L105.8 21.4Q105.4 21.4 105.2 21.5Q104.9 21.7 104.8 22.0Q104.6 22.3 104.6 22.6L104.6 22.6L104.6 27L102.8 27L102.8 22.5Q102.8 22.0 102.5 21.7Q102.2 21.4 101.7 21.4L101.7 21.4Q101.4 21.4 101.1 21.5Q100.8 21.7 100.7 22.0Q100.5 22.3 100.5 22.7L100.5 22.7L100.5 27Z "/></g></svg>