<!-- Generated by readme-aura https://github.com/collectioneur/readme-aura -->
<svg width="130" height="44" viewBox="0 0 130 44" xmlns="http://www.w3.org/2000/svg"><mask id="satori_om-id"><rect x="0" y="0" width="130" height="44" fill="#fff"/></mask><path x="0" y="0" width="130" height="44" fill="#0a152e" d="M22,0 h86 a22,22 0 0 1 22,22 v0 a22,22 0 0 1 -22,22 h-86 a22,22 0 0 1 -22,-22 v0 a22,22 0 0 1 22,-22"/><clipPath id="satori_cp-id-0"><rect x="0" y="0" width="130" height="44"/></clipPath><mask id="satori_om-id-0"><rect x="0" y="0" width="130" height="44" fill="#fff"/></mask><svg x="0" y="0" width="130" height="44" preserveAspectRatio="none" clip-path="url(#satori_cp-id-0)" mask="url(#satori_om-id-0)"><defs><linearGradient id="smb-grad-Kubernetes" gradientUnits="objectBoundingBox" x1="0" y1="0" x2="1" y2="1"><stop offset="0%" stop-color="#ffffff"></stop><stop offset="15%" stop-color="#0a152e"></stop><stop offset="30%" stop-color="#cccccc"></stop><stop offset="50%" stop-color="#326CE5"></stop><stop offset="65%" stop-color="#0a152e"></stop><stop offset="80%" stop-color="#888888"></stop><stop offset="100%" stop-color="#444444"></stop><animateTransform attributeName="gradientTransform" type="rotate" from="0 0.5 0.5" to="360 0.5 0.5" dur="8s" repeatCount="indefinite"></animateTransform></linearGradient></defs><rect x="1.25" y="1.25" width="127.5" height="41.5" rx="20.75" ry="20.75" fill="none" stroke="url(#smb-grad-Kubernetes)" stroke-width="2" stroke-linecap="round" stroke-linejoin="round"></rect><rect x="0.25" y="0.25" width="129.5" height="43.5" rx="21.75" ry="21.75" fill="none" stroke="#AAAAAA" stroke-width="0.5" stroke-linecap="round" stroke-linejoin="round"></rect></svg><mask id="satori_om-id-0-0"><rect x="0" y="0" width="0" height="44" fill="#fff"/></mask><mask id="satori_om-id-0-0-0"><rect x="0" y="0" width="0" height="44" fill="#fff"/></mask><mask id="satori_om-id-0-0-0-0"><rect x="0" y="0" width="0" height="44" fill="#fff"/></mask><mask id="satori_om-id-0-0-0-1"><rect x="0" y="0" width="0" height="44" fill="#fff"/></mask><mask id="satori_om-id-0-0-0-2"><rect x="0" y="0" width="0" height="44" fill="#fff"/></mask><mask id="satori_om-id-0-0-0-3"><rect x="0" y="0" width="0" height="44" fill="#fff"/></mask><mask id="satori_om-id-0-0-0-4"><rect x="0" y="0" width="0" height="44" fill="#fff"/></mask><mask id="satori_om-id-0-0-0-5"><rect x="0" y="0" width="0" height="44" fill="#fff"/></mask><mask id="satori_om-id-0-0-0-6"><rect x="0" y="0" width="0" height="44" fill="#fff"/></mask><mask id="satori_om-id-0-0-0-7"><rect x="0" y="0" width="0" height="44" fill="#fff"/></mask><mask id="satori_om-id-0-1"><rect x="0" y="0" width="0" height="44" fill="#fff"/></mask><mask id="satori_om-id-0-2"><rect x="0" y="0" width="0" height="44" fill="#fff"/></mask><mask id="satori_om-id-1"><rect x="0" y="0" width="130" height="44" fill="#fff"/></mask><mask id="satori_om-id-1-0"><rect x="15" y="11" width="22" height="22" fill="#fff"/></mask><mask id="satori_om-id-1-1"><rect x="42" y="14" width="73" height="16" fill="#fff"/></mask><g  ><path fill="#ffffff" d="M44.8 27L42.9 27L42.9 17.5L44.8 17.5L44.8 20.1L44.8 22.3Q44.8 22.2 44.9 22.1L44.9 22.1Q45.1 21.7 45.5 21.2Q45.8 20.8 46.2 20.3L46.2 20.3L48.6 17.5L50.9 17.5L47.4 21.6L51.0 27L48.7 27L46.0 22.9L44.8 24.3L44.8 27ZM54.4 27.1L54.4 27.1Q53.7 27.1 53.1 26.8Q52.6 26.4 52.3 25.8Q52.0 25.2 52.0 24.4L52.0 24.4L52.0 19.9L53.9 19.9L53.9 24.1Q53.9 24.7 54.2 25.1Q54.6 25.5 55.1 25.5L55.1 25.5Q55.6 25.5 55.9 25.3Q56.2 25.1 56.4 24.8Q56.5 24.5 56.5 24.0L56.5 24.0L56.5 19.9L58.4 19.9L58.4 27L56.6 27L56.6 25.5Q56.3 26.2 55.9 26.6L55.9 26.6Q55.3 27.1 54.4 27.1ZM63.8 27.1L63.8 27.1Q63.3 27.1 62.9 26.9Q62.5 26.7 62.2 26.4Q62.0 26.1 61.8 25.9L61.8 25.9L61.7 25.9L61.7 27L59.9 27L59.9 17.5L61.8 17.5L61.8 21.1L61.8 21.1Q62.0 20.8 62.2 20.5Q62.4 20.2 62.8 20.0Q63.2 19.8 63.8 19.8L63.8 19.8Q64.6 19.8 65.3 20.2Q65.9 20.6 66.3 21.4Q66.7 22.3 66.7 23.5L66.7 23.5Q66.7 24.6 66.3 25.5Q66.0 26.3 65.3 26.7Q64.6 27.1 63.8 27.1ZM63.2 25.6L63.2 25.6Q63.7 25.6 64.1 25.3Q64.4 25.0 64.6 24.6Q64.8 24.1 64.8 23.5L64.8 23.5Q64.8 22.8 64.6 22.4Q64.4 21.9 64.1 21.6Q63.7 21.3 63.2 21.3L63.2 21.3Q62.8 21.3 62.4 21.6Q62.1 21.9 61.9 22.3Q61.7 22.8 61.7 23.5L61.7 23.5Q61.7 24.1 61.9 24.6Q62.1 25.1 62.4 25.3Q62.8 25.6 63.2 25.6ZM71.1 27.1L71.1 27.1Q70.0 27.1 69.2 26.7Q68.4 26.3 68.0 25.4Q67.6 24.6 67.6 23.5L67.6 23.5Q67.6 22.4 68.0 21.6Q68.4 20.7 69.2 20.3Q69.9 19.8 71.0 19.8L71.0 19.8Q71.7 19.8 72.3 20.0Q72.9 20.3 73.3 20.7Q73.8 21.2 74.0 21.8Q74.3 22.5 74.3 23.4L74.3 23.4L74.3 23.9L69.4 23.9Q69.5 24.5 69.6 24.9L69.6 24.9Q69.9 25.3 70.2 25.5Q70.6 25.7 71.1 25.7L71.1 25.7Q71.4 25.7 71.7 25.6Q72.0 25.5 72.2 25.3Q72.4 25.1 72.5 24.9L72.5 24.9L74.2 25.2Q74.0 25.8 73.6 26.2Q73.2 26.7 72.5 26.9Q71.9 27.1 71.1 27.1ZM69.5 22.8L69.5 22.8L72.5 22.8Q72.4 22.4 72.3 22.1L72.3 22.1Q72.1 21.7 71.8 21.5Q71.5 21.2 71.0 21.2L71.0 21.2Q70.5 21.2 70.1 21.5Q69.8 21.7 69.6 22.1L69.6 22.1Q69.5 22.4 69.5 22.8ZM77.3 27L75.4 27L75.4 19.9L77.2 19.9L77.2 21.1L77.3 21.1Q77.5 20.5 78.0 20.1Q78.4 19.8 79.0 19.8L79.0 19.8Q79.2 19.8 79.3 19.8Q79.5 19.8 79.6 19.9L79.6 19.9L79.6 21.6Q79.5 21.5 79.3 21.5Q79.0 21.5 78.8 21.5L78.8 21.5Q78.4 21.5 78.0 21.7Q77.7 21.9 77.5 22.2Q77.3 22.5 77.3 23.0L77.3 23.0L77.3 27ZM82.4 22.9L82.4 22.9L82.4 27L80.5 27L80.5 19.9L82.3 19.9L82.3 21.4Q82.6 20.7 83.1 20.3L83.1 20.3Q83.6 19.8 84.5 19.8L84.5 19.8Q85.3 19.8 85.8 20.1Q86.4 20.5 86.7 21.1Q87.0 21.7 87.0 22.5L87.0 22.5L87.0 27L85.1 27L85.1 22.8Q85.1 22.2 84.7 21.8Q84.4 21.4 83.8 21.4L83.8 21.4Q83.4 21.4 83.1 21.6Q82.7 21.8 82.6 22.1Q82.4 22.4 82.4 22.9ZM91.6 27.1L91.6 27.1Q90.5 27.1 89.7 26.7Q88.9 26.3 88.5 25.4Q88.1 24.6 88.1 23.5L88.1 23.5Q88.1 22.4 88.5 21.6Q88.9 20.7 89.7 20.3Q90.5 19.8 91.5 19.8L91.5 19.8Q92.2 19.8 92.8 20.0Q93.4 20.3 93.9 20.7Q94.3 21.2 94.6 21.8Q94.8 22.5 94.8 23.4L94.8 23.4L94.8 23.9L90.0 23.9Q90.0 24.5 90.2 24.9L90.2 24.9Q90.4 25.3 90.8 25.5Q91.1 25.7 91.6 25.7L91.6 25.7Q92.0 25.7 92.2 25.6Q92.5 25.5 92.7 25.3Q92.9 25.1 93.0 24.9L93.0 24.9L94.7 25.2Q94.5 25.8 94.1 26.2Q93.7 26.7 93.1 26.9Q92.4 27.1 91.6 27.1ZM90.0 22.8L90.0 22.8L93.0 22.8Q93.0 22.4 92.8 22.1L92.8 22.1Q92.7 21.7 92.3 21.5Q92.0 21.2 91.5 21.2L91.5 21.2Q91.0 21.2 90.7 21.5Q90.3 21.7 90.1 22.1L90.1 22.1Q90.0 22.4 90.0 22.8ZM98.1 19.9L99.4 19.9L99.4 21.4L98.1 21.4L98.1 24.9Q98.1 25.3 98.3 25.4Q98.4 25.6 98.8 25.6L98.8 25.6Q98.9 25.6 99.1 25.6Q99.3 25.5 99.4 25.5L99.4 25.5L99.6 26.9Q99.3 27.0 99.0 27.1Q98.7 27.1 98.4 27.1L98.4 27.1Q97.3 27.1 96.8 26.6Q96.2 26.1 96.2 25.1L96.2 25.1L96.2 21.4L95.2 21.4L95.2 19.9L96.2 19.9L96.2 18.2L98.1 18.2L98.1 19.9ZM103.7 27.1L103.7 27.1Q102.6 27.1 101.8 26.7Q101.0 26.3 100.6 25.4Q100.2 24.6 100.2 23.5L100.2 23.5Q100.2 22.4 100.6 21.6Q101.0 20.7 101.8 20.3Q102.6 19.8 103.6 19.8L103.6 19.8Q104.3 19.8 104.9 20.0Q105.5 20.3 106.0 20.7Q106.4 21.2 106.7 21.8Q106.9 22.5 106.9 23.4L106.9 23.4L106.9 23.9L102.1 23.9Q102.1 24.5 102.3 24.9L102.3 24.9Q102.5 25.3 102.9 25.5Q103.2 25.7 103.7 25.7L103.7 25.7Q104.1 25.7 104.3 25.6Q104.6 25.5 104.8 25.3Q105.0 25.1 105.1 24.9L105.1 24.9L106.8 25.2Q106.7 25.8 106.2 26.2Q105.8 26.7 105.2 26.9Q104.5 27.1 103.7 27.1ZM102.1 22.8L102.1 22.8L105.1 22.8Q105.1 22.4 104.9 22.1L104.9 22.1Q104.8 21.7 104.4 21.5Q104.1 21.2 103.6 21.2L103.6 21.2Q103.1 21.2 102.8 21.5Q102.4 21.7 102.3 22.1L102.3 22.1Q102.1 22.4 102.1 22.8ZM110.8 27.1L110.8 27.1Q110.0 27.1 109.3 26.9Q108.7 26.7 108.3 26.2Q107.8 25.7 107.7 25.1L107.7 25.1L109.5 24.8Q109.6 25.2 110.0 25.5Q110.3 25.7 110.9 25.7L110.9 25.7Q111.5 25.7 111.8 25.5Q112.1 25.3 112.1 25.0L112.1 25.0Q112.1 24.7 111.9 24.6Q111.6 24.4 111.2 24.3L111.2 24.3L109.9 24.0Q108.9 23.8 108.4 23.3Q107.9 22.8 107.9 22.0L107.9 22.0Q107.9 21.3 108.3 20.8Q108.6 20.3 109.3 20.1Q110.0 19.8 110.9 19.8L110.9 19.8Q111.7 19.8 112.3 20.0Q113.0 20.3 113.3 20.7Q113.7 21.1 113.8 21.7L113.8 21.7L112.2 22.0Q112.0 21.6 111.7 21.4Q111.4 21.2 110.9 21.2L110.9 21.2Q110.4 21.2 110.1 21.4Q109.8 21.6 109.8 21.9L109.8 21.9Q109.8 22.2 110.0 22.4Q110.2 22.5 110.7 22.6L110.7 22.6L112.0 22.9Q113.0 23.1 113.5 23.6Q114.0 24.0 114.0 24.8L114.0 24.8Q114.0 25.5 113.6 26.0Q113.2 26.6 112.5 26.8Q111.8 27.1 110.8 27.1Z "/></g></svg>