<!-- Generated by readme-aura https://github.com/collectioneur/readme-aura -->
<svg width="100" height="44" viewBox="0 0 100 44" xmlns="http://www.w3.org/2000/svg"><mask id="satori_om-id"><rect x="0" y="0" width="100" height="44" fill="#fff"/></mask><path x="0" y="0" width="100" height="44" fill="#0f2b31" d="M22,0 h56 a22,22 0 0 1 22,22 v0 a22,22 0 0 1 -22,22 h-56 a22,22 0 0 1 -22,-22 v0 a22,22 0 0 1 22,-22"/><clipPath id="satori_cp-id-0"><rect x="0" y="0" width="100" height="44"/></clipPath><mask id="satori_om-id-0"><rect x="0" y="0" width="100" height="44" fill="#fff"/></mask><svg x="0" y="0" width="100" height="44" preserveAspectRatio="none" clip-path="url(#satori_cp-id-0)" mask="url(#satori_om-id-0)"><defs><linearGradient id="smb-grad-Flask" gradientUnits="objectBoundingBox" x1="0" y1="0" x2="1" y2="1"><stop offset="0%" stop-color="#ffffff"></stop><stop offset="15%" stop-color="#0f2b31"></stop><stop offset="30%" stop-color="#cccccc"></stop><stop offset="50%" stop-color="#3BABC3"></stop><stop offset="65%" stop-color="#0f2b31"></stop><stop offset="80%" stop-color="#888888"></stop><stop offset="100%" stop-color="#444444"></stop><animateTransform attributeName="gradientTransform" type="rotate" from="0 0.5 0.5" to="360 0.5 0.5" dur="8s" repeatCount="indefinite"></animateTransform></linearGradient></defs><rect x="1.25" y="1.25" width="97.5" height="41.5" rx="20.75" ry="20.75" fill="none" stroke="url(#smb-grad-Flask)" stroke-width="2" stroke-linecap="round" stroke-linejoin="round"></rect><rect x="0.25" y="0.25" width="99.5" height="43.5" rx="21.75" ry="21.75" fill="none" stroke="#AAAAAA" stroke-width="0.5" stroke-linecap="round" stroke-linejoin="round"></rect></svg><mask id="satori_om-id-0-0"><rect x="0" y="0" width="0" height="44" fill="#fff"/></mask><mask id="satori_om-id-0-0-0"><rect x="0" y="0" width="0" height="44" fill="#fff"/></mask><mask id="satori_om-id-0-0-0-0"><rect x="0" y="0" width="0" height="44" fill="#fff"/></mask><mask id="satori_om-id-0-0-0-1"><rect x="0" y="0" width="0" height="44" fill="#fff"/></mask><mask id="satori_om-id-0-0-0-2"><rect x="0" y="0" width="0" height="44" fill="#fff"/></mask><mask id="satori_om-id-0-0-0-3"><rect x="0" y="0" width="0" height="44" fill="#fff"/></mask><mask id="satori_om-id-0-0-0-4"><rect x="0" y="0" width="0" height="44" fill="#fff"/></mask><mask id="satori_om-id-0-0-0-5"><rect x="0" y="0" width="0" height="44" fill="#fff"/></mask><mask id="satori_om-id-0-0-0-6"><rect x="0" y="0" width="0" height="44" fill="#fff"/></mask><mask id="satori_om-id-0-0-0-7"><rect x="0" y="0" width="0" height="44" fill="#fff"/></mask><mask id="satori_om-id-0-1"><rect x="0" y="0" width="0" height="44" fill="#fff"/></mask><mask id="satori_om-id-0-2"><rect x="0" y="0" width="0" height="44" fill="#fff"/></mask><mask id="satori_om-id-1"><rect x="0" y="0" width="100" height="44" fill="#fff"/></mask><mask id="satori_om-id-1-0"><rect x="20" y="11" width="22" height="22" fill="#fff"/></mask><mask id="satori_om-id-1-1"><rect x="47" y="14" width="33" height="16" fill="#fff"/></mask><g  ><path fill="#ffffff" d="M49.8 27L47.9 27L47.9 17.5L54.1 17.5L54.1 19.1L49.8 19.1L49.8 21.8L53.7 21.8L53.7 23.4L49.8 23.4L49.8 27ZM55.2 17.5L57.1 17.5L57.1 27L55.2 27L55.2 17.5ZM60.5 27.1L60.5 27.1Q59.9 27.1 59.3 26.9Q58.8 26.7 58.5 26.2Q58.2 25.7 58.2 25.0L58.2 25.0Q58.2 24.4 58.4 24.0Q58.6 23.6 59.0 23.4Q59.4 23.1 59.9 23.0Q60.3 22.9 60.9 22.8L60.9 22.8Q61.5 22.8 61.9 22.7Q62.2 22.7 62.4 22.5Q62.6 22.4 62.6 22.2L62.6 22.2L62.6 22.2Q62.6 21.9 62.5 21.7Q62.3 21.4 62.1 21.3Q61.8 21.2 61.5 21.2L61.5 21.2Q61.1 21.2 60.8 21.3Q60.6 21.4 60.4 21.6Q60.2 21.8 60.1 22.0L60.1 22.0L58.4 21.8Q58.6 21.1 59.0 20.7Q59.4 20.3 60.1 20.0Q60.7 19.8 61.5 19.8L61.5 19.8Q62.1 19.8 62.6 20.0Q63.1 20.1 63.6 20.4Q64.0 20.7 64.2 21.1Q64.5 21.6 64.5 22.2L64.5 22.2L64.5 27L62.7 27L62.7 26.0L62.6 26.0Q62.5 26.3 62.2 26.6Q61.9 26.8 61.5 27.0Q61.1 27.1 60.5 27.1ZM61.1 25.8L61.1 25.8Q61.5 25.8 61.9 25.6Q62.2 25.4 62.4 25.1Q62.6 24.8 62.6 24.5L62.6 24.5L62.6 23.7Q62.5 23.8 62.3 23.8Q62.2 23.9 62.0 23.9Q61.8 23.9 61.5 24.0Q61.3 24.0 61.2 24.0L61.2 24.0Q60.8 24.1 60.6 24.2Q60.3 24.3 60.2 24.5Q60.0 24.7 60.0 25.0L60.0 25.0Q60.0 25.2 60.2 25.4Q60.3 25.6 60.5 25.7Q60.8 25.8 61.1 25.8ZM68.7 27.1L68.7 27.1Q67.9 27.1 67.2 26.9Q66.6 26.7 66.1 26.2Q65.7 25.7 65.6 25.1L65.6 25.1L67.4 24.8Q67.5 25.2 67.9 25.5Q68.2 25.7 68.8 25.7L68.8 25.7Q69.3 25.7 69.6 25.5Q70.0 25.3 70.0 25.0L70.0 25.0Q70.0 24.7 69.7 24.6Q69.5 24.4 69.0 24.3L69.0 24.3L67.8 24.0Q66.8 23.8 66.3 23.3Q65.8 22.8 65.8 22.0L65.8 22.0Q65.8 21.3 66.2 20.8Q66.5 20.3 67.2 20.1Q67.9 19.8 68.8 19.8L68.8 19.8Q69.6 19.8 70.2 20.0Q70.8 20.3 71.2 20.7Q71.6 21.1 71.7 21.7L71.7 21.7L70.0 22.0Q69.9 21.6 69.6 21.4Q69.3 21.2 68.8 21.2L68.8 21.2Q68.3 21.2 68.0 21.4Q67.7 21.6 67.7 21.9L67.7 21.9Q67.7 22.2 67.9 22.4Q68.1 22.5 68.6 22.6L68.6 22.6L69.9 22.9Q70.9 23.1 71.4 23.6Q71.9 24.0 71.9 24.8L71.9 24.8Q71.9 25.5 71.5 26.0Q71.1 26.6 70.4 26.8Q69.7 27.1 68.7 27.1ZM74.9 27L73.0 27L73.0 17.5L74.9 17.5L74.9 22.6L75.0 22.6L77.3 19.9L79.5 19.9L76.9 23.0L79.7 27L77.4 27L75.4 24.1L74.9 24.7L74.9 27Z "/></g></svg>