<!-- Generated by readme-aura https://github.com/collectioneur/readme-aura -->
<svg width="100" height="44" viewBox="0 0 100 44" xmlns="http://www.w3.org/2000/svg"><mask id="satori_om-id"><rect x="0" y="0" width="100" height="44" fill="#fff"/></mask><path x="0" y="0" width="100" height="44" fill="#000000" d="M22,0 h56 a22,22 0 0 1 22,22 v0 a22,22 0 0 1 -22,22 h-56 a22,22 0 0 1 -22,-22 v0 a22,22 0 0 1 22,-22"/><clipPath id="satori_cp-id-0"><rect x="0" y="0" width="100" height="44"/></clipPath><mask id="satori_om-id-0"><rect x="0" y="0" width="100" height="44" fill="#fff"/></mask><svg x="0" y="0" width="100" height="44" preserveAspectRatio="none" clip-path="url(#satori_cp-id-0)" mask="url(#satori_om-id-0)"><defs><linearGradient id="smb-grad-MySQL" gradientUnits="objectBoundingBox" x1="0" y1="0" x2="1" y2="1"><stop offset="0%" stop-color="#818cf8"></stop><stop offset="30%" stop-color="#000000"></stop><stop offset="60%" stop-color="#9298f8"></stop><stop offset="80%" stop-color="#000000"></stop><stop offset="100%" stop-color="#7479f5"></stop><animateTransform attributeName="gradientTransform" type="rotate" from="0 0.5 0.5" to="360 0.5 0.5" dur="8s" repeatCount="indefinite"></animateTransform></linearGradient></defs><rect x="1.25" y="1.25" width="97.5" height="41.5" rx="20.75" ry="20.75" fill="none" stroke="url(#smb-grad-MySQL)" stroke-width="2" stroke-linecap="round" stroke-linejoin="round"></rect><rect x="0.25" y="0.25" width="99.5" height="43.5" rx="21.75" ry="21.75" fill="none" stroke="#AAAAAA" stroke-width="0.5" stroke-linecap="round" stroke-linejoin="round"></rect></svg><mask id="satori_om-id-0-0"><rect x="0" y="0" width="0" height="44" fill="#fff"/></mask><mask id="satori_om-id-0-0-0"><rect x="0" y="0" width="0" height="44" fill="#fff"/></mask><mask id="satori_om-id-0-0-0-0"><rect x="0" y="0" width="0" height="44" fill="#fff"/></mask><mask id="satori_om-id-0-0-0-1"><rect x="0" y="0" width="0" height="44" fill="#fff"/></mask><mask id="satori_om-id-0-0-0-2"><rect x="0" y="0" width="0" height="44" fill="#fff"/></mask><mask id="satori_om-id-0-0-0-3"><rect x="0" y="0" width="0" height="44" fill="#fff"/></mask><mask id="satori_om-id-0-0-0-4"><rect x="0" y="0" width="0" height="44" fill="#fff"/></mask><mask id="satori_om-id-0-0-0-5"><rect x="0" y="0" width="0" height="44" fill="#fff"/></mask><mask id="satori_om-id-0-1"><rect x="0" y="0" width="0" height="44" fill="#fff"/></mask><mask id="satori_om-id-0-2"><rect x="0" y="0" width="0" height="44" fill="#fff"/></mask><mask id="satori_om-id-1"><rect x="0" y="0" width="100" height="44" fill="#fff"/></mask><mask id="satori_om-id-1-0"><rect x="16" y="13" width="18" height="18" fill="#fff"/></mask><mask id="satori_om-id-1-1"><rect x="39" y="14" width="45" height="16" fill="#fff"/></mask><g  ><path fill="#f5f5f5" d="M41.8 27L39.9 27L39.9 17.5L42.8 17.5L44.4 21.9Q44.5 22.2 44.6 22.7Q44.7 23.2 44.8 23.7L44.8 23.7Q45.0 24.3 45.1 24.8L45.1 24.8Q45.2 24.3 45.3 23.7L45.3 23.7Q45.4 23.2 45.5 22.7Q45.7 22.2 45.8 21.9L45.8 21.9L47.3 17.5L50.3 17.5L50.3 27L48.3 27L48.3 22.5Q48.3 22.2 48.3 21.8Q48.3 21.3 48.3 20.8Q48.4 20.2 48.4 19.7L48.4 19.7Q48.4 19.4 48.4 19.2L48.4 19.2Q48.3 19.5 48.2 19.8L48.2 19.8Q48.1 20.3 48.0 20.8Q47.8 21.4 47.7 21.8Q47.5 22.3 47.4 22.5L47.4 22.5L45.9 27L44.2 27L42.6 22.5Q42.6 22.3 42.4 21.8Q42.3 21.4 42.1 20.9Q42.0 20.3 41.8 19.8L41.8 19.8Q41.8 19.5 41.7 19.3L41.7 19.3Q41.7 19.5 41.7 19.7L41.7 19.7Q41.7 20.2 41.7 20.7Q41.8 21.3 41.8 21.8Q41.8 22.2 41.8 22.5L41.8 22.5L41.8 27ZM51.7 29.5L51.7 29.5L52.1 28.1L52.3 28.1Q52.7 28.2 53.0 28.2Q53.3 28.1 53.5 28.0Q53.7 27.8 53.7 27.4L53.7 27.4L53.8 27.0L51.1 19.9L53.1 19.9L54.3 23.6Q54.5 24.3 54.7 25.0L54.7 25.0Q54.7 25.2 54.8 25.5L54.8 25.5Q54.8 25.2 54.9 25.0L54.9 25.0Q55.1 24.3 55.3 23.6L55.3 23.6L56.5 19.9L58.5 19.9L55.5 27.8Q55.3 28.4 55.0 28.8Q54.6 29.2 54.1 29.5Q53.6 29.7 52.9 29.7L52.9 29.7Q52.5 29.7 52.2 29.7Q51.9 29.6 51.7 29.5ZM62.9 27.1L62.9 27.1Q61.7 27.1 60.9 26.8Q60.0 26.4 59.6 25.8Q59.1 25.1 59.1 24.1L59.1 24.1L61.0 24.1Q61.0 24.5 61.2 24.9Q61.5 25.2 61.9 25.3Q62.3 25.5 62.8 25.5L62.8 25.5Q63.4 25.5 63.7 25.4Q64.1 25.2 64.3 24.9Q64.6 24.7 64.6 24.3L64.6 24.3Q64.6 24.0 64.4 23.8Q64.2 23.5 63.8 23.4Q63.5 23.2 62.9 23.1L62.9 23.1L61.9 22.8Q60.7 22.5 60.0 21.9Q59.3 21.3 59.3 20.3L59.3 20.3Q59.3 19.4 59.8 18.8Q60.3 18.1 61.1 17.8Q61.9 17.4 62.9 17.4L62.9 17.4Q63.9 17.4 64.7 17.8Q65.5 18.1 65.9 18.8Q66.4 19.4 66.4 20.2L66.4 20.2L64.5 20.2Q64.5 19.7 64.0 19.4Q63.6 19.0 62.9 19.0L62.9 19.0Q62.4 19.0 62.0 19.2Q61.7 19.3 61.5 19.6Q61.3 19.8 61.3 20.1L61.3 20.1Q61.3 20.5 61.5 20.7Q61.7 21.0 62.1 21.1Q62.4 21.2 62.8 21.3L62.8 21.3L63.7 21.5Q64.3 21.7 64.8 21.9Q65.3 22.1 65.7 22.5Q66.1 22.8 66.3 23.3Q66.5 23.7 66.5 24.3L66.5 24.3Q66.5 25.2 66.1 25.8Q65.6 26.4 64.8 26.8Q64.0 27.1 62.9 27.1ZM71.9 27.1L71.9 27.1Q70.6 27.1 69.6 26.6Q68.6 26.0 68.0 24.9Q67.4 23.8 67.4 22.3L67.4 22.3Q67.4 20.7 68.0 19.6Q68.6 18.6 69.6 18.0Q70.6 17.4 71.9 17.4L71.9 17.4Q73.1 17.4 74.1 18.0Q75.1 18.6 75.7 19.6Q76.3 20.7 76.3 22.3L76.3 22.3Q76.3 23.8 75.7 24.9L75.7 24.9Q75.3 25.6 74.8 26.1L74.8 26.1L76.2 27.8L74.3 27.8L73.6 26.8Q72.8 27.1 71.9 27.1ZM72.5 25.3L71.3 23.8L72.9 23.8L73.6 24.6Q73.8 24.4 74.0 24.0L74.0 24.0Q74.3 23.3 74.3 22.3L74.3 22.3Q74.3 21.3 74.0 20.6Q73.7 19.9 73.1 19.5Q72.6 19.1 71.9 19.1L71.9 19.1Q71.1 19.1 70.6 19.5Q70.0 19.9 69.7 20.6Q69.4 21.3 69.4 22.3L69.4 22.3Q69.4 23.3 69.7 24.0Q70.0 24.7 70.6 25.0Q71.1 25.4 71.9 25.4L71.9 25.4Q72.2 25.4 72.5 25.3L72.5 25.3ZM83.6 27L77.6 27L77.6 17.5L79.5 17.5L79.5 25.4L83.6 25.4L83.6 27Z "/></g></svg>