<!-- Generated by readme-aura https://github.com/collectioneur/readme-aura -->
<svg width="100" height="44" viewBox="0 0 100 44" xmlns="http://www.w3.org/2000/svg"><mask id="satori_om-id"><rect x="0" y="0" width="100" height="44" fill="#fff"/></mask><path x="0" y="0" width="100" height="44" fill="#111e28" d="M22,0 h56 a22,22 0 0 1 22,22 v0 a22,22 0 0 1 -22,22 h-56 a22,22 0 0 1 -22,-22 v0 a22,22 0 0 1 22,-22"/><clipPath id="satori_cp-id-0"><rect x="0" y="0" width="100" height="44"/></clipPath><mask id="satori_om-id-0"><rect x="0" y="0" width="100" height="44" fill="#fff"/></mask><svg x="0" y="0" width="100" height="44" preserveAspectRatio="none" clip-path="url(#satori_cp-id-0)" mask="url(#satori_om-id-0)"><defs><linearGradient id="smb-grad-MySQL" gradientUnits="objectBoundingBox" x1="0" y1="0" x2="1" y2="1"><stop offset="0%" stop-color="#ffffff"></stop><stop offset="15%" stop-color="#111e28"></stop><stop offset="30%" stop-color="#cccccc"></stop><stop offset="50%" stop-color="#4479A1"></stop><stop offset="65%" stop-color="#111e28"></stop><stop offset="80%" stop-color="#888888"></stop><stop offset="100%" stop-color="#444444"></stop><animateTransform attributeName="gradientTransform" type="rotate" from="0 0.5 0.5" to="360 0.5 0.5" dur="8s" repeatCount="indefinite"></animateTransform></linearGradient></defs><rect x="1.25" y="1.25" width="97.5" height="41.5" rx="20.75" ry="20.75" fill="none" stroke="url(#smb-grad-MySQL)" stroke-width="2" stroke-linecap="round" stroke-linejoin="round"></rect><rect x="0.25" y="0.25" width="99.5" height="43.5" rx="21.75" ry="21.75" fill="none" stroke="#AAAAAA" stroke-width="0.5" stroke-linecap="round" stroke-linejoin="round"></rect></svg><mask id="satori_om-id-0-0"><rect x="0" y="0" width="0" height="44" fill="#fff"/></mask><mask id="satori_om-id-0-0-0"><rect x="0" y="0" width="0" height="44" fill="#fff"/></mask><mask id="satori_om-id-0-0-0-0"><rect x="0" y="0" width="0" height="44" fill="#fff"/></mask><mask id="satori_om-id-0-0-0-1"><rect x="0" y="0" width="0" height="44" fill="#fff"/></mask><mask id="satori_om-id-0-0-0-2"><rect x="0" y="0" width="0" height="44" fill="#fff"/></mask><mask id="satori_om-id-0-0-0-3"><rect x="0" y="0" width="0" height="44" fill="#fff"/></mask><mask id="satori_om-id-0-0-0-4"><rect x="0" y="0" width="0" height="44" fill="#fff"/></mask><mask id="satori_om-id-0-0-0-5"><rect x="0" y="0" width="0" height="44" fill="#fff"/></mask><mask id="satori_om-id-0-0-0-6"><rect x="0" y="0" width="0" height="44" fill="#fff"/></mask><mask id="satori_om-id-0-0-0-7"><rect x="0" y="0" width="0" height="44" fill="#fff"/></mask><mask id="satori_om-id-0-1"><rect x="0" y="0" width="0" height="44" fill="#fff"/></mask><mask id="satori_om-id-0-2"><rect x="0" y="0" width="0" height="44" fill="#fff"/></mask><mask id="satori_om-id-1"><rect x="0" y="0" width="100" height="44" fill="#fff"/></mask><mask id="satori_om-id-1-0"><rect x="14" y="11" width="22" height="22" fill="#fff"/></mask><mask id="satori_om-id-1-1"><rect x="41" y="14" width="45" height="16" fill="#fff"/></mask><g  ><path fill="#ffffff" d="M43.8 27L41.9 27L41.9 17.5L44.8 17.5L46.4 21.9Q46.5 22.2 46.6 22.7Q46.7 23.2 46.8 23.7L46.8 23.7Q47.0 24.3 47.1 24.8L47.1 24.8Q47.2 24.3 47.3 23.7L47.3 23.7Q47.4 23.2 47.5 22.7Q47.7 22.2 47.8 21.9L47.8 21.9L49.3 17.5L52.3 17.5L52.3 27L50.3 27L50.3 22.5Q50.3 22.2 50.3 21.8Q50.3 21.3 50.3 20.8Q50.4 20.2 50.4 19.7L50.4 19.7Q50.4 19.4 50.4 19.2L50.4 19.2Q50.3 19.5 50.2 19.8L50.2 19.8Q50.1 20.3 50.0 20.8Q49.8 21.4 49.7 21.8Q49.5 22.3 49.4 22.5L49.4 22.5L47.9 27L46.2 27L44.6 22.5Q44.6 22.3 44.4 21.8Q44.3 21.4 44.1 20.9Q44.0 20.3 43.8 19.8L43.8 19.8Q43.8 19.5 43.7 19.3L43.7 19.3Q43.7 19.5 43.7 19.7L43.7 19.7Q43.7 20.2 43.7 20.7Q43.8 21.3 43.8 21.8Q43.8 22.2 43.8 22.5L43.8 22.5L43.8 27ZM53.7 29.5L53.7 29.5L54.1 28.1L54.3 28.1Q54.7 28.2 55.0 28.2Q55.3 28.1 55.5 28.0Q55.7 27.8 55.7 27.4L55.7 27.4L55.8 27.0L53.1 19.9L55.1 19.9L56.3 23.6Q56.5 24.3 56.7 25.0L56.7 25.0Q56.7 25.2 56.8 25.5L56.8 25.5Q56.8 25.2 56.9 25.0L56.9 25.0Q57.1 24.3 57.3 23.6L57.3 23.6L58.5 19.9L60.5 19.9L57.5 27.8Q57.3 28.4 57.0 28.8Q56.6 29.2 56.1 29.5Q55.6 29.7 54.9 29.7L54.9 29.7Q54.5 29.7 54.2 29.7Q53.9 29.6 53.7 29.5ZM64.9 27.1L64.9 27.1Q63.7 27.1 62.9 26.8Q62.0 26.4 61.6 25.8Q61.1 25.1 61.1 24.1L61.1 24.1L63.0 24.1Q63.0 24.5 63.2 24.9Q63.5 25.2 63.9 25.3Q64.3 25.5 64.8 25.5L64.8 25.5Q65.4 25.5 65.7 25.4Q66.1 25.2 66.3 24.9Q66.6 24.7 66.6 24.3L66.6 24.3Q66.6 24.0 66.4 23.8Q66.2 23.5 65.8 23.4Q65.5 23.2 64.9 23.1L64.9 23.1L63.9 22.8Q62.7 22.5 62.0 21.9Q61.3 21.3 61.3 20.3L61.3 20.3Q61.3 19.4 61.8 18.8Q62.3 18.1 63.1 17.8Q63.9 17.4 64.9 17.4L64.9 17.4Q65.9 17.4 66.7 17.8Q67.5 18.1 67.9 18.8Q68.4 19.4 68.4 20.2L68.4 20.2L66.5 20.2Q66.5 19.7 66.0 19.4Q65.6 19.0 64.9 19.0L64.9 19.0Q64.4 19.0 64.0 19.2Q63.7 19.3 63.5 19.6Q63.3 19.8 63.3 20.1L63.3 20.1Q63.3 20.5 63.5 20.7Q63.7 21.0 64.1 21.1Q64.4 21.2 64.8 21.3L64.8 21.3L65.7 21.5Q66.3 21.7 66.8 21.9Q67.3 22.1 67.7 22.5Q68.1 22.8 68.3 23.3Q68.5 23.7 68.5 24.3L68.5 24.3Q68.5 25.2 68.1 25.8Q67.6 26.4 66.8 26.8Q66.0 27.1 64.9 27.1ZM73.9 27.1L73.9 27.1Q72.6 27.1 71.6 26.6Q70.6 26.0 70.0 24.9Q69.4 23.8 69.4 22.3L69.4 22.3Q69.4 20.7 70.0 19.6Q70.6 18.6 71.6 18.0Q72.6 17.4 73.9 17.4L73.9 17.4Q75.1 17.4 76.1 18.0Q77.1 18.6 77.7 19.6Q78.3 20.7 78.3 22.3L78.3 22.3Q78.3 23.8 77.7 24.9L77.7 24.9Q77.3 25.6 76.8 26.1L76.8 26.1L78.2 27.8L76.3 27.8L75.6 26.8Q74.8 27.1 73.9 27.1ZM74.5 25.3L73.3 23.8L74.9 23.8L75.6 24.6Q75.8 24.4 76.0 24.0L76.0 24.0Q76.3 23.3 76.3 22.3L76.3 22.3Q76.3 21.3 76.0 20.6Q75.7 19.9 75.1 19.5Q74.6 19.1 73.9 19.1L73.9 19.1Q73.1 19.1 72.6 19.5Q72.0 19.9 71.7 20.6Q71.4 21.3 71.4 22.3L71.4 22.3Q71.4 23.3 71.7 24.0Q72.0 24.7 72.6 25.0Q73.1 25.4 73.9 25.4L73.9 25.4Q74.2 25.4 74.5 25.3L74.5 25.3ZM85.6 27L79.6 27L79.6 17.5L81.5 17.5L81.5 25.4L85.6 25.4L85.6 27Z "/></g></svg>