<!-- Generated by readme-aura https://github.com/collectioneur/readme-aura -->
<svg width="120" height="44" viewBox="0 0 120 44" xmlns="http://www.w3.org/2000/svg"><mask id="satori_om-id"><rect x="0" y="0" width="120" height="44" fill="#fff"/></mask><path x="0" y="0" width="120" height="44" fill="#000000" d="M22,0 h76 a22,22 0 0 1 22,22 v0 a22,22 0 0 1 -22,22 h-76 a22,22 0 0 1 -22,-22 v0 a22,22 0 0 1 22,-22"/><clipPath id="satori_cp-id-0"><rect x="0" y="0" width="120" height="44"/></clipPath><mask id="satori_om-id-0"><rect x="0" y="0" width="120" height="44" fill="#fff"/></mask><svg x="0" y="0" width="120" height="44" preserveAspectRatio="none" clip-path="url(#satori_cp-id-0)" mask="url(#satori_om-id-0)"><defs><linearGradient id="smb-grad-Postgres" gradientUnits="objectBoundingBox" x1="0" y1="0" x2="1" y2="1"><stop offset="0%" stop-color="#818cf8"></stop><stop offset="30%" stop-color="#000000"></stop><stop offset="60%" stop-color="#9298f8"></stop><stop offset="80%" stop-color="#000000"></stop><stop offset="100%" stop-color="#7479f5"></stop><animateTransform attributeName="gradientTransform" type="rotate" from="0 0.5 0.5" to="360 0.5 0.5" dur="8s" repeatCount="indefinite"></animateTransform></linearGradient></defs><rect x="1.25" y="1.25" width="117.5" height="41.5" rx="20.75" ry="20.75" fill="none" stroke="url(#smb-grad-Postgres)" stroke-width="2" stroke-linecap="round" stroke-linejoin="round"></rect><rect x="0.25" y="0.25" width="119.5" height="43.5" rx="21.75" ry="21.75" fill="none" stroke="#AAAAAA" stroke-width="0.5" stroke-linecap="round" stroke-linejoin="round"></rect></svg><mask id="satori_om-id-0-0"><rect x="0" y="0" width="0" height="44" fill="#fff"/></mask><mask id="satori_om-id-0-0-0"><rect x="0" y="0" width="0" height="44" fill="#fff"/></mask><mask id="satori_om-id-0-0-0-0"><rect x="0" y="0" width="0" height="44" fill="#fff"/></mask><mask id="satori_om-id-0-0-0-1"><rect x="0" y="0" width="0" height="44" fill="#fff"/></mask><mask id="satori_om-id-0-0-0-2"><rect x="0" y="0" width="0" height="44" fill="#fff"/></mask><mask id="satori_om-id-0-0-0-3"><rect x="0" y="0" width="0" height="44" fill="#fff"/></mask><mask id="satori_om-id-0-0-0-4"><rect x="0" y="0" width="0" height="44" fill="#fff"/></mask><mask id="satori_om-id-0-0-0-5"><rect x="0" y="0" width="0" height="44" fill="#fff"/></mask><mask id="satori_om-id-0-1"><rect x="0" y="0" width="0" height="44" fill="#fff"/></mask><mask id="satori_om-id-0-2"><rect x="0" y="0" width="0" height="44" fill="#fff"/></mask><mask id="satori_om-id-1"><rect x="0" y="0" width="120" height="44" fill="#fff"/></mask><mask id="satori_om-id-1-0"><rect x="21" y="13" width="18" height="18" fill="#fff"/></mask><mask id="satori_om-id-1-1"><rect x="44" y="14" width="56" height="16" fill="#fff"/></mask><g  ><path fill="#f5f5f5" d="M46.8 27L44.9 27L44.9 17.5L48.5 17.5Q49.6 17.5 50.4 18.0Q51.1 18.4 51.5 19.1Q51.9 19.8 51.9 20.7L51.9 20.7Q51.9 21.7 51.5 22.4Q51.1 23.1 50.4 23.5Q49.6 23.9 48.5 23.9L48.5 23.9L46.8 23.9L46.8 27ZM46.8 19.1L46.8 22.3L48.2 22.3Q48.8 22.3 49.2 22.1Q49.6 21.9 49.7 21.6Q49.9 21.2 49.9 20.7Q49.9 20.3 49.7 19.9Q49.6 19.5 49.2 19.3Q48.8 19.1 48.2 19.1L48.2 19.1L46.8 19.1ZM56.2 27.1L56.2 27.1Q55.1 27.1 54.4 26.7Q53.6 26.2 53.2 25.4Q52.7 24.6 52.7 23.5L52.7 23.5Q52.7 22.4 53.2 21.6Q53.6 20.7 54.4 20.3Q55.1 19.8 56.2 19.8L56.2 19.8Q57.3 19.8 58.1 20.3Q58.8 20.7 59.3 21.6Q59.7 22.4 59.7 23.5L59.7 23.5Q59.7 24.6 59.3 25.4Q58.8 26.2 58.1 26.7Q57.3 27.1 56.2 27.1ZM56.2 25.6L56.2 25.6Q56.7 25.6 57.1 25.4Q57.4 25.1 57.6 24.6Q57.7 24.1 57.7 23.5L57.7 23.5Q57.7 22.8 57.6 22.4Q57.4 21.9 57.1 21.6Q56.7 21.3 56.2 21.3L56.2 21.3Q55.7 21.3 55.4 21.6Q55.0 21.9 54.9 22.4Q54.7 22.8 54.7 23.5L54.7 23.5Q54.7 24.1 54.9 24.6Q55.0 25.1 55.4 25.4Q55.7 25.6 56.2 25.6ZM63.6 27.1L63.6 27.1Q62.8 27.1 62.1 26.9Q61.4 26.7 61.0 26.2Q60.6 25.7 60.5 25.1L60.5 25.1L62.3 24.8Q62.4 25.2 62.8 25.5Q63.1 25.7 63.7 25.7L63.7 25.7Q64.2 25.7 64.5 25.5Q64.9 25.3 64.9 25.0L64.9 25.0Q64.9 24.7 64.6 24.6Q64.4 24.4 63.9 24.3L63.9 24.3L62.7 24.0Q61.7 23.8 61.2 23.3Q60.7 22.8 60.7 22.0L60.7 22.0Q60.7 21.3 61.0 20.8Q61.4 20.3 62.1 20.1Q62.8 19.8 63.7 19.8L63.7 19.8Q64.5 19.8 65.1 20.0Q65.7 20.3 66.1 20.7Q66.5 21.1 66.6 21.7L66.6 21.7L64.9 22.0Q64.8 21.6 64.5 21.4Q64.2 21.2 63.7 21.2L63.7 21.2Q63.2 21.2 62.9 21.4Q62.6 21.6 62.6 21.9L62.6 21.9Q62.6 22.2 62.8 22.4Q63.0 22.5 63.5 22.6L63.5 22.6L64.8 22.9Q65.8 23.1 66.3 23.6Q66.8 24.0 66.8 24.8L66.8 24.8Q66.8 25.5 66.4 26.0Q66.0 26.6 65.3 26.8Q64.6 27.1 63.6 27.1ZM70.1 19.9L71.4 19.9L71.4 21.4L70.1 21.4L70.1 24.9Q70.1 25.3 70.2 25.4Q70.4 25.6 70.7 25.6L70.7 25.6Q70.8 25.6 71.0 25.6Q71.2 25.5 71.3 25.5L71.3 25.5L71.6 26.9Q71.3 27.0 71.0 27.1Q70.7 27.1 70.4 27.1L70.4 27.1Q69.3 27.1 68.7 26.6Q68.2 26.1 68.2 25.1L68.2 25.1L68.2 21.4L67.2 21.4L67.2 19.9L68.2 19.9L68.2 18.2L70.1 18.2L70.1 19.9ZM75.6 29.8L75.6 29.8Q74.7 29.8 74.1 29.6Q73.4 29.4 73.0 29.0Q72.6 28.6 72.4 28.1L72.4 28.1L74.0 27.6Q74.1 27.8 74.3 28.0Q74.5 28.2 74.8 28.3Q75.1 28.4 75.6 28.4L75.6 28.4Q76.3 28.4 76.7 28.1Q77.2 27.8 77.2 27.1L77.2 27.1L77.2 25.7L77.0 25.7Q76.9 26.0 76.6 26.3Q76.4 26.6 76.0 26.7Q75.6 26.9 75.0 26.9L75.0 26.9Q74.2 26.9 73.6 26.5Q72.9 26.1 72.5 25.4Q72.2 24.6 72.2 23.4L72.2 23.4Q72.2 22.2 72.5 21.4Q72.9 20.6 73.6 20.2Q74.3 19.8 75.0 19.8L75.0 19.8Q75.6 19.8 76.0 20.0Q76.5 20.2 76.7 20.5Q77.0 20.8 77.1 21.1L77.1 21.1L77.2 21.1L77.2 19.9L79.0 19.9L79.0 26.9Q79.0 27.9 78.6 28.5Q78.2 29.2 77.4 29.5Q76.6 29.8 75.6 29.8ZM75.6 25.5L75.6 25.5Q76.1 25.5 76.5 25.2Q76.8 25.0 77.0 24.5Q77.2 24.1 77.2 23.4L77.2 23.4Q77.2 22.8 77.0 22.3Q76.8 21.9 76.5 21.6Q76.1 21.3 75.6 21.3L75.6 21.3Q75.1 21.3 74.8 21.6Q74.5 21.9 74.3 22.3Q74.1 22.8 74.1 23.4L74.1 23.4Q74.1 24.0 74.3 24.5Q74.5 25.0 74.8 25.2Q75.1 25.5 75.6 25.5ZM82.4 27L80.5 27L80.5 19.9L82.3 19.9L82.3 21.1L82.4 21.1Q82.6 20.5 83.0 20.1Q83.5 19.8 84.1 19.8L84.1 19.8Q84.2 19.8 84.4 19.8Q84.6 19.8 84.7 19.9L84.7 19.9L84.7 21.6Q84.6 21.5 84.3 21.5Q84.1 21.5 83.9 21.5L83.9 21.5Q83.5 21.5 83.1 21.7Q82.8 21.9 82.6 22.2Q82.4 22.5 82.4 23.0L82.4 23.0L82.4 27ZM88.8 27.1L88.8 27.1Q87.7 27.1 86.9 26.7Q86.1 26.3 85.7 25.4Q85.3 24.6 85.3 23.5L85.3 23.5Q85.3 22.4 85.7 21.6Q86.1 20.7 86.9 20.3Q87.6 19.8 88.7 19.8L88.7 19.8Q89.4 19.8 90.0 20.0Q90.6 20.3 91.0 20.7Q91.5 21.2 91.7 21.8Q92.0 22.5 92.0 23.4L92.0 23.4L92.0 23.9L87.1 23.9Q87.2 24.5 87.4 24.9L87.4 24.9Q87.6 25.3 87.9 25.5Q88.3 25.7 88.8 25.7L88.8 25.7Q89.1 25.7 89.4 25.6Q89.7 25.5 89.9 25.3Q90.1 25.1 90.2 24.9L90.2 24.9L91.9 25.2Q91.7 25.8 91.3 26.2Q90.9 26.7 90.2 26.9Q89.6 27.1 88.8 27.1ZM87.2 22.8L87.2 22.8L90.2 22.8Q90.1 22.4 90.0 22.1L90.0 22.1Q89.8 21.7 89.5 21.5Q89.2 21.2 88.7 21.2L88.7 21.2Q88.2 21.2 87.8 21.5Q87.5 21.7 87.3 22.1L87.3 22.1Q87.2 22.4 87.2 22.8ZM95.9 27.1L95.9 27.1Q95.1 27.1 94.4 26.9Q93.7 26.7 93.3 26.2Q92.9 25.7 92.8 25.1L92.8 25.1L94.6 24.8Q94.7 25.2 95.0 25.5Q95.4 25.7 96.0 25.7L96.0 25.7Q96.5 25.7 96.8 25.5Q97.2 25.3 97.2 25.0L97.2 25.0Q97.2 24.7 96.9 24.6Q96.7 24.4 96.2 24.3L96.2 24.3L95.0 24.0Q94.0 23.8 93.5 23.3Q93.0 22.8 93.0 22.0L93.0 22.0Q93.0 21.3 93.3 20.8Q93.7 20.3 94.4 20.1Q95.1 19.8 96.0 19.8L96.0 19.8Q96.8 19.8 97.4 20.0Q98.0 20.3 98.4 20.7Q98.8 21.1 98.9 21.7L98.9 21.7L97.2 22.0Q97.1 21.6 96.8 21.4Q96.5 21.2 96.0 21.2L96.0 21.2Q95.5 21.2 95.2 21.4Q94.9 21.6 94.9 21.9L94.9 21.9Q94.9 22.2 95.1 22.4Q95.3 22.5 95.8 22.6L95.8 22.6L97.1 22.9Q98.1 23.1 98.6 23.6Q99.1 24.0 99.1 24.8L99.1 24.8Q99.1 25.5 98.7 26.0Q98.3 26.6 97.6 26.8Q96.9 27.1 95.9 27.1Z "/></g></svg>