<!-- Generated by readme-aura https://github.com/collectioneur/readme-aura -->
<svg width="110" height="44" viewBox="0 0 110 44" xmlns="http://www.w3.org/2000/svg"><mask id="satori_om-id"><rect x="0" y="0" width="110" height="44" fill="#fff"/></mask><path x="0" y="0" width="110" height="44" fill="#071e2f" d="M22,0 h66 a22,22 0 0 1 22,22 v0 a22,22 0 0 1 -22,22 h-66 a22,22 0 0 1 -22,-22 v0 a22,22 0 0 1 22,-22"/><clipPath id="satori_cp-id-0"><rect x="0" y="0" width="110" height="44"/></clipPath><mask id="satori_om-id-0"><rect x="0" y="0" width="110" height="44" fill="#fff"/></mask><svg x="0" y="0" width="110" height="44" preserveAspectRatio="none" clip-path="url(#satori_cp-id-0)" mask="url(#satori_om-id-0)"><defs><linearGradient id="smb-grad-Docker" gradientUnits="objectBoundingBox" x1="0" y1="0" x2="1" y2="1"><stop offset="0%" stop-color="#ffffff"></stop><stop offset="15%" stop-color="#071e2f"></stop><stop offset="30%" stop-color="#cccccc"></stop><stop offset="50%" stop-color="#2496ED"></stop><stop offset="65%" stop-color="#071e2f"></stop><stop offset="80%" stop-color="#888888"></stop><stop offset="100%" stop-color="#444444"></stop><animateTransform attributeName="gradientTransform" type="rotate" from="0 0.5 0.5" to="360 0.5 0.5" dur="8s" repeatCount="indefinite"></animateTransform></linearGradient></defs><rect x="1.25" y="1.25" width="107.5" height="41.5" rx="20.75" ry="20.75" fill="none" stroke="url(#smb-grad-Docker)" stroke-width="2" stroke-linecap="round" stroke-linejoin="round"></rect><rect x="0.25" y="0.25" width="109.5" height="43.5" rx="21.75" ry="21.75" fill="none" stroke="#AAAAAA" stroke-width="0.5" stroke-linecap="round" stroke-linejoin="round"></rect></svg><mask id="satori_om-id-0-0"><rect x="0" y="0" width="0" height="44" fill="#fff"/></mask><mask id="satori_om-id-0-0-0"><rect x="0" y="0" width="0" height="44" fill="#fff"/></mask><mask id="satori_om-id-0-0-0-0"><rect x="0" y="0" width="0" height="44" fill="#fff"/></mask><mask id="satori_om-id-0-0-0-1"><rect x="0" y="0" width="0" height="44" fill="#fff"/></mask><mask id="satori_om-id-0-0-0-2"><rect x="0" y="0" width="0" height="44" fill="#fff"/></mask><mask id="satori_om-id-0-0-0-3"><rect x="0" y="0" width="0" height="44" fill="#fff"/></mask><mask id="satori_om-id-0-0-0-4"><rect x="0" y="0" width="0" height="44" fill="#fff"/></mask><mask id="satori_om-id-0-0-0-5"><rect x="0" y="0" width="0" height="44" fill="#fff"/></mask><mask id="satori_om-id-0-0-0-6"><rect x="0" y="0" width="0" height="44" fill="#fff"/></mask><mask id="satori_om-id-0-0-0-7"><rect x="0" y="0" width="0" height="44" fill="#fff"/></mask><mask id="satori_om-id-0-1"><rect x="0" y="0" width="0" height="44" fill="#fff"/></mask><mask id="satori_om-id-0-2"><rect x="0" y="0" width="0" height="44" fill="#fff"/></mask><mask id="satori_om-id-1"><rect x="0" y="0" width="110" height="44" fill="#fff"/></mask><mask id="satori_om-id-1-0"><rect x="19" y="11" width="22" height="22" fill="#fff"/></mask><mask id="satori_om-id-1-1"><rect x="46" y="14" width="45" height="16" fill="#fff"/></mask><g  ><path fill="#ffffff" d="M50.2 27L50.2 27L46.9 27L46.9 17.5L50.2 17.5Q51.6 17.5 52.7 18.1Q53.7 18.7 54.2 19.7Q54.8 20.8 54.8 22.3L54.8 22.3Q54.8 23.7 54.2 24.8Q53.7 25.9 52.7 26.4Q51.6 27 50.2 27ZM48.8 19.2L48.8 25.3L50.1 25.3Q51.0 25.3 51.6 25.0Q52.2 24.7 52.6 24.0Q52.9 23.3 52.9 22.3L52.9 22.3Q52.9 21.2 52.5 20.5Q52.2 19.9 51.6 19.5Q51.0 19.2 50.1 19.2L50.1 19.2L48.8 19.2ZM59.2 27.1L59.2 27.1Q58.1 27.1 57.3 26.7Q56.5 26.2 56.1 25.4Q55.7 24.6 55.7 23.5L55.7 23.5Q55.7 22.4 56.1 21.6Q56.5 20.7 57.3 20.3Q58.1 19.8 59.2 19.8L59.2 19.8Q60.2 19.8 61.0 20.3Q61.8 20.7 62.2 21.6Q62.6 22.4 62.6 23.5L62.6 23.5Q62.6 24.6 62.2 25.4Q61.8 26.2 61.0 26.7Q60.2 27.1 59.2 27.1ZM59.2 25.6L59.2 25.6Q59.7 25.6 60.0 25.4Q60.4 25.1 60.5 24.6Q60.7 24.1 60.7 23.5L60.7 23.5Q60.7 22.8 60.5 22.4Q60.4 21.9 60.0 21.6Q59.7 21.3 59.2 21.3L59.2 21.3Q58.7 21.3 58.3 21.6Q58.0 21.9 57.8 22.4Q57.6 22.8 57.6 23.5L57.6 23.5Q57.6 24.1 57.8 24.6Q58.0 25.1 58.3 25.4Q58.7 25.6 59.2 25.6ZM66.9 27.1L66.9 27.1Q65.9 27.1 65.1 26.7Q64.3 26.2 63.9 25.4Q63.5 24.6 63.5 23.5L63.5 23.5Q63.5 22.4 63.9 21.6Q64.3 20.7 65.1 20.3Q65.9 19.8 66.9 19.8L66.9 19.8Q67.6 19.8 68.1 20.0Q68.6 20.1 69.1 20.4Q69.5 20.8 69.7 21.2Q70.0 21.6 70.1 22.2L70.1 22.2L68.3 22.5Q68.3 22.2 68.2 22.0Q68.0 21.8 67.9 21.6Q67.7 21.5 67.5 21.4Q67.2 21.3 67.0 21.3L67.0 21.3Q66.5 21.3 66.1 21.6Q65.8 21.9 65.6 22.3Q65.4 22.8 65.4 23.5L65.4 23.5Q65.4 24.1 65.6 24.6Q65.8 25.1 66.1 25.4Q66.5 25.6 67.0 25.6L67.0 25.6Q67.2 25.6 67.5 25.6Q67.7 25.5 67.9 25.3Q68.1 25.1 68.2 24.9Q68.3 24.7 68.3 24.4L68.3 24.4L70.1 24.7Q70.0 25.3 69.7 25.7Q69.5 26.2 69.1 26.5Q68.7 26.8 68.1 27.0Q67.6 27.1 66.9 27.1ZM73.1 27L71.2 27L71.2 17.5L73.1 17.5L73.1 22.6L73.2 22.6L75.6 19.9L77.8 19.9L75.1 23.0L77.9 27L75.7 27L73.7 24.1L73.1 24.7L73.1 27ZM81.8 27.1L81.8 27.1Q80.7 27.1 79.9 26.7Q79.1 26.3 78.7 25.4Q78.3 24.6 78.3 23.5L78.3 23.5Q78.3 22.4 78.7 21.6Q79.1 20.7 79.9 20.3Q80.6 19.8 81.7 19.8L81.7 19.8Q82.4 19.8 83.0 20.0Q83.6 20.3 84.0 20.7Q84.5 21.2 84.7 21.8Q85.0 22.5 85.0 23.4L85.0 23.4L85.0 23.9L80.2 23.9Q80.2 24.5 80.4 24.9L80.4 24.9Q80.6 25.3 80.9 25.5Q81.3 25.7 81.8 25.7L81.8 25.7Q82.1 25.7 82.4 25.6Q82.7 25.5 82.9 25.3Q83.1 25.1 83.2 24.9L83.2 24.9L84.9 25.2Q84.7 25.8 84.3 26.2Q83.9 26.7 83.2 26.9Q82.6 27.1 81.8 27.1ZM80.2 22.8L80.2 22.8L83.2 22.8Q83.1 22.4 83.0 22.1L83.0 22.1Q82.8 21.7 82.5 21.5Q82.2 21.2 81.7 21.2L81.7 21.2Q81.2 21.2 80.9 21.5Q80.5 21.7 80.3 22.1L80.3 22.1Q80.2 22.4 80.2 22.8ZM88.0 27L86.1 27L86.1 19.9L87.9 19.9L87.9 21.1L88.0 21.1Q88.2 20.5 88.7 20.1Q89.1 19.8 89.7 19.8L89.7 19.8Q89.9 19.8 90.1 19.8Q90.2 19.8 90.4 19.9L90.4 19.9L90.4 21.6Q90.2 21.5 90.0 21.5Q89.7 21.5 89.5 21.5L89.5 21.5Q89.1 21.5 88.7 21.7Q88.4 21.9 88.2 22.2Q88.0 22.5 88.0 23.0L88.0 23.0L88.0 27Z "/></g></svg>