<!-- Generated by readme-aura https://github.com/collectioneur/readme-aura -->
<svg width="110" height="44" viewBox="0 0 110 44" xmlns="http://www.w3.org/2000/svg"><mask id="satori_om-id"><rect x="0" y="0" width="110" height="44" fill="#fff"/></mask><path x="0" y="0" width="110" height="44" fill="#000000" d="M22,0 h66 a22,22 0 0 1 22,22 v0 a22,22 0 0 1 -22,22 h-66 a22,22 0 0 1 -22,-22 v0 a22,22 0 0 1 22,-22"/><clipPath id="satori_cp-id-0"><rect x="0" y="0" width="110" height="44"/></clipPath><mask id="satori_om-id-0"><rect x="0" y="0" width="110" height="44" fill="#fff"/></mask><svg x="0" y="0" width="110" height="44" preserveAspectRatio="none" clip-path="url(#satori_cp-id-0)" mask="url(#satori_om-id-0)"><defs><linearGradient id="smb-grad-VSCode" gradientUnits="objectBoundingBox" x1="0" y1="0" x2="1" y2="1"><stop offset="0%" stop-color="#d855f7"></stop><stop offset="30%" stop-color="#000000"></stop><stop offset="60%" stop-color="#b557e8"></stop><stop offset="80%" stop-color="#000000"></stop><stop offset="100%" stop-color="#cc6ef9"></stop><animateTransform attributeName="gradientTransform" type="rotate" from="0 0.5 0.5" to="360 0.5 0.5" dur="8s" repeatCount="indefinite"></animateTransform></linearGradient></defs><rect x="1.25" y="1.25" width="107.5" height="41.5" rx="20.75" ry="20.75" fill="none" stroke="url(#smb-grad-VSCode)" stroke-width="2" stroke-linecap="round" stroke-linejoin="round"></rect><rect x="0.25" y="0.25" width="109.5" height="43.5" rx="21.75" ry="21.75" fill="none" stroke="#AAAAAA" stroke-width="0.5" stroke-linecap="round" stroke-linejoin="round"></rect></svg><mask id="satori_om-id-0-0"><rect x="0" y="0" width="0" height="44" fill="#fff"/></mask><mask id="satori_om-id-0-0-0"><rect x="0" y="0" width="0" height="44" fill="#fff"/></mask><mask id="satori_om-id-0-0-0-0"><rect x="0" y="0" width="0" height="44" fill="#fff"/></mask><mask id="satori_om-id-0-0-0-1"><rect x="0" y="0" width="0" height="44" fill="#fff"/></mask><mask id="satori_om-id-0-0-0-2"><rect x="0" y="0" width="0" height="44" fill="#fff"/></mask><mask id="satori_om-id-0-0-0-3"><rect x="0" y="0" width="0" height="44" fill="#fff"/></mask><mask id="satori_om-id-0-0-0-4"><rect x="0" y="0" width="0" height="44" fill="#fff"/></mask><mask id="satori_om-id-0-0-0-5"><rect x="0" y="0" width="0" height="44" fill="#fff"/></mask><mask id="satori_om-id-0-1"><rect x="0" y="0" width="0" height="44" fill="#fff"/></mask><mask id="satori_om-id-0-2"><rect x="0" y="0" width="0" height="44" fill="#fff"/></mask><mask id="satori_om-id-1"><rect x="0" y="0" width="110" height="44" fill="#fff"/></mask><mask id="satori_om-id-1-0"><rect x="17" y="13" width="18" height="18" fill="#fff"/></mask><mask id="satori_om-id-1-1"><rect x="40" y="14" width="54" height="16" fill="#fff"/></mask><g  ><path fill="#f5f5f5" d="M46.2 27L43.6 27L40.3 17.5L42.5 17.5L44.0 22.1Q44.2 23.0 44.5 24.0L44.5 24.0Q44.7 24.7 44.9 25.4L44.9 25.4Q45.1 24.7 45.3 24.0L45.3 24.0Q45.5 23.0 45.8 22.1L45.8 22.1L47.3 17.5L49.4 17.5L46.2 27ZM53.8 27.1L53.8 27.1Q52.7 27.1 51.9 26.8Q51.0 26.4 50.5 25.8Q50.1 25.1 50.0 24.1L50.0 24.1L51.9 24.1Q52.0 24.5 52.2 24.9Q52.5 25.2 52.9 25.3Q53.3 25.5 53.8 25.5L53.8 25.5Q54.3 25.5 54.7 25.4Q55.1 25.2 55.3 24.9Q55.5 24.7 55.5 24.3L55.5 24.3Q55.5 24.0 55.3 23.8Q55.1 23.5 54.8 23.4Q54.4 23.2 53.9 23.1L53.9 23.1L52.9 22.8Q51.7 22.5 51.0 21.9Q50.3 21.3 50.3 20.3L50.3 20.3Q50.3 19.4 50.8 18.8Q51.2 18.1 52.0 17.8Q52.8 17.4 53.9 17.4L53.9 17.4Q54.9 17.4 55.7 17.8Q56.5 18.1 56.9 18.8Q57.3 19.4 57.4 20.2L57.4 20.2L55.5 20.2Q55.4 19.7 55.0 19.4Q54.6 19.0 53.8 19.0L53.8 19.0Q53.3 19.0 53.0 19.2Q52.6 19.3 52.5 19.6Q52.3 19.8 52.3 20.1L52.3 20.1Q52.3 20.5 52.5 20.7Q52.7 21.0 53.1 21.1Q53.4 21.2 53.8 21.3L53.8 21.3L54.7 21.5Q55.3 21.7 55.8 21.9Q56.3 22.1 56.7 22.5Q57.1 22.8 57.3 23.3Q57.5 23.7 57.5 24.3L57.5 24.3Q57.5 25.2 57.0 25.8Q56.6 26.4 55.8 26.8Q55.0 27.1 53.8 27.1Z M65.7 27.1L65.7 27.1Q64.4 27.1 63.4 26.6Q62.4 26.0 61.9 24.9Q61.3 23.8 61.3 22.3L61.3 22.3Q61.3 20.7 61.9 19.6Q62.4 18.6 63.4 18.0Q64.4 17.4 65.7 17.4L65.7 17.4Q66.5 17.4 67.2 17.6Q67.9 17.9 68.4 18.3Q69.0 18.7 69.3 19.4Q69.6 20.0 69.8 20.8L69.8 20.8L67.8 20.8Q67.7 20.4 67.5 20.1Q67.4 19.8 67.1 19.6Q66.8 19.4 66.5 19.2Q66.1 19.1 65.7 19.1L65.7 19.1Q65.0 19.1 64.4 19.5Q63.9 19.9 63.6 20.6Q63.3 21.3 63.3 22.3L63.3 22.3Q63.3 23.3 63.6 24.0Q63.9 24.7 64.4 25.1Q65.0 25.4 65.7 25.4L65.7 25.4Q66.1 25.4 66.5 25.3Q66.8 25.2 67.1 25.0Q67.4 24.8 67.5 24.5Q67.7 24.1 67.8 23.8L67.8 23.8L69.8 23.8Q69.7 24.4 69.4 25.0Q69.1 25.6 68.5 26.1Q68.0 26.6 67.3 26.9Q66.6 27.1 65.7 27.1ZM74.1 27.1L74.1 27.1Q73.0 27.1 72.3 26.7Q71.5 26.2 71.0 25.4Q70.6 24.6 70.6 23.5L70.6 23.5Q70.6 22.4 71.0 21.6Q71.5 20.7 72.3 20.3Q73.0 19.8 74.1 19.8L74.1 19.8Q75.2 19.8 75.9 20.3Q76.7 20.7 77.1 21.6Q77.6 22.4 77.6 23.5L77.6 23.5Q77.6 24.6 77.1 25.4Q76.7 26.2 75.9 26.7Q75.2 27.1 74.1 27.1ZM74.1 25.6L74.1 25.6Q74.6 25.6 75.0 25.4Q75.3 25.1 75.5 24.6Q75.6 24.1 75.6 23.5L75.6 23.5Q75.6 22.8 75.5 22.4Q75.3 21.9 75.0 21.6Q74.6 21.3 74.1 21.3L74.1 21.3Q73.6 21.3 73.3 21.6Q72.9 21.9 72.7 22.4Q72.6 22.8 72.6 23.5L72.6 23.5Q72.6 24.1 72.7 24.6Q72.9 25.1 73.3 25.4Q73.6 25.6 74.1 25.6ZM81.3 27.1L81.3 27.1Q80.5 27.1 79.8 26.7Q79.2 26.3 78.8 25.5Q78.4 24.6 78.4 23.5L78.4 23.5Q78.4 22.3 78.8 21.4Q79.2 20.6 79.8 20.2Q80.5 19.8 81.3 19.8L81.3 19.8Q81.9 19.8 82.3 20.0Q82.7 20.2 82.9 20.5Q83.2 20.8 83.3 21.1L83.3 21.1L83.4 21.1L83.4 17.5L85.3 17.5L85.3 27L83.4 27L83.4 25.9L83.3 25.9Q83.2 26.1 82.9 26.4Q82.7 26.7 82.3 26.9Q81.9 27.1 81.3 27.1ZM81.9 25.6L81.9 25.6Q82.4 25.6 82.7 25.3Q83.0 25.1 83.2 24.6Q83.4 24.1 83.4 23.5L83.4 23.5Q83.4 22.8 83.2 22.3Q83.1 21.9 82.7 21.6Q82.4 21.3 81.9 21.3L81.9 21.3Q81.4 21.3 81.0 21.6Q80.7 21.9 80.5 22.4Q80.4 22.8 80.4 23.5L80.4 23.5Q80.4 24.1 80.5 24.6Q80.7 25.0 81.0 25.3Q81.4 25.6 81.9 25.6ZM89.9 27.1L89.9 27.1Q88.8 27.1 88.0 26.7Q87.2 26.3 86.8 25.4Q86.4 24.6 86.4 23.5L86.4 23.5Q86.4 22.4 86.8 21.6Q87.2 20.7 88.0 20.3Q88.8 19.8 89.8 19.8L89.8 19.8Q90.5 19.8 91.1 20.0Q91.7 20.3 92.2 20.7Q92.6 21.2 92.9 21.8Q93.1 22.5 93.1 23.4L93.1 23.4L93.1 23.9L88.3 23.9Q88.3 24.5 88.5 24.9L88.5 24.9Q88.7 25.3 89.1 25.5Q89.4 25.7 89.9 25.7L89.9 25.7Q90.3 25.7 90.5 25.6Q90.8 25.5 91.0 25.3Q91.2 25.1 91.3 24.9L91.3 24.9L93.0 25.2Q92.9 25.8 92.4 26.2Q92.0 26.7 91.4 26.9Q90.7 27.1 89.9 27.1ZM88.3 22.8L88.3 22.8L91.3 22.8Q91.3 22.4 91.1 22.1L91.1 22.1Q91.0 21.7 90.6 21.5Q90.3 21.2 89.8 21.2L89.8 21.2Q89.3 21.2 89.0 21.5Q88.6 21.7 88.5 22.1L88.5 22.1Q88.3 22.4 88.3 22.8Z "/></g></svg>