<!-- Generated by readme-aura https://github.com/collectioneur/readme-aura -->
<svg width="860" height="80" viewBox="0 0 860 80" xmlns="http://www.w3.org/2000/svg"><defs><clipPath id="satori_bc-id"><path x="0" y="0" width="860" height="80" d="M12,0 h836 a12,12 0 0 1 12,12 v56 a12,12 0 0 1 -12,12 h-836 a12,12 0 0 1 -12,-12 v-56 a12,12 0 0 1 12,-12"/></clipPath></defs><clipPath id="satori_cp-id"><path x="0" y="0" width="860" height="80" d="M12,0 h836 a12,12 0 0 1 12,12 v56 a12,12 0 0 1 -12,12 h-836 a12,12 0 0 1 -12,-12 v-56 a12,12 0 0 1 12,-12"/></clipPath><mask id="satori_om-id"><rect x="1" y="1" width="858" height="78" fill="#fff"/><path width="860" height="80" fill="none" stroke="#000" stroke-width="2" d="M3.5150000000000006,3.5150000000000006 A12,12 0 0 1 12,0 h836 a12,12 0 0 1 12,12 v56 a12,12 0 0 1 -12,12 h-836 a12,12 0 0 1 -12,-12 v-56 A12,12 0 0 1 3.5150000000000006,3.5150000000000006"/></mask><path x="0" y="0" width="860" height="80" fill="#08080c" d="M12,0 h836 a12,12 0 0 1 12,12 v56 a12,12 0 0 1 -12,12 h-836 a12,12 0 0 1 -12,-12 v-56 a12,12 0 0 1 12,-12"/><path width="860" height="80" clip-path="url(#satori_bc-id)" fill="none" stroke="rgba(110,80,220,0.2)" stroke-width="2" d="M3.5150000000000006,3.5150000000000006 A12,12 0 0 1 12,0 h836 a12,12 0 0 1 12,12 v56 a12,12 0 0 1 -12,12 h-836 a12,12 0 0 1 -12,-12 v-56 A12,12 0 0 1 3.5150000000000006,3.5150000000000006"/><clipPath id="satori_cp-id-0" clip-path="url(#satori_cp-id)"><rect x="1" y="1" width="860" height="80"/></clipPath><mask id="satori_om-id-0"><rect x="1" y="1" width="860" height="80" fill="#fff" mask="url(#satori_om-id)"/></mask><svg x="1" y="1" width="860" height="80" preserveAspectRatio="none" clip-path="url(#satori_cp-id-0)" mask="url(#satori_om-id-0)"><defs><radialGradient id="bg2" cx="50%" cy="50%" r="50%"><stop offset="0%" stop-color="rgba(40,110,240,0.25)"></stop><stop offset="100%" stop-color="transparent"></stop></radialGradient></defs><rect width="860" height="80" fill="url(#bg2)"></rect><style>
 @keyframes pulse-text2 { 0%, 100% { text-shadow: 0 0 10px rgba(40,110,240,0.5); } 50% { text-shadow: 0 0 25px rgba(80,160,255,0.9); } } #title2 { animation: pulse-text2 3s infinite; } 
</style>
</svg><mask id="satori_om-id-0-0"><rect x="1" y="1" width="0" height="80" fill="#fff" mask="url(#satori_om-id)"/></mask><mask id="satori_om-id-0-0-0"><rect x="1" y="1" width="0" height="80" fill="#fff" mask="url(#satori_om-id)"/></mask><mask id="satori_om-id-0-0-0-0"><rect x="1" y="1" width="0" height="80" fill="#fff" mask="url(#satori_om-id)"/></mask><mask id="satori_om-id-0-0-0-1"><rect x="1" y="1" width="0" height="80" fill="#fff" mask="url(#satori_om-id)"/></mask><mask id="satori_om-id-0-1"><rect x="1" y="1" width="0" height="80" fill="#fff" mask="url(#satori_om-id)"/></mask><mask id="satori_om-id-1"><rect x="263" y="25" width="335" height="31" fill="#fff" mask="url(#satori_om-id)"/></mask><g mask="url(#satori_om-id)" clip-path="url(#satori_cp-id)"><path fill="#fff" d="M268.6 50L264.7 50L264.7 31.1L277.2 31.1L277.2 34.3L268.6 34.3L268.6 39.6L276.3 39.6L276.3 42.7L268.6 42.7L268.6 50ZM295.7 50L283.0 50L283.0 31.1L295.6 31.1L295.6 34.3L286.8 34.3L286.8 38.9L295.0 38.9L295.0 42.0L286.8 42.0L286.8 46.8L295.7 46.8L295.7 50ZM305.0 50L300.7 50L307.1 31.1L312.2 31.1L318.8 50L314.5 50L313.1 45.6L306.4 45.6L305.0 50ZM307.3 42.6L312.1 42.6L311.5 40.9Q311.0 39.1 310.4 37L310.4 37Q310.0 35.6 309.6 34.1L309.6 34.1Q309.3 35.7 308.9 37.0L308.9 37.0Q308.4 39.1 307.9 40.9L307.9 40.9L307.3 42.6ZM329.2 34.3L323.4 34.3L323.4 31.1L338.9 31.1L338.9 34.3L333.1 34.3L333.1 50L329.2 50L329.2 34.3ZM352.3 50.3L352.3 50.3Q350.0 50.3 348.2 49.4Q346.5 48.5 345.5 47.0Q344.5 45.4 344.5 43.4L344.5 43.4L344.5 31.1L348.4 31.1L348.4 43.0Q348.4 44.1 348.9 45.0Q349.4 45.9 350.3 46.4Q351.1 46.8 352.3 46.8L352.3 46.8Q353.5 46.8 354.4 46.4Q355.3 45.9 355.8 45.0Q356.3 44.1 356.3 43.0L356.3 43.0L356.3 31.1L360.1 31.1L360.1 43.4Q360.1 45.4 359.2 47.0Q358.2 48.5 356.4 49.4Q354.7 50.3 352.3 50.3ZM370.4 50L366.6 50L366.6 31.1L373.9 31.1Q376.1 31.1 377.6 31.8Q379.1 32.6 379.9 34.0Q380.7 35.4 380.7 37.2Q380.7 39.1 379.9 40.5Q379.1 41.8 377.6 42.5L377.6 42.5Q377.5 42.6 377.4 42.6L377.4 42.6L381.4 50L377.1 50L373.5 43.2L370.4 43.2L370.4 50ZM370.4 34.3L370.4 40.1L373.2 40.1Q374.4 40.1 375.2 39.8Q375.9 39.5 376.3 38.8Q376.7 38.2 376.7 37.2L376.7 37.2Q376.7 36.3 376.3 35.6Q375.9 35.0 375.2 34.6Q374.4 34.3 373.2 34.3L373.2 34.3L370.4 34.3ZM399.3 50L386.6 50L386.6 31.1L399.3 31.1L399.3 34.3L390.5 34.3L390.5 38.9L398.6 38.9L398.6 42.0L390.5 42.0L390.5 46.8L399.3 46.8L399.3 50ZM412.1 50L412.1 50L405.4 50L405.4 31.1L412.1 31.1Q415.0 31.1 417.0 32.2Q419.1 33.4 420.2 35.5Q421.3 37.6 421.3 40.5L421.3 40.5Q421.3 43.5 420.2 45.6Q419.1 47.7 417.0 48.9Q415.0 50 412.1 50ZM409.3 34.4L409.3 46.7L411.9 46.7Q413.7 46.7 415.0 46.0Q416.2 45.4 416.8 44.0Q417.4 42.6 417.4 40.5L417.4 40.5Q417.4 38.4 416.8 37.1Q416.2 35.7 415.0 35.1Q413.7 34.4 411.9 34.4L411.9 34.4L409.3 34.4Z M440.2 50L436.4 50L436.4 31.1L443.7 31.1Q445.9 31.1 447.4 31.9Q448.9 32.7 449.7 34.2Q450.5 35.6 450.5 37.5L450.5 37.5Q450.5 39.3 449.7 40.8Q448.9 42.2 447.4 43.0Q445.8 43.8 443.7 43.8L443.7 43.8L440.2 43.8L440.2 50ZM440.2 34.3L440.2 40.7L443.0 40.7Q444.2 40.7 445.0 40.3Q445.8 39.9 446.1 39.1Q446.5 38.4 446.5 37.5Q446.5 36.5 446.1 35.8Q445.8 35.1 445.0 34.7Q444.2 34.3 443.0 34.3L443.0 34.3L440.2 34.3ZM460.1 50L456.2 50L456.2 31.1L463.6 31.1Q465.7 31.1 467.3 31.8Q468.8 32.6 469.6 34.0Q470.4 35.4 470.4 37.2Q470.4 39.1 469.5 40.5Q468.7 41.8 467.2 42.5L467.2 42.5Q467.1 42.6 467.0 42.6L467.0 42.6L471.0 50L466.7 50L463.1 43.2L460.1 43.2L460.1 50ZM460.1 34.3L460.1 40.1L462.9 40.1Q464.1 40.1 464.8 39.8Q465.6 39.5 466.0 38.8Q466.4 38.2 466.4 37.2L466.4 37.2Q466.4 36.3 466.0 35.6Q465.6 35.0 464.8 34.6Q464.1 34.3 462.9 34.3L462.9 34.3L460.1 34.3ZM484.6 50.3L484.6 50.3Q482.1 50.3 480.1 49.1Q478.1 48.0 476.9 45.8Q475.8 43.6 475.8 40.6L475.8 40.6Q475.8 37.5 476.9 35.3Q478.1 33.1 480.1 32.0Q482.1 30.8 484.6 30.8L484.6 30.8Q487.1 30.8 489.1 32.0Q491.1 33.1 492.3 35.3Q493.4 37.5 493.4 40.6L493.4 40.6Q493.4 43.6 492.3 45.8Q491.1 48.0 489.1 49.1Q487.1 50.3 484.6 50.3ZM484.6 46.8L484.6 46.8Q486.1 46.8 487.2 46.1Q488.3 45.4 488.9 44.0Q489.5 42.6 489.5 40.6L489.5 40.6Q489.5 38.5 488.9 37.1Q488.3 35.7 487.2 35.0Q486.1 34.3 484.6 34.3L484.6 34.3Q483.1 34.3 482.0 35.0Q480.9 35.7 480.3 37.1Q479.7 38.5 479.7 40.6L479.7 40.6Q479.7 42.6 480.3 44.0Q480.9 45.4 482.0 46.1Q483.1 46.8 484.6 46.8ZM504.8 50.3L504.8 50.3Q501.9 50.3 500.2 48.7Q498.5 47.2 498.5 44.3L498.5 44.3L498.5 43.2L502.3 43.2L502.3 44.4Q502.3 45.7 503.0 46.4Q503.7 47.1 504.8 47.1L504.8 47.1Q505.9 47.1 506.6 46.4Q507.3 45.7 507.3 44.4L507.3 44.4L507.3 31.1L511.1 31.1L511.1 44.3Q511.1 47.2 509.4 48.7Q507.7 50.3 504.8 50.3ZM530.2 50L517.5 50L517.5 31.1L530.2 31.1L530.2 34.3L521.4 34.3L521.4 38.9L529.5 38.9L529.5 42.0L521.4 42.0L521.4 46.8L530.2 46.8L530.2 50ZM544.6 50.3L544.6 50.3Q542.1 50.3 540.1 49.1Q538.1 48.0 536.9 45.8Q535.8 43.6 535.8 40.6L535.8 40.6Q535.8 37.5 536.9 35.3Q538.1 33.1 540.1 32.0Q542.1 30.8 544.6 30.8L544.6 30.8Q546.2 30.8 547.6 31.3Q549.0 31.7 550.0 32.6Q551.1 33.5 551.8 34.7Q552.5 36.0 552.7 37.6L552.7 37.6L548.8 37.6Q548.7 36.8 548.3 36.2Q547.9 35.6 547.4 35.1Q546.9 34.7 546.2 34.5Q545.5 34.3 544.6 34.3L544.6 34.3Q543.2 34.3 542.1 35.0Q541.0 35.7 540.3 37.1Q539.7 38.5 539.7 40.6L539.7 40.6Q539.7 42.6 540.3 44.0Q541.0 45.4 542.1 46.1Q543.2 46.8 544.6 46.8L544.6 46.8Q545.4 46.8 546.1 46.6Q546.8 46.4 547.4 45.9Q547.9 45.5 548.3 44.9Q548.7 44.3 548.8 43.5L548.8 43.5L552.7 43.5Q552.6 44.8 551.9 46.1Q551.3 47.3 550.3 48.2Q549.2 49.2 547.8 49.7Q546.4 50.3 544.6 50.3ZM563.6 34.3L557.8 34.3L557.8 31.1L573.2 31.1L573.2 34.3L567.5 34.3L567.5 50L563.6 50L563.6 34.3ZM585.8 50.3L585.8 50.3Q583.6 50.3 581.9 49.6Q580.2 48.9 579.3 47.5Q578.3 46.1 578.3 44.1L578.3 44.1L582.0 44.1Q582.1 45.1 582.6 45.7Q583.1 46.4 583.9 46.7Q584.7 47.0 585.8 47.0L585.8 47.0Q586.8 47.0 587.6 46.7Q588.4 46.4 588.8 45.9Q589.2 45.3 589.2 44.6L589.2 44.6Q589.2 43.9 588.8 43.5Q588.5 43.1 587.7 42.8Q587.0 42.4 586.0 42.2L586.0 42.2L583.9 41.7Q581.5 41.1 580.1 39.8Q578.8 38.6 578.8 36.5L578.8 36.5Q578.8 34.8 579.7 33.5Q580.6 32.3 582.2 31.5Q583.8 30.8 585.9 30.8L585.9 30.8Q588.0 30.8 589.5 31.5Q591.1 32.3 592.0 33.5Q592.8 34.8 592.9 36.5L592.9 36.5L589.1 36.5Q589.0 35.3 588.2 34.7Q587.3 34.1 585.8 34.1L585.8 34.1Q584.9 34.1 584.2 34.4Q583.5 34.7 583.1 35.1Q582.7 35.6 582.7 36.3L582.7 36.3Q582.7 37.0 583.2 37.4Q583.6 37.9 584.3 38.2Q585.0 38.5 585.8 38.7L585.8 38.7L587.5 39.1Q588.7 39.3 589.7 39.8Q590.7 40.3 591.5 40.9Q592.3 41.6 592.7 42.5Q593.1 43.4 593.1 44.6L593.1 44.6Q593.1 46.3 592.3 47.6Q591.4 48.9 589.8 49.6Q588.1 50.3 585.8 50.3Z "/></g></svg>