<!-- Generated by readme-aura https://github.com/collectioneur/readme-aura -->
<svg width="100" height="44" viewBox="0 0 100 44" xmlns="http://www.w3.org/2000/svg"><mask id="satori_om-id"><rect x="0" y="0" width="100" height="44" fill="#fff"/></mask><path x="0" y="0" width="100" height="44" fill="#001e1b" d="M22,0 h56 a22,22 0 0 1 22,22 v0 a22,22 0 0 1 -22,22 h-56 a22,22 0 0 1 -22,-22 v0 a22,22 0 0 1 22,-22"/><clipPath id="satori_cp-id-0"><rect x="0" y="0" width="100" height="44"/></clipPath><mask id="satori_om-id-0"><rect x="0" y="0" width="100" height="44" fill="#fff"/></mask><svg x="0" y="0" width="100" height="44" preserveAspectRatio="none" clip-path="url(#satori_cp-id-0)" mask="url(#satori_om-id-0)"><defs><linearGradient id="smb-grad-FastAPI" gradientUnits="objectBoundingBox" x1="0" y1="0" x2="1" y2="1"><stop offset="0%" stop-color="#ffffff"></stop><stop offset="15%" stop-color="#001e1b"></stop><stop offset="30%" stop-color="#cccccc"></stop><stop offset="50%" stop-color="#009688"></stop><stop offset="65%" stop-color="#001e1b"></stop><stop offset="80%" stop-color="#888888"></stop><stop offset="100%" stop-color="#444444"></stop><animateTransform attributeName="gradientTransform" type="rotate" from="0 0.5 0.5" to="360 0.5 0.5" dur="8s" repeatCount="indefinite"></animateTransform></linearGradient></defs><rect x="1.25" y="1.25" width="97.5" height="41.5" rx="20.75" ry="20.75" fill="none" stroke="url(#smb-grad-FastAPI)" stroke-width="2" stroke-linecap="round" stroke-linejoin="round"></rect><rect x="0.25" y="0.25" width="99.5" height="43.5" rx="21.75" ry="21.75" fill="none" stroke="#AAAAAA" stroke-width="0.5" stroke-linecap="round" stroke-linejoin="round"></rect></svg><mask id="satori_om-id-0-0"><rect x="0" y="0" width="0" height="44" fill="#fff"/></mask><mask id="satori_om-id-0-0-0"><rect x="0" y="0" width="0" height="44" fill="#fff"/></mask><mask id="satori_om-id-0-0-0-0"><rect x="0" y="0" width="0" height="44" fill="#fff"/></mask><mask id="satori_om-id-0-0-0-1"><rect x="0" y="0" width="0" height="44" fill="#fff"/></mask><mask id="satori_om-id-0-0-0-2"><rect x="0" y="0" width="0" height="44" fill="#fff"/></mask><mask id="satori_om-id-0-0-0-3"><rect x="0" y="0" width="0" height="44" fill="#fff"/></mask><mask id="satori_om-id-0-0-0-4"><rect x="0" y="0" width="0" height="44" fill="#fff"/></mask><mask id="satori_om-id-0-0-0-5"><rect x="0" y="0" width="0" height="44" fill="#fff"/></mask><mask id="satori_om-id-0-0-0-6"><rect x="0" y="0" width="0" height="44" fill="#fff"/></mask><mask id="satori_om-id-0-0-0-7"><rect x="0" y="0" width="0" height="44" fill="#fff"/></mask><mask id="satori_om-id-0-1"><rect x="0" y="0" width="0" height="44" fill="#fff"/></mask><mask id="satori_om-id-0-2"><rect x="0" y="0" width="0" height="44" fill="#fff"/></mask><mask id="satori_om-id-1"><rect x="0" y="0" width="100" height="44" fill="#fff"/></mask><mask id="satori_om-id-1-0"><rect x="13" y="11" width="22" height="22" fill="#fff"/></mask><mask id="satori_om-id-1-1"><rect x="40" y="14" width="48" height="16" fill="#fff"/></mask><g  ><path fill="#ffffff" d="M42.8 27L40.9 27L40.9 17.5L47.1 17.5L47.1 19.1L42.8 19.1L42.8 21.8L46.7 21.8L46.7 23.4L42.8 23.4L42.8 27ZM50.2 27.1L50.2 27.1Q49.5 27.1 49.0 26.9Q48.5 26.7 48.2 26.2Q47.9 25.7 47.9 25.0L47.9 25.0Q47.9 24.4 48.1 24.0Q48.3 23.6 48.7 23.4Q49.1 23.1 49.5 23.0Q50.0 22.9 50.5 22.8L50.5 22.8Q51.2 22.8 51.5 22.7Q51.9 22.7 52.1 22.5Q52.3 22.4 52.3 22.2L52.3 22.2L52.3 22.2Q52.3 21.9 52.1 21.7Q52.0 21.4 51.8 21.3Q51.5 21.2 51.1 21.2L51.1 21.2Q50.8 21.2 50.5 21.3Q50.2 21.4 50.1 21.6Q49.9 21.8 49.8 22.0L49.8 22.0L48.1 21.8Q48.2 21.1 48.7 20.7Q49.1 20.3 49.7 20.0Q50.4 19.8 51.2 19.8L51.2 19.8Q51.7 19.8 52.3 20.0Q52.8 20.1 53.2 20.4Q53.7 20.7 53.9 21.1Q54.2 21.6 54.2 22.2L54.2 22.2L54.2 27L52.4 27L52.4 26.0L52.3 26.0Q52.1 26.3 51.8 26.6Q51.6 26.8 51.2 27.0Q50.7 27.1 50.2 27.1ZM50.8 25.8L50.8 25.8Q51.2 25.8 51.6 25.6Q51.9 25.4 52.1 25.1Q52.3 24.8 52.3 24.5L52.3 24.5L52.3 23.7Q52.2 23.8 52.0 23.8Q51.8 23.9 51.6 23.9Q51.4 23.9 51.2 24.0Q51.0 24.0 50.9 24.0L50.9 24.0Q50.5 24.1 50.2 24.2Q50.0 24.3 49.8 24.5Q49.7 24.7 49.7 25.0L49.7 25.0Q49.7 25.2 49.8 25.4Q50.0 25.6 50.2 25.7Q50.5 25.8 50.8 25.8ZM58.4 27.1L58.4 27.1Q57.6 27.1 56.9 26.9Q56.2 26.7 55.8 26.2Q55.4 25.7 55.3 25.1L55.3 25.1L57.0 24.8Q57.2 25.2 57.5 25.5Q57.9 25.7 58.5 25.7L58.5 25.7Q59.0 25.7 59.3 25.5Q59.6 25.3 59.6 25.0L59.6 25.0Q59.6 24.7 59.4 24.6Q59.2 24.4 58.7 24.3L58.7 24.3L57.5 24.0Q56.5 23.8 56.0 23.3Q55.5 22.8 55.5 22.0L55.5 22.0Q55.5 21.3 55.8 20.8Q56.2 20.3 56.9 20.1Q57.5 19.8 58.4 19.8L58.4 19.8Q59.3 19.8 59.9 20.0Q60.5 20.3 60.9 20.7Q61.3 21.1 61.4 21.7L61.4 21.7L59.7 22.0Q59.6 21.6 59.3 21.4Q59.0 21.2 58.5 21.2L58.5 21.2Q58.0 21.2 57.7 21.4Q57.4 21.6 57.4 21.9L57.4 21.9Q57.4 22.2 57.6 22.4Q57.8 22.5 58.3 22.6L58.3 22.6L59.6 22.9Q60.6 23.1 61.1 23.6Q61.6 24.0 61.6 24.8L61.6 24.8Q61.6 25.5 61.2 26.0Q60.8 26.6 60.1 26.8Q59.3 27.1 58.4 27.1ZM64.9 19.9L66.2 19.9L66.2 21.4L64.9 21.4L64.9 24.9Q64.9 25.3 65.0 25.4Q65.2 25.6 65.5 25.6L65.5 25.6Q65.6 25.6 65.8 25.6Q66.0 25.5 66.1 25.5L66.1 25.5L66.4 26.9Q66.1 27.0 65.8 27.1Q65.4 27.1 65.2 27.1L65.2 27.1Q64.1 27.1 63.5 26.6Q63.0 26.1 63.0 25.1L63.0 25.1L63.0 21.4L62.0 21.4L62.0 19.9L63.0 19.9L63.0 18.2L64.9 18.2L64.9 19.9ZM68.9 27L66.7 27L70.0 17.5L72.5 17.5L75.8 27L73.7 27L72.9 24.8L69.6 24.8L68.9 27ZM70.1 23.3L72.4 23.3L72.1 22.4Q71.9 21.6 71.6 20.5L71.6 20.5Q71.4 19.8 71.2 19.1L71.2 19.1Q71.0 19.8 70.9 20.5L70.9 20.5Q70.6 21.6 70.3 22.4L70.3 22.4L70.1 23.3ZM78.7 27L76.8 27L76.8 17.5L80.5 17.5Q81.5 17.5 82.3 18.0Q83.1 18.4 83.5 19.1Q83.9 19.8 83.9 20.7L83.9 20.7Q83.9 21.7 83.4 22.4Q83.0 23.1 82.3 23.5Q81.5 23.9 80.4 23.9L80.4 23.9L78.7 23.9L78.7 27ZM78.7 19.1L78.7 22.3L80.1 22.3Q80.7 22.3 81.1 22.1Q81.5 21.9 81.7 21.6Q81.9 21.2 81.9 20.7Q81.9 20.3 81.7 19.9Q81.5 19.5 81.1 19.3Q80.7 19.1 80.1 19.1L80.1 19.1L78.7 19.1ZM85.0 17.5L86.9 17.5L86.9 27L85.0 27L85.0 17.5Z "/></g></svg>