<!-- Generated by readme-aura https://github.com/collectioneur/readme-aura -->
<svg width="120" height="44" viewBox="0 0 120 44" xmlns="http://www.w3.org/2000/svg"><mask id="satori_om-id"><rect x="0" y="0" width="120" height="44" fill="#fff"/></mask><path x="0" y="0" width="120" height="44" fill="#021a40" d="M22,0 h76 a22,22 0 0 1 22,22 v0 a22,22 0 0 1 -22,22 h-76 a22,22 0 0 1 -22,-22 v0 a22,22 0 0 1 22,-22"/><clipPath id="satori_cp-id-0"><rect x="0" y="0" width="120" height="44"/></clipPath><mask id="satori_om-id-0"><rect x="0" y="0" width="120" height="44" fill="#fff"/></mask><svg x="0" y="0" width="120" height="44" preserveAspectRatio="none" clip-path="url(#satori_cp-id-0)" mask="url(#satori_om-id-0)"><defs><linearGradient id="smb-grad-Facebook" gradientUnits="objectBoundingBox" x1="0" y1="0" x2="1" y2="1"><stop offset="0%" stop-color="#ffffff"></stop><stop offset="15%" stop-color="#021a40"></stop><stop offset="30%" stop-color="#cccccc"></stop><stop offset="50%" stop-color="#0866FF"></stop><stop offset="65%" stop-color="#021a40"></stop><stop offset="80%" stop-color="#888888"></stop><stop offset="100%" stop-color="#444444"></stop><animateTransform attributeName="gradientTransform" type="rotate" from="0 0.5 0.5" to="360 0.5 0.5" dur="8s" repeatCount="indefinite"></animateTransform></linearGradient></defs><rect x="1.25" y="1.25" width="117.5" height="41.5" rx="20.75" ry="20.75" fill="none" stroke="url(#smb-grad-Facebook)" stroke-width="2" stroke-linecap="round" stroke-linejoin="round"></rect><rect x="0.25" y="0.25" width="119.5" height="43.5" rx="21.75" ry="21.75" fill="none" stroke="#AAAAAA" stroke-width="0.5" stroke-linecap="round" stroke-linejoin="round"></rect></svg><mask id="satori_om-id-0-0"><rect x="0" y="0" width="0" height="44" fill="#fff"/></mask><mask id="satori_om-id-0-0-0"><rect x="0" y="0" width="0" height="44" fill="#fff"/></mask><mask id="satori_om-id-0-0-0-0"><rect x="0" y="0" width="0" height="44" fill="#fff"/></mask><mask id="satori_om-id-0-0-0-1"><rect x="0" y="0" width="0" height="44" fill="#fff"/></mask><mask id="satori_om-id-0-0-0-2"><rect x="0" y="0" width="0" height="44" fill="#fff"/></mask><mask id="satori_om-id-0-0-0-3"><rect x="0" y="0" width="0" height="44" fill="#fff"/></mask><mask id="satori_om-id-0-0-0-4"><rect x="0" y="0" width="0" height="44" fill="#fff"/></mask><mask id="satori_om-id-0-0-0-5"><rect x="0" y="0" width="0" height="44" fill="#fff"/></mask><mask id="satori_om-id-0-0-0-6"><rect x="0" y="0" width="0" height="44" fill="#fff"/></mask><mask id="satori_om-id-0-0-0-7"><rect x="0" y="0" width="0" height="44" fill="#fff"/></mask><mask id="satori_om-id-0-1"><rect x="0" y="0" width="0" height="44" fill="#fff"/></mask><mask id="satori_om-id-0-2"><rect x="0" y="0" width="0" height="44" fill="#fff"/></mask><mask id="satori_om-id-1"><rect x="0" y="0" width="120" height="44" fill="#fff"/></mask><mask id="satori_om-id-1-0"><rect x="16" y="11" width="22" height="22" fill="#fff"/></mask><mask id="satori_om-id-1-1"><rect x="43" y="14" width="61" height="16" fill="#fff"/></mask><g  ><path fill="#ffffff" d="M45.8 27L43.9 27L43.9 17.5L50.1 17.5L50.1 19.1L45.8 19.1L45.8 21.8L49.7 21.8L49.7 23.4L45.8 23.4L45.8 27ZM53.2 27.1L53.2 27.1Q52.5 27.1 52.0 26.9Q51.5 26.7 51.2 26.2Q50.9 25.7 50.9 25.0L50.9 25.0Q50.9 24.4 51.1 24.0Q51.3 23.6 51.7 23.4Q52.1 23.1 52.5 23.0Q53.0 22.9 53.5 22.8L53.5 22.8Q54.2 22.8 54.5 22.7Q54.9 22.7 55.1 22.5Q55.3 22.4 55.3 22.2L55.3 22.2L55.3 22.2Q55.3 21.9 55.1 21.7Q55.0 21.4 54.8 21.3Q54.5 21.2 54.1 21.2L54.1 21.2Q53.8 21.2 53.5 21.3Q53.2 21.4 53.1 21.6Q52.9 21.8 52.8 22.0L52.8 22.0L51.1 21.8Q51.2 21.1 51.7 20.7Q52.1 20.3 52.7 20.0Q53.4 19.8 54.2 19.8L54.2 19.8Q54.7 19.8 55.3 20.0Q55.8 20.1 56.2 20.4Q56.7 20.7 56.9 21.1Q57.2 21.6 57.2 22.2L57.2 22.2L57.2 27L55.4 27L55.4 26.0L55.3 26.0Q55.1 26.3 54.8 26.6Q54.6 26.8 54.2 27.0Q53.7 27.1 53.2 27.1ZM53.8 25.8L53.8 25.8Q54.2 25.8 54.6 25.6Q54.9 25.4 55.1 25.1Q55.3 24.8 55.3 24.5L55.3 24.5L55.3 23.7Q55.2 23.8 55.0 23.8Q54.8 23.9 54.6 23.9Q54.4 23.9 54.2 24.0Q54.0 24.0 53.9 24.0L53.9 24.0Q53.5 24.1 53.2 24.2Q53.0 24.3 52.8 24.5Q52.7 24.7 52.7 25.0L52.7 25.0Q52.7 25.2 52.8 25.4Q53.0 25.6 53.2 25.7Q53.5 25.8 53.8 25.8ZM61.8 27.1L61.8 27.1Q60.7 27.1 59.9 26.7Q59.1 26.2 58.7 25.4Q58.3 24.6 58.3 23.5L58.3 23.5Q58.3 22.4 58.7 21.6Q59.1 20.7 59.9 20.3Q60.7 19.8 61.8 19.8L61.8 19.8Q62.4 19.8 62.9 20.0Q63.5 20.1 63.9 20.4Q64.3 20.8 64.6 21.2Q64.8 21.6 64.9 22.2L64.9 22.2L63.1 22.5Q63.1 22.2 63.0 22.0Q62.8 21.8 62.7 21.6Q62.5 21.5 62.3 21.4Q62.1 21.3 61.8 21.3L61.8 21.3Q61.3 21.3 60.9 21.6Q60.6 21.9 60.4 22.3Q60.2 22.8 60.2 23.5L60.2 23.5Q60.2 24.1 60.4 24.6Q60.6 25.1 60.9 25.4Q61.3 25.6 61.8 25.6L61.8 25.6Q62.1 25.6 62.3 25.6Q62.5 25.5 62.7 25.3Q62.9 25.1 63.0 24.9Q63.1 24.7 63.2 24.4L63.2 24.4L64.9 24.7Q64.8 25.3 64.6 25.7Q64.3 26.2 63.9 26.5Q63.5 26.8 62.9 27.0Q62.4 27.1 61.8 27.1ZM69.2 27.1L69.2 27.1Q68.2 27.1 67.4 26.7Q66.6 26.3 66.2 25.4Q65.7 24.6 65.7 23.5L65.7 23.5Q65.7 22.4 66.2 21.6Q66.6 20.7 67.3 20.3Q68.1 19.8 69.1 19.8L69.1 19.8Q69.8 19.8 70.5 20.0Q71.1 20.3 71.5 20.7Q72.0 21.2 72.2 21.8Q72.5 22.5 72.5 23.4L72.5 23.4L72.5 23.9L67.6 23.9Q67.6 24.5 67.8 24.9L67.8 24.9Q68.0 25.3 68.4 25.5Q68.8 25.7 69.3 25.7L69.3 25.7Q69.6 25.7 69.9 25.6Q70.2 25.5 70.4 25.3Q70.5 25.1 70.6 24.9L70.6 24.9L72.4 25.2Q72.2 25.8 71.8 26.2Q71.4 26.7 70.7 26.9Q70.1 27.1 69.2 27.1ZM67.6 22.8L67.6 22.8L70.6 22.8Q70.6 22.4 70.5 22.1L70.5 22.1Q70.3 21.7 70.0 21.5Q69.7 21.2 69.2 21.2L69.2 21.2Q68.7 21.2 68.3 21.5Q68.0 21.7 67.8 22.1L67.8 22.1Q67.7 22.4 67.6 22.8ZM77.6 27.1L77.6 27.1Q77.0 27.1 76.6 26.9Q76.2 26.7 75.9 26.4Q75.7 26.1 75.5 25.9L75.5 25.9L75.5 25.9L75.5 27L73.6 27L73.6 17.5L75.5 17.5L75.5 21.1L75.5 21.1Q75.7 20.8 75.9 20.5Q76.2 20.2 76.6 20.0Q77.0 19.8 77.6 19.8L77.6 19.8Q78.4 19.8 79.0 20.2Q79.7 20.6 80.1 21.4Q80.4 22.3 80.4 23.5L80.4 23.5Q80.4 24.6 80.1 25.5Q79.7 26.3 79.0 26.7Q78.4 27.1 77.6 27.1ZM77.0 25.6L77.0 25.6Q77.5 25.6 77.8 25.3Q78.1 25.0 78.3 24.6Q78.5 24.1 78.5 23.5L78.5 23.5Q78.5 22.8 78.3 22.4Q78.1 21.9 77.8 21.6Q77.5 21.3 77.0 21.3L77.0 21.3Q76.5 21.3 76.1 21.6Q75.8 21.9 75.6 22.3Q75.4 22.8 75.4 23.5L75.4 23.5Q75.4 24.1 75.6 24.6Q75.8 25.1 76.1 25.3Q76.5 25.6 77.0 25.6ZM84.8 27.1L84.8 27.1Q83.7 27.1 82.9 26.7Q82.1 26.2 81.7 25.4Q81.3 24.6 81.3 23.5L81.3 23.5Q81.3 22.4 81.7 21.6Q82.1 20.7 82.9 20.3Q83.7 19.8 84.8 19.8L84.8 19.8Q85.8 19.8 86.6 20.3Q87.4 20.7 87.8 21.6Q88.2 22.4 88.2 23.5L88.2 23.5Q88.2 24.6 87.8 25.4Q87.4 26.2 86.6 26.7Q85.8 27.1 84.8 27.1ZM84.8 25.6L84.8 25.6Q85.3 25.6 85.6 25.4Q85.9 25.1 86.1 24.6Q86.3 24.1 86.3 23.5L86.3 23.5Q86.3 22.8 86.1 22.4Q85.9 21.9 85.6 21.6Q85.3 21.3 84.8 21.3L84.8 21.3Q84.2 21.3 83.9 21.6Q83.6 21.9 83.4 22.4Q83.2 22.8 83.2 23.5L83.2 23.5Q83.2 24.1 83.4 24.6Q83.6 25.1 83.9 25.4Q84.2 25.6 84.8 25.6ZM92.5 27.1L92.5 27.1Q91.5 27.1 90.7 26.7Q89.9 26.2 89.5 25.4Q89.1 24.6 89.1 23.5L89.1 23.5Q89.1 22.4 89.5 21.6Q89.9 20.7 90.7 20.3Q91.5 19.8 92.5 19.8L92.5 19.8Q93.6 19.8 94.4 20.3Q95.2 20.7 95.6 21.6Q96.0 22.4 96.0 23.5L96.0 23.5Q96.0 24.6 95.6 25.4Q95.2 26.2 94.4 26.7Q93.6 27.1 92.5 27.1ZM92.5 25.6L92.5 25.6Q93.0 25.6 93.4 25.4Q93.7 25.1 93.9 24.6Q94.1 24.1 94.1 23.5L94.1 23.5Q94.1 22.8 93.9 22.4Q93.7 21.9 93.4 21.6Q93.0 21.3 92.5 21.3L92.5 21.3Q92.0 21.3 91.7 21.6Q91.3 21.9 91.2 22.4Q91.0 22.8 91.0 23.5L91.0 23.5Q91.0 24.1 91.2 24.6Q91.3 25.1 91.7 25.4Q92.0 25.6 92.5 25.6ZM99.0 27L97.1 27L97.1 17.5L99.0 17.5L99.0 22.6L99.1 22.6L101.5 19.9L103.7 19.9L101.0 23.0L103.8 27L101.6 27L99.6 24.1L99.0 24.7L99.0 27Z "/></g></svg>