<!-- Generated by readme-aura https://github.com/collectioneur/readme-aura -->
<svg width="860" height="80" viewBox="0 0 860 80" xmlns="http://www.w3.org/2000/svg"><defs><clipPath id="satori_bc-id"><path x="0" y="0" width="860" height="80" d="M12,0 h836 a12,12 0 0 1 12,12 v56 a12,12 0 0 1 -12,12 h-836 a12,12 0 0 1 -12,-12 v-56 a12,12 0 0 1 12,-12"/></clipPath></defs><clipPath id="satori_cp-id"><path x="0" y="0" width="860" height="80" d="M12,0 h836 a12,12 0 0 1 12,12 v56 a12,12 0 0 1 -12,12 h-836 a12,12 0 0 1 -12,-12 v-56 a12,12 0 0 1 12,-12"/></clipPath><mask id="satori_om-id"><rect x="1" y="1" width="858" height="78" fill="#fff"/><path width="860" height="80" fill="none" stroke="#000" stroke-width="2" d="M3.5150000000000006,3.5150000000000006 A12,12 0 0 1 12,0 h836 a12,12 0 0 1 12,12 v56 a12,12 0 0 1 -12,12 h-836 a12,12 0 0 1 -12,-12 v-56 A12,12 0 0 1 3.5150000000000006,3.5150000000000006"/></mask><path x="0" y="0" width="860" height="80" fill="#08080c" d="M12,0 h836 a12,12 0 0 1 12,12 v56 a12,12 0 0 1 -12,12 h-836 a12,12 0 0 1 -12,-12 v-56 a12,12 0 0 1 12,-12"/><path width="860" height="80" clip-path="url(#satori_bc-id)" fill="none" stroke="rgba(110,80,220,0.2)" stroke-width="2" d="M3.5150000000000006,3.5150000000000006 A12,12 0 0 1 12,0 h836 a12,12 0 0 1 12,12 v56 a12,12 0 0 1 -12,12 h-836 a12,12 0 0 1 -12,-12 v-56 A12,12 0 0 1 3.5150000000000006,3.5150000000000006"/><clipPath id="satori_cp-id-0" clip-path="url(#satori_cp-id)"><rect x="1" y="1" width="860" height="80"/></clipPath><mask id="satori_om-id-0"><rect x="1" y="1" width="860" height="80" fill="#fff" mask="url(#satori_om-id)"/></mask><svg x="1" y="1" width="860" height="80" preserveAspectRatio="none" clip-path="url(#satori_cp-id-0)" mask="url(#satori_om-id-0)"><defs><radialGradient id="bg4" cx="50%" cy="50%" r="50%"><stop offset="0%" stop-color="rgba(110,240,140,0.25)"></stop><stop offset="100%" stop-color="transparent"></stop></radialGradient></defs><rect width="860" height="80" fill="url(#bg4)"></rect><style>
 @keyframes pulse-text4 { 0%, 100% { text-shadow: 0 0 10px rgba(110,240,140,0.5); } 50% { text-shadow: 0 0 25px rgba(80,255,180,0.9); } } #title4 { animation: pulse-text4 3s infinite; } 
</style>
</svg><mask id="satori_om-id-0-0"><rect x="1" y="1" width="0" height="80" fill="#fff" mask="url(#satori_om-id)"/></mask><mask id="satori_om-id-0-0-0"><rect x="1" y="1" width="0" height="80" fill="#fff" mask="url(#satori_om-id)"/></mask><mask id="satori_om-id-0-0-0-0"><rect x="1" y="1" width="0" height="80" fill="#fff" mask="url(#satori_om-id)"/></mask><mask id="satori_om-id-0-0-0-1"><rect x="1" y="1" width="0" height="80" fill="#fff" mask="url(#satori_om-id)"/></mask><mask id="satori_om-id-0-1"><rect x="1" y="1" width="0" height="80" fill="#fff" mask="url(#satori_om-id)"/></mask><mask id="satori_om-id-1"><rect x="241" y="25" width="379" height="31" fill="#fff" mask="url(#satori_om-id)"/></mask><g mask="url(#satori_om-id)" clip-path="url(#satori_cp-id)"><path fill="#fff" d="M255.4 50L242.7 50L242.7 31.1L255.4 31.1L255.4 34.3L246.6 34.3L246.6 38.9L254.7 38.9L254.7 42.0L246.6 42.0L246.6 46.8L255.4 46.8L255.4 50ZM264.9 50L260.4 50L267.2 40.3L261.0 31.1L265.5 31.1L267.6 34.3Q268.2 35.2 268.6 35.9Q268.9 36.6 269.3 37.3L269.3 37.3Q269.3 37.4 269.4 37.6L269.4 37.6Q269.5 37.4 269.6 37.3L269.6 37.3Q269.9 36.6 270.3 35.9Q270.7 35.2 271.3 34.3L271.3 34.3L273.4 31.1L277.8 31.1L271.7 40.2L278.3 50L273.7 50L271.1 46.0Q270.6 45.2 270.3 44.7Q269.9 44.1 269.7 43.6L269.7 43.6Q269.6 43.4 269.4 43.1L269.4 43.1Q269.2 43.3 269.1 43.6L269.1 43.6Q268.8 44.1 268.5 44.7Q268.2 45.2 267.6 46.0L267.6 46.0L264.9 50ZM287.6 50L283.7 50L283.7 31.1L291.1 31.1Q293.2 31.1 294.7 31.9Q296.3 32.7 297.1 34.2Q297.8 35.6 297.8 37.5L297.8 37.5Q297.8 39.3 297.0 40.8Q296.2 42.2 294.7 43.0Q293.2 43.8 291.0 43.8L291.0 43.8L287.6 43.8L287.6 50ZM287.6 34.3L287.6 40.7L290.4 40.7Q291.6 40.7 292.3 40.3Q293.1 39.9 293.5 39.1Q293.8 38.4 293.8 37.5Q293.8 36.5 293.5 35.8Q293.1 35.1 292.3 34.7Q291.5 34.3 290.4 34.3L290.4 34.3L287.6 34.3ZM316.2 50L303.5 50L303.5 31.1L316.2 31.1L316.2 34.3L307.4 34.3L307.4 38.9L315.5 38.9L315.5 42.0L307.4 42.0L307.4 46.8L316.2 46.8L316.2 50ZM326.2 50L322.3 50L322.3 31.1L329.7 31.1Q331.9 31.1 333.4 31.8Q334.9 32.6 335.7 34.0Q336.5 35.4 336.5 37.2Q336.5 39.1 335.7 40.5Q334.9 41.8 333.3 42.5L333.3 42.5Q333.2 42.6 333.1 42.6L333.1 42.6L337.2 50L332.9 50L329.2 43.2L326.2 43.2L326.2 50ZM326.2 34.3L326.2 40.1L329.0 40.1Q330.2 40.1 331.0 39.8Q331.7 39.5 332.1 38.8Q332.5 38.2 332.5 37.2L332.5 37.2Q332.5 36.3 332.1 35.6Q331.7 35.0 331.0 34.6Q330.2 34.3 329.0 34.3L329.0 34.3L326.2 34.3ZM342.4 31.1L346.3 31.1L346.3 50L342.4 50L342.4 31.1ZM365.4 50L352.7 50L352.7 31.1L365.4 31.1L365.4 34.3L356.6 34.3L356.6 38.9L364.7 38.9L364.7 42.0L356.6 42.0L356.6 46.8L365.4 46.8L365.4 50ZM375.5 50L371.5 50L371.5 31.1L375.8 31.1L381.8 40.7Q382.3 41.4 382.7 42.3Q383.2 43.1 383.7 44.2L383.7 44.2Q383.9 44.7 384.2 45.3L384.2 45.3Q384.1 44.8 384.1 44.3L384.1 44.3Q384.0 43.1 384.0 42.0Q383.9 40.9 383.9 40.2L383.9 40.2L383.9 31.1L387.9 31.1L387.9 50L383.6 50L378.1 41.3Q377.5 40.3 377.0 39.4Q376.5 38.5 376.0 37.4L376.0 37.4Q375.6 36.7 375.2 35.9L375.2 35.9Q375.3 36.6 375.3 37.4L375.3 37.4Q375.4 38.6 375.4 39.6Q375.5 40.7 375.5 41.3L375.5 41.3L375.5 50ZM402.6 50.3L402.6 50.3Q400.1 50.3 398.1 49.1Q396.1 48.0 395.0 45.8Q393.8 43.6 393.8 40.6L393.8 40.6Q393.8 37.5 395.0 35.3Q396.1 33.1 398.1 32.0Q400.1 30.8 402.6 30.8L402.6 30.8Q404.2 30.8 405.6 31.3Q407.0 31.7 408.1 32.6Q409.1 33.5 409.8 34.7Q410.5 36.0 410.7 37.6L410.7 37.6L406.8 37.6Q406.7 36.8 406.3 36.2Q406.0 35.6 405.4 35.1Q404.9 34.7 404.2 34.5Q403.5 34.3 402.7 34.3L402.7 34.3Q401.2 34.3 400.1 35.0Q399.0 35.7 398.4 37.1Q397.7 38.5 397.7 40.6L397.7 40.6Q397.7 42.6 398.4 44.0Q399.0 45.4 400.1 46.1Q401.2 46.8 402.7 46.8L402.7 46.8Q403.5 46.8 404.2 46.6Q404.9 46.4 405.4 45.9Q406.0 45.5 406.3 44.9Q406.7 44.3 406.8 43.5L406.8 43.5L410.7 43.5Q410.6 44.8 410.0 46.1Q409.3 47.3 408.3 48.2Q407.3 49.2 405.8 49.7Q404.4 50.3 402.6 50.3ZM429.2 50L416.6 50L416.6 31.1L429.2 31.1L429.2 34.3L420.4 34.3L420.4 38.9L428.6 38.9L428.6 42.0L420.4 42.0L420.4 46.8L429.2 46.8L429.2 50Z M450.1 50.3L450.1 50.3Q448.2 50.3 446.8 49.6Q445.3 48.9 444.6 47.7Q443.8 46.5 443.8 45.0L443.8 45.0Q443.8 43.9 444.3 43.0Q444.7 42.1 445.5 41.4L445.5 41.4Q446.3 40.7 447.3 40.0L447.3 40.0Q447.2 39.9 447.2 39.8L447.2 39.8Q446.4 38.9 446.0 37.9Q445.5 36.9 445.5 35.6L445.5 35.6Q445.5 34.3 446.1 33.2Q446.8 32.1 447.9 31.5Q449.1 30.9 450.6 30.9L450.6 30.9Q452.1 30.9 453.2 31.5Q454.3 32.1 454.9 33.1Q455.5 34.1 455.5 35.3L455.5 35.3Q455.5 36.2 455.2 37.0Q454.9 37.7 454.3 38.4Q453.8 39.1 453.0 39.6L453.0 39.6L451.8 40.4L455.0 44.1Q455.2 43.8 455.4 43.4L455.4 43.4Q455.8 42.3 455.8 40.8L455.8 40.8L459.0 40.8Q459.0 42.6 458.6 44.0Q458.3 45.3 457.6 46.3L457.6 46.3Q457.5 46.5 457.3 46.7L457.3 46.7L460.2 50L456.1 50L455.0 48.7Q454.0 49.5 452.8 49.9L452.8 49.9Q451.4 50.3 450.1 50.3ZM452.9 46.4L449.3 42.3L449.1 42.4Q448.3 43.0 447.9 43.5Q447.5 44.1 447.5 44.9L447.5 44.9Q447.5 45.6 447.9 46.1Q448.2 46.6 448.8 46.9Q449.4 47.2 450.3 47.2L450.3 47.2Q451.3 47.2 452.3 46.8L452.3 46.8Q452.6 46.6 452.9 46.4L452.9 46.4ZM450.0 38.2L450.0 38.2L451.0 37.6Q451.4 37.3 451.7 37.0Q452.0 36.7 452.2 36.3Q452.4 35.9 452.4 35.5L452.4 35.5Q452.4 34.8 451.9 34.4Q451.5 33.9 450.6 33.9L450.6 33.9Q450.1 33.9 449.7 34.1Q449.2 34.4 449.0 34.8Q448.8 35.1 448.8 35.7L448.8 35.7Q448.8 36.3 449.1 36.9Q449.4 37.5 449.9 38.2L449.9 38.2Q450.0 38.2 450.0 38.2Z M479.6 50.3L479.6 50.3Q476.7 50.3 475.0 48.7Q473.3 47.2 473.3 44.3L473.3 44.3L473.3 43.2L477.2 43.2L477.2 44.4Q477.2 45.7 477.8 46.4Q478.5 47.1 479.6 47.1L479.6 47.1Q480.8 47.1 481.4 46.4Q482.1 45.7 482.1 44.4L482.1 44.4L482.1 31.1L485.9 31.1L485.9 44.3Q485.9 47.2 484.2 48.7Q482.6 50.3 479.6 50.3ZM500.6 50.3L500.6 50.3Q498.1 50.3 496.1 49.1Q494.1 48.0 493.0 45.8Q491.8 43.6 491.8 40.6L491.8 40.6Q491.8 37.5 493.0 35.3Q494.1 33.1 496.1 32.0Q498.1 30.8 500.6 30.8L500.6 30.8Q503.1 30.8 505.1 32.0Q507.1 33.1 508.3 35.3Q509.5 37.5 509.5 40.6L509.5 40.6Q509.5 43.6 508.3 45.8Q507.1 48.0 505.1 49.1Q503.1 50.3 500.6 50.3ZM500.6 46.8L500.6 46.8Q502.1 46.8 503.2 46.1Q504.3 45.4 504.9 44.0Q505.5 42.6 505.5 40.6L505.5 40.6Q505.5 38.5 504.9 37.1Q504.3 35.7 503.2 35.0Q502.1 34.3 500.6 34.3L500.6 34.3Q499.2 34.3 498.1 35.0Q497.0 35.7 496.4 37.1Q495.7 38.5 495.7 40.6L495.7 40.6Q495.7 42.6 496.4 44.0Q497.0 45.4 498.1 46.1Q499.2 46.8 500.6 46.8ZM523.2 50.3L523.2 50.3Q520.8 50.3 519.1 49.4Q517.3 48.5 516.3 47.0Q515.4 45.4 515.4 43.4L515.4 43.4L515.4 31.1L519.2 31.1L519.2 43.0Q519.2 44.1 519.7 45.0Q520.2 45.9 521.1 46.4Q522.0 46.8 523.2 46.8L523.2 46.8Q524.4 46.8 525.2 46.4Q526.1 45.9 526.6 45.0Q527.1 44.1 527.1 43.0L527.1 43.0L527.1 31.1L531.0 31.1L531.0 43.4Q531.0 45.4 530.0 47.0Q529.0 48.5 527.3 49.4Q525.5 50.3 523.2 50.3ZM541.3 50L537.4 50L537.4 31.1L544.8 31.1Q546.9 31.1 548.4 31.8Q550.0 32.6 550.7 34.0Q551.5 35.4 551.5 37.2Q551.5 39.1 550.7 40.5Q549.9 41.8 548.4 42.5L548.4 42.5Q548.3 42.6 548.2 42.6L548.2 42.6L552.2 50L547.9 50L544.3 43.2L541.3 43.2L541.3 50ZM541.3 34.3L541.3 40.1L544.1 40.1Q545.3 40.1 546.0 39.8Q546.8 39.5 547.2 38.8Q547.5 38.2 547.5 37.2L547.5 37.2Q547.5 36.3 547.2 35.6Q546.8 35.0 546.0 34.6Q545.2 34.3 544.0 34.3L544.0 34.3L541.3 34.3ZM561.4 50L557.5 50L557.5 31.1L561.8 31.1L567.8 40.7Q568.2 41.4 568.7 42.3Q569.2 43.1 569.7 44.2L569.7 44.2Q569.9 44.7 570.1 45.3L570.1 45.3Q570.1 44.8 570.1 44.3L570.1 44.3Q570.0 43.1 570.0 42.0Q569.9 40.9 569.9 40.2L569.9 40.2L569.9 31.1L573.9 31.1L573.9 50L569.5 50L564.1 41.3Q563.5 40.3 563.0 39.4Q562.5 38.5 561.9 37.4L561.9 37.4Q561.6 36.7 561.2 35.9L561.2 35.9Q561.2 36.6 561.3 37.4L561.3 37.4Q561.3 38.6 561.4 39.6Q561.4 40.7 561.4 41.3L561.4 41.3L561.4 50ZM593.0 50L580.3 50L580.3 31.1L592.9 31.1L592.9 34.3L584.2 34.3L584.2 38.9L592.3 38.9L592.3 42.0L584.2 42.0L584.2 46.8L593.0 46.8L593.0 50ZM608.9 50L605.0 50L605.0 42.9L598.0 31.1L602.5 31.1L605.7 37.0Q606.2 37.9 606.6 38.7L606.6 38.7Q606.8 39.1 607.0 39.6L607.0 39.6Q607.1 39.1 607.3 38.7L607.3 38.7Q607.7 37.9 608.1 37.0L608.1 37.0L611.2 31.1L615.8 31.1L608.9 42.9L608.9 50Z "/></g></svg>