<!-- Generated by readme-aura https://github.com/collectioneur/readme-aura -->
<svg width="110" height="44" viewBox="0 0 110 44" xmlns="http://www.w3.org/2000/svg"><mask id="satori_om-id"><rect x="0" y="0" width="110" height="44" fill="#fff"/></mask><path x="0" y="0" width="110" height="44" fill="#000000" d="M22,0 h66 a22,22 0 0 1 22,22 v0 a22,22 0 0 1 -22,22 h-66 a22,22 0 0 1 -22,-22 v0 a22,22 0 0 1 22,-22"/><clipPath id="satori_cp-id-0"><rect x="0" y="0" width="110" height="44"/></clipPath><mask id="satori_om-id-0"><rect x="0" y="0" width="110" height="44" fill="#fff"/></mask><svg x="0" y="0" width="110" height="44" preserveAspectRatio="none" clip-path="url(#satori_cp-id-0)" mask="url(#satori_om-id-0)"><defs><linearGradient id="smb-grad-PyTorch" gradientUnits="objectBoundingBox" x1="0" y1="0" x2="1" y2="1"><stop offset="0%" stop-color="#b57af9"></stop><stop offset="30%" stop-color="#000000"></stop><stop offset="60%" stop-color="#9d6bf0"></stop><stop offset="80%" stop-color="#000000"></stop><stop offset="100%" stop-color="#c89dfb"></stop><animateTransform attributeName="gradientTransform" type="rotate" from="0 0.5 0.5" to="360 0.5 0.5" dur="8s" repeatCount="indefinite"></animateTransform></linearGradient></defs><rect x="1.25" y="1.25" width="107.5" height="41.5" rx="20.75" ry="20.75" fill="none" stroke="url(#smb-grad-PyTorch)" stroke-width="2" stroke-linecap="round" stroke-linejoin="round"></rect><rect x="0.25" y="0.25" width="109.5" height="43.5" rx="21.75" ry="21.75" fill="none" stroke="#AAAAAA" stroke-width="0.5" stroke-linecap="round" stroke-linejoin="round"></rect></svg><mask id="satori_om-id-0-0"><rect x="0" y="0" width="0" height="44" fill="#fff"/></mask><mask id="satori_om-id-0-0-0"><rect x="0" y="0" width="0" height="44" fill="#fff"/></mask><mask id="satori_om-id-0-0-0-0"><rect x="0" y="0" width="0" height="44" fill="#fff"/></mask><mask id="satori_om-id-0-0-0-1"><rect x="0" y="0" width="0" height="44" fill="#fff"/></mask><mask id="satori_om-id-0-0-0-2"><rect x="0" y="0" width="0" height="44" fill="#fff"/></mask><mask id="satori_om-id-0-0-0-3"><rect x="0" y="0" width="0" height="44" fill="#fff"/></mask><mask id="satori_om-id-0-0-0-4"><rect x="0" y="0" width="0" height="44" fill="#fff"/></mask><mask id="satori_om-id-0-0-0-5"><rect x="0" y="0" width="0" height="44" fill="#fff"/></mask><mask id="satori_om-id-0-1"><rect x="0" y="0" width="0" height="44" fill="#fff"/></mask><mask id="satori_om-id-0-2"><rect x="0" y="0" width="0" height="44" fill="#fff"/></mask><mask id="satori_om-id-1"><rect x="0" y="0" width="110" height="44" fill="#fff"/></mask><mask id="satori_om-id-1-0"><rect x="17" y="13" width="18" height="18" fill="#fff"/></mask><mask id="satori_om-id-1-1"><rect x="40" y="14" width="53" height="16" fill="#fff"/></mask><g  ><path fill="#f5f5f5" d="M42.8 27L40.9 27L40.9 17.5L44.5 17.5Q45.6 17.5 46.4 18.0Q47.1 18.4 47.5 19.1Q47.9 19.8 47.9 20.7L47.9 20.7Q47.9 21.7 47.5 22.4Q47.1 23.1 46.4 23.5Q45.6 23.9 44.5 23.9L44.5 23.9L42.8 23.9L42.8 27ZM42.8 19.1L42.8 22.3L44.2 22.3Q44.8 22.3 45.2 22.1Q45.6 21.9 45.7 21.6Q45.9 21.2 45.9 20.7Q45.9 20.3 45.7 19.9Q45.6 19.5 45.2 19.3Q44.8 19.1 44.2 19.1L44.2 19.1L42.8 19.1ZM49.0 29.5L49.0 29.5L49.4 28.1L49.7 28.1Q50.0 28.2 50.3 28.2Q50.6 28.1 50.8 28.0Q51.0 27.8 51.0 27.4L51.0 27.4L51.1 27.0L48.4 19.9L50.4 19.9L51.6 23.6Q51.9 24.3 52.0 25.0L52.0 25.0Q52.0 25.2 52.1 25.5L52.1 25.5Q52.1 25.2 52.2 25.0L52.2 25.0Q52.4 24.3 52.6 23.6L52.6 23.6L53.8 19.9L55.8 19.9L52.8 27.8Q52.6 28.4 52.3 28.8Q51.9 29.2 51.4 29.5Q50.9 29.7 50.2 29.7L50.2 29.7Q49.8 29.7 49.5 29.7Q49.2 29.6 49.0 29.5ZM59.2 19.1L56.3 19.1L56.3 17.5L64.1 17.5L64.1 19.1L61.2 19.1L61.2 27L59.2 27L59.2 19.1ZM68.3 27.1L68.3 27.1Q67.2 27.1 66.5 26.7Q65.7 26.2 65.3 25.4Q64.8 24.6 64.8 23.5L64.8 23.5Q64.8 22.4 65.3 21.6Q65.7 20.7 66.5 20.3Q67.2 19.8 68.3 19.8L68.3 19.8Q69.4 19.8 70.2 20.3Q70.9 20.7 71.4 21.6Q71.8 22.4 71.8 23.5L71.8 23.5Q71.8 24.6 71.4 25.4Q70.9 26.2 70.2 26.7Q69.4 27.1 68.3 27.1ZM68.3 25.6L68.3 25.6Q68.8 25.6 69.2 25.4Q69.5 25.1 69.7 24.6Q69.8 24.1 69.8 23.5L69.8 23.5Q69.8 22.8 69.7 22.4Q69.5 21.9 69.2 21.6Q68.8 21.3 68.3 21.3L68.3 21.3Q67.8 21.3 67.5 21.6Q67.1 21.9 67.0 22.4Q66.8 22.8 66.8 23.5L66.8 23.5Q66.8 24.1 67.0 24.6Q67.1 25.1 67.5 25.4Q67.8 25.6 68.3 25.6ZM74.8 27L72.9 27L72.9 19.9L74.8 19.9L74.8 21.1L74.8 21.1Q75.0 20.5 75.5 20.1Q75.9 19.8 76.5 19.8L76.5 19.8Q76.7 19.8 76.9 19.8Q77.0 19.8 77.2 19.9L77.2 19.9L77.2 21.6Q77.0 21.5 76.8 21.5Q76.5 21.5 76.3 21.5L76.3 21.5Q75.9 21.5 75.6 21.7Q75.2 21.9 75.0 22.2Q74.8 22.5 74.8 23.0L74.8 23.0L74.8 27ZM81.2 27.1L81.2 27.1Q80.1 27.1 79.3 26.7Q78.6 26.2 78.1 25.4Q77.7 24.6 77.7 23.5L77.7 23.5Q77.7 22.4 78.1 21.6Q78.6 20.7 79.3 20.3Q80.1 19.8 81.2 19.8L81.2 19.8Q81.8 19.8 82.3 20.0Q82.9 20.1 83.3 20.4Q83.7 20.8 84.0 21.2Q84.2 21.6 84.3 22.2L84.3 22.2L82.6 22.5Q82.5 22.2 82.4 22.0Q82.3 21.8 82.1 21.6Q81.9 21.5 81.7 21.4Q81.5 21.3 81.2 21.3L81.2 21.3Q80.7 21.3 80.3 21.6Q80.0 21.9 79.8 22.3Q79.7 22.8 79.7 23.5L79.7 23.5Q79.7 24.1 79.8 24.6Q80.0 25.1 80.3 25.4Q80.7 25.6 81.2 25.6L81.2 25.6Q81.5 25.6 81.7 25.6Q81.9 25.5 82.1 25.3Q82.3 25.1 82.4 24.9Q82.5 24.7 82.6 24.4L82.6 24.4L84.3 24.7Q84.2 25.3 84.0 25.7Q83.7 26.2 83.3 26.5Q82.9 26.8 82.4 27.0Q81.8 27.1 81.2 27.1ZM87.4 22.9L87.4 22.9L87.4 27L85.5 27L85.5 17.5L87.3 17.5L87.3 21.3Q87.6 20.7 88.0 20.3L88.0 20.3Q88.6 19.8 89.5 19.8L89.5 19.8Q90.2 19.8 90.8 20.1Q91.3 20.5 91.6 21.1Q91.9 21.7 91.9 22.5L91.9 22.5L91.9 27L90.0 27L90.0 22.8Q90.0 22.2 89.7 21.8Q89.3 21.4 88.7 21.4L88.7 21.4Q88.3 21.4 88.0 21.6Q87.7 21.8 87.5 22.1Q87.4 22.4 87.4 22.9Z "/></g></svg>