<!-- Generated by readme-aura https://github.com/collectioneur/readme-aura -->
<svg width="130" height="44" viewBox="0 0 130 44" xmlns="http://www.w3.org/2000/svg"><mask id="satori_om-id"><rect x="0" y="0" width="130" height="44" fill="#fff"/></mask><path x="0" y="0" width="130" height="44" fill="#000000" d="M22,0 h86 a22,22 0 0 1 22,22 v0 a22,22 0 0 1 -22,22 h-86 a22,22 0 0 1 -22,-22 v0 a22,22 0 0 1 22,-22"/><clipPath id="satori_cp-id-0"><rect x="0" y="0" width="130" height="44"/></clipPath><mask id="satori_om-id-0"><rect x="0" y="0" width="130" height="44" fill="#fff"/></mask><svg x="0" y="0" width="130" height="44" preserveAspectRatio="none" clip-path="url(#satori_cp-id-0)" mask="url(#satori_om-id-0)"><defs><linearGradient id="smb-grad-Kubernetes" gradientUnits="objectBoundingBox" x1="0" y1="0" x2="1" y2="1"><stop offset="0%" stop-color="#818cf8"></stop><stop offset="30%" stop-color="#000000"></stop><stop offset="60%" stop-color="#9298f8"></stop><stop offset="80%" stop-color="#000000"></stop><stop offset="100%" stop-color="#7479f5"></stop><animateTransform attributeName="gradientTransform" type="rotate" from="0 0.5 0.5" to="360 0.5 0.5" dur="8s" repeatCount="indefinite"></animateTransform></linearGradient></defs><rect x="1.25" y="1.25" width="127.5" height="41.5" rx="20.75" ry="20.75" fill="none" stroke="url(#smb-grad-Kubernetes)" stroke-width="2" stroke-linecap="round" stroke-linejoin="round"></rect><rect x="0.25" y="0.25" width="129.5" height="43.5" rx="21.75" ry="21.75" fill="none" stroke="#AAAAAA" stroke-width="0.5" stroke-linecap="round" stroke-linejoin="round"></rect></svg><mask id="satori_om-id-0-0"><rect x="0" y="0" width="0" height="44" fill="#fff"/></mask><mask id="satori_om-id-0-0-0"><rect x="0" y="0" width="0" height="44" fill="#fff"/></mask><mask id="satori_om-id-0-0-0-0"><rect x="0" y="0" width="0" height="44" fill="#fff"/></mask><mask id="satori_om-id-0-0-0-1"><rect x="0" y="0" width="0" height="44" fill="#fff"/></mask><mask id="satori_om-id-0-0-0-2"><rect x="0" y="0" width="0" height="44" fill="#fff"/></mask><mask id="satori_om-id-0-0-0-3"><rect x="0" y="0" width="0" height="44" fill="#fff"/></mask><mask id="satori_om-id-0-0-0-4"><rect x="0" y="0" width="0" height="44" fill="#fff"/></mask><mask id="satori_om-id-0-0-0-5"><rect x="0" y="0" width="0" height="44" fill="#fff"/></mask><mask id="satori_om-id-0-1"><rect x="0" y="0" width="0" height="44" fill="#fff"/></mask><mask id="satori_om-id-0-2"><rect x="0" y="0" width="0" height="44" fill="#fff"/></mask><mask id="satori_om-id-1"><rect x="0" y="0" width="130" height="44" fill="#fff"/></mask><mask id="satori_om-id-1-0"><rect x="17" y="13" width="18" height="18" fill="#fff"/></mask><mask id="satori_om-id-1-1"><rect x="40" y="14" width="73" height="16" fill="#fff"/></mask><g  ><path fill="#f5f5f5" d="M42.8 27L40.9 27L40.9 17.5L42.8 17.5L42.8 20.1L42.8 22.3Q42.8 22.2 42.9 22.1L42.9 22.1Q43.1 21.7 43.5 21.2Q43.8 20.8 44.2 20.3L44.2 20.3L46.6 17.5L48.9 17.5L45.4 21.6L49.0 27L46.7 27L44.0 22.9L42.8 24.3L42.8 27ZM52.4 27.1L52.4 27.1Q51.7 27.1 51.1 26.8Q50.6 26.4 50.3 25.8Q50.0 25.2 50.0 24.4L50.0 24.4L50.0 19.9L51.9 19.9L51.9 24.1Q51.9 24.7 52.2 25.1Q52.6 25.5 53.1 25.5L53.1 25.5Q53.6 25.5 53.9 25.3Q54.2 25.1 54.4 24.8Q54.5 24.5 54.5 24.0L54.5 24.0L54.5 19.9L56.4 19.9L56.4 27L54.6 27L54.6 25.5Q54.3 26.2 53.9 26.6L53.9 26.6Q53.3 27.1 52.4 27.1ZM61.8 27.1L61.8 27.1Q61.3 27.1 60.9 26.9Q60.5 26.7 60.2 26.4Q60.0 26.1 59.8 25.9L59.8 25.9L59.7 25.9L59.7 27L57.9 27L57.9 17.5L59.8 17.5L59.8 21.1L59.8 21.1Q60.0 20.8 60.2 20.5Q60.4 20.2 60.8 20.0Q61.2 19.8 61.8 19.8L61.8 19.8Q62.6 19.8 63.3 20.2Q63.9 20.6 64.3 21.4Q64.7 22.3 64.7 23.5L64.7 23.5Q64.7 24.6 64.3 25.5Q64.0 26.3 63.3 26.7Q62.6 27.1 61.8 27.1ZM61.2 25.6L61.2 25.6Q61.7 25.6 62.1 25.3Q62.4 25.0 62.6 24.6Q62.8 24.1 62.8 23.5L62.8 23.5Q62.8 22.8 62.6 22.4Q62.4 21.9 62.1 21.6Q61.7 21.3 61.2 21.3L61.2 21.3Q60.8 21.3 60.4 21.6Q60.1 21.9 59.9 22.3Q59.7 22.8 59.7 23.5L59.7 23.5Q59.7 24.1 59.9 24.6Q60.1 25.1 60.4 25.3Q60.8 25.6 61.2 25.6ZM69.1 27.1L69.1 27.1Q68.0 27.1 67.2 26.7Q66.4 26.3 66.0 25.4Q65.6 24.6 65.6 23.5L65.6 23.5Q65.6 22.4 66.0 21.6Q66.4 20.7 67.2 20.3Q67.9 19.8 69.0 19.8L69.0 19.8Q69.7 19.8 70.3 20.0Q70.9 20.3 71.3 20.7Q71.8 21.2 72.0 21.8Q72.3 22.5 72.3 23.4L72.3 23.4L72.3 23.9L67.4 23.9Q67.5 24.5 67.6 24.9L67.6 24.9Q67.9 25.3 68.2 25.5Q68.6 25.7 69.1 25.7L69.1 25.7Q69.4 25.7 69.7 25.6Q70.0 25.5 70.2 25.3Q70.4 25.1 70.5 24.9L70.5 24.9L72.2 25.2Q72.0 25.8 71.6 26.2Q71.2 26.7 70.5 26.9Q69.9 27.1 69.1 27.1ZM67.5 22.8L67.5 22.8L70.5 22.8Q70.4 22.4 70.3 22.1L70.3 22.1Q70.1 21.7 69.8 21.5Q69.5 21.2 69.0 21.2L69.0 21.2Q68.5 21.2 68.1 21.5Q67.8 21.7 67.6 22.1L67.6 22.1Q67.5 22.4 67.5 22.8ZM75.3 27L73.4 27L73.4 19.9L75.2 19.9L75.2 21.1L75.3 21.1Q75.5 20.5 76.0 20.1Q76.4 19.8 77.0 19.8L77.0 19.8Q77.2 19.8 77.3 19.8Q77.5 19.8 77.6 19.9L77.6 19.9L77.6 21.6Q77.5 21.5 77.3 21.5Q77.0 21.5 76.8 21.5L76.8 21.5Q76.4 21.5 76.0 21.7Q75.7 21.9 75.5 22.2Q75.3 22.5 75.3 23.0L75.3 23.0L75.3 27ZM80.4 22.9L80.4 22.9L80.4 27L78.5 27L78.5 19.9L80.3 19.9L80.3 21.4Q80.6 20.7 81.1 20.3L81.1 20.3Q81.6 19.8 82.5 19.8L82.5 19.8Q83.3 19.8 83.8 20.1Q84.4 20.5 84.7 21.1Q85.0 21.7 85.0 22.5L85.0 22.5L85.0 27L83.1 27L83.1 22.8Q83.1 22.2 82.7 21.8Q82.4 21.4 81.8 21.4L81.8 21.4Q81.4 21.4 81.1 21.6Q80.7 21.8 80.6 22.1Q80.4 22.4 80.4 22.9ZM89.6 27.1L89.6 27.1Q88.5 27.1 87.7 26.7Q86.9 26.3 86.5 25.4Q86.1 24.6 86.1 23.5L86.1 23.5Q86.1 22.4 86.5 21.6Q86.9 20.7 87.7 20.3Q88.5 19.8 89.5 19.8L89.5 19.8Q90.2 19.8 90.8 20.0Q91.4 20.3 91.9 20.7Q92.3 21.2 92.6 21.8Q92.8 22.5 92.8 23.4L92.8 23.4L92.8 23.9L88.0 23.9Q88.0 24.5 88.2 24.9L88.2 24.9Q88.4 25.3 88.8 25.5Q89.1 25.7 89.6 25.7L89.6 25.7Q90.0 25.7 90.2 25.6Q90.5 25.5 90.7 25.3Q90.9 25.1 91.0 24.9L91.0 24.9L92.7 25.2Q92.5 25.8 92.1 26.2Q91.7 26.7 91.1 26.9Q90.4 27.1 89.6 27.1ZM88.0 22.8L88.0 22.8L91.0 22.8Q91.0 22.4 90.8 22.1L90.8 22.1Q90.7 21.7 90.3 21.5Q90.0 21.2 89.5 21.2L89.5 21.2Q89.0 21.2 88.7 21.5Q88.3 21.7 88.1 22.1L88.1 22.1Q88.0 22.4 88.0 22.8ZM96.1 19.9L97.4 19.9L97.4 21.4L96.1 21.4L96.1 24.9Q96.1 25.3 96.3 25.4Q96.4 25.6 96.8 25.6L96.8 25.6Q96.9 25.6 97.1 25.6Q97.3 25.5 97.4 25.5L97.4 25.5L97.6 26.9Q97.3 27.0 97.0 27.1Q96.7 27.1 96.4 27.1L96.4 27.1Q95.3 27.1 94.8 26.6Q94.2 26.1 94.2 25.1L94.2 25.1L94.2 21.4L93.2 21.4L93.2 19.9L94.2 19.9L94.2 18.2L96.1 18.2L96.1 19.9ZM101.7 27.1L101.7 27.1Q100.6 27.1 99.8 26.7Q99.0 26.3 98.6 25.4Q98.2 24.6 98.2 23.5L98.2 23.5Q98.2 22.4 98.6 21.6Q99.0 20.7 99.8 20.3Q100.6 19.8 101.6 19.8L101.6 19.8Q102.3 19.8 102.9 20.0Q103.5 20.3 104.0 20.7Q104.4 21.2 104.7 21.8Q104.9 22.5 104.9 23.4L104.9 23.4L104.9 23.9L100.1 23.9Q100.1 24.5 100.3 24.9L100.3 24.9Q100.5 25.3 100.9 25.5Q101.2 25.7 101.7 25.7L101.7 25.7Q102.1 25.7 102.3 25.6Q102.6 25.5 102.8 25.3Q103.0 25.1 103.1 24.9L103.1 24.9L104.8 25.2Q104.7 25.8 104.2 26.2Q103.8 26.7 103.2 26.9Q102.5 27.1 101.7 27.1ZM100.1 22.8L100.1 22.8L103.1 22.8Q103.1 22.4 102.9 22.1L102.9 22.1Q102.8 21.7 102.4 21.5Q102.1 21.2 101.6 21.2L101.6 21.2Q101.1 21.2 100.8 21.5Q100.4 21.7 100.3 22.1L100.3 22.1Q100.1 22.4 100.1 22.8ZM108.8 27.1L108.8 27.1Q108.0 27.1 107.3 26.9Q106.7 26.7 106.3 26.2Q105.8 25.7 105.7 25.1L105.7 25.1L107.5 24.8Q107.6 25.2 108.0 25.5Q108.3 25.7 108.9 25.7L108.9 25.7Q109.5 25.7 109.8 25.5Q110.1 25.3 110.1 25.0L110.1 25.0Q110.1 24.7 109.9 24.6Q109.6 24.4 109.2 24.3L109.2 24.3L107.9 24.0Q106.9 23.8 106.4 23.3Q105.9 22.8 105.9 22.0L105.9 22.0Q105.9 21.3 106.3 20.8Q106.6 20.3 107.3 20.1Q108.0 19.8 108.9 19.8L108.9 19.8Q109.7 19.8 110.3 20.0Q111.0 20.3 111.3 20.7Q111.7 21.1 111.8 21.7L111.8 21.7L110.2 22.0Q110.0 21.6 109.7 21.4Q109.4 21.2 108.9 21.2L108.9 21.2Q108.4 21.2 108.1 21.4Q107.8 21.6 107.8 21.9L107.8 21.9Q107.8 22.2 108.0 22.4Q108.2 22.5 108.7 22.6L108.7 22.6L110.0 22.9Q111.0 23.1 111.5 23.6Q112.0 24.0 112.0 24.8L112.0 24.8Q112.0 25.5 111.6 26.0Q111.2 26.6 110.5 26.8Q109.8 27.1 108.8 27.1Z "/></g></svg>