<!-- Generated by readme-aura https://github.com/collectioneur/readme-aura -->
<svg width="860" height="168" viewBox="0 0 860 168" xmlns="http://www.w3.org/2000/svg"><defs><clipPath id="satori_bc-id"><path x="0" y="0" width="860" height="168" d="M16,0 h828 a16,16 0 0 1 16,16 v136 a16,16 0 0 1 -16,16 h-828 a16,16 0 0 1 -16,-16 v-136 a16,16 0 0 1 16,-16"/></clipPath></defs><clipPath id="satori_cp-id"><path x="0" y="0" width="860" height="168" d="M16,0 h828 a16,16 0 0 1 16,16 v136 a16,16 0 0 1 -16,16 h-828 a16,16 0 0 1 -16,-16 v-136 a16,16 0 0 1 16,-16"/></clipPath><mask id="satori_om-id"><rect x="1" y="1" width="858" height="166" fill="#fff"/><path width="860" height="168" fill="none" stroke="#000" stroke-width="2" d="M4.686,4.686 A16,16 0 0 1 16,0 h828 a16,16 0 0 1 16,16 v136 a16,16 0 0 1 -16,16 h-828 a16,16 0 0 1 -16,-16 v-136 A16,16 0 0 1 4.686,4.686"/></mask><path x="0" y="0" width="860" height="168" fill="#08080c" d="M16,0 h828 a16,16 0 0 1 16,16 v136 a16,16 0 0 1 -16,16 h-828 a16,16 0 0 1 -16,-16 v-136 a16,16 0 0 1 16,-16"/><path width="860" height="168" clip-path="url(#satori_bc-id)" fill="none" stroke="rgba(110,80,220,0.18)" stroke-width="2" d="M4.686,4.686 A16,16 0 0 1 16,0 h828 a16,16 0 0 1 16,16 v136 a16,16 0 0 1 -16,16 h-828 a16,16 0 0 1 -16,-16 v-136 A16,16 0 0 1 4.686,4.686"/><clipPath id="satori_cp-id-0" clip-path="url(#satori_cp-id)"><rect x="1" y="1" width="860" height="168"/></clipPath><mask id="satori_om-id-0"><rect x="1" y="1" width="860" height="168" fill="#fff" mask="url(#satori_om-id)"/></mask><svg x="1" y="1" width="860" height="168" preserveAspectRatio="none" clip-path="url(#satori_cp-id-0)" mask="url(#satori_om-id-0)"><defs><radialGradient id="rg1" cx="50%" cy="50%" r="50%"><stop offset="0%" stop-color="rgba(115,20,215,0.68)"></stop><stop offset="70%" stop-color="rgba(85,15,175,0)"></stop></radialGradient><radialGradient id="rg2" cx="50%" cy="50%" r="50%"><stop offset="0%" stop-color="rgba(55,55,255,0.55)"></stop><stop offset="70%" stop-color="rgba(35,45,210,0)"></stop></radialGradient><radialGradient id="rg3" cx="50%" cy="50%" r="50%"><stop offset="0%" stop-color="rgba(0,185,240,0.32)"></stop><stop offset="70%" stop-color="rgba(0,185,240,0)"></stop></radialGradient></defs><ellipse id="g-1" cx="170" cy="168" rx="260" ry="170" fill="url(#rg1)"></ellipse><ellipse id="g-2" cx="320" cy="178" rx="220" ry="140" fill="url(#rg2)"></ellipse><ellipse id="g-3" cx="590" cy="188" rx="160" ry="110" fill="url(#rg3)"></ellipse><style>

         @keyframes float-s { 0%, 100% { transform: translateX(0px); opacity: 0.8; } 50% { transform: translateX(350px); opacity: 1.2; } }
         @keyframes float-m { 0%, 100% { transform: translateX(0px); opacity: 0.7; } 50% { transform: translateX(-250px); opacity: 1.1; } }
         @keyframes float-f { 0%, 100% { transform: translateX(0px); opacity: 0.9; } 50% { transform: translateX(200px); opacity: 0.6; } }
         #g-1 { animation: float-s 9s ease-in-out infinite; }
         #g-2 { animation: float-m 12s ease-in-out infinite; }
         #g-3 { animation: float-f 8s ease-in-out infinite; }
       
</style>
</svg><mask id="satori_om-id-0-0"><rect x="1" y="1" width="0" height="168" fill="#fff" mask="url(#satori_om-id)"/></mask><mask id="satori_om-id-0-0-0"><rect x="1" y="1" width="0" height="168" fill="#fff" mask="url(#satori_om-id)"/></mask><mask id="satori_om-id-0-0-0-0"><rect x="1" y="1" width="0" height="168" fill="#fff" mask="url(#satori_om-id)"/></mask><mask id="satori_om-id-0-0-0-1"><rect x="1" y="1" width="0" height="168" fill="#fff" mask="url(#satori_om-id)"/></mask><mask id="satori_om-id-0-0-1"><rect x="1" y="1" width="0" height="168" fill="#fff" mask="url(#satori_om-id)"/></mask><mask id="satori_om-id-0-0-1-0"><rect x="1" y="1" width="0" height="168" fill="#fff" mask="url(#satori_om-id)"/></mask><mask id="satori_om-id-0-0-1-1"><rect x="1" y="1" width="0" height="168" fill="#fff" mask="url(#satori_om-id)"/></mask><mask id="satori_om-id-0-0-2"><rect x="1" y="1" width="0" height="168" fill="#fff" mask="url(#satori_om-id)"/></mask><mask id="satori_om-id-0-0-2-0"><rect x="1" y="1" width="0" height="168" fill="#fff" mask="url(#satori_om-id)"/></mask><mask id="satori_om-id-0-0-2-1"><rect x="1" y="1" width="0" height="168" fill="#fff" mask="url(#satori_om-id)"/></mask><mask id="satori_om-id-0-1"><rect x="1" y="1" width="0" height="168" fill="#fff" mask="url(#satori_om-id)"/></mask><mask id="satori_om-id-0-2"><rect x="1" y="1" width="0" height="168" fill="#fff" mask="url(#satori_om-id)"/></mask><mask id="satori_om-id-0-3"><rect x="1" y="1" width="0" height="168" fill="#fff" mask="url(#satori_om-id)"/></mask><mask id="satori_om-id-1"><rect x="33" y="19" width="794" height="12" fill="#fff" mask="url(#satori_om-id)"/></mask><g mask="url(#satori_om-id)" clip-path="url(#satori_cp-id)"><path fill="rgba(155,140,210,0.5)" d="M35.6 23.0L33.4 23.0L33.4 21.7L39.3 21.7L39.3 23.0L37.1 23.0L37.1 29L35.6 29L35.6 23.0ZM48.2 29L43.3 29L43.3 21.7L48.2 21.7L48.2 23.0L44.8 23.0L44.8 24.7L47.9 24.7L47.9 25.9L44.8 25.9L44.8 27.8L48.2 27.8L48.2 29ZM55.6 29.1L55.6 29.1Q54.6 29.1 53.9 28.7Q53.1 28.2 52.6 27.4Q52.2 26.5 52.2 25.4L52.2 25.4Q52.2 24.2 52.7 23.3Q53.1 22.5 53.9 22.1Q54.6 21.6 55.6 21.6L55.6 21.6Q56.2 21.6 56.7 21.8Q57.3 22.0 57.7 22.3Q58.1 22.6 58.4 23.1Q58.6 23.6 58.7 24.2L58.7 24.2L57.2 24.2Q57.2 23.9 57.0 23.7Q56.9 23.4 56.7 23.3Q56.5 23.1 56.2 23.0Q55.9 23.0 55.6 23.0L55.6 23.0Q55.0 23.0 54.6 23.2Q54.2 23.5 54.0 24.1Q53.7 24.6 53.7 25.4L53.7 25.4Q53.7 26.2 54.0 26.7Q54.2 27.2 54.6 27.5Q55.0 27.8 55.6 27.8L55.6 27.8Q55.9 27.8 56.2 27.7Q56.5 27.6 56.7 27.4Q56.9 27.3 57.0 27.0Q57.2 26.8 57.2 26.5L57.2 26.5L58.7 26.5Q58.7 27.0 58.4 27.5Q58.2 27.9 57.8 28.3Q57.4 28.7 56.8 28.9Q56.3 29.1 55.6 29.1ZM64.3 29L62.8 29L62.8 21.7L64.3 21.7L64.3 24.7L67.5 24.7L67.5 21.7L69.0 21.7L69.0 29L67.5 29L67.5 25.9L64.3 25.9L64.3 29Z M81.3 29.1L81.3 29.1Q80.4 29.1 79.8 28.8Q79.1 28.6 78.8 28.0Q78.4 27.5 78.4 26.7L78.4 26.7L79.9 26.7Q79.9 27.1 80.1 27.4Q80.3 27.6 80.6 27.7Q80.9 27.8 81.3 27.8L81.3 27.8Q81.7 27.8 82.0 27.7Q82.3 27.6 82.5 27.4Q82.6 27.2 82.6 26.9L82.6 26.9Q82.6 26.7 82.5 26.5Q82.3 26.3 82.0 26.2Q81.8 26.1 81.4 26.0L81.4 26.0L80.6 25.8Q79.6 25.6 79.1 25.1Q78.6 24.6 78.6 23.8L78.6 23.8Q78.6 23.2 78.9 22.7Q79.3 22.2 79.9 21.9Q80.5 21.6 81.3 21.6L81.3 21.6Q82.1 21.6 82.7 21.9Q83.3 22.2 83.7 22.7Q84.0 23.2 84.0 23.8L84.0 23.8L82.6 23.8Q82.5 23.4 82.2 23.1Q81.9 22.9 81.3 22.9L81.3 22.9Q80.9 22.9 80.7 23.0Q80.4 23.1 80.3 23.3Q80.1 23.5 80.1 23.7L80.1 23.7Q80.1 24.0 80.3 24.2Q80.4 24.3 80.7 24.5Q81.0 24.6 81.3 24.6L81.3 24.6L81.9 24.8Q82.4 24.9 82.8 25.1Q83.2 25.3 83.5 25.5Q83.8 25.8 84.0 26.1Q84.1 26.5 84.1 26.9L84.1 26.9Q84.1 27.6 83.8 28.1Q83.5 28.6 82.8 28.8Q82.2 29.1 81.3 29.1ZM90.1 23.0L87.9 23.0L87.9 21.7L93.8 21.7L93.8 23.0L91.6 23.0L91.6 29L90.1 29L90.1 23.0ZM99.1 29L97.4 29L99.9 21.7L101.9 21.7L104.4 29L102.8 29L102.2 27.3L99.6 27.3L99.1 29ZM100.0 26.1L101.8 26.1L101.6 25.5Q101.4 24.8 101.2 24L101.2 24Q101.0 23.5 100.9 22.9L100.9 22.9Q100.7 23.5 100.6 24.0L100.6 24.0Q100.4 24.8 100.2 25.5L100.2 25.5L100.0 26.1ZM111.5 29.1L111.5 29.1Q110.5 29.1 109.8 28.7Q109.0 28.2 108.6 27.4Q108.1 26.5 108.1 25.4L108.1 25.4Q108.1 24.2 108.6 23.3Q109.0 22.5 109.8 22.1Q110.6 21.6 111.5 21.6L111.5 21.6Q112.1 21.6 112.7 21.8Q113.2 22.0 113.6 22.3Q114.0 22.6 114.3 23.1Q114.6 23.6 114.6 24.2L114.6 24.2L113.1 24.2Q113.1 23.9 112.9 23.7Q112.8 23.4 112.6 23.3Q112.4 23.1 112.1 23.0Q111.9 23.0 111.5 23.0L111.5 23.0Q111.0 23.0 110.5 23.2Q110.1 23.5 109.9 24.1Q109.6 24.6 109.6 25.4L109.6 25.4Q109.6 26.2 109.9 26.7Q110.1 27.2 110.5 27.5Q111.0 27.8 111.5 27.8L111.5 27.8Q111.8 27.8 112.1 27.7Q112.4 27.6 112.6 27.4Q112.8 27.3 112.9 27.0Q113.1 26.8 113.1 26.5L113.1 26.5L114.6 26.5Q114.6 27.0 114.3 27.5Q114.1 27.9 113.7 28.3Q113.3 28.7 112.8 28.9Q112.2 29.1 111.5 29.1ZM120.2 29L118.7 29L118.7 21.7L120.2 21.7L120.2 23.7L120.2 25.4Q120.2 25.3 120.3 25.3L120.3 25.3Q120.5 24.9 120.7 24.6Q121.0 24.2 121.3 23.8L121.3 23.8L123.1 21.7L124.9 21.7L122.2 24.9L125.0 29L123.3 29L121.2 25.9L120.2 26.9L120.2 29Z "/></g><mask id="satori_om-id-2"><rect x="33" y="45" width="794" height="64" fill="#fff" mask="url(#satori_om-id)"/></mask><mask id="satori_om-id-2-0"><rect x="33" y="45" width="794" height="25" fill="#fff" mask="url(#satori_om-id)"/></mask><mask id="satori_om-id-2-0-0"><rect x="33" y="52" width="80" height="12" fill="#fff" mask="url(#satori_om-id)"/></mask><g mask="url(#satori_om-id)" clip-path="url(#satori_cp-id)"><path fill="#a78bfa" d="M38.3 62L33.7 62L33.7 54.7L35.1 54.7L35.1 60.8L38.3 60.8L38.3 62ZM41.5 62L39.9 62L42.4 54.7L44.3 54.7L46.9 62L45.2 62L44.7 60.3L42.1 60.3L41.5 62ZM42.5 59.1L44.3 59.1L44.1 58.5Q43.8 57.8 43.6 57L43.6 57Q43.5 56.5 43.3 55.9L43.3 55.9Q43.2 56.5 43.1 57.0L43.1 57.0Q42.9 57.8 42.7 58.5L42.7 58.5L42.5 59.1ZM50.3 62L48.8 62L48.8 54.7L50.4 54.7L52.7 58.4Q52.9 58.7 53.1 59.0Q53.3 59.4 53.5 59.8L53.5 59.8Q53.6 60.0 53.6 60.2L53.6 60.2Q53.6 60.0 53.6 59.8L53.6 59.8Q53.6 59.3 53.6 58.9Q53.6 58.5 53.6 58.2L53.6 58.2L53.6 54.7L55.1 54.7L55.1 62L53.4 62L51.3 58.7Q51.1 58.3 50.9 57.9Q50.7 57.6 50.5 57.1L50.5 57.1Q50.4 56.9 50.2 56.6L50.2 56.6Q50.2 56.9 50.2 57.1L50.2 57.1Q50.3 57.6 50.3 58.0Q50.3 58.4 50.3 58.7L50.3 58.7L50.3 62ZM60.6 62.1L60.6 62.1Q59.6 62.1 58.8 61.6Q58.1 61.2 57.6 60.4Q57.2 59.5 57.2 58.4L57.2 58.4Q57.2 57.2 57.7 56.4Q58.1 55.5 58.9 55.1Q59.6 54.6 60.6 54.6L60.6 54.6Q61.2 54.6 61.7 54.8Q62.3 55.0 62.7 55.3Q63.1 55.6 63.4 56.1Q63.6 56.5 63.7 57.1L63.7 57.1L62.2 57.1Q62.1 56.8 62.0 56.6Q61.8 56.4 61.6 56.2Q61.4 56.1 61.2 56.0Q60.9 56.0 60.6 56.0L60.6 56.0Q60.1 56.0 59.6 56.2Q59.2 56.5 59.0 57.0Q58.7 57.6 58.7 58.4Q58.7 59.1 59.0 59.7Q59.2 60.2 59.6 60.5Q60.0 60.8 60.6 60.8L60.6 60.8Q61.2 60.8 61.5 60.6Q61.9 60.4 62.1 60.0L62.1 60.0Q62.3 59.7 62.3 59.3L62.3 59.3L60.7 59.3L60.7 58.1L63.8 58.1L63.8 59.0Q63.8 60.0 63.4 60.7Q63.0 61.4 62.2 61.7Q61.5 62.1 60.6 62.1ZM68.9 62.1L68.9 62.1Q68.0 62.1 67.3 61.8Q66.7 61.4 66.3 60.8Q65.9 60.2 65.9 59.4L65.9 59.4L65.9 54.7L67.4 54.7L67.4 59.3Q67.4 59.7 67.6 60.1Q67.8 60.4 68.1 60.6Q68.5 60.8 68.9 60.8L68.9 60.8Q69.4 60.8 69.7 60.6Q70.0 60.4 70.2 60.1Q70.4 59.7 70.4 59.3L70.4 59.3L70.4 54.7L71.9 54.7L71.9 59.4Q71.9 60.2 71.5 60.8Q71.2 61.4 70.5 61.8Q69.8 62.1 68.9 62.1ZM75.5 62L73.8 62L76.3 54.7L78.2 54.7L80.8 62L79.1 62L78.6 60.3L76.0 60.3L75.5 62ZM76.4 59.1L78.2 59.1L78.0 58.5Q77.8 57.8 77.5 57L77.5 57Q77.4 56.5 77.3 55.9L77.3 55.9Q77.1 56.5 77.0 57.0L77.0 57.0Q76.8 57.8 76.6 58.5L76.6 58.5L76.4 59.1ZM85.9 62.1L85.9 62.1Q84.9 62.1 84.1 61.6Q83.4 61.2 82.9 60.4Q82.5 59.5 82.5 58.4L82.5 58.4Q82.5 57.2 82.9 56.4Q83.4 55.5 84.2 55.1Q84.9 54.6 85.9 54.6L85.9 54.6Q86.5 54.6 87.0 54.8Q87.6 55.0 88.0 55.3Q88.4 55.6 88.6 56.1Q88.9 56.5 89.0 57.1L89.0 57.1L87.5 57.1Q87.4 56.8 87.2 56.6Q87.1 56.4 86.9 56.2Q86.7 56.1 86.5 56.0Q86.2 56.0 85.9 56.0L85.9 56.0Q85.3 56.0 84.9 56.2Q84.5 56.5 84.2 57.0Q84.0 57.6 84.0 58.4Q84.0 59.1 84.2 59.7Q84.5 60.2 84.9 60.5Q85.3 60.8 85.9 60.8L85.9 60.8Q86.5 60.8 86.8 60.6Q87.2 60.4 87.4 60.0L87.4 60.0Q87.6 59.7 87.6 59.3L87.6 59.3L86.0 59.3L86.0 58.1L89.1 58.1L89.1 59.0Q89.1 60.0 88.6 60.7Q88.2 61.4 87.5 61.7Q86.8 62.1 85.9 62.1ZM96.1 62L91.2 62L91.2 54.7L96.1 54.7L96.1 56.0L92.7 56.0L92.7 57.7L95.8 57.7L95.8 58.9L92.7 58.9L92.7 60.8L96.1 60.8L96.1 62ZM100.9 62.1L100.9 62.1Q100.1 62.1 99.4 61.8Q98.8 61.6 98.4 61.0Q98.0 60.5 98.0 59.7L98.0 59.7L99.5 59.7Q99.5 60.1 99.7 60.4Q99.9 60.6 100.2 60.7Q100.5 60.8 100.9 60.8L100.9 60.8Q101.3 60.8 101.6 60.7Q101.9 60.6 102.1 60.4Q102.2 60.2 102.2 59.9L102.2 59.9Q102.2 59.7 102.1 59.5Q101.9 59.3 101.7 59.2Q101.4 59.1 101.0 59.0L101.0 59.0L100.2 58.8Q99.3 58.6 98.7 58.1Q98.2 57.6 98.2 56.8L98.2 56.8Q98.2 56.2 98.6 55.7Q98.9 55.2 99.5 54.9Q100.2 54.6 101.0 54.6L101.0 54.6Q101.8 54.6 102.4 54.9Q103.0 55.2 103.3 55.7Q103.6 56.2 103.6 56.8L103.6 56.8L102.2 56.8Q102.2 56.4 101.8 56.1Q101.5 55.9 100.9 55.9L100.9 55.9Q100.6 55.9 100.3 56.0Q100.0 56.1 99.9 56.3Q99.8 56.5 99.8 56.7L99.8 56.7Q99.8 57.0 99.9 57.2Q100.1 57.3 100.3 57.5Q100.6 57.6 100.9 57.6L100.9 57.6L101.6 57.8Q102.0 57.9 102.4 58.1Q102.8 58.3 103.1 58.5Q103.4 58.8 103.6 59.1Q103.7 59.5 103.7 59.9L103.7 59.9Q103.7 60.6 103.4 61.1Q103.1 61.6 102.5 61.8Q101.8 62.1 100.9 62.1Z "/></g><mask id="satori_om-id-2-0-1"><rect x="129" y="45" width="527" height="25" fill="#fff" mask="url(#satori_om-id)"/></mask><defs><clipPath id="satori_bc-id-2-0-1-0" clip-path="url(#satori_cp-id)"><path x="129" y="45" width="70" height="25" d="M135,45 h58 a6,6 0 0 1 6,6 v13 a6,6 0 0 1 -6,6 h-58 a6,6 0 0 1 -6,-6 v-13 a6,6 0 0 1 6,-6"/></clipPath></defs><mask id="satori_om-id-2-0-1-0"><rect x="130" y="46" width="68" height="23" fill="#fff" mask="url(#satori_om-id)"/><path width="70" height="25" fill="none" stroke="#000" stroke-width="2" d="M130.757,46.757 A6,6 0 0 1 135,45 h58 a6,6 0 0 1 6,6 v13 a6,6 0 0 1 -6,6 h-58 a6,6 0 0 1 -6,-6 v-13 A6,6 0 0 1 130.757,46.757"/></mask><path x="129" y="45" width="70" height="25" fill="#a78bfa15" d="M135,45 h58 a6,6 0 0 1 6,6 v13 a6,6 0 0 1 -6,6 h-58 a6,6 0 0 1 -6,-6 v-13 a6,6 0 0 1 6,-6" clip-path="url(#satori_cp-id)" mask="url(#satori_om-id)"/><path width="70" height="25" clip-path="url(#satori_bc-id-2-0-1-0)" fill="none" stroke="#a78bfa35" stroke-width="2" d="M130.757,46.757 A6,6 0 0 1 135,45 h58 a6,6 0 0 1 6,6 v13 a6,6 0 0 1 -6,6 h-58 a6,6 0 0 1 -6,-6 v-13 A6,6 0 0 1 130.757,46.757"/><g mask="url(#satori_om-id)" clip-path="url(#satori_cp-id)"><path fill="rgba(225,220,255,0.85)" d="M145.6 62L143.8 62L143.8 53.3L147.2 53.3Q148.2 53.3 148.9 53.6Q149.6 54.0 150.0 54.7Q150.3 55.4 150.3 56.2L150.3 56.2Q150.3 57.1 149.9 57.7Q149.6 58.4 148.9 58.8Q148.2 59.1 147.2 59.1L147.2 59.1L145.6 59.1L145.6 62ZM145.6 54.7L145.6 57.7L146.9 57.7Q147.4 57.7 147.8 57.5Q148.1 57.3 148.3 57.0Q148.5 56.7 148.5 56.2Q148.5 55.8 148.3 55.4Q148.1 55.1 147.8 54.9Q147.4 54.7 146.9 54.7L146.9 54.7L145.6 54.7ZM151.5 64.3L151.5 64.3L151.9 63.0L152.1 63.0Q152.5 63.1 152.7 63.1Q153.0 63.1 153.2 62.9Q153.3 62.7 153.4 62.4L153.4 62.4L153.4 62.0L151.0 55.4L152.8 55.4L153.9 58.8Q154.1 59.5 154.3 60.1L154.3 60.1Q154.3 60.4 154.3 60.6L154.3 60.6Q154.4 60.4 154.4 60.1L154.4 60.1Q154.6 59.5 154.8 58.8L154.8 58.8L156.0 55.4L157.8 55.4L155.0 62.8Q154.8 63.3 154.5 63.7Q154.2 64.1 153.7 64.3Q153.3 64.5 152.6 64.5L152.6 64.5Q152.3 64.5 152.0 64.4Q151.7 64.4 151.5 64.3ZM160.8 55.4L162.0 55.4L162.0 56.8L160.8 56.8L160.8 60.1Q160.8 60.4 160.9 60.5Q161.1 60.7 161.4 60.7L161.4 60.7Q161.5 60.7 161.7 60.7Q161.8 60.6 161.9 60.6L161.9 60.6L162.2 61.9Q161.9 62.0 161.6 62.1Q161.3 62.1 161.0 62.1L161.0 62.1Q160.1 62.1 159.5 61.6Q159.0 61.1 159.0 60.2L159.0 60.2L159.0 56.8L158.1 56.8L158.1 55.4L159.0 55.4L159.0 53.9L160.8 53.9L160.8 55.4ZM164.9 58.2L164.9 58.2L164.9 62L163.1 62L163.1 53.3L164.9 53.3L164.9 56.7Q165.1 56.2 165.5 55.8L165.5 55.8Q166.0 55.4 166.9 55.4L166.9 55.4Q167.5 55.4 168.1 55.7Q168.6 56.0 168.8 56.5Q169.1 57.1 169.1 57.8L169.1 57.8L169.1 62L167.4 62L167.4 58.1Q167.4 57.5 167.0 57.2Q166.7 56.8 166.2 56.8L166.2 56.8Q165.8 56.8 165.5 57.0Q165.2 57.2 165.1 57.5Q164.9 57.8 164.9 58.2ZM173.5 62.1L173.5 62.1Q172.6 62.1 171.8 61.7Q171.1 61.3 170.7 60.5Q170.3 59.8 170.3 58.8L170.3 58.8Q170.3 57.7 170.7 57.0Q171.1 56.2 171.8 55.8Q172.6 55.4 173.5 55.4L173.5 55.4Q174.5 55.4 175.3 55.8Q176.0 56.2 176.4 57.0Q176.8 57.7 176.8 58.8L176.8 58.8Q176.8 59.8 176.4 60.5Q176.0 61.3 175.3 61.7Q174.5 62.1 173.5 62.1ZM173.5 60.7L173.5 60.7Q174.0 60.7 174.3 60.5Q174.6 60.2 174.8 59.8Q175.0 59.3 175.0 58.7L175.0 58.7Q175.0 58.2 174.8 57.7Q174.6 57.3 174.3 57.0Q174.0 56.8 173.5 56.8L173.5 56.8Q173.1 56.8 172.8 57.0Q172.4 57.3 172.3 57.7Q172.1 58.2 172.1 58.7L172.1 58.7Q172.1 59.3 172.3 59.8Q172.4 60.2 172.8 60.5Q173.1 60.7 173.5 60.7ZM179.7 58.2L179.7 58.2L179.7 62L178.0 62L178.0 55.4L179.6 55.4L179.7 56.8Q179.9 56.2 180.3 55.8L180.3 55.8Q180.9 55.4 181.7 55.4L181.7 55.4Q182.4 55.4 182.9 55.7Q183.4 56.0 183.7 56.5Q183.9 57.1 183.9 57.8L183.9 57.8L183.9 62L182.2 62L182.2 58.1Q182.2 57.5 181.9 57.2Q181.6 56.8 181.0 56.8L181.0 56.8Q180.6 56.8 180.3 57.0Q180.1 57.2 179.9 57.5Q179.7 57.8 179.7 58.2Z "/></g><defs><clipPath id="satori_bc-id-2-0-1-1" clip-path="url(#satori_cp-id)"><path x="206" y="45" width="134" height="25" d="M212,45 h122 a6,6 0 0 1 6,6 v13 a6,6 0 0 1 -6,6 h-122 a6,6 0 0 1 -6,-6 v-13 a6,6 0 0 1 6,-6"/></clipPath></defs><mask id="satori_om-id-2-0-1-1"><rect x="207" y="46" width="132" height="23" fill="#fff" mask="url(#satori_om-id)"/><path width="134" height="25" fill="none" stroke="#000" stroke-width="2" d="M207.757,46.757 A6,6 0 0 1 212,45 h122 a6,6 0 0 1 6,6 v13 a6,6 0 0 1 -6,6 h-122 a6,6 0 0 1 -6,-6 v-13 A6,6 0 0 1 207.757,46.757"/></mask><path x="206" y="45" width="134" height="25" fill="#a78bfa15" d="M212,45 h122 a6,6 0 0 1 6,6 v13 a6,6 0 0 1 -6,6 h-122 a6,6 0 0 1 -6,-6 v-13 a6,6 0 0 1 6,-6" clip-path="url(#satori_cp-id)" mask="url(#satori_om-id)"/><path width="134" height="25" clip-path="url(#satori_bc-id-2-0-1-1)" fill="none" stroke="#a78bfa35" stroke-width="2" d="M207.757,46.757 A6,6 0 0 1 212,45 h122 a6,6 0 0 1 6,6 v13 a6,6 0 0 1 -6,6 h-122 a6,6 0 0 1 -6,-6 v-13 A6,6 0 0 1 207.757,46.757"/><g mask="url(#satori_om-id)" clip-path="url(#satori_cp-id)"><path fill="rgba(225,220,255,0.85)" d="M223.3 62.1L223.3 62.1Q222.0 62.1 221.2 61.4Q220.4 60.7 220.4 59.4L220.4 59.4L220.4 58.9L222.2 58.9L222.2 59.4Q222.2 60.0 222.5 60.4Q222.8 60.7 223.3 60.7L223.3 60.7Q223.8 60.7 224.1 60.4Q224.5 60.0 224.5 59.4L224.5 59.4L224.5 53.3L226.2 53.3L226.2 59.4Q226.2 60.7 225.4 61.4Q224.7 62.1 223.3 62.1ZM230.0 62.1L230.0 62.1Q229.3 62.1 228.8 61.8Q228.3 61.5 228.0 60.9Q227.8 60.4 227.8 59.6L227.8 59.6L227.8 55.4L229.5 55.4L229.5 59.3Q229.5 59.9 229.8 60.3Q230.2 60.6 230.7 60.6L230.7 60.6Q231.1 60.6 231.4 60.5Q231.7 60.3 231.8 60.0Q232.0 59.7 232.0 59.2L232.0 59.2L232.0 55.4L233.7 55.4L233.7 62L232.1 62L232.1 60.6Q231.8 61.3 231.4 61.6L231.4 61.6Q230.8 62.1 230.0 62.1ZM237.0 64.4L235.2 64.4L235.2 55.4L237.0 55.4L237.0 56.6L237.0 56.6Q237.2 56.3 237.4 56.0Q237.6 55.7 238.0 55.6Q238.4 55.4 238.9 55.4L238.9 55.4Q239.6 55.4 240.2 55.7Q240.8 56.1 241.2 56.9Q241.6 57.6 241.6 58.7L241.6 58.7Q241.6 59.8 241.2 60.6Q240.9 61.3 240.3 61.7Q239.7 62.1 238.9 62.1L238.9 62.1Q238.4 62.1 238 61.9Q237.6 61.7 237.4 61.5Q237.2 61.2 237.0 61.0L237.0 61.0L237.0 61.0L237.0 64.4ZM238.4 60.7L238.4 60.7Q238.8 60.7 239.1 60.4Q239.4 60.2 239.6 59.8Q239.8 59.3 239.8 58.7L239.8 58.7Q239.8 58.2 239.6 57.7Q239.4 57.3 239.1 57.0Q238.8 56.8 238.4 56.8L238.4 56.8Q237.9 56.8 237.6 57.0Q237.3 57.3 237.1 57.7Q237.0 58.1 237.0 58.7L237.0 58.7Q237.0 59.3 237.1 59.8Q237.3 60.2 237.6 60.5Q237.9 60.7 238.4 60.7ZM242.8 64.3L242.8 64.3L243.2 63.0L243.4 63.0Q243.7 63.1 244 63.1Q244.3 63.1 244.4 62.9Q244.6 62.7 244.6 62.4L244.6 62.4L244.7 62.0L242.2 55.4L244.1 55.4L245.2 58.8Q245.4 59.5 245.5 60.1L245.5 60.1Q245.6 60.4 245.6 60.6L245.6 60.6Q245.7 60.4 245.7 60.1L245.7 60.1Q245.9 59.5 246.1 58.8L246.1 58.8L247.2 55.4L249.1 55.4L246.3 62.8Q246.1 63.3 245.8 63.7Q245.5 64.1 245.0 64.3Q244.6 64.5 243.9 64.5L243.9 64.5Q243.5 64.5 243.2 64.4Q242.9 64.4 242.8 64.3ZM252.1 55.4L253.3 55.4L253.3 56.8L252.1 56.8L252.1 60.1Q252.1 60.4 252.2 60.5Q252.3 60.7 252.6 60.7L252.6 60.7Q252.7 60.7 252.9 60.7Q253.1 60.6 253.2 60.6L253.2 60.6L253.5 61.9Q253.2 62.0 252.9 62.1Q252.6 62.1 252.3 62.1L252.3 62.1Q251.3 62.1 250.8 61.6Q250.3 61.1 250.3 60.2L250.3 60.2L250.3 56.8L249.4 56.8L249.4 55.4L250.3 55.4L250.3 53.9L252.1 53.9L252.1 55.4ZM257.4 62.1L257.4 62.1Q256.4 62.1 255.6 61.7Q254.9 61.3 254.5 60.6Q254.1 59.8 254.1 58.8L254.1 58.8Q254.1 57.7 254.5 57.0Q254.9 56.2 255.6 55.8Q256.3 55.4 257.3 55.4L257.3 55.4Q257.9 55.4 258.5 55.6Q259.0 55.8 259.5 56.2Q259.9 56.6 260.1 57.2Q260.4 57.8 260.4 58.7L260.4 58.7L260.4 59.2L255.9 59.2Q255.9 59.7 256.1 60.0L256.1 60.0Q256.3 60.4 256.6 60.6Q256.9 60.8 257.4 60.8L257.4 60.8Q257.7 60.8 258.0 60.7Q258.2 60.6 258.4 60.5Q258.6 60.3 258.7 60.0L258.7 60.0L260.3 60.3Q260.1 60.9 259.7 61.3Q259.3 61.7 258.7 61.9Q258.1 62.1 257.4 62.1ZM255.9 58.1L255.9 58.1L258.7 58.1Q258.6 57.8 258.5 57.5L258.5 57.5Q258.4 57.1 258.1 56.9Q257.8 56.7 257.3 56.7L257.3 56.7Q256.8 56.7 256.5 56.9Q256.2 57.1 256.0 57.5L256.0 57.5Q255.9 57.7 255.9 58.1ZM263.3 62L261.6 62L261.6 55.4L263.3 55.4L263.3 56.6L263.3 56.6Q263.5 56.0 263.9 55.7Q264.4 55.4 264.9 55.4L264.9 55.4Q265.1 55.4 265.2 55.4Q265.4 55.4 265.5 55.4L265.5 55.4L265.5 57.0Q265.4 56.9 265.1 56.9Q264.9 56.9 264.7 56.9L264.7 56.9Q264.3 56.9 264.0 57.1Q263.7 57.2 263.5 57.6Q263.3 57.9 263.3 58.3L263.3 58.3L263.3 62Z M271.2 62L269.3 62L269.3 53.3L271.3 53.3L274.1 57.7Q274.3 58.0 274.5 58.4Q274.7 58.8 275.0 59.3L275.0 59.3Q275.1 59.6 275.2 59.8L275.2 59.8Q275.2 59.6 275.2 59.4L275.2 59.4Q275.1 58.8 275.1 58.3Q275.1 57.8 275.1 57.5L275.1 57.5L275.1 53.3L276.9 53.3L276.9 62L274.9 62L272.4 58.0Q272.1 57.5 271.9 57.1Q271.7 56.7 271.4 56.2L271.4 56.2Q271.2 55.9 271.0 55.5L271.0 55.5Q271.1 55.8 271.1 56.2L271.1 56.2Q271.1 56.7 271.1 57.2Q271.2 57.7 271.2 58.0L271.2 58.0L271.2 62ZM281.4 62.1L281.4 62.1Q280.4 62.1 279.7 61.7Q278.9 61.3 278.6 60.5Q278.2 59.8 278.2 58.8L278.2 58.8Q278.2 57.7 278.6 57.0Q278.9 56.2 279.7 55.8Q280.4 55.4 281.4 55.4L281.4 55.4Q282.4 55.4 283.1 55.8Q283.8 56.2 284.2 57.0Q284.6 57.7 284.6 58.8L284.6 58.8Q284.6 59.8 284.2 60.5Q283.8 61.3 283.1 61.7Q282.4 62.1 281.4 62.1ZM281.4 60.7L281.4 60.7Q281.8 60.7 282.2 60.5Q282.5 60.2 282.6 59.8Q282.8 59.3 282.8 58.7L282.8 58.7Q282.8 58.2 282.6 57.7Q282.5 57.3 282.2 57.0Q281.8 56.8 281.4 56.8L281.4 56.8Q280.9 56.8 280.6 57.0Q280.3 57.3 280.1 57.7Q280.0 58.2 280.0 58.7L280.0 58.7Q280.0 59.3 280.1 59.8Q280.3 60.2 280.6 60.5Q280.9 60.7 281.4 60.7ZM287.8 55.4L289.1 55.4L289.1 56.8L287.8 56.8L287.8 60.1Q287.8 60.4 288.0 60.5Q288.1 60.7 288.4 60.7L288.4 60.7Q288.5 60.7 288.7 60.7Q288.9 60.6 289.0 60.6L289.0 60.6L289.2 61.9Q288.9 62.0 288.7 62.1Q288.4 62.1 288.1 62.1L288.1 62.1Q287.1 62.1 286.6 61.6Q286.1 61.1 286.1 60.2L286.1 60.2L286.1 56.8L285.2 56.8L285.2 55.4L286.1 55.4L286.1 53.9L287.8 53.9L287.8 55.4ZM293.2 62.1L293.2 62.1Q292.2 62.1 291.4 61.7Q290.7 61.3 290.3 60.6Q289.9 59.8 289.9 58.8L289.9 58.8Q289.9 57.7 290.3 57.0Q290.7 56.2 291.4 55.8Q292.1 55.4 293.1 55.4L293.1 55.4Q293.7 55.4 294.3 55.6Q294.8 55.8 295.2 56.2Q295.7 56.6 295.9 57.2Q296.1 57.8 296.1 58.7L296.1 58.7L296.1 59.2L291.7 59.2Q291.7 59.7 291.9 60.0L291.9 60.0Q292.0 60.4 292.4 60.6Q292.7 60.8 293.2 60.8L293.2 60.8Q293.5 60.8 293.7 60.7Q294.0 60.6 294.2 60.5Q294.4 60.3 294.4 60.0L294.4 60.0L296.0 60.3Q295.9 60.9 295.5 61.3Q295.1 61.7 294.5 61.9Q293.9 62.1 293.2 62.1ZM291.7 58.1L291.7 58.1L294.4 58.1Q294.4 57.8 294.3 57.5L294.3 57.5Q294.2 57.1 293.8 56.9Q293.5 56.7 293.1 56.7L293.1 56.7Q292.6 56.7 292.3 56.9Q292.0 57.1 291.8 57.5L291.8 57.5Q291.7 57.7 291.7 58.1ZM301.0 62.1L301.0 62.1Q300.5 62.1 300.1 61.9Q299.7 61.7 299.5 61.5Q299.3 61.2 299.2 61.0L299.2 61.0L299.1 61.0L299.1 62L297.3 62L297.3 53.3L299.1 53.3L299.1 56.6L299.2 56.6Q299.3 56.3 299.5 56.0Q299.7 55.7 300.1 55.6Q300.5 55.4 301.0 55.4L301.0 55.4Q301.8 55.4 302.4 55.7Q303.0 56.1 303.3 56.9Q303.7 57.6 303.7 58.7L303.7 58.7Q303.7 59.8 303.3 60.6Q303.0 61.3 302.4 61.7Q301.8 62.1 301.0 62.1ZM300.5 60.7L300.5 60.7Q300.9 60.7 301.2 60.4Q301.6 60.2 301.7 59.8Q301.9 59.3 301.9 58.7L301.9 58.7Q301.9 58.2 301.7 57.7Q301.6 57.3 301.2 57.0Q300.9 56.8 300.5 56.8L300.5 56.8Q300.0 56.8 299.7 57.0Q299.4 57.3 299.2 57.7Q299.1 58.1 299.1 58.7L299.1 58.7Q299.1 59.3 299.2 59.8Q299.4 60.2 299.7 60.5Q300.0 60.7 300.5 60.7ZM307.8 62.1L307.8 62.1Q306.9 62.1 306.1 61.7Q305.4 61.3 305.0 60.5Q304.6 59.8 304.6 58.8L304.6 58.8Q304.6 57.7 305.0 57.0Q305.4 56.2 306.1 55.8Q306.9 55.4 307.8 55.4L307.8 55.4Q308.8 55.4 309.5 55.8Q310.3 56.2 310.7 57.0Q311.0 57.7 311.0 58.8L311.0 58.8Q311.0 59.8 310.7 60.5Q310.3 61.3 309.5 61.7Q308.8 62.1 307.8 62.1ZM307.8 60.7L307.8 60.7Q308.3 60.7 308.6 60.5Q308.9 60.2 309.1 59.8Q309.3 59.3 309.3 58.7L309.3 58.7Q309.3 58.2 309.1 57.7Q308.9 57.3 308.6 57.0Q308.3 56.8 307.8 56.8L307.8 56.8Q307.4 56.8 307.1 57.0Q306.7 57.3 306.6 57.7Q306.4 58.2 306.4 58.7L306.4 58.7Q306.4 59.3 306.6 59.8Q306.7 60.2 307.1 60.5Q307.4 60.7 307.8 60.7ZM315.2 62.1L315.2 62.1Q314.2 62.1 313.5 61.7Q312.8 61.3 312.4 60.5Q312.0 59.8 312.0 58.8L312.0 58.8Q312.0 57.7 312.4 57.0Q312.8 56.2 313.5 55.8Q314.2 55.4 315.2 55.4L315.2 55.4Q316.2 55.4 316.9 55.8Q317.6 56.2 318.0 57.0Q318.4 57.7 318.4 58.8L318.4 58.8Q318.4 59.8 318.0 60.5Q317.6 61.3 316.9 61.7Q316.2 62.1 315.2 62.1ZM315.2 60.7L315.2 60.7Q315.7 60.7 316.0 60.5Q316.3 60.2 316.5 59.8Q316.6 59.3 316.6 58.7L316.6 58.7Q316.6 58.2 316.5 57.7Q316.3 57.3 316.0 57.0Q315.7 56.8 315.2 56.8L315.2 56.8Q314.7 56.8 314.4 57.0Q314.1 57.3 313.9 57.7Q313.8 58.2 313.8 58.7L313.8 58.7Q313.8 59.3 313.9 59.8Q314.1 60.2 314.4 60.5Q314.7 60.7 315.2 60.7ZM321.4 62L319.6 62L319.6 53.3L321.4 53.3L321.4 58.0L321.5 58.0L323.6 55.4L325.7 55.4L323.2 58.3L325.8 62L323.7 62L321.9 59.3L321.4 59.9L321.4 62Z "/></g><defs><clipPath id="satori_bc-id-2-0-1-2" clip-path="url(#satori_cp-id)"><path x="347" y="45" width="92" height="25" d="M353,45 h80 a6,6 0 0 1 6,6 v13 a6,6 0 0 1 -6,6 h-80 a6,6 0 0 1 -6,-6 v-13 a6,6 0 0 1 6,-6"/></clipPath></defs><mask id="satori_om-id-2-0-1-2"><rect x="348" y="46" width="90" height="23" fill="#fff" mask="url(#satori_om-id)"/><path width="92" height="25" fill="none" stroke="#000" stroke-width="2" d="M348.757,46.757 A6,6 0 0 1 353,45 h80 a6,6 0 0 1 6,6 v13 a6,6 0 0 1 -6,6 h-80 a6,6 0 0 1 -6,-6 v-13 A6,6 0 0 1 348.757,46.757"/></mask><path x="347" y="45" width="92" height="25" fill="#a78bfa15" d="M353,45 h80 a6,6 0 0 1 6,6 v13 a6,6 0 0 1 -6,6 h-80 a6,6 0 0 1 -6,-6 v-13 a6,6 0 0 1 6,-6" clip-path="url(#satori_cp-id)" mask="url(#satori_om-id)"/><path width="92" height="25" clip-path="url(#satori_bc-id-2-0-1-2)" fill="none" stroke="#a78bfa35" stroke-width="2" d="M348.757,46.757 A6,6 0 0 1 353,45 h80 a6,6 0 0 1 6,6 v13 a6,6 0 0 1 -6,6 h-80 a6,6 0 0 1 -6,-6 v-13 A6,6 0 0 1 348.757,46.757"/><g mask="url(#satori_om-id)" clip-path="url(#satori_cp-id)"><path fill="rgba(225,220,255,0.85)" d="M364.3 62.1L364.3 62.1Q363.0 62.1 362.2 61.4Q361.4 60.7 361.4 59.4L361.4 59.4L361.4 58.9L363.2 58.9L363.2 59.4Q363.2 60.0 363.5 60.4Q363.8 60.7 364.3 60.7L364.3 60.7Q364.8 60.7 365.1 60.4Q365.5 60.0 365.5 59.4L365.5 59.4L365.5 53.3L367.2 53.3L367.2 59.4Q367.2 60.7 366.4 61.4Q365.7 62.1 364.3 62.1ZM370.6 62.1L370.6 62.1Q370.0 62.1 369.5 61.9Q369.0 61.7 368.7 61.3Q368.4 60.8 368.4 60.2L368.4 60.2Q368.4 59.6 368.6 59.3Q368.8 58.9 369.2 58.7Q369.5 58.4 370.0 58.3Q370.4 58.2 370.9 58.2L370.9 58.2Q371.5 58.1 371.8 58.0Q372.2 58.0 372.3 57.9Q372.5 57.8 372.5 57.6L372.5 57.6L372.5 57.5Q372.5 57.3 372.4 57.1Q372.2 56.9 372.0 56.8Q371.8 56.7 371.4 56.7L371.4 56.7Q371.1 56.7 370.9 56.8Q370.6 56.9 370.4 57.0Q370.3 57.2 370.2 57.4L370.2 57.4L368.6 57.2Q368.8 56.6 369.2 56.2Q369.6 55.8 370.1 55.6Q370.7 55.4 371.5 55.4L371.5 55.4Q372.0 55.4 372.5 55.5Q373.0 55.6 373.4 55.9Q373.8 56.1 374.0 56.6Q374.2 57.0 374.2 57.6L374.2 57.6L374.2 62L372.6 62L372.6 61.1L372.5 61.1Q372.3 61.4 372.1 61.6Q371.8 61.9 371.5 62.0Q371.1 62.1 370.6 62.1ZM371.1 60.9L371.1 60.9Q371.5 60.9 371.8 60.7Q372.1 60.6 372.3 60.3Q372.5 60.0 372.5 59.7L372.5 59.7L372.5 58.9Q372.4 59.0 372.3 59.1Q372.1 59.1 371.9 59.1Q371.7 59.2 371.5 59.2Q371.3 59.2 371.2 59.2L371.2 59.2Q370.9 59.3 370.6 59.4Q370.4 59.5 370.2 59.7Q370.1 59.8 370.1 60.1L370.1 60.1Q370.1 60.4 370.2 60.5Q370.4 60.7 370.6 60.8Q370.8 60.9 371.1 60.9ZM379.6 62L377.6 62L375.2 55.4L377.0 55.4L378.1 58.8Q378.3 59.5 378.5 60.1L378.5 60.1Q378.5 60.4 378.6 60.6L378.6 60.6Q378.7 60.4 378.7 60.1L378.7 60.1Q378.9 59.5 379.1 58.8L379.1 58.8L380.1 55.4L382.0 55.4L379.6 62ZM384.8 62.1L384.8 62.1Q384.1 62.1 383.6 61.9Q383.1 61.7 382.9 61.3Q382.6 60.8 382.6 60.2L382.6 60.2Q382.6 59.6 382.8 59.3Q383.0 58.9 383.3 58.7Q383.7 58.4 384.1 58.3Q384.6 58.2 385.0 58.2L385.0 58.2Q385.6 58.1 386.0 58.0Q386.3 58.0 386.5 57.9Q386.6 57.8 386.6 57.6L386.6 57.6L386.6 57.5Q386.6 57.3 386.5 57.1Q386.4 56.9 386.2 56.8Q385.9 56.7 385.6 56.7L385.6 56.7Q385.3 56.7 385.0 56.8Q384.8 56.9 384.6 57.0Q384.4 57.2 384.4 57.4L384.4 57.4L382.8 57.2Q382.9 56.6 383.3 56.2Q383.7 55.8 384.3 55.6Q384.9 55.4 385.6 55.4L385.6 55.4Q386.1 55.4 386.6 55.5Q387.1 55.6 387.5 55.9Q387.9 56.1 388.2 56.6Q388.4 57.0 388.4 57.6L388.4 57.6L388.4 62L386.7 62L386.7 61.1L386.7 61.1Q386.5 61.4 386.2 61.6Q386.0 61.9 385.6 62.0Q385.2 62.1 384.8 62.1ZM385.3 60.9L385.3 60.9Q385.7 60.9 386.0 60.7Q386.3 60.6 386.5 60.3Q386.6 60.0 386.6 59.7L386.6 59.7L386.6 58.9Q386.6 59.0 386.4 59.1Q386.3 59.1 386.1 59.1Q385.9 59.2 385.7 59.2Q385.5 59.2 385.3 59.2L385.3 59.2Q385.0 59.3 384.8 59.4Q384.5 59.5 384.4 59.7Q384.3 59.8 384.3 60.1L384.3 60.1Q384.3 60.4 384.4 60.5Q384.5 60.7 384.7 60.8Q385.0 60.9 385.3 60.9ZM393.1 62.1L393.1 62.1Q392.1 62.1 391.3 61.8Q390.5 61.5 390.1 60.9Q389.7 60.2 389.6 59.3L389.6 59.3L391.4 59.3Q391.4 59.7 391.6 60.0Q391.9 60.3 392.3 60.5Q392.6 60.6 393.1 60.6L393.1 60.6Q393.6 60.6 394.0 60.5Q394.3 60.3 394.5 60.1Q394.7 59.8 394.7 59.5L394.7 59.5Q394.7 59.2 394.5 59.0Q394.3 58.8 394.0 58.7Q393.7 58.5 393.2 58.4L393.2 58.4L392.2 58.2Q391.1 57.9 390.5 57.3Q389.9 56.7 389.9 55.8L389.9 55.8Q389.9 55.0 390.3 54.4Q390.7 53.8 391.5 53.5Q392.2 53.2 393.2 53.2L393.2 53.2Q394.1 53.2 394.8 53.5Q395.6 53.8 396.0 54.4Q396.4 55.0 396.4 55.8L396.4 55.8L394.7 55.8Q394.6 55.2 394.2 54.9Q393.8 54.7 393.1 54.7L393.1 54.7Q392.7 54.7 392.4 54.8Q392.0 54.9 391.9 55.1Q391.7 55.4 391.7 55.7L391.7 55.7Q391.7 56.0 391.9 56.2Q392.1 56.4 392.4 56.5Q392.7 56.7 393.1 56.8L393.1 56.8L393.9 57.0Q394.4 57.1 394.9 57.3Q395.4 57.5 395.8 57.8Q396.1 58.1 396.3 58.5Q396.5 59.0 396.5 59.5L396.5 59.5Q396.5 60.3 396.1 60.9Q395.7 61.5 394.9 61.8Q394.2 62.1 393.1 62.1ZM400.7 62.1L400.7 62.1Q399.7 62.1 399.0 61.7Q398.3 61.3 397.9 60.5Q397.5 59.8 397.5 58.8L397.5 58.8Q397.5 57.7 397.9 57.0Q398.3 56.2 399.0 55.8Q399.7 55.4 400.7 55.4L400.7 55.4Q401.3 55.4 401.8 55.5Q402.2 55.7 402.6 56.0Q403.0 56.2 403.3 56.6Q403.5 57.0 403.6 57.5L403.6 57.5L402.0 57.9Q401.9 57.6 401.8 57.4Q401.7 57.2 401.5 57.0Q401.4 56.9 401.2 56.8Q400.9 56.8 400.7 56.8L400.7 56.8Q400.2 56.8 399.9 57.0Q399.6 57.3 399.4 57.7Q399.3 58.2 399.3 58.7L399.3 58.7Q399.3 59.3 399.4 59.8Q399.6 60.2 399.9 60.5Q400.2 60.7 400.7 60.7L400.7 60.7Q400.9 60.7 401.2 60.7Q401.4 60.6 401.5 60.4Q401.7 60.3 401.8 60.1Q401.9 59.9 402.0 59.6L402.0 59.6L403.6 59.9Q403.5 60.4 403.3 60.8Q403.0 61.2 402.6 61.5Q402.3 61.8 401.8 62.0Q401.3 62.1 400.7 62.1ZM406.6 62L404.8 62L404.8 55.4L406.5 55.4L406.5 56.6L406.6 56.6Q406.8 56.0 407.2 55.7Q407.6 55.4 408.2 55.4L408.2 55.4Q408.3 55.4 408.5 55.4Q408.6 55.4 408.7 55.4L408.7 55.4L408.7 57.0Q408.6 56.9 408.4 56.9Q408.2 56.9 408.0 56.9L408.0 56.9Q407.6 56.9 407.2 57.1Q406.9 57.2 406.7 57.6Q406.6 57.9 406.6 58.3L406.6 58.3L406.6 62ZM411.5 62L409.7 62L409.7 55.4L411.5 55.4L411.5 62ZM410.6 54.6L410.6 54.6Q410.2 54.6 409.9 54.3Q409.6 54.1 409.6 53.7L409.6 53.7Q409.6 53.3 409.9 53.1Q410.2 52.8 410.6 52.8L410.6 52.8Q411.0 52.8 411.3 53.0Q411.5 53.3 411.5 53.7L411.5 53.7Q411.5 54.1 411.3 54.3Q411.0 54.6 410.6 54.6ZM414.7 64.4L412.9 64.4L412.9 55.4L414.7 55.4L414.7 56.6L414.8 56.6Q414.9 56.3 415.1 56.0Q415.3 55.7 415.7 55.6Q416.1 55.4 416.6 55.4L416.6 55.4Q417.4 55.4 418.0 55.7Q418.6 56.1 418.9 56.9Q419.3 57.6 419.3 58.7L419.3 58.7Q419.3 59.8 418.9 60.6Q418.6 61.3 418.0 61.7Q417.4 62.1 416.6 62.1L416.6 62.1Q416.1 62.1 415.7 61.9Q415.3 61.7 415.1 61.5Q414.9 61.2 414.8 61.0L414.8 61.0L414.7 61.0L414.7 64.4ZM416.1 60.7L416.1 60.7Q416.5 60.7 416.8 60.4Q417.2 60.2 417.3 59.8Q417.5 59.3 417.5 58.7L417.5 58.7Q417.5 58.2 417.3 57.7Q417.2 57.3 416.9 57.0Q416.5 56.8 416.1 56.8L416.1 56.8Q415.6 56.8 415.3 57.0Q415.0 57.3 414.8 57.7Q414.7 58.1 414.7 58.7L414.7 58.7Q414.7 59.3 414.8 59.8Q415 60.2 415.3 60.5Q415.6 60.7 416.1 60.7ZM422.5 55.4L423.8 55.4L423.8 56.8L422.5 56.8L422.5 60.1Q422.5 60.4 422.7 60.5Q422.8 60.7 423.1 60.7L423.1 60.7Q423.2 60.7 423.4 60.7Q423.6 60.6 423.7 60.6L423.7 60.6L423.9 61.9Q423.7 62.0 423.4 62.1Q423.1 62.1 422.8 62.1L422.8 62.1Q421.8 62.1 421.3 61.6Q420.8 61.1 420.8 60.2L420.8 60.2L420.8 56.8L419.9 56.8L419.9 55.4L420.8 55.4L420.8 53.9L422.5 53.9L422.5 55.4Z "/></g><defs><clipPath id="satori_bc-id-2-0-1-3" clip-path="url(#satori_cp-id)"><path x="446" y="45" width="80" height="25" d="M452,45 h68 a6,6 0 0 1 6,6 v13 a6,6 0 0 1 -6,6 h-68 a6,6 0 0 1 -6,-6 v-13 a6,6 0 0 1 6,-6"/></clipPath></defs><mask id="satori_om-id-2-0-1-3"><rect x="447" y="46" width="78" height="23" fill="#fff" mask="url(#satori_om-id)"/><path width="80" height="25" fill="none" stroke="#000" stroke-width="2" d="M447.757,46.757 A6,6 0 0 1 452,45 h68 a6,6 0 0 1 6,6 v13 a6,6 0 0 1 -6,6 h-68 a6,6 0 0 1 -6,-6 v-13 A6,6 0 0 1 447.757,46.757"/></mask><path x="446" y="45" width="80" height="25" fill="#a78bfa15" d="M452,45 h68 a6,6 0 0 1 6,6 v13 a6,6 0 0 1 -6,6 h-68 a6,6 0 0 1 -6,-6 v-13 a6,6 0 0 1 6,-6" clip-path="url(#satori_cp-id)" mask="url(#satori_om-id)"/><path width="80" height="25" clip-path="url(#satori_bc-id-2-0-1-3)" fill="none" stroke="#a78bfa35" stroke-width="2" d="M447.757,46.757 A6,6 0 0 1 452,45 h68 a6,6 0 0 1 6,6 v13 a6,6 0 0 1 -6,6 h-68 a6,6 0 0 1 -6,-6 v-13 A6,6 0 0 1 447.757,46.757"/><g mask="url(#satori_om-id)" clip-path="url(#satori_cp-id)"><path fill="rgba(225,220,255,0.85)" d="M462.6 62L460.8 62L460.8 53.3L463.5 53.3L465.0 57.3Q465.0 57.6 465.2 58.0Q465.3 58.4 465.4 59.0L465.4 59.0Q465.5 59.5 465.6 59.9L465.6 59.9Q465.7 59.5 465.8 59.0L465.8 59.0Q465.9 58.5 466.0 58.0Q466.2 57.6 466.2 57.3L466.2 57.3L467.6 53.3L470.4 53.3L470.4 62L468.6 62L468.6 57.9Q468.6 57.6 468.6 57.2Q468.6 56.7 468.6 56.2Q468.6 55.8 468.7 55.3L468.7 55.3Q468.7 55.0 468.7 54.8L468.7 54.8Q468.6 55.1 468.5 55.3L468.5 55.3Q468.4 55.8 468.3 56.3Q468.1 56.8 468.0 57.2Q467.9 57.6 467.8 57.9L467.8 57.9L466.3 62L464.8 62L463.4 57.9Q463.3 57.6 463.2 57.2Q463.0 56.8 462.9 56.3Q462.8 55.8 462.6 55.3L462.6 55.3Q462.6 55.1 462.5 54.9L462.5 54.9Q462.5 55.0 462.5 55.2L462.5 55.2Q462.5 55.7 462.5 56.2Q462.5 56.7 462.6 57.2Q462.6 57.6 462.6 57.9L462.6 57.9L462.6 62ZM473.4 62L471.5 62L474.4 53.3L476.8 53.3L479.9 62L477.9 62L477.2 60.0L474.1 60.0L473.4 62ZM474.5 58.6L476.7 58.6L476.5 57.8Q476.2 57.0 476.0 56L476.0 56Q475.8 55.4 475.6 54.7L475.6 54.7Q475.4 55.4 475.3 56.0L475.3 56.0Q475.0 57.0 474.8 57.8L474.8 57.8L474.5 58.6ZM483.3 54.8L480.6 54.8L480.6 53.3L487.7 53.3L487.7 54.8L485.0 54.8L485.0 62L483.3 62L483.3 54.8ZM494.5 62L488.9 62L488.9 53.3L490.7 53.3L490.7 60.5L494.5 60.5L494.5 62ZM497.2 62L495.2 62L498.2 53.3L500.5 53.3L503.6 62L501.6 62L500.9 60.0L497.8 60.0L497.2 62ZM498.3 58.6L500.5 58.6L500.2 57.8Q500.0 57.0 499.7 56L499.7 56Q499.5 55.4 499.4 54.7L499.4 54.7Q499.2 55.4 499.0 56.0L499.0 56.0Q498.8 57.0 498.5 57.8L498.5 57.8L498.3 58.6ZM508.4 62L504.7 62L504.7 53.3L508.1 53.3Q509.1 53.3 509.7 53.6Q510.4 53.8 510.7 54.4Q511.0 54.9 511.0 55.5L511.0 55.5Q511.0 56.0 510.8 56.4Q510.6 56.8 510.3 57.0Q509.9 57.3 509.5 57.4L509.5 57.4L509.5 57.5Q510.0 57.5 510.4 57.8Q510.8 58.0 511.1 58.5Q511.4 58.9 511.4 59.6L511.4 59.6Q511.4 60.3 511.0 60.8Q510.7 61.4 510.0 61.7Q509.4 62 508.4 62L508.4 62ZM506.5 58.2L506.5 60.5L508.0 60.5Q508.8 60.5 509.2 60.2Q509.5 59.9 509.5 59.4L509.5 59.4Q509.5 59.1 509.4 58.8Q509.2 58.5 508.8 58.3Q508.5 58.2 508.1 58.2L508.1 58.2L506.5 58.2ZM506.5 54.7L506.5 56.9L507.9 56.9Q508.3 56.9 508.6 56.8Q508.9 56.7 509.0 56.4Q509.2 56.2 509.2 55.8L509.2 55.8Q509.2 55.3 508.9 55.0Q508.5 54.7 507.9 54.7L507.9 54.7L506.5 54.7Z "/></g><defs><clipPath id="satori_bc-id-2-0-1-4" clip-path="url(#satori_cp-id)"><path x="533" y="45" width="63" height="25" d="M539,45 h51 a6,6 0 0 1 6,6 v13 a6,6 0 0 1 -6,6 h-51 a6,6 0 0 1 -6,-6 v-13 a6,6 0 0 1 6,-6"/></clipPath></defs><mask id="satori_om-id-2-0-1-4"><rect x="534" y="46" width="61" height="23" fill="#fff" mask="url(#satori_om-id)"/><path width="63" height="25" fill="none" stroke="#000" stroke-width="2" d="M534.757,46.757 A6,6 0 0 1 539,45 h51 a6,6 0 0 1 6,6 v13 a6,6 0 0 1 -6,6 h-51 a6,6 0 0 1 -6,-6 v-13 A6,6 0 0 1 534.757,46.757"/></mask><path x="533" y="45" width="63" height="25" fill="#a78bfa15" d="M539,45 h51 a6,6 0 0 1 6,6 v13 a6,6 0 0 1 -6,6 h-51 a6,6 0 0 1 -6,-6 v-13 a6,6 0 0 1 6,-6" clip-path="url(#satori_cp-id)" mask="url(#satori_om-id)"/><path width="63" height="25" clip-path="url(#satori_bc-id-2-0-1-4)" fill="none" stroke="#a78bfa35" stroke-width="2" d="M534.757,46.757 A6,6 0 0 1 539,45 h51 a6,6 0 0 1 6,6 v13 a6,6 0 0 1 -6,6 h-51 a6,6 0 0 1 -6,-6 v-13 A6,6 0 0 1 534.757,46.757"/><g mask="url(#satori_om-id)" clip-path="url(#satori_cp-id)"><path fill="rgba(225,220,255,0.85)" d="M549.6 62L547.8 62L547.8 53.3L549.6 53.3L549.6 56.8L553.4 56.8L553.4 53.3L555.2 53.3L555.2 62L553.4 62L553.4 58.3L549.6 58.3L549.6 62ZM559.1 54.8L556.4 54.8L556.4 53.3L563.5 53.3L563.5 54.8L560.9 54.8L560.9 62L559.1 62L559.1 54.8ZM566.5 62L564.8 62L564.8 53.3L567.5 53.3L568.9 57.3Q569.0 57.6 569.1 58.0Q569.2 58.4 569.4 59.0L569.4 59.0Q569.5 59.5 569.6 59.9L569.6 59.9Q569.7 59.5 569.8 59.0L569.8 59.0Q569.9 58.5 570.0 58.0Q570.1 57.6 570.2 57.3L570.2 57.3L571.6 53.3L574.4 53.3L574.4 62L572.6 62L572.6 57.9Q572.6 57.6 572.6 57.2Q572.6 56.7 572.6 56.2Q572.6 55.8 572.6 55.3L572.6 55.3Q572.6 55.0 572.6 54.8L572.6 54.8Q572.6 55.1 572.5 55.3L572.5 55.3Q572.4 55.8 572.2 56.3Q572.1 56.8 572.0 57.2Q571.9 57.6 571.8 57.9L571.8 57.9L570.3 62L568.8 62L567.3 57.9Q567.3 57.6 567.1 57.2Q567.0 56.8 566.9 56.3Q566.7 55.8 566.6 55.3L566.6 55.3Q566.5 55.1 566.5 54.9L566.5 54.9Q566.5 55.0 566.5 55.2L566.5 55.2Q566.5 55.7 566.5 56.2Q566.5 56.7 566.5 57.2Q566.5 57.6 566.5 57.9L566.5 57.9L566.5 62ZM581.5 62L575.9 62L575.9 53.3L577.7 53.3L577.7 60.5L581.5 60.5L581.5 62Z "/></g><defs><clipPath id="satori_bc-id-2-0-1-5" clip-path="url(#satori_cp-id)"><path x="603" y="45" width="53" height="25" d="M609,45 h41 a6,6 0 0 1 6,6 v13 a6,6 0 0 1 -6,6 h-41 a6,6 0 0 1 -6,-6 v-13 a6,6 0 0 1 6,-6"/></clipPath></defs><mask id="satori_om-id-2-0-1-5"><rect x="604" y="46" width="51" height="23" fill="#fff" mask="url(#satori_om-id)"/><path width="53" height="25" fill="none" stroke="#000" stroke-width="2" d="M604.757,46.757 A6,6 0 0 1 609,45 h41 a6,6 0 0 1 6,6 v13 a6,6 0 0 1 -6,6 h-41 a6,6 0 0 1 -6,-6 v-13 A6,6 0 0 1 604.757,46.757"/></mask><path x="603" y="45" width="53" height="25" fill="#a78bfa15" d="M609,45 h41 a6,6 0 0 1 6,6 v13 a6,6 0 0 1 -6,6 h-41 a6,6 0 0 1 -6,-6 v-13 a6,6 0 0 1 6,-6" clip-path="url(#satori_cp-id)" mask="url(#satori_om-id)"/><path width="53" height="25" clip-path="url(#satori_bc-id-2-0-1-5)" fill="none" stroke="#a78bfa35" stroke-width="2" d="M604.757,46.757 A6,6 0 0 1 609,45 h41 a6,6 0 0 1 6,6 v13 a6,6 0 0 1 -6,6 h-41 a6,6 0 0 1 -6,-6 v-13 A6,6 0 0 1 604.757,46.757"/><g mask="url(#satori_om-id)" clip-path="url(#satori_cp-id)"><path fill="rgba(225,220,255,0.85)" d="M621.6 62.1L621.6 62.1Q620.4 62.1 619.5 61.6Q618.6 61.1 618.1 60.1Q617.6 59.1 617.6 57.6L617.6 57.6Q617.6 56.2 618.1 55.2Q618.6 54.2 619.5 53.7Q620.5 53.2 621.6 53.2L621.6 53.2Q622.3 53.2 623.0 53.4Q623.6 53.6 624.1 54.0Q624.6 54.4 624.9 54.9Q625.3 55.5 625.4 56.3L625.4 56.3L623.6 56.3Q623.5 55.9 623.3 55.6Q623.2 55.3 622.9 55.1Q622.7 54.9 622.3 54.8Q622.0 54.7 621.6 54.7L621.6 54.7Q621.0 54.7 620.4 55.1Q619.9 55.4 619.7 56.1Q619.4 56.7 619.4 57.6L619.4 57.6Q619.4 58.6 619.7 59.2Q619.9 59.9 620.5 60.2Q621.0 60.5 621.6 60.5L621.6 60.5Q622.0 60.5 622.3 60.4Q622.6 60.3 622.9 60.1Q623.2 59.9 623.3 59.7Q623.5 59.4 623.6 59.0L623.6 59.0L625.4 59.0Q625.3 59.6 625.0 60.2Q624.7 60.7 624.2 61.2Q623.8 61.6 623.1 61.9Q622.4 62.1 621.6 62.1ZM629.9 62.1L629.9 62.1Q628.8 62.1 628.0 61.8Q627.3 61.5 626.8 60.9Q626.4 60.2 626.4 59.3L626.4 59.3L628.1 59.3Q628.2 59.7 628.4 60.0Q628.6 60.3 629.0 60.5Q629.4 60.6 629.8 60.6L629.8 60.6Q630.3 60.6 630.7 60.5Q631.0 60.3 631.2 60.1Q631.4 59.8 631.4 59.5L631.4 59.5Q631.4 59.2 631.3 59.0Q631.1 58.8 630.7 58.7Q630.4 58.5 629.9 58.4L629.9 58.4L629.0 58.2Q627.9 57.9 627.2 57.3Q626.6 56.7 626.6 55.8L626.6 55.8Q626.6 55.0 627.0 54.4Q627.5 53.8 628.2 53.5Q628.9 53.2 629.9 53.2L629.9 53.2Q630.9 53.2 631.6 53.5Q632.3 53.8 632.7 54.4Q633.1 55.0 633.1 55.8L633.1 55.8L631.4 55.8Q631.3 55.2 630.9 54.9Q630.5 54.7 629.9 54.7L629.9 54.7Q629.4 54.7 629.1 54.8Q628.8 54.9 628.6 55.1Q628.4 55.4 628.4 55.7L628.4 55.7Q628.4 56.0 628.6 56.2Q628.8 56.4 629.2 56.5Q629.5 56.7 629.8 56.8L629.8 56.8L630.6 57.0Q631.2 57.1 631.7 57.3Q632.1 57.5 632.5 57.8Q632.8 58.1 633.0 58.5Q633.2 59.0 633.2 59.5L633.2 59.5Q633.2 60.3 632.8 60.9Q632.4 61.5 631.7 61.8Q630.9 62.1 629.9 62.1ZM637.7 62.1L637.7 62.1Q636.7 62.1 635.9 61.8Q635.1 61.5 634.7 60.9Q634.3 60.2 634.2 59.3L634.2 59.3L636.0 59.3Q636.0 59.7 636.2 60.0Q636.5 60.3 636.8 60.5Q637.2 60.6 637.7 60.6L637.7 60.6Q638.2 60.6 638.5 60.5Q638.9 60.3 639.1 60.1Q639.3 59.8 639.3 59.5L639.3 59.5Q639.3 59.2 639.1 59.0Q638.9 58.8 638.6 58.7Q638.3 58.5 637.8 58.4L637.8 58.4L636.8 58.2Q635.7 57.9 635.1 57.3Q634.5 56.7 634.5 55.8L634.5 55.8Q634.5 55.0 634.9 54.4Q635.3 53.8 636.1 53.5Q636.8 53.2 637.7 53.2L637.7 53.2Q638.7 53.2 639.4 53.5Q640.2 53.8 640.6 54.4Q641.0 55.0 641.0 55.8L641.0 55.8L639.2 55.8Q639.2 55.2 638.8 54.9Q638.4 54.7 637.7 54.7L637.7 54.7Q637.3 54.7 637.0 54.8Q636.6 54.9 636.5 55.1Q636.3 55.4 636.3 55.7L636.3 55.7Q636.3 56.0 636.5 56.2Q636.7 56.4 637.0 56.5Q637.3 56.7 637.7 56.8L637.7 56.8L638.5 57.0Q639.0 57.1 639.5 57.3Q640.0 57.5 640.3 57.8Q640.7 58.1 640.9 58.5Q641.1 59.0 641.1 59.5L641.1 59.5Q641.1 60.3 640.7 60.9Q640.3 61.5 639.5 61.8Q638.8 62.1 637.7 62.1Z "/></g><mask id="satori_om-id-2-1"><rect x="33" y="84" width="794" height="25" fill="#fff" mask="url(#satori_om-id)"/></mask><mask id="satori_om-id-2-1-0"><rect x="33" y="91" width="80" height="12" fill="#fff" mask="url(#satori_om-id)"/></mask><g mask="url(#satori_om-id)" clip-path="url(#satori_cp-id)"><path fill="#60a5fa" d="M34.9 101L33.2 101L35.7 93.7L37.7 93.7L40.2 101L38.6 101L38.0 99.3L35.4 99.3L34.9 101ZM35.8 98.1L37.6 98.1L37.4 97.5Q37.2 96.8 37.0 96L37.0 96Q36.8 95.5 36.7 94.9L36.7 94.9Q36.5 95.5 36.4 96.0L36.4 96.0Q36.2 96.8 36.0 97.5L36.0 97.5L35.8 98.1ZM42.1 93.7L43.6 93.7L43.6 101L42.1 101L42.1 93.7Z M52.0 101.1L52.0 101.1Q51.1 101.1 50.4 100.8Q49.8 100.6 49.4 100.0Q49.1 99.5 49.1 98.7L49.1 98.7L50.5 98.7Q50.5 99.1 50.7 99.4Q50.9 99.6 51.2 99.7Q51.6 99.8 52.0 99.8L52.0 99.8Q52.4 99.8 52.6 99.7Q52.9 99.6 53.1 99.4Q53.3 99.2 53.3 98.9L53.3 98.9Q53.3 98.7 53.1 98.5Q53.0 98.3 52.7 98.2Q52.4 98.1 52.0 98.0L52.0 98.0L51.2 97.8Q50.3 97.6 49.8 97.1Q49.3 96.6 49.3 95.8L49.3 95.8Q49.3 95.2 49.6 94.7Q50.0 94.2 50.6 93.9Q51.2 93.6 52.0 93.6L52.0 93.6Q52.8 93.6 53.4 93.9Q54.0 94.2 54.3 94.7Q54.7 95.2 54.7 95.8L54.7 95.8L53.2 95.8Q53.2 95.4 52.9 95.1Q52.5 94.9 52.0 94.9L52.0 94.9Q51.6 94.9 51.3 95.0Q51.1 95.1 50.9 95.3Q50.8 95.5 50.8 95.7L50.8 95.7Q50.8 96.0 50.9 96.2Q51.1 96.3 51.4 96.5Q51.6 96.6 51.9 96.6L51.9 96.6L52.6 96.8Q53.1 96.9 53.5 97.1Q53.9 97.3 54.1 97.5Q54.4 97.8 54.6 98.1Q54.8 98.5 54.8 98.9L54.8 98.9Q54.8 99.6 54.4 100.1Q54.1 100.6 53.5 100.8Q52.9 101.1 52.0 101.1ZM58.8 95.0L56.6 95.0L56.6 93.7L62.5 93.7L62.5 95.0L60.3 95.0L60.3 101L58.8 101L58.8 95.0ZM65.7 101L64.1 101L66.6 93.7L68.5 93.7L71.1 101L69.4 101L68.9 99.3L66.3 99.3L65.7 101ZM66.7 98.1L68.5 98.1L68.3 97.5Q68.1 96.8 67.8 96L67.8 96Q67.7 95.5 67.6 94.9L67.6 94.9Q67.4 95.5 67.3 96.0L67.3 96.0Q67.1 96.8 66.9 97.5L66.9 97.5L66.7 98.1ZM76.2 101.1L76.2 101.1Q75.2 101.1 74.4 100.7Q73.7 100.2 73.2 99.4Q72.8 98.5 72.8 97.4L72.8 97.4Q72.8 96.2 73.2 95.3Q73.7 94.5 74.4 94.1Q75.2 93.6 76.2 93.6L76.2 93.6Q76.8 93.6 77.3 93.8Q77.9 94.0 78.3 94.3Q78.7 94.6 79.0 95.1Q79.2 95.6 79.3 96.2L79.3 96.2L77.8 96.2Q77.7 95.9 77.6 95.7Q77.5 95.4 77.3 95.3Q77.0 95.1 76.8 95.0Q76.5 95.0 76.2 95.0L76.2 95.0Q75.6 95.0 75.2 95.2Q74.8 95.5 74.5 96.1Q74.3 96.6 74.3 97.4L74.3 97.4Q74.3 98.2 74.5 98.7Q74.8 99.2 75.2 99.5Q75.6 99.8 76.2 99.8L76.2 99.8Q76.5 99.8 76.8 99.7Q77.0 99.6 77.2 99.4Q77.5 99.3 77.6 99.0Q77.7 98.8 77.8 98.5L77.8 98.5L79.3 98.5Q79.2 99.0 79.0 99.5Q78.8 99.9 78.4 100.3Q78.0 100.7 77.4 100.9Q76.9 101.1 76.2 101.1ZM82.9 101L81.4 101L81.4 93.7L82.9 93.7L82.9 95.7L82.9 97.4Q82.9 97.3 82.9 97.3L82.9 97.3Q83.1 96.9 83.4 96.6Q83.7 96.2 84.0 95.8L84.0 95.8L85.8 93.7L87.6 93.7L84.9 96.9L87.7 101L85.9 101L83.8 97.9L82.9 98.9L82.9 101Z "/></g><mask id="satori_om-id-2-1-1"><rect x="129" y="84" width="375" height="25" fill="#fff" mask="url(#satori_om-id)"/></mask><defs><clipPath id="satori_bc-id-2-1-1-0" clip-path="url(#satori_cp-id)"><path x="129" y="84" width="78" height="25" d="M135,84 h66 a6,6 0 0 1 6,6 v13 a6,6 0 0 1 -6,6 h-66 a6,6 0 0 1 -6,-6 v-13 a6,6 0 0 1 6,-6"/></clipPath></defs><mask id="satori_om-id-2-1-1-0"><rect x="130" y="85" width="76" height="23" fill="#fff" mask="url(#satori_om-id)"/><path width="78" height="25" fill="none" stroke="#000" stroke-width="2" d="M130.757,85.757 A6,6 0 0 1 135,84 h66 a6,6 0 0 1 6,6 v13 a6,6 0 0 1 -6,6 h-66 a6,6 0 0 1 -6,-6 v-13 A6,6 0 0 1 130.757,85.757"/></mask><path x="129" y="84" width="78" height="25" fill="#60a5fa15" d="M135,84 h66 a6,6 0 0 1 6,6 v13 a6,6 0 0 1 -6,6 h-66 a6,6 0 0 1 -6,-6 v-13 a6,6 0 0 1 6,-6" clip-path="url(#satori_cp-id)" mask="url(#satori_om-id)"/><path width="78" height="25" clip-path="url(#satori_bc-id-2-1-1-0)" fill="none" stroke="#60a5fa35" stroke-width="2" d="M130.757,85.757 A6,6 0 0 1 135,84 h66 a6,6 0 0 1 6,6 v13 a6,6 0 0 1 -6,6 h-66 a6,6 0 0 1 -6,-6 v-13 A6,6 0 0 1 130.757,85.757"/><g mask="url(#satori_om-id)" clip-path="url(#satori_cp-id)"><path fill="rgba(225,220,255,0.85)" d="M145.6 101L143.8 101L143.8 92.3L147.2 92.3Q148.2 92.3 148.9 92.6Q149.6 93.0 150.0 93.7Q150.3 94.4 150.3 95.2L150.3 95.2Q150.3 96.1 149.9 96.7Q149.6 97.4 148.9 97.8Q148.2 98.1 147.2 98.1L147.2 98.1L145.6 98.1L145.6 101ZM145.6 93.7L145.6 96.7L146.9 96.7Q147.4 96.7 147.8 96.5Q148.1 96.3 148.3 96.0Q148.5 95.7 148.5 95.2Q148.5 94.8 148.3 94.4Q148.1 94.1 147.8 93.9Q147.4 93.7 146.9 93.7L146.9 93.7L145.6 93.7ZM151.5 103.3L151.5 103.3L151.9 102.0L152.1 102.0Q152.5 102.1 152.7 102.1Q153.0 102.1 153.2 101.9Q153.3 101.7 153.4 101.4L153.4 101.4L153.4 101.0L151.0 94.4L152.8 94.4L153.9 97.8Q154.1 98.5 154.3 99.1L154.3 99.1Q154.3 99.4 154.3 99.6L154.3 99.6Q154.4 99.4 154.4 99.1L154.4 99.1Q154.6 98.5 154.8 97.8L154.8 97.8L156.0 94.4L157.8 94.4L155.0 101.8Q154.8 102.3 154.5 102.7Q154.2 103.1 153.7 103.3Q153.3 103.5 152.6 103.5L152.6 103.5Q152.3 103.5 152.0 103.4Q151.7 103.4 151.5 103.3ZM161.1 93.8L158.4 93.8L158.4 92.3L165.6 92.3L165.6 93.8L162.9 93.8L162.9 101L161.1 101L161.1 93.8ZM169.7 101.1L169.7 101.1Q168.7 101.1 168.0 100.7Q167.3 100.3 166.9 99.5Q166.5 98.8 166.5 97.8L166.5 97.8Q166.5 96.7 166.9 96.0Q167.3 95.2 168.0 94.8Q168.7 94.4 169.7 94.4L169.7 94.4Q170.7 94.4 171.4 94.8Q172.1 95.2 172.5 96.0Q172.9 96.7 172.9 97.8L172.9 97.8Q172.9 98.8 172.5 99.5Q172.1 100.3 171.4 100.7Q170.7 101.1 169.7 101.1ZM169.7 99.7L169.7 99.7Q170.2 99.7 170.5 99.5Q170.8 99.2 170.9 98.8Q171.1 98.3 171.1 97.7L171.1 97.7Q171.1 97.2 170.9 96.7Q170.8 96.3 170.5 96.0Q170.2 95.8 169.7 95.8L169.7 95.8Q169.2 95.8 168.9 96.0Q168.6 96.3 168.4 96.7Q168.3 97.2 168.3 97.7L168.3 97.7Q168.3 98.3 168.4 98.8Q168.6 99.2 168.9 99.5Q169.2 99.7 169.7 99.7ZM175.9 101L174.1 101L174.1 94.4L175.8 94.4L175.8 95.6L175.9 95.6Q176.1 95.0 176.5 94.7Q176.9 94.4 177.5 94.4L177.5 94.4Q177.6 94.4 177.8 94.4Q177.9 94.4 178.0 94.4L178.0 94.4L178.0 96.0Q177.9 95.9 177.7 95.9Q177.5 95.9 177.3 95.9L177.3 95.9Q176.9 95.9 176.6 96.1Q176.2 96.2 176.1 96.6Q175.9 96.9 175.9 97.3L175.9 97.3L175.9 101ZM181.9 101.1L181.9 101.1Q180.9 101.1 180.2 100.7Q179.5 100.3 179.1 99.5Q178.7 98.8 178.7 97.8L178.7 97.8Q178.7 96.7 179.1 96.0Q179.5 95.2 180.2 94.8Q180.9 94.4 181.9 94.4L181.9 94.4Q182.5 94.4 183.0 94.5Q183.5 94.7 183.9 95.0Q184.3 95.2 184.5 95.6Q184.8 96.0 184.8 96.5L184.8 96.5L183.2 96.9Q183.2 96.6 183.0 96.4Q182.9 96.2 182.8 96.0Q182.6 95.9 182.4 95.8Q182.2 95.8 182.0 95.8L182.0 95.8Q181.5 95.8 181.2 96.0Q180.8 96.3 180.7 96.7Q180.5 97.2 180.5 97.7L180.5 97.7Q180.5 98.3 180.7 98.8Q180.8 99.2 181.2 99.5Q181.5 99.7 182.0 99.7L182.0 99.7Q182.2 99.7 182.4 99.7Q182.6 99.6 182.8 99.4Q183.0 99.3 183.1 99.1Q183.2 98.9 183.2 98.6L183.2 98.6L184.9 98.9Q184.8 99.4 184.5 99.8Q184.3 100.2 183.9 100.5Q183.5 100.8 183.0 101.0Q182.5 101.1 181.9 101.1ZM187.8 97.2L187.8 97.2L187.8 101L186.1 101L186.1 92.3L187.8 92.3L187.8 95.7Q188.0 95.2 188.4 94.8L188.4 94.8Q189.0 94.4 189.8 94.4L189.8 94.4Q190.5 94.4 191.0 94.7Q191.5 95.0 191.8 95.5Q192.0 96.1 192.0 96.8L192.0 96.8L192.0 101L190.3 101L190.3 97.1Q190.3 96.5 190.0 96.2Q189.7 95.8 189.1 95.8L189.1 95.8Q188.7 95.8 188.4 96.0Q188.1 96.2 188.0 96.5Q187.8 96.8 187.8 97.2Z "/></g><defs><clipPath id="satori_bc-id-2-1-1-1" clip-path="url(#satori_cp-id)"><path x="214" y="84" width="98" height="25" d="M220,84 h86 a6,6 0 0 1 6,6 v13 a6,6 0 0 1 -6,6 h-86 a6,6 0 0 1 -6,-6 v-13 a6,6 0 0 1 6,-6"/></clipPath></defs><mask id="satori_om-id-2-1-1-1"><rect x="215" y="85" width="96" height="23" fill="#fff" mask="url(#satori_om-id)"/><path width="98" height="25" fill="none" stroke="#000" stroke-width="2" d="M215.757,85.757 A6,6 0 0 1 220,84 h86 a6,6 0 0 1 6,6 v13 a6,6 0 0 1 -6,6 h-86 a6,6 0 0 1 -6,-6 v-13 A6,6 0 0 1 215.757,85.757"/></mask><path x="214" y="84" width="98" height="25" fill="#60a5fa15" d="M220,84 h86 a6,6 0 0 1 6,6 v13 a6,6 0 0 1 -6,6 h-86 a6,6 0 0 1 -6,-6 v-13 a6,6 0 0 1 6,-6" clip-path="url(#satori_cp-id)" mask="url(#satori_om-id)"/><path width="98" height="25" clip-path="url(#satori_bc-id-2-1-1-1)" fill="none" stroke="#60a5fa35" stroke-width="2" d="M215.757,85.757 A6,6 0 0 1 220,84 h86 a6,6 0 0 1 6,6 v13 a6,6 0 0 1 -6,6 h-86 a6,6 0 0 1 -6,-6 v-13 A6,6 0 0 1 215.757,85.757"/><g mask="url(#satori_om-id)" clip-path="url(#satori_cp-id)"><path fill="rgba(225,220,255,0.85)" d="M231.1 93.8L228.4 93.8L228.4 92.3L235.6 92.3L235.6 93.8L232.9 93.8L232.9 101L231.1 101L231.1 93.8ZM239.7 101.1L239.7 101.1Q238.7 101.1 238.0 100.7Q237.3 100.3 236.9 99.6Q236.5 98.8 236.5 97.8L236.5 97.8Q236.5 96.7 236.9 96.0Q237.3 95.2 238.0 94.8Q238.7 94.4 239.6 94.4L239.6 94.4Q240.3 94.4 240.8 94.6Q241.4 94.8 241.8 95.2Q242.2 95.6 242.5 96.2Q242.7 96.8 242.7 97.7L242.7 97.7L242.7 98.2L238.2 98.2Q238.2 98.7 238.4 99.0L238.4 99.0Q238.6 99.4 238.9 99.6Q239.3 99.8 239.7 99.8L239.7 99.8Q240.1 99.8 240.3 99.7Q240.6 99.6 240.7 99.5Q240.9 99.3 241.0 99.0L241.0 99.0L242.6 99.3Q242.4 99.9 242.1 100.3Q241.7 100.7 241.1 100.9Q240.5 101.1 239.7 101.1ZM238.2 97.1L238.2 97.1L241.0 97.1Q241.0 96.8 240.9 96.5L240.9 96.5Q240.7 96.1 240.4 95.9Q240.1 95.7 239.6 95.7L239.6 95.7Q239.2 95.7 238.9 95.9Q238.6 96.1 238.4 96.5L238.4 96.5Q238.3 96.7 238.2 97.1ZM245.7 97.2L245.7 97.2L245.7 101L243.9 101L243.9 94.4L245.6 94.4L245.6 95.8Q245.8 95.2 246.3 94.8L246.3 94.8Q246.8 94.4 247.6 94.4L247.6 94.4Q248.3 94.4 248.8 94.7Q249.3 95.0 249.6 95.5Q249.9 96.1 249.9 96.8L249.9 96.8L249.9 101L248.1 101L248.1 97.1Q248.1 96.5 247.8 96.2Q247.5 95.8 246.9 95.8L246.9 95.8Q246.6 95.8 246.3 96.0Q246.0 96.2 245.8 96.5Q245.7 96.8 245.7 97.2ZM254.0 101.1L254.0 101.1Q253.2 101.1 252.6 100.9Q252.0 100.7 251.6 100.2Q251.2 99.8 251.1 99.2L251.1 99.2L252.7 98.9Q252.8 99.4 253.2 99.6Q253.5 99.8 254.0 99.8L254.0 99.8Q254.5 99.8 254.8 99.6Q255.1 99.5 255.1 99.2L255.1 99.2Q255.1 98.9 254.9 98.7Q254.7 98.6 254.3 98.5L254.3 98.5L253.1 98.3Q252.2 98.1 251.7 97.6Q251.3 97.1 251.3 96.4L251.3 96.4Q251.3 95.8 251.6 95.3Q251.9 94.9 252.6 94.6Q253.2 94.4 254.0 94.4L254.0 94.4Q254.8 94.4 255.4 94.6Q255.9 94.8 256.3 95.2Q256.6 95.6 256.7 96.1L256.7 96.1L255.2 96.4Q255.1 96.1 254.8 95.8Q254.5 95.6 254.0 95.6L254.0 95.6Q253.6 95.6 253.3 95.8Q253.0 96.0 253.0 96.3L253.0 96.3Q253.0 96.5 253.2 96.7Q253.4 96.9 253.9 97.0L253.9 97.0L255.0 97.2Q256.0 97.4 256.4 97.8Q256.9 98.3 256.9 99.0L256.9 99.0Q256.9 99.6 256.5 100.1Q256.2 100.6 255.5 100.9Q254.8 101.1 254.0 101.1ZM261.0 101.1L261.0 101.1Q260.0 101.1 259.3 100.7Q258.6 100.3 258.2 99.5Q257.8 98.8 257.8 97.8L257.8 97.8Q257.8 96.7 258.2 96.0Q258.6 95.2 259.3 94.8Q260.0 94.4 261.0 94.4L261.0 94.4Q262.0 94.4 262.7 94.8Q263.5 95.2 263.8 96.0Q264.2 96.7 264.2 97.8L264.2 97.8Q264.2 98.8 263.8 99.5Q263.5 100.3 262.7 100.7Q262.0 101.1 261.0 101.1ZM261.0 99.7L261.0 99.7Q261.5 99.7 261.8 99.5Q262.1 99.2 262.3 98.8Q262.4 98.3 262.4 97.7L262.4 97.7Q262.4 97.2 262.3 96.7Q262.1 96.3 261.8 96.0Q261.5 95.8 261.0 95.8L261.0 95.8Q260.6 95.8 260.2 96.0Q259.9 96.3 259.8 96.7Q259.6 97.2 259.6 97.7L259.6 97.7Q259.6 98.3 259.8 98.8Q259.9 99.2 260.2 99.5Q260.6 99.7 261.0 99.7ZM267.2 101L265.5 101L265.5 94.4L267.2 94.4L267.2 95.6L267.2 95.6Q267.4 95.0 267.8 94.7Q268.3 94.4 268.8 94.4L268.8 94.4Q268.9 94.4 269.1 94.4Q269.3 94.4 269.4 94.4L269.4 94.4L269.4 96.0Q269.3 95.9 269.0 95.9Q268.8 95.9 268.6 95.9L268.6 95.9Q268.2 95.9 267.9 96.1Q267.6 96.2 267.4 96.6Q267.2 96.9 267.2 97.3L267.2 97.3L267.2 101ZM272.2 101L270.4 101L270.4 92.3L276.1 92.3L276.1 93.8L272.2 93.8L272.2 96.2L275.7 96.2L275.7 97.6L272.2 97.6L272.2 101ZM277.4 92.3L279.1 92.3L279.1 101L277.4 101L277.4 92.3ZM283.6 101.1L283.6 101.1Q282.6 101.1 281.9 100.7Q281.1 100.3 280.8 99.5Q280.4 98.8 280.4 97.8L280.4 97.8Q280.4 96.7 280.8 96.0Q281.1 95.2 281.9 94.8Q282.6 94.4 283.6 94.4L283.6 94.4Q284.6 94.4 285.3 94.8Q286.0 95.2 286.4 96.0Q286.8 96.7 286.8 97.8L286.8 97.8Q286.8 98.8 286.4 99.5Q286.0 100.3 285.3 100.7Q284.6 101.1 283.6 101.1ZM283.6 99.7L283.6 99.7Q284.0 99.7 284.4 99.5Q284.7 99.2 284.8 98.8Q285.0 98.3 285.0 97.7L285.0 97.7Q285.0 97.2 284.8 96.7Q284.7 96.3 284.4 96.0Q284.0 95.8 283.6 95.8L283.6 95.8Q283.1 95.8 282.8 96.0Q282.5 96.3 282.3 96.7Q282.2 97.2 282.2 97.7L282.2 97.7Q282.2 98.3 282.3 98.8Q282.5 99.2 282.8 99.5Q283.1 99.7 283.6 99.7ZM291.2 101L289.4 101L287.4 94.4L289.3 94.4L289.8 96.9Q290.0 97.5 290.2 98.3L290.2 98.3Q290.3 98.8 290.4 99.4L290.4 99.4Q290.5 98.8 290.6 98.3L290.6 98.3Q290.8 97.5 290.9 96.9L290.9 96.9L291.5 94.4L293.2 94.4L293.7 96.9Q293.9 97.5 294.1 98.3L294.1 98.3Q294.2 98.8 294.3 99.4L294.3 99.4Q294.4 98.8 294.5 98.3L294.5 98.3Q294.7 97.5 294.8 96.9L294.8 96.9L295.4 94.4L297.3 94.4L295.3 101L293.5 101L292.8 98.5Q292.7 98.1 292.6 97.6Q292.5 97.2 292.4 96.7L292.4 96.7Q292.4 96.6 292.3 96.5L292.3 96.5Q292.3 96.6 292.3 96.7L292.3 96.7Q292.2 97.2 292.1 97.6Q292.0 98.1 291.9 98.5L291.9 98.5L291.2 101Z "/></g><defs><clipPath id="satori_bc-id-2-1-1-2" clip-path="url(#satori_cp-id)"><path x="319" y="84" width="78" height="25" d="M325,84 h66 a6,6 0 0 1 6,6 v13 a6,6 0 0 1 -6,6 h-66 a6,6 0 0 1 -6,-6 v-13 a6,6 0 0 1 6,-6"/></clipPath></defs><mask id="satori_om-id-2-1-1-2"><rect x="320" y="85" width="76" height="23" fill="#fff" mask="url(#satori_om-id)"/><path width="78" height="25" fill="none" stroke="#000" stroke-width="2" d="M320.757,85.757 A6,6 0 0 1 325,84 h66 a6,6 0 0 1 6,6 v13 a6,6 0 0 1 -6,6 h-66 a6,6 0 0 1 -6,-6 v-13 A6,6 0 0 1 320.757,85.757"/></mask><path x="319" y="84" width="78" height="25" fill="#60a5fa15" d="M325,84 h66 a6,6 0 0 1 6,6 v13 a6,6 0 0 1 -6,6 h-66 a6,6 0 0 1 -6,-6 v-13 a6,6 0 0 1 6,-6" clip-path="url(#satori_cp-id)" mask="url(#satori_om-id)"/><path width="78" height="25" clip-path="url(#satori_bc-id-2-1-1-2)" fill="none" stroke="#60a5fa35" stroke-width="2" d="M320.757,85.757 A6,6 0 0 1 325,84 h66 a6,6 0 0 1 6,6 v13 a6,6 0 0 1 -6,6 h-66 a6,6 0 0 1 -6,-6 v-13 A6,6 0 0 1 320.757,85.757"/><g mask="url(#satori_om-id)" clip-path="url(#satori_cp-id)"><path fill="rgba(225,220,255,0.85)" d="M337.6 101.1L337.6 101.1Q336.5 101.1 335.5 100.6Q334.6 100.1 334.1 99.1Q333.6 98.1 333.6 96.6L333.6 96.6Q333.6 95.2 334.1 94.2Q334.6 93.2 335.5 92.7Q336.5 92.2 337.6 92.2L337.6 92.2Q338.8 92.2 339.7 92.7Q340.6 93.2 341.2 94.2Q341.7 95.2 341.7 96.6L341.7 96.6Q341.7 98.1 341.2 99.1Q340.6 100.1 339.7 100.6Q338.8 101.1 337.6 101.1ZM337.6 99.5L337.6 99.5Q338.3 99.5 338.8 99.2Q339.3 98.9 339.6 98.2Q339.9 97.6 339.9 96.6L339.9 96.6Q339.9 95.7 339.6 95.0Q339.3 94.4 338.8 94.1Q338.3 93.7 337.6 93.7L337.6 93.7Q336.9 93.7 336.4 94.1Q335.9 94.4 335.6 95.1Q335.4 95.7 335.4 96.6L335.4 96.6Q335.4 97.6 335.6 98.2Q335.9 98.9 336.4 99.2Q336.9 99.5 337.6 99.5ZM344.8 103.4L343.0 103.4L343.0 94.4L344.7 94.4L344.7 95.6L344.8 95.6Q344.9 95.3 345.2 95.0Q345.4 94.7 345.8 94.6Q346.1 94.4 346.7 94.4L346.7 94.4Q347.4 94.4 348.0 94.7Q348.6 95.1 349.0 95.9Q349.3 96.6 349.3 97.7L349.3 97.7Q349.3 98.8 349.0 99.6Q348.6 100.3 348.0 100.7Q347.4 101.1 346.7 101.1L346.7 101.1Q346.1 101.1 345.8 100.9Q345.4 100.7 345.2 100.5Q344.9 100.2 344.8 100.0L344.8 100.0L344.8 100.0L344.8 103.4ZM346.1 99.7L346.1 99.7Q346.6 99.7 346.9 99.4Q347.2 99.2 347.4 98.8Q347.5 98.3 347.5 97.7L347.5 97.7Q347.5 97.2 347.4 96.7Q347.2 96.3 346.9 96.0Q346.6 95.8 346.1 95.8L346.1 95.8Q345.7 95.8 345.4 96.0Q345.0 96.3 344.9 96.7Q344.7 97.1 344.7 97.7L344.7 97.7Q344.7 98.3 344.9 98.8Q345.0 99.2 345.4 99.5Q345.7 99.7 346.1 99.7ZM353.5 101.1L353.5 101.1Q352.5 101.1 351.8 100.7Q351.1 100.3 350.7 99.6Q350.3 98.8 350.3 97.8L350.3 97.8Q350.3 96.7 350.7 96.0Q351.1 95.2 351.8 94.8Q352.5 94.4 353.4 94.4L353.4 94.4Q354.1 94.4 354.6 94.6Q355.2 94.8 355.6 95.2Q356.0 95.6 356.3 96.2Q356.5 96.8 356.5 97.7L356.5 97.7L356.5 98.2L352.0 98.2Q352.0 98.7 352.2 99.0L352.2 99.0Q352.4 99.4 352.7 99.6Q353.1 99.8 353.5 99.8L353.5 99.8Q353.9 99.8 354.1 99.7Q354.4 99.6 354.5 99.5Q354.7 99.3 354.8 99.0L354.8 99.0L356.4 99.3Q356.3 99.9 355.9 100.3Q355.5 100.7 354.9 100.9Q354.3 101.1 353.5 101.1ZM352.0 97.1L352.0 97.1L354.8 97.1Q354.8 96.8 354.7 96.5L354.7 96.5Q354.5 96.1 354.2 95.9Q353.9 95.7 353.4 95.7L353.4 95.7Q353.0 95.7 352.7 95.9Q352.4 96.1 352.2 96.5L352.2 96.5Q352.1 96.7 352.0 97.1ZM359.5 97.2L359.5 97.2L359.5 101L357.7 101L357.7 94.4L359.4 94.4L359.4 95.8Q359.6 95.2 360.1 94.8L360.1 94.8Q360.6 94.4 361.4 94.4L361.4 94.4Q362.1 94.4 362.6 94.7Q363.1 95.0 363.4 95.5Q363.7 96.1 363.7 96.8L363.7 96.8L363.7 101L361.9 101L361.9 97.1Q361.9 96.5 361.6 96.2Q361.3 95.8 360.7 95.8L360.7 95.8Q360.4 95.8 360.1 96.0Q359.8 96.2 359.6 96.5Q359.5 96.8 359.5 97.2ZM369.0 101.1L369.0 101.1Q367.9 101.1 367.0 100.6Q366.0 100.1 365.5 99.1Q365.0 98.1 365.0 96.6L365.0 96.6Q365.0 95.2 365.5 94.2Q366.0 93.2 367.0 92.7Q367.9 92.2 369.0 92.2L369.0 92.2Q369.8 92.2 370.4 92.4Q371.1 92.6 371.6 93.0Q372.1 93.4 372.4 93.9Q372.7 94.5 372.8 95.3L372.8 95.3L371.0 95.3Q370.9 94.9 370.8 94.6Q370.6 94.3 370.3 94.1Q370.1 93.9 369.8 93.8Q369.4 93.7 369.1 93.7L369.1 93.7Q368.4 93.7 367.9 94.1Q367.4 94.4 367.1 95.1Q366.8 95.7 366.8 96.6L366.8 96.6Q366.8 97.6 367.1 98.2Q367.4 98.9 367.9 99.2Q368.4 99.5 369.1 99.5L369.1 99.5Q369.4 99.5 369.8 99.4Q370.1 99.3 370.3 99.1Q370.6 98.9 370.8 98.7Q370.9 98.4 371.0 98.0L371.0 98.0L372.8 98.0Q372.7 98.6 372.4 99.2Q372.1 99.7 371.7 100.2Q371.2 100.6 370.5 100.9Q369.9 101.1 369.0 101.1ZM379.0 101L376.7 101L373.6 92.3L375.6 92.3L377.0 96.5Q377.2 97.3 377.5 98.2L377.5 98.2Q377.7 98.9 377.8 99.6L377.8 99.6Q378.0 98.9 378.2 98.2L378.2 98.2Q378.4 97.3 378.7 96.5L378.7 96.5L380.0 92.3L382.0 92.3L379.0 101Z "/></g><defs><clipPath id="satori_bc-id-2-1-1-3" clip-path="url(#satori_cp-id)"><path x="404" y="84" width="100" height="25" d="M410,84 h88 a6,6 0 0 1 6,6 v13 a6,6 0 0 1 -6,6 h-88 a6,6 0 0 1 -6,-6 v-13 a6,6 0 0 1 6,-6"/></clipPath></defs><mask id="satori_om-id-2-1-1-3"><rect x="405" y="85" width="98" height="23" fill="#fff" mask="url(#satori_om-id)"/><path width="100" height="25" fill="none" stroke="#000" stroke-width="2" d="M405.757,85.757 A6,6 0 0 1 410,84 h88 a6,6 0 0 1 6,6 v13 a6,6 0 0 1 -6,6 h-88 a6,6 0 0 1 -6,-6 v-13 A6,6 0 0 1 405.757,85.757"/></mask><path x="404" y="84" width="100" height="25" fill="#60a5fa15" d="M410,84 h88 a6,6 0 0 1 6,6 v13 a6,6 0 0 1 -6,6 h-88 a6,6 0 0 1 -6,-6 v-13 a6,6 0 0 1 6,-6" clip-path="url(#satori_cp-id)" mask="url(#satori_om-id)"/><path width="100" height="25" clip-path="url(#satori_bc-id-2-1-1-3)" fill="none" stroke="#60a5fa35" stroke-width="2" d="M405.757,85.757 A6,6 0 0 1 410,84 h88 a6,6 0 0 1 6,6 v13 a6,6 0 0 1 -6,6 h-88 a6,6 0 0 1 -6,-6 v-13 A6,6 0 0 1 405.757,85.757"/><g mask="url(#satori_om-id)" clip-path="url(#satori_cp-id)"><path fill="rgba(225,220,255,0.85)" d="M422.0 101.1L422.0 101.1Q420.9 101.1 420.2 100.8Q419.4 100.5 419.0 99.9Q418.5 99.2 418.5 98.3L418.5 98.3L420.2 98.3Q420.3 98.7 420.5 99.0Q420.7 99.3 421.1 99.5Q421.5 99.6 422.0 99.6L422.0 99.6Q422.5 99.6 422.8 99.5Q423.2 99.3 423.4 99.1Q423.6 98.8 423.6 98.5L423.6 98.5Q423.6 98.2 423.4 98.0Q423.2 97.8 422.9 97.7Q422.5 97.5 422.1 97.4L422.1 97.4L421.1 97.2Q420.0 96.9 419.4 96.3Q418.7 95.7 418.7 94.8L418.7 94.8Q418.7 94.0 419.2 93.4Q419.6 92.8 420.3 92.5Q421.1 92.2 422.0 92.2L422.0 92.2Q423.0 92.2 423.7 92.5Q424.4 92.8 424.8 93.4Q425.2 94.0 425.2 94.8L425.2 94.8L423.5 94.8Q423.5 94.2 423.1 93.9Q422.7 93.7 422.0 93.7L422.0 93.7Q421.5 93.7 421.2 93.8Q420.9 93.9 420.7 94.1Q420.6 94.4 420.6 94.7L420.6 94.7Q420.6 95.0 420.8 95.2Q421.0 95.4 421.3 95.5Q421.6 95.7 422.0 95.8L422.0 95.8L422.8 96.0Q423.3 96.1 423.8 96.3Q424.3 96.5 424.6 96.8Q425.0 97.1 425.2 97.5Q425.4 98.0 425.4 98.5L425.4 98.5Q425.4 99.3 425.0 99.9Q424.6 100.5 423.8 100.8Q423.1 101.1 422.0 101.1ZM429.5 101.1L429.5 101.1Q428.5 101.1 427.8 100.7Q427.1 100.3 426.7 99.5Q426.3 98.8 426.3 97.8L426.3 97.8Q426.3 96.7 426.7 96.0Q427.1 95.2 427.8 94.8Q428.5 94.4 429.5 94.4L429.5 94.4Q430.1 94.4 430.6 94.5Q431.1 94.7 431.5 95.0Q431.9 95.2 432.1 95.6Q432.4 96.0 432.4 96.5L432.4 96.5L430.8 96.9Q430.8 96.6 430.7 96.4Q430.5 96.2 430.4 96.0Q430.2 95.9 430.0 95.8Q429.8 95.8 429.6 95.8L429.6 95.8Q429.1 95.8 428.8 96.0Q428.4 96.3 428.3 96.7Q428.1 97.2 428.1 97.7L428.1 97.7Q428.1 98.3 428.3 98.8Q428.4 99.2 428.8 99.5Q429.1 99.7 429.6 99.7L429.6 99.7Q429.8 99.7 430.0 99.7Q430.2 99.6 430.4 99.4Q430.6 99.3 430.7 99.1Q430.8 98.9 430.8 98.6L430.8 98.6L432.5 98.9Q432.4 99.4 432.1 99.8Q431.9 100.2 431.5 100.5Q431.1 100.8 430.6 101.0Q430.1 101.1 429.5 101.1ZM435.4 101L433.7 101L433.7 94.4L435.4 94.4L435.4 101ZM434.5 93.6L434.5 93.6Q434.1 93.6 433.9 93.3Q433.6 93.1 433.6 92.7L433.6 92.7Q433.6 92.3 433.9 92.1Q434.1 91.8 434.5 91.8L434.5 91.8Q434.9 91.8 435.2 92.0Q435.5 92.3 435.5 92.7L435.5 92.7Q435.5 93.1 435.2 93.3Q434.9 93.6 434.5 93.6ZM438.7 101L436.9 101L436.9 92.3L438.7 92.3L438.7 97.0L438.8 97.0L440.9 94.4L443.0 94.4L440.5 97.3L443.1 101L441.0 101L439.2 98.3L438.7 98.9L438.7 101ZM445.6 101L443.9 101L443.9 94.4L445.6 94.4L445.6 101ZM444.8 93.6L444.8 93.6Q444.4 93.6 444.1 93.3Q443.8 93.1 443.8 92.7L443.8 92.7Q443.8 92.3 444.1 92.1Q444.4 91.8 444.8 91.8L444.8 91.8Q445.2 91.8 445.4 92.0Q445.7 92.3 445.7 92.7L445.7 92.7Q445.7 93.1 445.4 93.3Q445.2 93.6 444.8 93.6ZM449.2 94.4L450.4 94.4L450.4 95.8L449.2 95.8L449.2 99.1Q449.2 99.4 449.3 99.5Q449.4 99.7 449.8 99.7L449.8 99.7Q449.9 99.7 450.0 99.7Q450.2 99.6 450.3 99.6L450.3 99.6L450.6 100.9Q450.3 101.0 450.0 101.1Q449.7 101.1 449.4 101.1L449.4 101.1Q448.4 101.1 447.9 100.6Q447.4 100.1 447.4 99.2L447.4 99.2L447.4 95.8L446.5 95.8L446.5 94.4L447.4 94.4L447.4 92.9L449.2 92.9L449.2 94.4ZM451.6 96.7L455.6 96.7L455.6 98.1L451.6 98.1L451.6 96.7ZM462.7 101L457.2 101L457.2 92.3L459.0 92.3L459.0 99.5L462.7 99.5L462.7 101ZM466.9 101.1L466.9 101.1Q465.9 101.1 465.2 100.7Q464.4 100.3 464.0 99.6Q463.7 98.8 463.7 97.8L463.7 97.8Q463.7 96.7 464.0 96.0Q464.4 95.2 465.1 94.8Q465.8 94.4 466.8 94.4L466.8 94.4Q467.4 94.4 468.0 94.6Q468.6 94.8 469.0 95.2Q469.4 95.6 469.6 96.2Q469.9 96.8 469.9 97.7L469.9 97.7L469.9 98.2L465.4 98.2Q465.4 98.7 465.6 99.0L465.6 99.0Q465.8 99.4 466.1 99.6Q466.5 99.8 466.9 99.8L466.9 99.8Q467.2 99.8 467.5 99.7Q467.7 99.6 467.9 99.5Q468.1 99.3 468.2 99.0L468.2 99.0L469.8 99.3Q469.6 99.9 469.2 100.3Q468.8 100.7 468.2 100.9Q467.7 101.1 466.9 101.1ZM465.4 97.1L465.4 97.1L468.2 97.1Q468.1 96.8 468.0 96.5L468.0 96.5Q467.9 96.1 467.6 95.9Q467.3 95.7 466.8 95.7L466.8 95.7Q466.4 95.7 466.0 95.9Q465.7 96.1 465.6 96.5L465.6 96.5Q465.4 96.7 465.4 97.1ZM472.9 101.1L472.9 101.1Q472.3 101.1 471.8 100.9Q471.3 100.7 471.0 100.3Q470.7 99.8 470.7 99.2L470.7 99.2Q470.7 98.6 470.9 98.3Q471.1 97.9 471.5 97.7Q471.8 97.4 472.3 97.3Q472.7 97.2 473.2 97.2L473.2 97.2Q473.8 97.1 474.1 97.0Q474.5 97.0 474.6 96.9Q474.8 96.8 474.8 96.6L474.8 96.6L474.8 96.5Q474.8 96.3 474.7 96.1Q474.5 95.9 474.3 95.8Q474.1 95.7 473.8 95.7L473.8 95.7Q473.4 95.7 473.2 95.8Q472.9 95.9 472.8 96.0Q472.6 96.2 472.5 96.4L472.5 96.4L470.9 96.2Q471.1 95.6 471.5 95.2Q471.9 94.8 472.4 94.6Q473.0 94.4 473.8 94.4L473.8 94.4Q474.3 94.4 474.8 94.5Q475.3 94.6 475.7 94.9Q476.1 95.1 476.3 95.6Q476.5 96.0 476.5 96.6L476.5 96.6L476.5 101L474.9 101L474.9 100.1L474.8 100.1Q474.7 100.4 474.4 100.6Q474.1 100.9 473.8 101.0Q473.4 101.1 472.9 101.1ZM473.4 99.9L473.4 99.9Q473.8 99.9 474.1 99.7Q474.4 99.6 474.6 99.3Q474.8 99.0 474.8 98.7L474.8 98.7L474.8 97.9Q474.7 98.0 474.6 98.1Q474.4 98.1 474.2 98.1Q474.0 98.2 473.8 98.2Q473.6 98.2 473.5 98.2L473.5 98.2Q473.2 98.3 472.9 98.4Q472.7 98.5 472.5 98.7Q472.4 98.8 472.4 99.1L472.4 99.1Q472.4 99.4 472.5 99.5Q472.7 99.7 472.9 99.8Q473.1 99.9 473.4 99.9ZM479.8 101L478.0 101L478.0 94.4L479.7 94.4L479.7 95.6L479.8 95.6Q480.0 95.0 480.4 94.7Q480.8 94.4 481.4 94.4L481.4 94.4Q481.5 94.4 481.7 94.4Q481.8 94.4 482.0 94.4L482.0 94.4L482.0 96.0Q481.8 95.9 481.6 95.9Q481.4 95.9 481.2 95.9L481.2 95.9Q480.8 95.9 480.5 96.1Q480.2 96.2 480.0 96.6Q479.8 96.9 479.8 97.3L479.8 97.3L479.8 101ZM484.7 97.2L484.7 97.2L484.7 101L482.9 101L482.9 94.4L484.6 94.4L484.6 95.8Q484.9 95.2 485.3 94.8L485.3 94.8Q485.8 94.4 486.6 94.4L486.6 94.4Q487.3 94.4 487.8 94.7Q488.3 95.0 488.6 95.5Q488.9 96.1 488.9 96.8L488.9 96.8L488.9 101L487.1 101L487.1 97.1Q487.1 96.5 486.8 96.2Q486.5 95.8 486.0 95.8L486.0 95.8Q485.6 95.8 485.3 96.0Q485.0 96.2 484.8 96.5Q484.7 96.8 484.7 97.2Z "/></g></svg>