<!-- Generated by readme-aura https://github.com/collectioneur/readme-aura -->
<svg width="860" height="168" viewBox="0 0 860 168" xmlns="http://www.w3.org/2000/svg"><defs><clipPath id="satori_bc-id"><path x="0" y="0" width="860" height="168" d="M16,0 h828 a16,16 0 0 1 16,16 v136 a16,16 0 0 1 -16,16 h-828 a16,16 0 0 1 -16,-16 v-136 a16,16 0 0 1 16,-16"/></clipPath></defs><clipPath id="satori_cp-id"><path x="0" y="0" width="860" height="168" d="M16,0 h828 a16,16 0 0 1 16,16 v136 a16,16 0 0 1 -16,16 h-828 a16,16 0 0 1 -16,-16 v-136 a16,16 0 0 1 16,-16"/></clipPath><mask id="satori_om-id"><rect x="1" y="1" width="858" height="166" fill="#fff"/><path width="860" height="168" fill="none" stroke="#000" stroke-width="2" d="M4.686,4.686 A16,16 0 0 1 16,0 h828 a16,16 0 0 1 16,16 v136 a16,16 0 0 1 -16,16 h-828 a16,16 0 0 1 -16,-16 v-136 A16,16 0 0 1 4.686,4.686"/></mask><path x="0" y="0" width="860" height="168" fill="#08080c" d="M16,0 h828 a16,16 0 0 1 16,16 v136 a16,16 0 0 1 -16,16 h-828 a16,16 0 0 1 -16,-16 v-136 a16,16 0 0 1 16,-16"/><path width="860" height="168" clip-path="url(#satori_bc-id)" fill="none" stroke="rgba(110,80,220,0.18)" stroke-width="2" d="M4.686,4.686 A16,16 0 0 1 16,0 h828 a16,16 0 0 1 16,16 v136 a16,16 0 0 1 -16,16 h-828 a16,16 0 0 1 -16,-16 v-136 A16,16 0 0 1 4.686,4.686"/><clipPath id="satori_cp-id-0" clip-path="url(#satori_cp-id)"><rect x="1" y="1" width="860" height="168"/></clipPath><mask id="satori_om-id-0"><rect x="1" y="1" width="860" height="168" fill="#fff" mask="url(#satori_om-id)"/></mask><svg x="1" y="1" width="860" height="168" preserveAspectRatio="none" clip-path="url(#satori_cp-id-0)" mask="url(#satori_om-id-0)"><defs><radialGradient id="g1" cx="50%" cy="50%" r="50%"><stop offset="0%" stop-color="rgba(115,20,215,0.68)"></stop><stop offset="42%" stop-color="rgba(85,15,175,0.30)"></stop><stop offset="70%" stop-color="rgba(85,15,175,0)"></stop></radialGradient><radialGradient id="g2" cx="50%" cy="50%" r="50%"><stop offset="0%" stop-color="rgba(55,55,255,0.55)"></stop><stop offset="45%" stop-color="rgba(35,45,210,0.22)"></stop><stop offset="70%" stop-color="rgba(35,45,210,0)"></stop></radialGradient><radialGradient id="g3" cx="50%" cy="50%" r="50%"><stop offset="0%" stop-color="rgba(0,130,255,0.42)"></stop><stop offset="50%" stop-color="rgba(0,100,220,0.16)"></stop><stop offset="70%" stop-color="rgba(0,100,220,0)"></stop></radialGradient><radialGradient id="g4" cx="50%" cy="50%" r="50%"><stop offset="0%" stop-color="rgba(0,185,240,0.32)"></stop><stop offset="70%" stop-color="rgba(0,185,240,0)"></stop></radialGradient><radialGradient id="g5" cx="50%" cy="50%" r="50%"><stop offset="0%" stop-color="rgba(100,25,205,0.42)"></stop><stop offset="70%" stop-color="rgba(100,25,205,0)"></stop></radialGradient><radialGradient id="g6" cx="50%" cy="50%" r="50%"><stop offset="0%" stop-color="rgba(60,80,255,0.35)"></stop><stop offset="70%" stop-color="rgba(60,80,255,0)"></stop></radialGradient></defs><ellipse id="glow-1" cx="170" cy="168" rx="260" ry="170" fill="url(#g1)"></ellipse><ellipse id="glow-2" cx="320" cy="178" rx="220" ry="140" fill="url(#g2)"></ellipse><ellipse id="glow-3" cx="460" cy="178" rx="190" ry="130" fill="url(#g3)"></ellipse><ellipse id="glow-4" cx="590" cy="188" rx="160" ry="110" fill="url(#g4)"></ellipse><ellipse id="glow-5" cx="750" cy="188" rx="140" ry="100" fill="url(#g5)"></ellipse><ellipse id="glow-6" cx="420" cy="138" rx="100" ry="80" fill="url(#g6)"></ellipse><style>

         @keyframes float-slow {
           0%, 100% { transform: translateX(0px); opacity: 0.8; }
           50% { transform: translateX(350px); opacity: 1.2; }
         }
         @keyframes float-medium {
           0%, 100% { transform: translateX(0px); opacity: 0.7; }
           50% { transform: translateX(-250px); opacity: 1.1; }
         }
         @keyframes float-fast {
           0%, 100% { transform: translateX(0px); opacity: 0.9; }
           50% { transform: translateX(200px); opacity: 0.6; }
         }
         @keyframes float-diagonal {
           0%, 100% { transform: translate(0px, 0px); opacity: 0.75; }
           50% { transform: translate(120px, 30px); opacity: 1.0; }
         }
         @keyframes float-wave {
           0%, 100% { transform: translateX(0px); opacity: 0.65; }
           33% { transform: translateX(-160px); opacity: 0.9; }
           66% { transform: translateX(80px); opacity: 1.0; }
         }
         @keyframes float-pulse {
           0%, 100% { transform: scale(1); opacity: 0.8; }
           50% { transform: scale(1.3); opacity: 0.4; }
         }
         #glow-1 { animation: float-slow 9s ease-in-out infinite; }
         #glow-2 { animation: float-medium 12s ease-in-out infinite; }
         #glow-3 { animation: float-fast 8s ease-in-out infinite; }
         #glow-4 { animation: float-diagonal 11s ease-in-out infinite reverse; }
         #glow-5 { animation: float-wave 14s ease-in-out infinite reverse; }
         #glow-6 { animation: float-pulse 6s ease-in-out infinite; }
       
</style>
</svg><mask id="satori_om-id-0-0"><rect x="1" y="1" width="0" height="168" fill="#fff" mask="url(#satori_om-id)"/></mask><mask id="satori_om-id-0-0-0"><rect x="1" y="1" width="0" height="168" fill="#fff" mask="url(#satori_om-id)"/></mask><mask id="satori_om-id-0-0-0-0"><rect x="1" y="1" width="0" height="168" fill="#fff" mask="url(#satori_om-id)"/></mask><mask id="satori_om-id-0-0-0-1"><rect x="1" y="1" width="0" height="168" fill="#fff" mask="url(#satori_om-id)"/></mask><mask id="satori_om-id-0-0-0-2"><rect x="1" y="1" width="0" height="168" fill="#fff" mask="url(#satori_om-id)"/></mask><mask id="satori_om-id-0-0-1"><rect x="1" y="1" width="0" height="168" fill="#fff" mask="url(#satori_om-id)"/></mask><mask id="satori_om-id-0-0-1-0"><rect x="1" y="1" width="0" height="168" fill="#fff" mask="url(#satori_om-id)"/></mask><mask id="satori_om-id-0-0-1-1"><rect x="1" y="1" width="0" height="168" fill="#fff" mask="url(#satori_om-id)"/></mask><mask id="satori_om-id-0-0-1-2"><rect x="1" y="1" width="0" height="168" fill="#fff" mask="url(#satori_om-id)"/></mask><mask id="satori_om-id-0-0-2"><rect x="1" y="1" width="0" height="168" fill="#fff" mask="url(#satori_om-id)"/></mask><mask id="satori_om-id-0-0-2-0"><rect x="1" y="1" width="0" height="168" fill="#fff" mask="url(#satori_om-id)"/></mask><mask id="satori_om-id-0-0-2-1"><rect x="1" y="1" width="0" height="168" fill="#fff" mask="url(#satori_om-id)"/></mask><mask id="satori_om-id-0-0-2-2"><rect x="1" y="1" width="0" height="168" fill="#fff" mask="url(#satori_om-id)"/></mask><mask id="satori_om-id-0-0-3"><rect x="1" y="1" width="0" height="168" fill="#fff" mask="url(#satori_om-id)"/></mask><mask id="satori_om-id-0-0-3-0"><rect x="1" y="1" width="0" height="168" fill="#fff" mask="url(#satori_om-id)"/></mask><mask id="satori_om-id-0-0-3-1"><rect x="1" y="1" width="0" height="168" fill="#fff" mask="url(#satori_om-id)"/></mask><mask id="satori_om-id-0-0-4"><rect x="1" y="1" width="0" height="168" fill="#fff" mask="url(#satori_om-id)"/></mask><mask id="satori_om-id-0-0-4-0"><rect x="1" y="1" width="0" height="168" fill="#fff" mask="url(#satori_om-id)"/></mask><mask id="satori_om-id-0-0-4-1"><rect x="1" y="1" width="0" height="168" fill="#fff" mask="url(#satori_om-id)"/></mask><mask id="satori_om-id-0-0-5"><rect x="1" y="1" width="0" height="168" fill="#fff" mask="url(#satori_om-id)"/></mask><mask id="satori_om-id-0-0-5-0"><rect x="1" y="1" width="0" height="168" fill="#fff" mask="url(#satori_om-id)"/></mask><mask id="satori_om-id-0-0-5-1"><rect x="1" y="1" width="0" height="168" fill="#fff" mask="url(#satori_om-id)"/></mask><mask id="satori_om-id-0-1"><rect x="1" y="1" width="0" height="168" fill="#fff" mask="url(#satori_om-id)"/></mask><mask id="satori_om-id-0-2"><rect x="1" y="1" width="0" height="168" fill="#fff" mask="url(#satori_om-id)"/></mask><mask id="satori_om-id-0-3"><rect x="1" y="1" width="0" height="168" fill="#fff" mask="url(#satori_om-id)"/></mask><mask id="satori_om-id-0-4"><rect x="1" y="1" width="0" height="168" fill="#fff" mask="url(#satori_om-id)"/></mask><mask id="satori_om-id-0-5"><rect x="1" y="1" width="0" height="168" fill="#fff" mask="url(#satori_om-id)"/></mask><mask id="satori_om-id-0-6"><rect x="1" y="1" width="0" height="168" fill="#fff" mask="url(#satori_om-id)"/></mask><mask id="satori_om-id-1"><rect x="33" y="19" width="794" height="12" fill="#fff" mask="url(#satori_om-id)"/></mask><g mask="url(#satori_om-id)" clip-path="url(#satori_cp-id)"><path fill="rgba(155,140,210,0.5)" d="M35.6 23.0L33.4 23.0L33.4 21.7L39.3 21.7L39.3 23.0L37.1 23.0L37.1 29L35.6 29L35.6 23.0ZM48.2 29L43.3 29L43.3 21.7L48.2 21.7L48.2 23.0L44.8 23.0L44.8 24.7L47.9 24.7L47.9 25.9L44.8 25.9L44.8 27.8L48.2 27.8L48.2 29ZM55.6 29.1L55.6 29.1Q54.6 29.1 53.9 28.7Q53.1 28.2 52.6 27.4Q52.2 26.5 52.2 25.4L52.2 25.4Q52.2 24.2 52.7 23.3Q53.1 22.5 53.9 22.1Q54.6 21.6 55.6 21.6L55.6 21.6Q56.2 21.6 56.7 21.8Q57.3 22.0 57.7 22.3Q58.1 22.6 58.4 23.1Q58.6 23.6 58.7 24.2L58.7 24.2L57.2 24.2Q57.2 23.9 57.0 23.7Q56.9 23.4 56.7 23.3Q56.5 23.1 56.2 23.0Q55.9 23.0 55.6 23.0L55.6 23.0Q55.0 23.0 54.6 23.2Q54.2 23.5 54.0 24.1Q53.7 24.6 53.7 25.4L53.7 25.4Q53.7 26.2 54.0 26.7Q54.2 27.2 54.6 27.5Q55.0 27.8 55.6 27.8L55.6 27.8Q55.9 27.8 56.2 27.7Q56.5 27.6 56.7 27.4Q56.9 27.3 57.0 27.0Q57.2 26.8 57.2 26.5L57.2 26.5L58.7 26.5Q58.7 27.0 58.4 27.5Q58.2 27.9 57.8 28.3Q57.4 28.7 56.8 28.9Q56.3 29.1 55.6 29.1ZM64.3 29L62.8 29L62.8 21.7L64.3 21.7L64.3 24.7L67.5 24.7L67.5 21.7L69.0 21.7L69.0 29L67.5 29L67.5 25.9L64.3 25.9L64.3 29Z M81.3 29.1L81.3 29.1Q80.4 29.1 79.8 28.8Q79.1 28.6 78.8 28.0Q78.4 27.5 78.4 26.7L78.4 26.7L79.9 26.7Q79.9 27.1 80.1 27.4Q80.3 27.6 80.6 27.7Q80.9 27.8 81.3 27.8L81.3 27.8Q81.7 27.8 82.0 27.7Q82.3 27.6 82.5 27.4Q82.6 27.2 82.6 26.9L82.6 26.9Q82.6 26.7 82.5 26.5Q82.3 26.3 82.0 26.2Q81.8 26.1 81.4 26.0L81.4 26.0L80.6 25.8Q79.6 25.6 79.1 25.1Q78.6 24.6 78.6 23.8L78.6 23.8Q78.6 23.2 78.9 22.7Q79.3 22.2 79.9 21.9Q80.5 21.6 81.3 21.6L81.3 21.6Q82.1 21.6 82.7 21.9Q83.3 22.2 83.7 22.7Q84.0 23.2 84.0 23.8L84.0 23.8L82.6 23.8Q82.5 23.4 82.2 23.1Q81.9 22.9 81.3 22.9L81.3 22.9Q80.9 22.9 80.7 23.0Q80.4 23.1 80.3 23.3Q80.1 23.5 80.1 23.7L80.1 23.7Q80.1 24.0 80.3 24.2Q80.4 24.3 80.7 24.5Q81.0 24.6 81.3 24.6L81.3 24.6L81.9 24.8Q82.4 24.9 82.8 25.1Q83.2 25.3 83.5 25.5Q83.8 25.8 84.0 26.1Q84.1 26.5 84.1 26.9L84.1 26.9Q84.1 27.6 83.8 28.1Q83.5 28.6 82.8 28.8Q82.2 29.1 81.3 29.1ZM90.1 23.0L87.9 23.0L87.9 21.7L93.8 21.7L93.8 23.0L91.6 23.0L91.6 29L90.1 29L90.1 23.0ZM99.1 29L97.4 29L99.9 21.7L101.9 21.7L104.4 29L102.8 29L102.2 27.3L99.6 27.3L99.1 29ZM100.0 26.1L101.8 26.1L101.6 25.5Q101.4 24.8 101.2 24L101.2 24Q101.0 23.5 100.9 22.9L100.9 22.9Q100.7 23.5 100.6 24.0L100.6 24.0Q100.4 24.8 100.2 25.5L100.2 25.5L100.0 26.1ZM111.5 29.1L111.5 29.1Q110.5 29.1 109.8 28.7Q109.0 28.2 108.6 27.4Q108.1 26.5 108.1 25.4L108.1 25.4Q108.1 24.2 108.6 23.3Q109.0 22.5 109.8 22.1Q110.6 21.6 111.5 21.6L111.5 21.6Q112.1 21.6 112.7 21.8Q113.2 22.0 113.6 22.3Q114.0 22.6 114.3 23.1Q114.6 23.6 114.6 24.2L114.6 24.2L113.1 24.2Q113.1 23.9 112.9 23.7Q112.8 23.4 112.6 23.3Q112.4 23.1 112.1 23.0Q111.9 23.0 111.5 23.0L111.5 23.0Q111.0 23.0 110.5 23.2Q110.1 23.5 109.9 24.1Q109.6 24.6 109.6 25.4L109.6 25.4Q109.6 26.2 109.9 26.7Q110.1 27.2 110.5 27.5Q111.0 27.8 111.5 27.8L111.5 27.8Q111.8 27.8 112.1 27.7Q112.4 27.6 112.6 27.4Q112.8 27.3 112.9 27.0Q113.1 26.8 113.1 26.5L113.1 26.5L114.6 26.5Q114.6 27.0 114.3 27.5Q114.1 27.9 113.7 28.3Q113.3 28.7 112.8 28.9Q112.2 29.1 111.5 29.1ZM120.2 29L118.7 29L118.7 21.7L120.2 21.7L120.2 23.7L120.2 25.4Q120.2 25.3 120.3 25.3L120.3 25.3Q120.5 24.9 120.7 24.6Q121.0 24.2 121.3 23.8L121.3 23.8L123.1 21.7L124.9 21.7L122.2 24.9L125.0 29L123.3 29L121.2 25.9L120.2 26.9L120.2 29Z "/></g><mask id="satori_om-id-2"><rect x="33" y="45" width="794" height="64" fill="#fff" mask="url(#satori_om-id)"/></mask><mask id="satori_om-id-2-0"><rect x="33" y="45" width="794" height="25" fill="#fff" mask="url(#satori_om-id)"/></mask><mask id="satori_om-id-2-0-0"><rect x="33" y="52" width="80" height="12" fill="#fff" mask="url(#satori_om-id)"/></mask><g mask="url(#satori_om-id)" clip-path="url(#satori_cp-id)"><path fill="#a78bfa" d="M38.3 62L33.7 62L33.7 54.7L35.1 54.7L35.1 60.8L38.3 60.8L38.3 62ZM41.5 62L39.9 62L42.4 54.7L44.3 54.7L46.9 62L45.2 62L44.7 60.3L42.1 60.3L41.5 62ZM42.5 59.1L44.3 59.1L44.1 58.5Q43.8 57.8 43.6 57L43.6 57Q43.5 56.5 43.3 55.9L43.3 55.9Q43.2 56.5 43.1 57.0L43.1 57.0Q42.9 57.8 42.7 58.5L42.7 58.5L42.5 59.1ZM50.3 62L48.8 62L48.8 54.7L50.4 54.7L52.7 58.4Q52.9 58.7 53.1 59.0Q53.3 59.4 53.5 59.8L53.5 59.8Q53.6 60.0 53.6 60.2L53.6 60.2Q53.6 60.0 53.6 59.8L53.6 59.8Q53.6 59.3 53.6 58.9Q53.6 58.5 53.6 58.2L53.6 58.2L53.6 54.7L55.1 54.7L55.1 62L53.4 62L51.3 58.7Q51.1 58.3 50.9 57.9Q50.7 57.6 50.5 57.1L50.5 57.1Q50.4 56.9 50.2 56.6L50.2 56.6Q50.2 56.9 50.2 57.1L50.2 57.1Q50.3 57.6 50.3 58.0Q50.3 58.4 50.3 58.7L50.3 58.7L50.3 62ZM60.6 62.1L60.6 62.1Q59.6 62.1 58.8 61.6Q58.1 61.2 57.6 60.4Q57.2 59.5 57.2 58.4L57.2 58.4Q57.2 57.2 57.7 56.4Q58.1 55.5 58.9 55.1Q59.6 54.6 60.6 54.6L60.6 54.6Q61.2 54.6 61.7 54.8Q62.3 55.0 62.7 55.3Q63.1 55.6 63.4 56.1Q63.6 56.5 63.7 57.1L63.7 57.1L62.2 57.1Q62.1 56.8 62.0 56.6Q61.8 56.4 61.6 56.2Q61.4 56.1 61.2 56.0Q60.9 56.0 60.6 56.0L60.6 56.0Q60.1 56.0 59.6 56.2Q59.2 56.5 59.0 57.0Q58.7 57.6 58.7 58.4Q58.7 59.1 59.0 59.7Q59.2 60.2 59.6 60.5Q60.0 60.8 60.6 60.8L60.6 60.8Q61.2 60.8 61.5 60.6Q61.9 60.4 62.1 60.0L62.1 60.0Q62.3 59.7 62.3 59.3L62.3 59.3L60.7 59.3L60.7 58.1L63.8 58.1L63.8 59.0Q63.8 60.0 63.4 60.7Q63.0 61.4 62.2 61.7Q61.5 62.1 60.6 62.1ZM68.9 62.1L68.9 62.1Q68.0 62.1 67.3 61.8Q66.7 61.4 66.3 60.8Q65.9 60.2 65.9 59.4L65.9 59.4L65.9 54.7L67.4 54.7L67.4 59.3Q67.4 59.7 67.6 60.1Q67.8 60.4 68.1 60.6Q68.5 60.8 68.9 60.8L68.9 60.8Q69.4 60.8 69.7 60.6Q70.0 60.4 70.2 60.1Q70.4 59.7 70.4 59.3L70.4 59.3L70.4 54.7L71.9 54.7L71.9 59.4Q71.9 60.2 71.5 60.8Q71.2 61.4 70.5 61.8Q69.8 62.1 68.9 62.1ZM75.5 62L73.8 62L76.3 54.7L78.2 54.7L80.8 62L79.1 62L78.6 60.3L76.0 60.3L75.5 62ZM76.4 59.1L78.2 59.1L78.0 58.5Q77.8 57.8 77.5 57L77.5 57Q77.4 56.5 77.3 55.9L77.3 55.9Q77.1 56.5 77.0 57.0L77.0 57.0Q76.8 57.8 76.6 58.5L76.6 58.5L76.4 59.1ZM85.9 62.1L85.9 62.1Q84.9 62.1 84.1 61.6Q83.4 61.2 82.9 60.4Q82.5 59.5 82.5 58.4L82.5 58.4Q82.5 57.2 82.9 56.4Q83.4 55.5 84.2 55.1Q84.9 54.6 85.9 54.6L85.9 54.6Q86.5 54.6 87.0 54.8Q87.6 55.0 88.0 55.3Q88.4 55.6 88.6 56.1Q88.9 56.5 89.0 57.1L89.0 57.1L87.5 57.1Q87.4 56.8 87.2 56.6Q87.1 56.4 86.9 56.2Q86.7 56.1 86.5 56.0Q86.2 56.0 85.9 56.0L85.9 56.0Q85.3 56.0 84.9 56.2Q84.5 56.5 84.2 57.0Q84.0 57.6 84.0 58.4Q84.0 59.1 84.2 59.7Q84.5 60.2 84.9 60.5Q85.3 60.8 85.9 60.8L85.9 60.8Q86.5 60.8 86.8 60.6Q87.2 60.4 87.4 60.0L87.4 60.0Q87.6 59.7 87.6 59.3L87.6 59.3L86.0 59.3L86.0 58.1L89.1 58.1L89.1 59.0Q89.1 60.0 88.6 60.7Q88.2 61.4 87.5 61.7Q86.8 62.1 85.9 62.1ZM96.1 62L91.2 62L91.2 54.7L96.1 54.7L96.1 56.0L92.7 56.0L92.7 57.7L95.8 57.7L95.8 58.9L92.7 58.9L92.7 60.8L96.1 60.8L96.1 62ZM100.9 62.1L100.9 62.1Q100.1 62.1 99.4 61.8Q98.8 61.6 98.4 61.0Q98.0 60.5 98.0 59.7L98.0 59.7L99.5 59.7Q99.5 60.1 99.7 60.4Q99.9 60.6 100.2 60.7Q100.5 60.8 100.9 60.8L100.9 60.8Q101.3 60.8 101.6 60.7Q101.9 60.6 102.1 60.4Q102.2 60.2 102.2 59.9L102.2 59.9Q102.2 59.7 102.1 59.5Q101.9 59.3 101.7 59.2Q101.4 59.1 101.0 59.0L101.0 59.0L100.2 58.8Q99.3 58.6 98.7 58.1Q98.2 57.6 98.2 56.8L98.2 56.8Q98.2 56.2 98.6 55.7Q98.9 55.2 99.5 54.9Q100.2 54.6 101.0 54.6L101.0 54.6Q101.8 54.6 102.4 54.9Q103.0 55.2 103.3 55.7Q103.6 56.2 103.6 56.8L103.6 56.8L102.2 56.8Q102.2 56.4 101.8 56.1Q101.5 55.9 100.9 55.9L100.9 55.9Q100.6 55.9 100.3 56.0Q100.0 56.1 99.9 56.3Q99.8 56.5 99.8 56.7L99.8 56.7Q99.8 57.0 99.9 57.2Q100.1 57.3 100.3 57.5Q100.6 57.6 100.9 57.6L100.9 57.6L101.6 57.8Q102.0 57.9 102.4 58.1Q102.8 58.3 103.1 58.5Q103.4 58.8 103.6 59.1Q103.7 59.5 103.7 59.9L103.7 59.9Q103.7 60.6 103.4 61.1Q103.1 61.6 102.5 61.8Q101.8 62.1 100.9 62.1Z "/></g><mask id="satori_om-id-2-0-1"><rect x="129" y="45" width="527" height="25" fill="#fff" mask="url(#satori_om-id)"/></mask><defs><clipPath id="satori_bc-id-2-0-1-0" clip-path="url(#satori_cp-id)"><path x="129" y="45" width="70" height="25" d="M135,45 h58 a6,6 0 0 1 6,6 v13 a6,6 0 0 1 -6,6 h-58 a6,6 0 0 1 -6,-6 v-13 a6,6 0 0 1 6,-6"/></clipPath></defs><mask id="satori_om-id-2-0-1-0"><rect x="130" y="46" width="68" height="23" fill="#fff" mask="url(#satori_om-id)"/><path width="70" height="25" fill="none" stroke="#000" stroke-width="2" d="M130.757,46.757 A6,6 0 0 1 135,45 h58 a6,6 0 0 1 6,6 v13 a6,6 0 0 1 -6,6 h-58 a6,6 0 0 1 -6,-6 v-13 A6,6 0 0 1 130.757,46.757"/></mask><path x="129" y="45" width="70" height="25" fill="#a78bfa15" d="M135,45 h58 a6,6 0 0 1 6,6 v13 a6,6 0 0 1 -6,6 h-58 a6,6 0 0 1 -6,-6 v-13 a6,6 0 0 1 6,-6" clip-path="url(#satori_cp-id)" mask="url(#satori_om-id)"/><path width="70" height="25" clip-path="url(#satori_bc-id-2-0-1-0)" fill="none" stroke="#a78bfa35" stroke-width="2" d="M130.757,46.757 A6,6 0 0 1 135,45 h58 a6,6 0 0 1 6,6 v13 a6,6 0 0 1 -6,6 h-58 a6,6 0 0 1 -6,-6 v-13 A6,6 0 0 1 130.757,46.757"/><g mask="url(#satori_om-id)" clip-path="url(#satori_cp-id)"><path fill="rgba(225,220,255,0.85)" d="M145.6 62L143.8 62L143.8 53.3L147.2 53.3Q148.2 53.3 148.9 53.6Q149.6 54.0 150.0 54.7Q150.3 55.4 150.3 56.2L150.3 56.2Q150.3 57.1 149.9 57.7Q149.6 58.4 148.9 58.8Q148.2 59.1 147.2 59.1L147.2 59.1L145.6 59.1L145.6 62ZM145.6 54.7L145.6 57.7L146.9 57.7Q147.4 57.7 147.8 57.5Q148.1 57.3 148.3 57.0Q148.5 56.7 148.5 56.2Q148.5 55.8 148.3 55.4Q148.1 55.1 147.8 54.9Q147.4 54.7 146.9 54.7L146.9 54.7L145.6 54.7ZM151.5 64.3L151.5 64.3L151.9 63.0L152.1 63.0Q152.5 63.1 152.7 63.1Q153.0 63.1 153.2 62.9Q153.3 62.7 153.4 62.4L153.4 62.4L153.4 62.0L151.0 55.4L152.8 55.4L153.9 58.8Q154.1 59.5 154.3 60.1L154.3 60.1Q154.3 60.4 154.3 60.6L154.3 60.6Q154.4 60.4 154.4 60.1L154.4 60.1Q154.6 59.5 154.8 58.8L154.8 58.8L156.0 55.4L157.8 55.4L155.0 62.8Q154.8 63.3 154.5 63.7Q154.2 64.1 153.7 64.3Q153.3 64.5 152.6 64.5L152.6 64.5Q152.3 64.5 152.0 64.4Q151.7 64.4 151.5 64.3ZM160.8 55.4L162.0 55.4L162.0 56.8L160.8 56.8L160.8 60.1Q160.8 60.4 160.9 60.5Q161.1 60.7 161.4 60.7L161.4 60.7Q161.5 60.7 161.7 60.7Q161.8 60.6 161.9 60.6L161.9 60.6L162.2 61.9Q161.9 62.0 161.6 62.1Q161.3 62.1 161.0 62.1L161.0 62.1Q160.1 62.1 159.5 61.6Q159.0 61.1 159.0 60.2L159.0 60.2L159.0 56.8L158.1 56.8L158.1 55.4L159.0 55.4L159.0 53.9L160.8 53.9L160.8 55.4ZM164.9 58.2L164.9 58.2L164.9 62L163.1 62L163.1 53.3L164.9 53.3L164.9 56.7Q165.1 56.2 165.5 55.8L165.5 55.8Q166.0 55.4 166.9 55.4L166.9 55.4Q167.5 55.4 168.1 55.7Q168.6 56.0 168.8 56.5Q169.1 57.1 169.1 57.8L169.1 57.8L169.1 62L167.4 62L167.4 58.1Q167.4 57.5 167.0 57.2Q166.7 56.8 166.2 56.8L166.2 56.8Q165.8 56.8 165.5 57.0Q165.2 57.2 165.1 57.5Q164.9 57.8 164.9 58.2ZM173.5 62.1L173.5 62.1Q172.6 62.1 171.8 61.7Q171.1 61.3 170.7 60.5Q170.3 59.8 170.3 58.8L170.3 58.8Q170.3 57.7 170.7 57.0Q171.1 56.2 171.8 55.8Q172.6 55.4 173.5 55.4L173.5 55.4Q174.5 55.4 175.3 55.8Q176.0 56.2 176.4 57.0Q176.8 57.7 176.8 58.8L176.8 58.8Q176.8 59.8 176.4 60.5Q176.0 61.3 175.3 61.7Q174.5 62.1 173.5 62.1ZM173.5 60.7L173.5 60.7Q174.0 60.7 174.3 60.5Q174.6 60.2 174.8 59.8Q175.0 59.3 175.0 58.7L175.0 58.7Q175.0 58.2 174.8 57.7Q174.6 57.3 174.3 57.0Q174.0 56.8 173.5 56.8L173.5 56.8Q173.1 56.8 172.8 57.0Q172.4 57.3 172.3 57.7Q172.1 58.2 172.1 58.7L172.1 58.7Q172.1 59.3 172.3 59.8Q172.4 60.2 172.8 60.5Q173.1 60.7 173.5 60.7ZM179.7 58.2L179.7 58.2L179.7 62L178.0 62L178.0 55.4L179.6 55.4L179.7 56.8Q179.9 56.2 180.3 55.8L180.3 55.8Q180.9 55.4 181.7 55.4L181.7 55.4Q182.4 55.4 182.9 55.7Q183.4 56.0 183.7 56.5Q183.9 57.1 183.9 57.8L183.9 57.8L183.9 62L182.2 62L182.2 58.1Q182.2 57.5 181.9 57.2Q181.6 56.8 181.0 56.8L181.0 56.8Q180.6 56.8 180.3 57.0Q180.1 57.2 179.9 57.5Q179.7 57.8 179.7 58.2Z "/></g><defs><clipPath id="satori_bc-id-2-0-1-1" clip-path="url(#satori_cp-id)"><path x="206" y="45" width="134" height="25" d="M212,45 h122 a6,6 0 0 1 6,6 v13 a6,6 0 0 1 -6,6 h-122 a6,6 0 0 1 -6,-6 v-13 a6,6 0 0 1 6,-6"/></clipPath></defs><mask id="satori_om-id-2-0-1-1"><rect x="207" y="46" width="132" height="23" fill="#fff" mask="url(#satori_om-id)"/><path width="134" height="25" fill="none" stroke="#000" stroke-width="2" d="M207.757,46.757 A6,6 0 0 1 212,45 h122 a6,6 0 0 1 6,6 v13 a6,6 0 0 1 -6,6 h-122 a6,6 0 0 1 -6,-6 v-13 A6,6 0 0 1 207.757,46.757"/></mask><path x="206" y="45" width="134" height="25" fill="#a78bfa15" d="M212,45 h122 a6,6 0 0 1 6,6 v13 a6,6 0 0 1 -6,6 h-122 a6,6 0 0 1 -6,-6 v-13 a6,6 0 0 1 6,-6" clip-path="url(#satori_cp-id)" mask="url(#satori_om-id)"/><path width="134" height="25" clip-path="url(#satori_bc-id-2-0-1-1)" fill="none" stroke="#a78bfa35" stroke-width="2" d="M207.757,46.757 A6,6 0 0 1 212,45 h122 a6,6 0 0 1 6,6 v13 a6,6 0 0 1 -6,6 h-122 a6,6 0 0 1 -6,-6 v-13 A6,6 0 0 1 207.757,46.757"/><g mask="url(#satori_om-id)" clip-path="url(#satori_cp-id)"><path fill="rgba(225,220,255,0.85)" d="M223.3 62.1L223.3 62.1Q222.0 62.1 221.2 61.4Q220.4 60.7 220.4 59.4L220.4 59.4L220.4 58.9L222.2 58.9L222.2 59.4Q222.2 60.0 222.5 60.4Q222.8 60.7 223.3 60.7L223.3 60.7Q223.8 60.7 224.1 60.4Q224.5 60.0 224.5 59.4L224.5 59.4L224.5 53.3L226.2 53.3L226.2 59.4Q226.2 60.7 225.4 61.4Q224.7 62.1 223.3 62.1ZM230.0 62.1L230.0 62.1Q229.3 62.1 228.8 61.8Q228.3 61.5 228.0 60.9Q227.8 60.4 227.8 59.6L227.8 59.6L227.8 55.4L229.5 55.4L229.5 59.3Q229.5 59.9 229.8 60.3Q230.2 60.6 230.7 60.6L230.7 60.6Q231.1 60.6 231.4 60.5Q231.7 60.3 231.8 60.0Q232.0 59.7 232.0 59.2L232.0 59.2L232.0 55.4L233.7 55.4L233.7 62L232.1 62L232.1 60.6Q231.8 61.3 231.4 61.6L231.4 61.6Q230.8 62.1 230.0 62.1ZM237.0 64.4L235.2 64.4L235.2 55.4L237.0 55.4L237.0 56.6L237.0 56.6Q237.2 56.3 237.4 56.0Q237.6 55.7 238.0 55.6Q238.4 55.4 238.9 55.4L238.9 55.4Q239.6 55.4 240.2 55.7Q240.8 56.1 241.2 56.9Q241.6 57.6 241.6 58.7L241.6 58.7Q241.6 59.8 241.2 60.6Q240.9 61.3 240.3 61.7Q239.7 62.1 238.9 62.1L238.9 62.1Q238.4 62.1 238 61.9Q237.6 61.7 237.4 61.5Q237.2 61.2 237.0 61.0L237.0 61.0L237.0 61.0L237.0 64.4ZM238.4 60.7L238.4 60.7Q238.8 60.7 239.1 60.4Q239.4 60.2 239.6 59.8Q239.8 59.3 239.8 58.7L239.8 58.7Q239.8 58.2 239.6 57.7Q239.4 57.3 239.1 57.0Q238.8 56.8 238.4 56.8L238.4 56.8Q237.9 56.8 237.6 57.0Q237.3 57.3 237.1 57.7Q237.0 58.1 237.0 58.7L237.0 58.7Q237.0 59.3 237.1 59.8Q237.3 60.2 237.6 60.5Q237.9 60.7 238.4 60.7ZM242.8 64.3L242.8 64.3L243.2 63.0L243.4 63.0Q243.7 63.1 244 63.1Q244.3 63.1 244.4 62.9Q244.6 62.7 244.6 62.4L244.6 62.4L244.7 62.0L242.2 55.4L244.1 55.4L245.2 58.8Q245.4 59.5 245.5 60.1L245.5 60.1Q245.6 60.4 245.6 60.6L245.6 60.6Q245.7 60.4 245.7 60.1L245.7 60.1Q245.9 59.5 246.1 58.8L246.1 58.8L247.2 55.4L249.1 55.4L246.3 62.8Q246.1 63.3 245.8 63.7Q245.5 64.1 245.0 64.3Q244.6 64.5 243.9 64.5L243.9 64.5Q243.5 64.5 243.2 64.4Q242.9 64.4 242.8 64.3ZM252.1 55.4L253.3 55.4L253.3 56.8L252.1 56.8L252.1 60.1Q252.1 60.4 252.2 60.5Q252.3 60.7 252.6 60.7L252.6 60.7Q252.7 60.7 252.9 60.7Q253.1 60.6 253.2 60.6L253.2 60.6L253.5 61.9Q253.2 62.0 252.9 62.1Q252.6 62.1 252.3 62.1L252.3 62.1Q251.3 62.1 250.8 61.6Q250.3 61.1 250.3 60.2L250.3 60.2L250.3 56.8L249.4 56.8L249.4 55.4L250.3 55.4L250.3 53.9L252.1 53.9L252.1 55.4ZM257.4 62.1L257.4 62.1Q256.4 62.1 255.6 61.7Q254.9 61.3 254.5 60.6Q254.1 59.8 254.1 58.8L254.1 58.8Q254.1 57.7 254.5 57.0Q254.9 56.2 255.6 55.8Q256.3 55.4 257.3 55.4L257.3 55.4Q257.9 55.4 258.5 55.6Q259.0 55.8 259.5 56.2Q259.9 56.6 260.1 57.2Q260.4 57.8 260.4 58.7L260.4 58.7L260.4 59.2L255.9 59.2Q255.9 59.7 256.1 60.0L256.1 60.0Q256.3 60.4 256.6 60.6Q256.9 60.8 257.4 60.8L257.4 60.8Q257.7 60.8 258.0 60.7Q258.2 60.6 258.4 60.5Q258.6 60.3 258.7 60.0L258.7 60.0L260.3 60.3Q260.1 60.9 259.7 61.3Q259.3 61.7 258.7 61.9Q258.1 62.1 257.4 62.1ZM255.9 58.1L255.9 58.1L258.7 58.1Q258.6 57.8 258.5 57.5L258.5 57.5Q258.4 57.1 258.1 56.9Q257.8 56.7 257.3 56.7L257.3 56.7Q256.8 56.7 256.5 56.9Q256.2 57.1 256.0 57.5L256.0 57.5Q255.9 57.7 255.9 58.1ZM263.3 62L261.6 62L261.6 55.4L263.3 55.4L263.3 56.6L263.3 56.6Q263.5 56.0 263.9 55.7Q264.4 55.4 264.9 55.4L264.9 55.4Q265.1 55.4 265.2 55.4Q265.4 55.4 265.5 55.4L265.5 55.4L265.5 57.0Q265.4 56.9 265.1 56.9Q264.9 56.9 264.7 56.9L264.7 56.9Q264.3 56.9 264.0 57.1Q263.7 57.2 263.5 57.6Q263.3 57.9 263.3 58.3L263.3 58.3L263.3 62Z M271.2 62L269.3 62L269.3 53.3L271.3 53.3L274.1 57.7Q274.3 58.0 274.5 58.4Q274.7 58.8 275.0 59.3L275.0 59.3Q275.1 59.6 275.2 59.8L275.2 59.8Q275.2 59.6 275.2 59.4L275.2 59.4Q275.1 58.8 275.1 58.3Q275.1 57.8 275.1 57.5L275.1 57.5L275.1 53.3L276.9 53.3L276.9 62L274.9 62L272.4 58.0Q272.1 57.5 271.9 57.1Q271.7 56.7 271.4 56.2L271.4 56.2Q271.2 55.9 271.0 55.5L271.0 55.5Q271.1 55.8 271.1 56.2L271.1 56.2Q271.1 56.7 271.1 57.2Q271.2 57.7 271.2 58.0L271.2 58.0L271.2 62ZM281.4 62.1L281.4 62.1Q280.4 62.1 279.7 61.7Q278.9 61.3 278.6 60.5Q278.2 59.8 278.2 58.8L278.2 58.8Q278.2 57.7 278.6 57.0Q278.9 56.2 279.7 55.8Q280.4 55.4 281.4 55.4L281.4 55.4Q282.4 55.4 283.1 55.8Q283.8 56.2 284.2 57.0Q284.6 57.7 284.6 58.8L284.6 58.8Q284.6 59.8 284.2 60.5Q283.8 61.3 283.1 61.7Q282.4 62.1 281.4 62.1ZM281.4 60.7L281.4 60.7Q281.8 60.7 282.2 60.5Q282.5 60.2 282.6 59.8Q282.8 59.3 282.8 58.7L282.8 58.7Q282.8 58.2 282.6 57.7Q282.5 57.3 282.2 57.0Q281.8 56.8 281.4 56.8L281.4 56.8Q280.9 56.8 280.6 57.0Q280.3 57.3 280.1 57.7Q280.0 58.2 280.0 58.7L280.0 58.7Q280.0 59.3 280.1 59.8Q280.3 60.2 280.6 60.5Q280.9 60.7 281.4 60.7ZM287.8 55.4L289.1 55.4L289.1 56.8L287.8 56.8L287.8 60.1Q287.8 60.4 288.0 60.5Q288.1 60.7 288.4 60.7L288.4 60.7Q288.5 60.7 288.7 60.7Q288.9 60.6 289.0 60.6L289.0 60.6L289.2 61.9Q288.9 62.0 288.7 62.1Q288.4 62.1 288.1 62.1L288.1 62.1Q287.1 62.1 286.6 61.6Q286.1 61.1 286.1 60.2L286.1 60.2L286.1 56.8L285.2 56.8L285.2 55.4L286.1 55.4L286.1 53.9L287.8 53.9L287.8 55.4ZM293.2 62.1L293.2 62.1Q292.2 62.1 291.4 61.7Q290.7 61.3 290.3 60.6Q289.9 59.8 289.9 58.8L289.9 58.8Q289.9 57.7 290.3 57.0Q290.7 56.2 291.4 55.8Q292.1 55.4 293.1 55.4L293.1 55.4Q293.7 55.4 294.3 55.6Q294.8 55.8 295.2 56.2Q295.7 56.6 295.9 57.2Q296.1 57.8 296.1 58.7L296.1 58.7L296.1 59.2L291.7 59.2Q291.7 59.7 291.9 60.0L291.9 60.0Q292.0 60.4 292.4 60.6Q292.7 60.8 293.2 60.8L293.2 60.8Q293.5 60.8 293.7 60.7Q294.0 60.6 294.2 60.5Q294.4 60.3 294.4 60.0L294.4 60.0L296.0 60.3Q295.9 60.9 295.5 61.3Q295.1 61.7 294.5 61.9Q293.9 62.1 293.2 62.1ZM291.7 58.1L291.7 58.1L294.4 58.1Q294.4 57.8 294.3 57.5L294.3 57.5Q294.2 57.1 293.8 56.9Q293.5 56.7 293.1 56.7L293.1 56.7Q292.6 56.7 292.3 56.9Q292.0 57.1 291.8 57.5L291.8 57.5Q291.7 57.7 291.7 58.1ZM301.0 62.1L301.0 62.1Q300.5 62.1 300.1 61.9Q299.7 61.7 299.5 61.5Q299.3 61.2 299.2 61.0L299.2 61.0L299.1 61.0L299.1 62L297.3 62L297.3 53.3L299.1 53.3L299.1 56.6L299.2 56.6Q299.3 56.3 299.5 56.0Q299.7 55.7 300.1 55.6Q300.5 55.4 301.0 55.4L301.0 55.4Q301.8 55.4 302.4 55.7Q303.0 56.1 303.3 56.9Q303.7 57.6 303.7 58.7L303.7 58.7Q303.7 59.8 303.3 60.6Q303.0 61.3 302.4 61.7Q301.8 62.1 301.0 62.1ZM300.5 60.7L300.5 60.7Q300.9 60.7 301.2 60.4Q301.6 60.2 301.7 59.8Q301.9 59.3 301.9 58.7L301.9 58.7Q301.9 58.2 301.7 57.7Q301.6 57.3 301.2 57.0Q300.9 56.8 300.5 56.8L300.5 56.8Q300.0 56.8 299.7 57.0Q299.4 57.3 299.2 57.7Q299.1 58.1 299.1 58.7L299.1 58.7Q299.1 59.3 299.2 59.8Q299.4 60.2 299.7 60.5Q300.0 60.7 300.5 60.7ZM307.8 62.1L307.8 62.1Q306.9 62.1 306.1 61.7Q305.4 61.3 305.0 60.5Q304.6 59.8 304.6 58.8L304.6 58.8Q304.6 57.7 305.0 57.0Q305.4 56.2 306.1 55.8Q306.9 55.4 307.8 55.4L307.8 55.4Q308.8 55.4 309.5 55.8Q310.3 56.2 310.7 57.0Q311.0 57.7 311.0 58.8L311.0 58.8Q311.0 59.8 310.7 60.5Q310.3 61.3 309.5 61.7Q308.8 62.1 307.8 62.1ZM307.8 60.7L307.8 60.7Q308.3 60.7 308.6 60.5Q308.9 60.2 309.1 59.8Q309.3 59.3 309.3 58.7L309.3 58.7Q309.3 58.2 309.1 57.7Q308.9 57.3 308.6 57.0Q308.3 56.8 307.8 56.8L307.8 56.8Q307.4 56.8 307.1 57.0Q306.7 57.3 306.6 57.7Q306.4 58.2 306.4 58.7L306.4 58.7Q306.4 59.3 306.6 59.8Q306.7 60.2 307.1 60.5Q307.4 60.7 307.8 60.7ZM315.2 62.1L315.2 62.1Q314.2 62.1 313.5 61.7Q312.8 61.3 312.4 60.5Q312.0 59.8 312.0 58.8L312.0 58.8Q312.0 57.7 312.4 57.0Q312.8 56.2 313.5 55.8Q314.2 55.4 315.2 55.4L315.2 55.4Q316.2 55.4 316.9 55.8Q317.6 56.2 318.0 57.0Q318.4 57.7 318.4 58.8L318.4 58.8Q318.4 59.8 318.0 60.5Q317.6 61.3 316.9 61.7Q316.2 62.1 315.2 62.1ZM315.2 60.7L315.2 60.7Q315.7 60.7 316.0 60.5Q316.3 60.2 316.5 59.8Q316.6 59.3 316.6 58.7L316.6 58.7Q316.6 58.2 316.5 57.7Q316.3 57.3 316.0 57.0Q315.7 56.8 315.2 56.8L315.2 56.8Q314.7 56.8 314.4 57.0Q314.1 57.3 313.9 57.7Q313.8 58.2 313.8 58.7L313.8 58.7Q313.8 59.3 313.9 59.8Q314.1 60.2 314.4 60.5Q314.7 60.7 315.2 60.7ZM321.4 62L319.6 62L319.6 53.3L321.4 53.3L321.4 58.0L321.5 58.0L323.6 55.4L325.7 55.4L323.2 58.3L325.8 62L323.7 62L321.9 59.3L321.4 59.9L321.4 62Z "/></g><defs><clipPath id="satori_bc-id-2-0-1-2" clip-path="url(#satori_cp-id)"><path x="347" y="45" width="92" height="25" d="M353,45 h80 a6,6 0 0 1 6,6 v13 a6,6 0 0 1 -6,6 h-80 a6,6 0 0 1 -6,-6 v-13 a6,6 0 0 1 6,-6"/></clipPath></defs><mask id="satori_om-id-2-0-1-2"><rect x="348" y="46" width="90" height="23" fill="#fff" mask="url(#satori_om-id)"/><path width="92" height="25" fill="none" stroke="#000" stroke-width="2" d="M348.757,46.757 A6,6 0 0 1 353,45 h80 a6,6 0 0 1 6,6 v13 a6,6 0 0 1 -6,6 h-80 a6,6 0 0 1 -6,-6 v-13 A6,6 0 0 1 348.757,46.757"/></mask><path x="347" y="45" width="92" height="25" fill="#a78bfa15" d="M353,45 h80 a6,6 0 0 1 6,6 v13 a6,6 0 0 1 -6,6 h-80 a6,6 0 0 1 -6,-6 v-13 a6,6 0 0 1 6,-6" clip-path="url(#satori_cp-id)" mask="url(#satori_om-id)"/><path width="92" height="25" clip-path="url(#satori_bc-id-2-0-1-2)" fill="none" stroke="#a78bfa35" stroke-width="2" d="M348.757,46.757 A6,6 0 0 1 353,45 h80 a6,6 0 0 1 6,6 v13 a6,6 0 0 1 -6,6 h-80 a6,6 0 0 1 -6,-6 v-13 A6,6 0 0 1 348.757,46.757"/><g mask="url(#satori_om-id)" clip-path="url(#satori_cp-id)"><path fill="rgba(225,220,255,0.85)" d="M364.3 62.1L364.3 62.1Q363.0 62.1 362.2 61.4Q361.4 60.7 361.4 59.4L361.4 59.4L361.4 58.9L363.2 58.9L363.2 59.4Q363.2 60.0 363.5 60.4Q363.8 60.7 364.3 60.7L364.3 60.7Q364.8 60.7 365.1 60.4Q365.5 60.0 365.5 59.4L365.5 59.4L365.5 53.3L367.2 53.3L367.2 59.4Q367.2 60.7 366.4 61.4Q365.7 62.1 364.3 62.1ZM370.6 62.1L370.6 62.1Q370.0 62.1 369.5 61.9Q369.0 61.7 368.7 61.3Q368.4 60.8 368.4 60.2L368.4 60.2Q368.4 59.6 368.6 59.3Q368.8 58.9 369.2 58.7Q369.5 58.4 370.0 58.3Q370.4 58.2 370.9 58.2L370.9 58.2Q371.5 58.1 371.8 58.0Q372.2 58.0 372.3 57.9Q372.5 57.8 372.5 57.6L372.5 57.6L372.5 57.5Q372.5 57.3 372.4 57.1Q372.2 56.9 372.0 56.8Q371.8 56.7 371.4 56.7L371.4 56.7Q371.1 56.7 370.9 56.8Q370.6 56.9 370.4 57.0Q370.3 57.2 370.2 57.4L370.2 57.4L368.6 57.2Q368.8 56.6 369.2 56.2Q369.6 55.8 370.1 55.6Q370.7 55.4 371.5 55.4L371.5 55.4Q372.0 55.4 372.5 55.5Q373.0 55.6 373.4 55.9Q373.8 56.1 374.0 56.6Q374.2 57.0 374.2 57.6L374.2 57.6L374.2 62L372.6 62L372.6 61.1L372.5 61.1Q372.3 61.4 372.1 61.6Q371.8 61.9 371.5 62.0Q371.1 62.1 370.6 62.1ZM371.1 60.9L371.1 60.9Q371.5 60.9 371.8 60.7Q372.1 60.6 372.3 60.3Q372.5 60.0 372.5 59.7L372.5 59.7L372.5 58.9Q372.4 59.0 372.3 59.1Q372.1 59.1 371.9 59.1Q371.7 59.2 371.5 59.2Q371.3 59.2 371.2 59.2L371.2 59.2Q370.9 59.3 370.6 59.4Q370.4 59.5 370.2 59.7Q370.1 59.8 370.1 60.1L370.1 60.1Q370.1 60.4 370.2 60.5Q370.4 60.7 370.6 60.8Q370.8 60.9 371.1 60.9ZM379.6 62L377.6 62L375.2 55.4L377.0 55.4L378.1 58.8Q378.3 59.5 378.5 60.1L378.5 60.1Q378.5 60.4 378.6 60.6L378.6 60.6Q378.7 60.4 378.7 60.1L378.7 60.1Q378.9 59.5 379.1 58.8L379.1 58.8L380.1 55.4L382.0 55.4L379.6 62ZM384.8 62.1L384.8 62.1Q384.1 62.1 383.6 61.9Q383.1 61.7 382.9 61.3Q382.6 60.8 382.6 60.2L382.6 60.2Q382.6 59.6 382.8 59.3Q383.0 58.9 383.3 58.7Q383.7 58.4 384.1 58.3Q384.6 58.2 385.0 58.2L385.0 58.2Q385.6 58.1 386.0 58.0Q386.3 58.0 386.5 57.9Q386.6 57.8 386.6 57.6L386.6 57.6L386.6 57.5Q386.6 57.3 386.5 57.1Q386.4 56.9 386.2 56.8Q385.9 56.7 385.6 56.7L385.6 56.7Q385.3 56.7 385.0 56.8Q384.8 56.9 384.6 57.0Q384.4 57.2 384.4 57.4L384.4 57.4L382.8 57.2Q382.9 56.6 383.3 56.2Q383.7 55.8 384.3 55.6Q384.9 55.4 385.6 55.4L385.6 55.4Q386.1 55.4 386.6 55.5Q387.1 55.6 387.5 55.9Q387.9 56.1 388.2 56.6Q388.4 57.0 388.4 57.6L388.4 57.6L388.4 62L386.7 62L386.7 61.1L386.7 61.1Q386.5 61.4 386.2 61.6Q386.0 61.9 385.6 62.0Q385.2 62.1 384.8 62.1ZM385.3 60.9L385.3 60.9Q385.7 60.9 386.0 60.7Q386.3 60.6 386.5 60.3Q386.6 60.0 386.6 59.7L386.6 59.7L386.6 58.9Q386.6 59.0 386.4 59.1Q386.3 59.1 386.1 59.1Q385.9 59.2 385.7 59.2Q385.5 59.2 385.3 59.2L385.3 59.2Q385.0 59.3 384.8 59.4Q384.5 59.5 384.4 59.7Q384.3 59.8 384.3 60.1L384.3 60.1Q384.3 60.4 384.4 60.5Q384.5 60.7 384.7 60.8Q385.0 60.9 385.3 60.9ZM393.1 62.1L393.1 62.1Q392.1 62.1 391.3 61.8Q390.5 61.5 390.1 60.9Q389.7 60.2 389.6 59.3L389.6 59.3L391.4 59.3Q391.4 59.7 391.6 60.0Q391.9 60.3 392.3 60.5Q392.6 60.6 393.1 60.6L393.1 60.6Q393.6 60.6 394.0 60.5Q394.3 60.3 394.5 60.1Q394.7 59.8 394.7 59.5L394.7 59.5Q394.7 59.2 394.5 59.0Q394.3 58.8 394.0 58.7Q393.7 58.5 393.2 58.4L393.2 58.4L392.2 58.2Q391.1 57.9 390.5 57.3Q389.9 56.7 389.9 55.8L389.9 55.8Q389.9 55.0 390.3 54.4Q390.7 53.8 391.5 53.5Q392.2 53.2 393.2 53.2L393.2 53.2Q394.1 53.2 394.8 53.5Q395.6 53.8 396.0 54.4Q396.4 55.0 396.4 55.8L396.4 55.8L394.7 55.8Q394.6 55.2 394.2 54.9Q393.8 54.7 393.1 54.7L393.1 54.7Q392.7 54.7 392.4 54.8Q392.0 54.9 391.9 55.1Q391.7 55.4 391.7 55.7L391.7 55.7Q391.7 56.0 391.9 56.2Q392.1 56.4 392.4 56.5Q392.7 56.7 393.1 56.8L393.1 56.8L393.9 57.0Q394.4 57.1 394.9 57.3Q395.4 57.5 395.8 57.8Q396.1 58.1 396.3 58.5Q396.5 59.0 396.5 59.5L396.5 59.5Q396.5 60.3 396.1 60.9Q395.7 61.5 394.9 61.8Q394.2 62.1 393.1 62.1ZM400.7 62.1L400.7 62.1Q399.7 62.1 399.0 61.7Q398.3 61.3 397.9 60.5Q397.5 59.8 397.5 58.8L397.5 58.8Q397.5 57.7 397.9 57.0Q398.3 56.2 399.0 55.8Q399.7 55.4 400.7 55.4L400.7 55.4Q401.3 55.4 401.8 55.5Q402.2 55.7 402.6 56.0Q403.0 56.2 403.3 56.6Q403.5 57.0 403.6 57.5L403.6 57.5L402.0 57.9Q401.9 57.6 401.8 57.4Q401.7 57.2 401.5 57.0Q401.4 56.9 401.2 56.8Q400.9 56.8 400.7 56.8L400.7 56.8Q400.2 56.8 399.9 57.0Q399.6 57.3 399.4 57.7Q399.3 58.2 399.3 58.7L399.3 58.7Q399.3 59.3 399.4 59.8Q399.6 60.2 399.9 60.5Q400.2 60.7 400.7 60.7L400.7 60.7Q400.9 60.7 401.2 60.7Q401.4 60.6 401.5 60.4Q401.7 60.3 401.8 60.1Q401.9 59.9 402.0 59.6L402.0 59.6L403.6 59.9Q403.5 60.4 403.3 60.8Q403.0 61.2 402.6 61.5Q402.3 61.8 401.8 62.0Q401.3 62.1 400.7 62.1ZM406.6 62L404.8 62L404.8 55.4L406.5 55.4L406.5 56.6L406.6 56.6Q406.8 56.0 407.2 55.7Q407.6 55.4 408.2 55.4L408.2 55.4Q408.3 55.4 408.5 55.4Q408.6 55.4 408.7 55.4L408.7 55.4L408.7 57.0Q408.6 56.9 408.4 56.9Q408.2 56.9 408.0 56.9L408.0 56.9Q407.6 56.9 407.2 57.1Q406.9 57.2 406.7 57.6Q406.6 57.9 406.6 58.3L406.6 58.3L406.6 62ZM411.5 62L409.7 62L409.7 55.4L411.5 55.4L411.5 62ZM410.6 54.6L410.6 54.6Q410.2 54.6 409.9 54.3Q409.6 54.1 409.6 53.7L409.6 53.7Q409.6 53.3 409.9 53.1Q410.2 52.8 410.6 52.8L410.6 52.8Q411.0 52.8 411.3 53.0Q411.5 53.3 411.5 53.7L411.5 53.7Q411.5 54.1 411.3 54.3Q411.0 54.6 410.6 54.6ZM414.7 64.4L412.9 64.4L412.9 55.4L414.7 55.4L414.7 56.6L414.8 56.6Q414.9 56.3 415.1 56.0Q415.3 55.7 415.7 55.6Q416.1 55.4 416.6 55.4L416.6 55.4Q417.4 55.4 418.0 55.7Q418.6 56.1 418.9 56.9Q419.3 57.6 419.3 58.7L419.3 58.7Q419.3 59.8 418.9 60.6Q418.6 61.3 418.0 61.7Q417.4 62.1 416.6 62.1L416.6 62.1Q416.1 62.1 415.7 61.9Q415.3 61.7 415.1 61.5Q414.9 61.2 414.8 61.0L414.8 61.0L414.7 61.0L414.7 64.4ZM416.1 60.7L416.1 60.7Q416.5 60.7 416.8 60.4Q417.2 60.2 417.3 59.8Q417.5 59.3 417.5 58.7L417.5 58.7Q417.5 58.2 417.3 57.7Q417.2 57.3 416.9 57.0Q416.5 56.8 416.1 56.8L416.1 56.8Q415.6 56.8 415.3 57.0Q415.0 57.3 414.8 57.7Q414.7 58.1 414.7 58.7L414.7 58.7Q414.7 59.3 414.8 59.8Q415 60.2 415.3 60.5Q415.6 60.7 416.1 60.7ZM422.5 55.4L423.8 55.4L423.8 56.8L422.5 56.8L422.5 60.1Q422.5 60.4 422.7 60.5Q422.8 60.7 423.1 60.7L423.1 60.7Q423.2 60.7 423.4 60.7Q423.6 60.6 423.7 60.6L423.7 60.6L423.9 61.9Q423.7 62.0 423.4 62.1Q423.1 62.1 422.8 62.1L422.8 62.1Q421.8 62.1 421.3 61.6Q420.8 61.1 420.8 60.2L420.8 60.2L420.8 56.8L419.9 56.8L419.9 55.4L420.8 55.4L420.8 53.9L422.5 53.9L422.5 55.4Z "/></g><defs><clipPath id="satori_bc-id-2-0-1-3" clip-path="url(#satori_cp-id)"><path x="446" y="45" width="80" height="25" d="M452,45 h68 a6,6 0 0 1 6,6 v13 a6,6 0 0 1 -6,6 h-68 a6,6 0 0 1 -6,-6 v-13 a6,6 0 0 1 6,-6"/></clipPath></defs><mask id="satori_om-id-2-0-1-3"><rect x="447" y="46" width="78" height="23" fill="#fff" mask="url(#satori_om-id)"/><path width="80" height="25" fill="none" stroke="#000" stroke-width="2" d="M447.757,46.757 A6,6 0 0 1 452,45 h68 a6,6 0 0 1 6,6 v13 a6,6 0 0 1 -6,6 h-68 a6,6 0 0 1 -6,-6 v-13 A6,6 0 0 1 447.757,46.757"/></mask><path x="446" y="45" width="80" height="25" fill="#a78bfa15" d="M452,45 h68 a6,6 0 0 1 6,6 v13 a6,6 0 0 1 -6,6 h-68 a6,6 0 0 1 -6,-6 v-13 a6,6 0 0 1 6,-6" clip-path="url(#satori_cp-id)" mask="url(#satori_om-id)"/><path width="80" height="25" clip-path="url(#satori_bc-id-2-0-1-3)" fill="none" stroke="#a78bfa35" stroke-width="2" d="M447.757,46.757 A6,6 0 0 1 452,45 h68 a6,6 0 0 1 6,6 v13 a6,6 0 0 1 -6,6 h-68 a6,6 0 0 1 -6,-6 v-13 A6,6 0 0 1 447.757,46.757"/><g mask="url(#satori_om-id)" clip-path="url(#satori_cp-id)"><path fill="rgba(225,220,255,0.85)" d="M462.6 62L460.8 62L460.8 53.3L463.5 53.3L465.0 57.3Q465.0 57.6 465.2 58.0Q465.3 58.4 465.4 59.0L465.4 59.0Q465.5 59.5 465.6 59.9L465.6 59.9Q465.7 59.5 465.8 59.0L465.8 59.0Q465.9 58.5 466.0 58.0Q466.2 57.6 466.2 57.3L466.2 57.3L467.6 53.3L470.4 53.3L470.4 62L468.6 62L468.6 57.9Q468.6 57.6 468.6 57.2Q468.6 56.7 468.6 56.2Q468.6 55.8 468.7 55.3L468.7 55.3Q468.7 55.0 468.7 54.8L468.7 54.8Q468.6 55.1 468.5 55.3L468.5 55.3Q468.4 55.8 468.3 56.3Q468.1 56.8 468.0 57.2Q467.9 57.6 467.8 57.9L467.8 57.9L466.3 62L464.8 62L463.4 57.9Q463.3 57.6 463.2 57.2Q463.0 56.8 462.9 56.3Q462.8 55.8 462.6 55.3L462.6 55.3Q462.6 55.1 462.5 54.9L462.5 54.9Q462.5 55.0 462.5 55.2L462.5 55.2Q462.5 55.7 462.5 56.2Q462.5 56.7 462.6 57.2Q462.6 57.6 462.6 57.9L462.6 57.9L462.6 62ZM473.4 62L471.5 62L474.4 53.3L476.8 53.3L479.9 62L477.9 62L477.2 60.0L474.1 60.0L473.4 62ZM474.5 58.6L476.7 58.6L476.5 57.8Q476.2 57.0 476.0 56L476.0 56Q475.8 55.4 475.6 54.7L475.6 54.7Q475.4 55.4 475.3 56.0L475.3 56.0Q475.0 57.0 474.8 57.8L474.8 57.8L474.5 58.6ZM483.3 54.8L480.6 54.8L480.6 53.3L487.7 53.3L487.7 54.8L485.0 54.8L485.0 62L483.3 62L483.3 54.8ZM494.5 62L488.9 62L488.9 53.3L490.7 53.3L490.7 60.5L494.5 60.5L494.5 62ZM497.2 62L495.2 62L498.2 53.3L500.5 53.3L503.6 62L501.6 62L500.9 60.0L497.8 60.0L497.2 62ZM498.3 58.6L500.5 58.6L500.2 57.8Q500.0 57.0 499.7 56L499.7 56Q499.5 55.4 499.4 54.7L499.4 54.7Q499.2 55.4 499.0 56.0L499.0 56.0Q498.8 57.0 498.5 57.8L498.5 57.8L498.3 58.6ZM508.4 62L504.7 62L504.7 53.3L508.1 53.3Q509.1 53.3 509.7 53.6Q510.4 53.8 510.7 54.4Q511.0 54.9 511.0 55.5L511.0 55.5Q511.0 56.0 510.8 56.4Q510.6 56.8 510.3 57.0Q509.9 57.3 509.5 57.4L509.5 57.4L509.5 57.5Q510.0 57.5 510.4 57.8Q510.8 58.0 511.1 58.5Q511.4 58.9 511.4 59.6L511.4 59.6Q511.4 60.3 511.0 60.8Q510.7 61.4 510.0 61.7Q509.4 62 508.4 62L508.4 62ZM506.5 58.2L506.5 60.5L508.0 60.5Q508.8 60.5 509.2 60.2Q509.5 59.9 509.5 59.4L509.5 59.4Q509.5 59.1 509.4 58.8Q509.2 58.5 508.8 58.3Q508.5 58.2 508.1 58.2L508.1 58.2L506.5 58.2ZM506.5 54.7L506.5 56.9L507.9 56.9Q508.3 56.9 508.6 56.8Q508.9 56.7 509.0 56.4Q509.2 56.2 509.2 55.8L509.2 55.8Q509.2 55.3 508.9 55.0Q508.5 54.7 507.9 54.7L507.9 54.7L506.5 54.7Z "/></g><defs><clipPath id="satori_bc-id-2-0-1-4" clip-path="url(#satori_cp-id)"><path x="533" y="45" width="63" height="25" d="M539,45 h51 a6,6 0 0 1 6,6 v13 a6,6 0 0 1 -6,6 h-51 a6,6 0 0 1 -6,-6 v-13 a6,6 0 0 1 6,-6"/></clipPath></defs><mask id="satori_om-id-2-0-1-4"><rect x="534" y="46" width="61" height="23" fill="#fff" mask="url(#satori_om-id)"/><path width="63" height="25" fill="none" stroke="#000" stroke-width="2" d="M534.757,46.757 A6,6 0 0 1 539,45 h51 a6,6 0 0 1 6,6 v13 a6,6 0 0 1 -6,6 h-51 a6,6 0 0 1 -6,-6 v-13 A6,6 0 0 1 534.757,46.757"/></mask><path x="533" y="45" width="63" height="25" fill="#a78bfa15" d="M539,45 h51 a6,6 0 0 1 6,6 v13 a6,6 0 0 1 -6,6 h-51 a6,6 0 0 1 -6,-6 v-13 a6,6 0 0 1 6,-6" clip-path="url(#satori_cp-id)" mask="url(#satori_om-id)"/><path width="63" height="25" clip-path="url(#satori_bc-id-2-0-1-4)" fill="none" stroke="#a78bfa35" stroke-width="2" d="M534.757,46.757 A6,6 0 0 1 539,45 h51 a6,6 0 0 1 6,6 v13 a6,6 0 0 1 -6,6 h-51 a6,6 0 0 1 -6,-6 v-13 A6,6 0 0 1 534.757,46.757"/><g mask="url(#satori_om-id)" clip-path="url(#satori_cp-id)"><path fill="rgba(225,220,255,0.85)" d="M549.6 62L547.8 62L547.8 53.3L549.6 53.3L549.6 56.8L553.4 56.8L553.4 53.3L555.2 53.3L555.2 62L553.4 62L553.4 58.3L549.6 58.3L549.6 62ZM559.1 54.8L556.4 54.8L556.4 53.3L563.5 53.3L563.5 54.8L560.9 54.8L560.9 62L559.1 62L559.1 54.8ZM566.5 62L564.8 62L564.8 53.3L567.5 53.3L568.9 57.3Q569.0 57.6 569.1 58.0Q569.2 58.4 569.4 59.0L569.4 59.0Q569.5 59.5 569.6 59.9L569.6 59.9Q569.7 59.5 569.8 59.0L569.8 59.0Q569.9 58.5 570.0 58.0Q570.1 57.6 570.2 57.3L570.2 57.3L571.6 53.3L574.4 53.3L574.4 62L572.6 62L572.6 57.9Q572.6 57.6 572.6 57.2Q572.6 56.7 572.6 56.2Q572.6 55.8 572.6 55.3L572.6 55.3Q572.6 55.0 572.6 54.8L572.6 54.8Q572.6 55.1 572.5 55.3L572.5 55.3Q572.4 55.8 572.2 56.3Q572.1 56.8 572.0 57.2Q571.9 57.6 571.8 57.9L571.8 57.9L570.3 62L568.8 62L567.3 57.9Q567.3 57.6 567.1 57.2Q567.0 56.8 566.9 56.3Q566.7 55.8 566.6 55.3L566.6 55.3Q566.5 55.1 566.5 54.9L566.5 54.9Q566.5 55.0 566.5 55.2L566.5 55.2Q566.5 55.7 566.5 56.2Q566.5 56.7 566.5 57.2Q566.5 57.6 566.5 57.9L566.5 57.9L566.5 62ZM581.5 62L575.9 62L575.9 53.3L577.7 53.3L577.7 60.5L581.5 60.5L581.5 62Z "/></g><defs><clipPath id="satori_bc-id-2-0-1-5" clip-path="url(#satori_cp-id)"><path x="603" y="45" width="53" height="25" d="M609,45 h41 a6,6 0 0 1 6,6 v13 a6,6 0 0 1 -6,6 h-41 a6,6 0 0 1 -6,-6 v-13 a6,6 0 0 1 6,-6"/></clipPath></defs><mask id="satori_om-id-2-0-1-5"><rect x="604" y="46" width="51" height="23" fill="#fff" mask="url(#satori_om-id)"/><path width="53" height="25" fill="none" stroke="#000" stroke-width="2" d="M604.757,46.757 A6,6 0 0 1 609,45 h41 a6,6 0 0 1 6,6 v13 a6,6 0 0 1 -6,6 h-41 a6,6 0 0 1 -6,-6 v-13 A6,6 0 0 1 604.757,46.757"/></mask><path x="603" y="45" width="53" height="25" fill="#a78bfa15" d="M609,45 h41 a6,6 0 0 1 6,6 v13 a6,6 0 0 1 -6,6 h-41 a6,6 0 0 1 -6,-6 v-13 a6,6 0 0 1 6,-6" clip-path="url(#satori_cp-id)" mask="url(#satori_om-id)"/><path width="53" height="25" clip-path="url(#satori_bc-id-2-0-1-5)" fill="none" stroke="#a78bfa35" stroke-width="2" d="M604.757,46.757 A6,6 0 0 1 609,45 h41 a6,6 0 0 1 6,6 v13 a6,6 0 0 1 -6,6 h-41 a6,6 0 0 1 -6,-6 v-13 A6,6 0 0 1 604.757,46.757"/><g mask="url(#satori_om-id)" clip-path="url(#satori_cp-id)"><path fill="rgba(225,220,255,0.85)" d="M621.6 62.1L621.6 62.1Q620.4 62.1 619.5 61.6Q618.6 61.1 618.1 60.1Q617.6 59.1 617.6 57.6L617.6 57.6Q617.6 56.2 618.1 55.2Q618.6 54.2 619.5 53.7Q620.5 53.2 621.6 53.2L621.6 53.2Q622.3 53.2 623.0 53.4Q623.6 53.6 624.1 54.0Q624.6 54.4 624.9 54.9Q625.3 55.5 625.4 56.3L625.4 56.3L623.6 56.3Q623.5 55.9 623.3 55.6Q623.2 55.3 622.9 55.1Q622.7 54.9 622.3 54.8Q622.0 54.7 621.6 54.7L621.6 54.7Q621.0 54.7 620.4 55.1Q619.9 55.4 619.7 56.1Q619.4 56.7 619.4 57.6L619.4 57.6Q619.4 58.6 619.7 59.2Q619.9 59.9 620.5 60.2Q621.0 60.5 621.6 60.5L621.6 60.5Q622.0 60.5 622.3 60.4Q622.6 60.3 622.9 60.1Q623.2 59.9 623.3 59.7Q623.5 59.4 623.6 59.0L623.6 59.0L625.4 59.0Q625.3 59.6 625.0 60.2Q624.7 60.7 624.2 61.2Q623.8 61.6 623.1 61.9Q622.4 62.1 621.6 62.1ZM629.9 62.1L629.9 62.1Q628.8 62.1 628.0 61.8Q627.3 61.5 626.8 60.9Q626.4 60.2 626.4 59.3L626.4 59.3L628.1 59.3Q628.2 59.7 628.4 60.0Q628.6 60.3 629.0 60.5Q629.4 60.6 629.8 60.6L629.8 60.6Q630.3 60.6 630.7 60.5Q631.0 60.3 631.2 60.1Q631.4 59.8 631.4 59.5L631.4 59.5Q631.4 59.2 631.3 59.0Q631.1 58.8 630.7 58.7Q630.4 58.5 629.9 58.4L629.9 58.4L629.0 58.2Q627.9 57.9 627.2 57.3Q626.6 56.7 626.6 55.8L626.6 55.8Q626.6 55.0 627.0 54.4Q627.5 53.8 628.2 53.5Q628.9 53.2 629.9 53.2L629.9 53.2Q630.9 53.2 631.6 53.5Q632.3 53.8 632.7 54.4Q633.1 55.0 633.1 55.8L633.1 55.8L631.4 55.8Q631.3 55.2 630.9 54.9Q630.5 54.7 629.9 54.7L629.9 54.7Q629.4 54.7 629.1 54.8Q628.8 54.9 628.6 55.1Q628.4 55.4 628.4 55.7L628.4 55.7Q628.4 56.0 628.6 56.2Q628.8 56.4 629.2 56.5Q629.5 56.7 629.8 56.8L629.8 56.8L630.6 57.0Q631.2 57.1 631.7 57.3Q632.1 57.5 632.5 57.8Q632.8 58.1 633.0 58.5Q633.2 59.0 633.2 59.5L633.2 59.5Q633.2 60.3 632.8 60.9Q632.4 61.5 631.7 61.8Q630.9 62.1 629.9 62.1ZM637.7 62.1L637.7 62.1Q636.7 62.1 635.9 61.8Q635.1 61.5 634.7 60.9Q634.3 60.2 634.2 59.3L634.2 59.3L636.0 59.3Q636.0 59.7 636.2 60.0Q636.5 60.3 636.8 60.5Q637.2 60.6 637.7 60.6L637.7 60.6Q638.2 60.6 638.5 60.5Q638.9 60.3 639.1 60.1Q639.3 59.8 639.3 59.5L639.3 59.5Q639.3 59.2 639.1 59.0Q638.9 58.8 638.6 58.7Q638.3 58.5 637.8 58.4L637.8 58.4L636.8 58.2Q635.7 57.9 635.1 57.3Q634.5 56.7 634.5 55.8L634.5 55.8Q634.5 55.0 634.9 54.4Q635.3 53.8 636.1 53.5Q636.8 53.2 637.7 53.2L637.7 53.2Q638.7 53.2 639.4 53.5Q640.2 53.8 640.6 54.4Q641.0 55.0 641.0 55.8L641.0 55.8L639.2 55.8Q639.2 55.2 638.8 54.9Q638.4 54.7 637.7 54.7L637.7 54.7Q637.3 54.7 637.0 54.8Q636.6 54.9 636.5 55.1Q636.3 55.4 636.3 55.7L636.3 55.7Q636.3 56.0 636.5 56.2Q636.7 56.4 637.0 56.5Q637.3 56.7 637.7 56.8L637.7 56.8L638.5 57.0Q639.0 57.1 639.5 57.3Q640.0 57.5 640.3 57.8Q640.7 58.1 640.9 58.5Q641.1 59.0 641.1 59.5L641.1 59.5Q641.1 60.3 640.7 60.9Q640.3 61.5 639.5 61.8Q638.8 62.1 637.7 62.1Z "/></g><mask id="satori_om-id-2-1"><rect x="33" y="84" width="794" height="25" fill="#fff" mask="url(#satori_om-id)"/></mask><mask id="satori_om-id-2-1-0"><rect x="33" y="85" width="80" height="24" fill="#fff" mask="url(#satori_om-id)"/></mask><g mask="url(#satori_om-id)" clip-path="url(#satori_cp-id)"><path fill="#60a5fa" d="M36.7 95L33.7 95L33.7 87.7L36.5 87.7Q37.3 87.7 37.9 88.0Q38.4 88.2 38.7 88.6Q38.9 89.0 38.9 89.6L38.9 89.6Q38.9 90.0 38.8 90.3Q38.6 90.7 38.3 90.9Q38.0 91.1 37.6 91.2L37.6 91.2L37.6 91.2Q38.0 91.2 38.4 91.5Q38.8 91.7 39.0 92.1Q39.2 92.5 39.2 93.0L39.2 93.0Q39.2 93.6 38.9 94.0Q38.7 94.5 38.1 94.7Q37.6 95 36.7 95L36.7 95ZM35.1 91.8L35.1 93.8L36.4 93.8Q37.1 93.8 37.4 93.5Q37.7 93.3 37.7 92.9L37.7 92.9Q37.7 92.5 37.5 92.3Q37.4 92.1 37.1 91.9Q36.9 91.8 36.5 91.8L36.5 91.8L35.1 91.8ZM35.1 88.9L35.1 90.8L36.3 90.8Q36.6 90.8 36.9 90.7Q37.2 90.6 37.3 90.3Q37.4 90.1 37.4 89.8L37.4 89.8Q37.4 89.4 37.2 89.2Q36.9 88.9 36.4 88.9L36.4 88.9L35.1 88.9ZM42.5 95L40.9 95L43.3 87.7L45.3 87.7L47.8 95L46.2 95L45.6 93.3L43.0 93.3L42.5 95ZM43.4 92.1L45.2 92.1L45.0 91.5Q44.8 90.8 44.6 90L44.6 90Q44.5 89.5 44.3 88.9L44.3 88.9Q44.2 89.5 44.0 90.0L44.0 90.0Q43.8 90.8 43.6 91.5L43.6 91.5L43.4 92.1ZM52.9 95.1L52.9 95.1Q52.0 95.1 51.2 94.7Q50.4 94.2 50.0 93.4Q49.5 92.5 49.5 91.4L49.5 91.4Q49.5 90.2 50.0 89.3Q50.4 88.5 51.2 88.1Q52.0 87.6 52.9 87.6L52.9 87.6Q53.5 87.6 54.1 87.8Q54.6 88.0 55.0 88.3Q55.4 88.6 55.7 89.1Q56.0 89.6 56.0 90.2L56.0 90.2L54.5 90.2Q54.5 89.9 54.4 89.7Q54.2 89.4 54.0 89.3Q53.8 89.1 53.5 89.0Q53.3 89.0 52.9 89.0L52.9 89.0Q52.4 89.0 52.0 89.2Q51.5 89.5 51.3 90.1Q51.1 90.6 51.1 91.4L51.1 91.4Q51.1 92.2 51.3 92.7Q51.5 93.2 52.0 93.5Q52.4 93.8 52.9 93.8L52.9 93.8Q53.3 93.8 53.5 93.7Q53.8 93.6 54.0 93.4Q54.2 93.3 54.4 93.0Q54.5 92.8 54.5 92.5L54.5 92.5L56.1 92.5Q56.0 93.0 55.8 93.5Q55.5 93.9 55.1 94.3Q54.7 94.7 54.2 94.9Q53.6 95.1 52.9 95.1ZM59.6 95L58.1 95L58.1 87.7L59.6 87.7L59.6 89.7L59.6 91.4Q59.6 91.3 59.7 91.3L59.7 91.3Q59.9 90.9 60.2 90.6Q60.4 90.2 60.7 89.8L60.7 89.8L62.5 87.7L64.3 87.7L61.6 90.9L64.4 95L62.7 95L60.6 91.9L59.6 92.9L59.6 95ZM71.2 95L66.3 95L66.3 87.7L71.2 87.7L71.2 89.0L67.8 89.0L67.8 90.7L70.9 90.7L70.9 91.9L67.8 91.9L67.8 93.8L71.2 93.8L71.2 95ZM74.9 95L73.4 95L73.4 87.7L75.1 87.7L77.4 91.4Q77.5 91.7 77.7 92.0Q77.9 92.4 78.1 92.8L78.1 92.8Q78.2 93.0 78.3 93.2L78.3 93.2Q78.3 93.0 78.3 92.8L78.3 92.8Q78.2 92.3 78.2 91.9Q78.2 91.5 78.2 91.2L78.2 91.2L78.2 87.7L79.7 87.7L79.7 95L78.0 95L76.0 91.7Q75.7 91.3 75.5 90.9Q75.3 90.6 75.1 90.1L75.1 90.1Q75.0 89.9 74.8 89.6L74.8 89.6Q74.9 89.9 74.9 90.1L74.9 90.1Q74.9 90.6 74.9 91.0Q74.9 91.4 74.9 91.7L74.9 91.7L74.9 95ZM84.6 95L84.6 95L82.0 95L82.0 87.7L84.6 87.7Q85.7 87.7 86.5 88.2Q87.3 88.6 87.7 89.4Q88.1 90.2 88.1 91.4L88.1 91.4Q88.1 92.5 87.7 93.3Q87.3 94.1 86.5 94.6Q85.7 95 84.6 95ZM83.5 89.0L83.5 93.7L84.5 93.7Q85.2 93.7 85.7 93.5Q86.2 93.2 86.4 92.7Q86.6 92.2 86.6 91.4L86.6 91.4Q86.6 90.5 86.4 90.0Q86.2 89.5 85.7 89.3Q85.2 89.0 84.5 89.0L84.5 89.0L83.5 89.0Z M95.8 95.1L95.8 95.1Q95.1 95.1 94.5 94.8Q94.0 94.6 93.7 94.1Q93.4 93.6 93.4 93.1L93.4 93.1Q93.4 92.6 93.6 92.3Q93.7 92.0 94.1 91.7L94.1 91.7Q94.4 91.4 94.7 91.2L94.7 91.2Q94.7 91.1 94.7 91.1L94.7 91.1Q94.4 90.7 94.2 90.3Q94.0 89.9 94.0 89.5L94.0 89.5Q94.0 89.0 94.3 88.5Q94.5 88.1 95.0 87.9Q95.4 87.6 96.0 87.6L96.0 87.6Q96.6 87.6 97.0 87.9Q97.4 88.1 97.7 88.5Q97.9 88.9 97.9 89.4L97.9 89.4Q97.9 89.7 97.8 90.0Q97.6 90.3 97.4 90.5Q97.2 90.8 96.9 91.0L96.9 91.0L96.5 91.3L97.7 92.7Q97.8 92.6 97.8 92.5L97.8 92.5Q98.0 92.0 98.0 91.5L98.0 91.5L99.2 91.5Q99.2 92.1 99.1 92.7Q98.9 93.2 98.7 93.6L98.7 93.6Q98.6 93.7 98.6 93.7L98.6 93.7L99.7 95L98.1 95L97.7 94.5Q97.3 94.8 96.8 95.0L96.8 95.0Q96.3 95.1 95.8 95.1ZM96.9 93.6L95.5 92.0L95.4 92.1Q95.1 92.3 95.0 92.5Q94.8 92.7 94.8 93.0L94.8 93.0Q94.8 93.3 95.0 93.5Q95.1 93.7 95.3 93.8Q95.6 93.9 95.9 93.9L95.9 93.9Q96.3 93.9 96.7 93.8L96.7 93.8Q96.8 93.7 96.9 93.6L96.9 93.6ZM95.8 90.5L95.8 90.5L96.2 90.2Q96.3 90.1 96.4 90.0Q96.5 89.9 96.6 89.7Q96.7 89.6 96.7 89.4L96.7 89.4Q96.7 89.2 96.5 89.0Q96.3 88.8 96.0 88.8L96.0 88.8Q95.8 88.8 95.6 88.9Q95.5 89.0 95.4 89.1Q95.3 89.3 95.3 89.5L95.3 89.5Q95.3 89.7 95.4 90.0Q95.5 90.2 95.7 90.5L95.7 90.5Q95.8 90.5 95.8 90.5Z M34.9 107L33.2 107L35.7 99.7L37.7 99.7L40.2 107L38.6 107L38.0 105.3L35.4 105.3L34.9 107ZM35.8 104.1L37.6 104.1L37.4 103.5Q37.2 102.8 37.0 102L37.0 102Q36.8 101.5 36.7 100.9L36.7 100.9Q36.5 101.5 36.4 102.0L36.4 102.0Q36.2 102.8 36.0 103.5L36.0 103.5L35.8 104.1ZM42.1 99.7L43.6 99.7L43.6 107L42.1 107L42.1 99.7Z "/></g><mask id="satori_om-id-2-1-1"><rect x="129" y="84" width="426" height="25" fill="#fff" mask="url(#satori_om-id)"/></mask><defs><clipPath id="satori_bc-id-2-1-1-0" clip-path="url(#satori_cp-id)"><path x="129" y="84" width="74" height="25" d="M135,84 h62 a6,6 0 0 1 6,6 v13 a6,6 0 0 1 -6,6 h-62 a6,6 0 0 1 -6,-6 v-13 a6,6 0 0 1 6,-6"/></clipPath></defs><mask id="satori_om-id-2-1-1-0"><rect x="130" y="85" width="72" height="23" fill="#fff" mask="url(#satori_om-id)"/><path width="74" height="25" fill="none" stroke="#000" stroke-width="2" d="M130.757,85.757 A6,6 0 0 1 135,84 h62 a6,6 0 0 1 6,6 v13 a6,6 0 0 1 -6,6 h-62 a6,6 0 0 1 -6,-6 v-13 A6,6 0 0 1 130.757,85.757"/></mask><path x="129" y="84" width="74" height="25" fill="#60a5fa15" d="M135,84 h62 a6,6 0 0 1 6,6 v13 a6,6 0 0 1 -6,6 h-62 a6,6 0 0 1 -6,-6 v-13 a6,6 0 0 1 6,-6" clip-path="url(#satori_cp-id)" mask="url(#satori_om-id)"/><path width="74" height="25" clip-path="url(#satori_bc-id-2-1-1-0)" fill="none" stroke="#60a5fa35" stroke-width="2" d="M130.757,85.757 A6,6 0 0 1 135,84 h62 a6,6 0 0 1 6,6 v13 a6,6 0 0 1 -6,6 h-62 a6,6 0 0 1 -6,-6 v-13 A6,6 0 0 1 130.757,85.757"/><g mask="url(#satori_om-id)" clip-path="url(#satori_cp-id)"><path fill="rgba(225,220,255,0.85)" d="M145.6 101L143.8 101L143.8 92.3L149.5 92.3L149.5 93.8L145.6 93.8L145.6 96.2L149.1 96.2L149.1 97.6L145.6 97.6L145.6 101ZM152.6 101.1L152.6 101.1Q152 101.1 151.5 100.9Q151.0 100.7 150.7 100.3Q150.4 99.8 150.4 99.2L150.4 99.2Q150.4 98.6 150.6 98.3Q150.8 97.9 151.2 97.7Q151.5 97.4 152.0 97.3Q152.4 97.2 152.9 97.2L152.9 97.2Q153.5 97.1 153.8 97.0Q154.2 97.0 154.3 96.9Q154.5 96.8 154.5 96.6L154.5 96.6L154.5 96.5Q154.5 96.3 154.4 96.1Q154.3 95.9 154.0 95.8Q153.8 95.7 153.5 95.7L153.5 95.7Q153.1 95.7 152.9 95.8Q152.6 95.9 152.5 96.0Q152.3 96.2 152.2 96.4L152.2 96.4L150.6 96.2Q150.8 95.6 151.2 95.2Q151.6 94.8 152.2 94.6Q152.8 94.4 153.5 94.4L153.5 94.4Q154.0 94.4 154.5 94.5Q155.0 94.6 155.4 94.9Q155.8 95.1 156.0 95.6Q156.3 96.0 156.3 96.6L156.3 96.6L156.3 101L154.6 101L154.6 100.1L154.5 100.1Q154.4 100.4 154.1 100.6Q153.9 100.9 153.5 101.0Q153.1 101.1 152.6 101.1ZM153.1 99.9L153.1 99.9Q153.5 99.9 153.8 99.7Q154.2 99.6 154.3 99.3Q154.5 99.0 154.5 98.7L154.5 98.7L154.5 97.9Q154.4 98.0 154.3 98.1Q154.1 98.1 153.9 98.1Q153.7 98.2 153.5 98.2Q153.4 98.2 153.2 98.2L153.2 98.2Q152.9 98.3 152.6 98.4Q152.4 98.5 152.3 98.7Q152.1 98.8 152.1 99.1L152.1 99.1Q152.1 99.4 152.3 99.5Q152.4 99.7 152.6 99.8Q152.8 99.9 153.1 99.9ZM160.4 101.1L160.4 101.1Q159.6 101.1 159.0 100.9Q158.4 100.7 158.0 100.2Q157.6 99.8 157.5 99.2L157.5 99.2L159.1 98.9Q159.2 99.4 159.6 99.6Q159.9 99.8 160.4 99.8L160.4 99.8Q160.9 99.8 161.2 99.6Q161.5 99.5 161.5 99.2L161.5 99.2Q161.5 98.9 161.3 98.7Q161.1 98.6 160.7 98.5L160.7 98.5L159.5 98.3Q158.6 98.1 158.1 97.6Q157.6 97.1 157.6 96.4L157.6 96.4Q157.6 95.8 158.0 95.3Q158.3 94.9 158.9 94.6Q159.6 94.4 160.4 94.4L160.4 94.4Q161.2 94.4 161.7 94.6Q162.3 94.8 162.7 95.2Q163.0 95.6 163.1 96.1L163.1 96.1L161.6 96.4Q161.5 96.1 161.2 95.8Q160.9 95.6 160.4 95.6L160.4 95.6Q160.0 95.6 159.7 95.8Q159.4 96.0 159.4 96.3L159.4 96.3Q159.4 96.5 159.6 96.7Q159.8 96.9 160.2 97.0L160.2 97.0L161.4 97.2Q162.4 97.4 162.8 97.8Q163.3 98.3 163.3 99.0L163.3 99.0Q163.3 99.6 162.9 100.1Q162.5 100.6 161.9 100.9Q161.2 101.1 160.4 101.1ZM166.5 94.4L167.7 94.4L167.7 95.8L166.5 95.8L166.5 99.1Q166.5 99.4 166.6 99.5Q166.8 99.7 167.1 99.7L167.1 99.7Q167.2 99.7 167.4 99.7Q167.6 99.6 167.7 99.6L167.7 99.6L167.9 100.9Q167.6 101.0 167.3 101.1Q167.0 101.1 166.8 101.1L166.8 101.1Q165.8 101.1 165.3 100.6Q164.8 100.1 164.8 99.2L164.8 99.2L164.8 95.8L163.8 95.8L163.8 94.4L164.8 94.4L164.8 92.9L166.5 92.9L166.5 94.4ZM170.4 101L168.4 101L171.4 92.3L173.7 92.3L176.8 101L174.8 101L174.1 99.0L171.0 99.0L170.4 101ZM171.5 97.6L173.7 97.6L173.4 96.8Q173.2 96.0 172.9 95L172.9 95Q172.7 94.4 172.5 93.7L172.5 93.7Q172.4 94.4 172.2 95.0L172.2 95.0Q172.0 96.0 171.7 96.8L171.7 96.8L171.5 97.6ZM179.7 101L177.9 101L177.9 92.3L181.3 92.3Q182.3 92.3 183.0 92.6Q183.7 93.0 184.0 93.7Q184.4 94.4 184.4 95.2L184.4 95.2Q184.4 96.1 184.0 96.7Q183.7 97.4 183.0 97.8Q182.2 98.1 181.2 98.1L181.2 98.1L179.7 98.1L179.7 101ZM179.7 93.7L179.7 96.7L181.0 96.7Q181.5 96.7 181.9 96.5Q182.2 96.3 182.4 96.0Q182.6 95.7 182.6 95.2Q182.6 94.8 182.4 94.4Q182.2 94.1 181.9 93.9Q181.5 93.7 180.9 93.7L180.9 93.7L179.7 93.7ZM185.7 92.3L187.4 92.3L187.4 101L185.7 101L185.7 92.3Z "/></g><defs><clipPath id="satori_bc-id-2-1-1-1" clip-path="url(#satori_cp-id)"><path x="210" y="84" width="78" height="25" d="M216,84 h66 a6,6 0 0 1 6,6 v13 a6,6 0 0 1 -6,6 h-66 a6,6 0 0 1 -6,-6 v-13 a6,6 0 0 1 6,-6"/></clipPath></defs><mask id="satori_om-id-2-1-1-1"><rect x="211" y="85" width="76" height="23" fill="#fff" mask="url(#satori_om-id)"/><path width="78" height="25" fill="none" stroke="#000" stroke-width="2" d="M211.757,85.757 A6,6 0 0 1 216,84 h66 a6,6 0 0 1 6,6 v13 a6,6 0 0 1 -6,6 h-66 a6,6 0 0 1 -6,-6 v-13 A6,6 0 0 1 211.757,85.757"/></mask><path x="210" y="84" width="78" height="25" fill="#60a5fa15" d="M216,84 h66 a6,6 0 0 1 6,6 v13 a6,6 0 0 1 -6,6 h-66 a6,6 0 0 1 -6,-6 v-13 a6,6 0 0 1 6,-6" clip-path="url(#satori_cp-id)" mask="url(#satori_om-id)"/><path width="78" height="25" clip-path="url(#satori_bc-id-2-1-1-1)" fill="none" stroke="#60a5fa35" stroke-width="2" d="M211.757,85.757 A6,6 0 0 1 216,84 h66 a6,6 0 0 1 6,6 v13 a6,6 0 0 1 -6,6 h-66 a6,6 0 0 1 -6,-6 v-13 A6,6 0 0 1 211.757,85.757"/><g mask="url(#satori_om-id)" clip-path="url(#satori_cp-id)"><path fill="rgba(225,220,255,0.85)" d="M226.6 101L224.8 101L224.8 92.3L228.2 92.3Q229.2 92.3 229.9 92.6Q230.6 93.0 231.0 93.7Q231.3 94.4 231.3 95.2L231.3 95.2Q231.3 96.1 230.9 96.7Q230.6 97.4 229.9 97.8Q229.2 98.1 228.2 98.1L228.2 98.1L226.6 98.1L226.6 101ZM226.6 93.7L226.6 96.7L227.9 96.7Q228.4 96.7 228.8 96.5Q229.1 96.3 229.3 96.0Q229.5 95.7 229.5 95.2Q229.5 94.8 229.3 94.4Q229.1 94.1 228.8 93.9Q228.4 93.7 227.9 93.7L227.9 93.7L226.6 93.7ZM232.5 103.3L232.5 103.3L232.9 102.0L233.1 102.0Q233.5 102.1 233.7 102.1Q234.0 102.1 234.2 101.9Q234.3 101.7 234.4 101.4L234.4 101.4L234.4 101.0L232.0 94.4L233.8 94.4L234.9 97.8Q235.1 98.5 235.3 99.1L235.3 99.1Q235.3 99.4 235.3 99.6L235.3 99.6Q235.4 99.4 235.4 99.1L235.4 99.1Q235.6 98.5 235.8 97.8L235.8 97.8L237.0 94.4L238.8 94.4L236.0 101.8Q235.8 102.3 235.5 102.7Q235.2 103.1 234.7 103.3Q234.3 103.5 233.6 103.5L233.6 103.5Q233.3 103.5 233.0 103.4Q232.7 103.4 232.5 103.3ZM242.1 93.8L239.4 93.8L239.4 92.3L246.6 92.3L246.6 93.8L243.9 93.8L243.9 101L242.1 101L242.1 93.8ZM250.7 101.1L250.7 101.1Q249.7 101.1 249.0 100.7Q248.3 100.3 247.9 99.5Q247.5 98.8 247.5 97.8L247.5 97.8Q247.5 96.7 247.9 96.0Q248.3 95.2 249.0 94.8Q249.7 94.4 250.7 94.4L250.7 94.4Q251.7 94.4 252.4 94.8Q253.1 95.2 253.5 96.0Q253.9 96.7 253.9 97.8L253.9 97.8Q253.9 98.8 253.5 99.5Q253.1 100.3 252.4 100.7Q251.7 101.1 250.7 101.1ZM250.7 99.7L250.7 99.7Q251.2 99.7 251.5 99.5Q251.8 99.2 251.9 98.8Q252.1 98.3 252.1 97.7L252.1 97.7Q252.1 97.2 251.9 96.7Q251.8 96.3 251.5 96.0Q251.2 95.8 250.7 95.8L250.7 95.8Q250.2 95.8 249.9 96.0Q249.6 96.3 249.4 96.7Q249.3 97.2 249.3 97.7L249.3 97.7Q249.3 98.3 249.4 98.8Q249.6 99.2 249.9 99.5Q250.2 99.7 250.7 99.7ZM256.9 101L255.1 101L255.1 94.4L256.8 94.4L256.8 95.6L256.9 95.6Q257.1 95.0 257.5 94.7Q257.9 94.4 258.5 94.4L258.5 94.4Q258.6 94.4 258.8 94.4Q258.9 94.4 259.0 94.4L259.0 94.4L259.0 96.0Q258.9 95.9 258.7 95.9Q258.5 95.9 258.3 95.9L258.3 95.9Q257.9 95.9 257.6 96.1Q257.2 96.2 257.1 96.6Q256.9 96.9 256.9 97.3L256.9 97.3L256.9 101ZM262.9 101.1L262.9 101.1Q261.9 101.1 261.2 100.7Q260.5 100.3 260.1 99.5Q259.7 98.8 259.7 97.8L259.7 97.8Q259.7 96.7 260.1 96.0Q260.5 95.2 261.2 94.8Q261.9 94.4 262.9 94.4L262.9 94.4Q263.5 94.4 264.0 94.5Q264.5 94.7 264.9 95.0Q265.3 95.2 265.5 95.6Q265.8 96.0 265.8 96.5L265.8 96.5L264.2 96.9Q264.2 96.6 264.0 96.4Q263.9 96.2 263.8 96.0Q263.6 95.9 263.4 95.8Q263.2 95.8 263.0 95.8L263.0 95.8Q262.5 95.8 262.2 96.0Q261.8 96.3 261.7 96.7Q261.5 97.2 261.5 97.7L261.5 97.7Q261.5 98.3 261.7 98.8Q261.8 99.2 262.2 99.5Q262.5 99.7 263.0 99.7L263.0 99.7Q263.2 99.7 263.4 99.7Q263.6 99.6 263.8 99.4Q264.0 99.3 264.1 99.1Q264.2 98.9 264.2 98.6L264.2 98.6L265.9 98.9Q265.8 99.4 265.5 99.8Q265.3 100.2 264.9 100.5Q264.5 100.8 264.0 101.0Q263.5 101.1 262.9 101.1ZM268.8 97.2L268.8 97.2L268.8 101L267.1 101L267.1 92.3L268.8 92.3L268.8 95.7Q269.0 95.2 269.4 94.8L269.4 94.8Q270.0 94.4 270.8 94.4L270.8 94.4Q271.5 94.4 272.0 94.7Q272.5 95.0 272.8 95.5Q273.0 96.1 273.0 96.8L273.0 96.8L273.0 101L271.3 101L271.3 97.1Q271.3 96.5 271.0 96.2Q270.7 95.8 270.1 95.8L270.1 95.8Q269.7 95.8 269.4 96.0Q269.1 96.2 269.0 96.5Q268.8 96.8 268.8 97.2Z "/></g><defs><clipPath id="satori_bc-id-2-1-1-2" clip-path="url(#satori_cp-id)"><path x="295" y="84" width="98" height="25" d="M301,84 h86 a6,6 0 0 1 6,6 v13 a6,6 0 0 1 -6,6 h-86 a6,6 0 0 1 -6,-6 v-13 a6,6 0 0 1 6,-6"/></clipPath></defs><mask id="satori_om-id-2-1-1-2"><rect x="296" y="85" width="96" height="23" fill="#fff" mask="url(#satori_om-id)"/><path width="98" height="25" fill="none" stroke="#000" stroke-width="2" d="M296.757,85.757 A6,6 0 0 1 301,84 h86 a6,6 0 0 1 6,6 v13 a6,6 0 0 1 -6,6 h-86 a6,6 0 0 1 -6,-6 v-13 A6,6 0 0 1 296.757,85.757"/></mask><path x="295" y="84" width="98" height="25" fill="#60a5fa15" d="M301,84 h86 a6,6 0 0 1 6,6 v13 a6,6 0 0 1 -6,6 h-86 a6,6 0 0 1 -6,-6 v-13 a6,6 0 0 1 6,-6" clip-path="url(#satori_cp-id)" mask="url(#satori_om-id)"/><path width="98" height="25" clip-path="url(#satori_bc-id-2-1-1-2)" fill="none" stroke="#60a5fa35" stroke-width="2" d="M296.757,85.757 A6,6 0 0 1 301,84 h86 a6,6 0 0 1 6,6 v13 a6,6 0 0 1 -6,6 h-86 a6,6 0 0 1 -6,-6 v-13 A6,6 0 0 1 296.757,85.757"/><g mask="url(#satori_om-id)" clip-path="url(#satori_cp-id)"><path fill="rgba(225,220,255,0.85)" d="M312.1 93.8L309.4 93.8L309.4 92.3L316.6 92.3L316.6 93.8L313.9 93.8L313.9 101L312.1 101L312.1 93.8ZM320.7 101.1L320.7 101.1Q319.7 101.1 319.0 100.7Q318.3 100.3 317.9 99.6Q317.5 98.8 317.5 97.8L317.5 97.8Q317.5 96.7 317.9 96.0Q318.3 95.2 319.0 94.8Q319.7 94.4 320.6 94.4L320.6 94.4Q321.3 94.4 321.8 94.6Q322.4 94.8 322.8 95.2Q323.2 95.6 323.5 96.2Q323.7 96.8 323.7 97.7L323.7 97.7L323.7 98.2L319.2 98.2Q319.2 98.7 319.4 99.0L319.4 99.0Q319.6 99.4 319.9 99.6Q320.3 99.8 320.7 99.8L320.7 99.8Q321.1 99.8 321.3 99.7Q321.6 99.6 321.7 99.5Q321.9 99.3 322.0 99.0L322.0 99.0L323.6 99.3Q323.4 99.9 323.1 100.3Q322.7 100.7 322.1 100.9Q321.5 101.1 320.7 101.1ZM319.2 97.1L319.2 97.1L322.0 97.1Q322.0 96.8 321.9 96.5L321.9 96.5Q321.7 96.1 321.4 95.9Q321.1 95.7 320.6 95.7L320.6 95.7Q320.2 95.7 319.9 95.9Q319.6 96.1 319.4 96.5L319.4 96.5Q319.3 96.7 319.2 97.1ZM326.7 97.2L326.7 97.2L326.7 101L324.9 101L324.9 94.4L326.6 94.4L326.6 95.8Q326.8 95.2 327.3 94.8L327.3 94.8Q327.8 94.4 328.6 94.4L328.6 94.4Q329.3 94.4 329.8 94.7Q330.3 95.0 330.6 95.5Q330.9 96.1 330.9 96.8L330.9 96.8L330.9 101L329.1 101L329.1 97.1Q329.1 96.5 328.8 96.2Q328.5 95.8 327.9 95.8L327.9 95.8Q327.6 95.8 327.3 96.0Q327.0 96.2 326.8 96.5Q326.7 96.8 326.7 97.2ZM335.0 101.1L335.0 101.1Q334.2 101.1 333.6 100.9Q333.0 100.7 332.6 100.2Q332.2 99.8 332.1 99.2L332.1 99.2L333.7 98.9Q333.8 99.4 334.2 99.6Q334.5 99.8 335.0 99.8L335.0 99.8Q335.5 99.8 335.8 99.6Q336.1 99.5 336.1 99.2L336.1 99.2Q336.1 98.9 335.9 98.7Q335.7 98.6 335.3 98.5L335.3 98.5L334.1 98.3Q333.2 98.1 332.7 97.6Q332.3 97.1 332.3 96.4L332.3 96.4Q332.3 95.8 332.6 95.3Q332.9 94.9 333.6 94.6Q334.2 94.4 335.0 94.4L335.0 94.4Q335.8 94.4 336.4 94.6Q336.9 94.8 337.3 95.2Q337.6 95.6 337.7 96.1L337.7 96.1L336.2 96.4Q336.1 96.1 335.8 95.8Q335.5 95.6 335.0 95.6L335.0 95.6Q334.6 95.6 334.3 95.8Q334.0 96.0 334.0 96.3L334.0 96.3Q334.0 96.5 334.2 96.7Q334.4 96.9 334.9 97.0L334.9 97.0L336.0 97.2Q337.0 97.4 337.4 97.8Q337.9 98.3 337.9 99.0L337.9 99.0Q337.9 99.6 337.5 100.1Q337.2 100.6 336.5 100.9Q335.8 101.1 335.0 101.1ZM342.0 101.1L342.0 101.1Q341.0 101.1 340.3 100.7Q339.6 100.3 339.2 99.5Q338.8 98.8 338.8 97.8L338.8 97.8Q338.8 96.7 339.2 96.0Q339.6 95.2 340.3 94.8Q341.0 94.4 342.0 94.4L342.0 94.4Q343.0 94.4 343.7 94.8Q344.5 95.2 344.8 96.0Q345.2 96.7 345.2 97.8L345.2 97.8Q345.2 98.8 344.8 99.5Q344.5 100.3 343.7 100.7Q343.0 101.1 342.0 101.1ZM342.0 99.7L342.0 99.7Q342.5 99.7 342.8 99.5Q343.1 99.2 343.3 98.8Q343.4 98.3 343.4 97.7L343.4 97.7Q343.4 97.2 343.3 96.7Q343.1 96.3 342.8 96.0Q342.5 95.8 342.0 95.8L342.0 95.8Q341.6 95.8 341.2 96.0Q340.9 96.3 340.8 96.7Q340.6 97.2 340.6 97.7L340.6 97.7Q340.6 98.3 340.8 98.8Q340.9 99.2 341.2 99.5Q341.6 99.7 342.0 99.7ZM348.2 101L346.5 101L346.5 94.4L348.2 94.4L348.2 95.6L348.2 95.6Q348.4 95.0 348.8 94.7Q349.3 94.4 349.8 94.4L349.8 94.4Q349.9 94.4 350.1 94.4Q350.3 94.4 350.4 94.4L350.4 94.4L350.4 96.0Q350.3 95.9 350.0 95.9Q349.8 95.9 349.6 95.9L349.6 95.9Q349.2 95.9 348.9 96.1Q348.6 96.2 348.4 96.6Q348.2 96.9 348.2 97.3L348.2 97.3L348.2 101ZM353.2 101L351.4 101L351.4 92.3L357.1 92.3L357.1 93.8L353.2 93.8L353.2 96.2L356.7 96.2L356.7 97.6L353.2 97.6L353.2 101ZM358.4 92.3L360.1 92.3L360.1 101L358.4 101L358.4 92.3ZM364.6 101.1L364.6 101.1Q363.6 101.1 362.9 100.7Q362.1 100.3 361.8 99.5Q361.4 98.8 361.4 97.8L361.4 97.8Q361.4 96.7 361.8 96.0Q362.1 95.2 362.9 94.8Q363.6 94.4 364.6 94.4L364.6 94.4Q365.6 94.4 366.3 94.8Q367.0 95.2 367.4 96.0Q367.8 96.7 367.8 97.8L367.8 97.8Q367.8 98.8 367.4 99.5Q367.0 100.3 366.3 100.7Q365.6 101.1 364.6 101.1ZM364.6 99.7L364.6 99.7Q365.0 99.7 365.4 99.5Q365.7 99.2 365.8 98.8Q366.0 98.3 366.0 97.7L366.0 97.7Q366.0 97.2 365.8 96.7Q365.7 96.3 365.4 96.0Q365.0 95.8 364.6 95.8L364.6 95.8Q364.1 95.8 363.8 96.0Q363.5 96.3 363.3 96.7Q363.2 97.2 363.2 97.7L363.2 97.7Q363.2 98.3 363.3 98.8Q363.5 99.2 363.8 99.5Q364.1 99.7 364.6 99.7ZM372.2 101L370.4 101L368.4 94.4L370.3 94.4L370.8 96.9Q371.0 97.5 371.2 98.3L371.2 98.3Q371.3 98.8 371.4 99.4L371.4 99.4Q371.5 98.8 371.6 98.3L371.6 98.3Q371.8 97.5 371.9 96.9L371.9 96.9L372.5 94.4L374.2 94.4L374.7 96.9Q374.9 97.5 375.1 98.3L375.1 98.3Q375.2 98.8 375.3 99.4L375.3 99.4Q375.4 98.8 375.5 98.3L375.5 98.3Q375.7 97.5 375.8 96.9L375.8 96.9L376.4 94.4L378.3 94.4L376.3 101L374.5 101L373.8 98.5Q373.7 98.1 373.6 97.6Q373.5 97.2 373.4 96.7L373.4 96.7Q373.4 96.6 373.3 96.5L373.3 96.5Q373.3 96.6 373.3 96.7L373.3 96.7Q373.2 97.2 373.1 97.6Q373.0 98.1 372.9 98.5L372.9 98.5L372.2 101Z "/></g><defs><clipPath id="satori_bc-id-2-1-1-3" clip-path="url(#satori_cp-id)"><path x="400" y="84" width="78" height="25" d="M406,84 h66 a6,6 0 0 1 6,6 v13 a6,6 0 0 1 -6,6 h-66 a6,6 0 0 1 -6,-6 v-13 a6,6 0 0 1 6,-6"/></clipPath></defs><mask id="satori_om-id-2-1-1-3"><rect x="401" y="85" width="76" height="23" fill="#fff" mask="url(#satori_om-id)"/><path width="78" height="25" fill="none" stroke="#000" stroke-width="2" d="M401.757,85.757 A6,6 0 0 1 406,84 h66 a6,6 0 0 1 6,6 v13 a6,6 0 0 1 -6,6 h-66 a6,6 0 0 1 -6,-6 v-13 A6,6 0 0 1 401.757,85.757"/></mask><path x="400" y="84" width="78" height="25" fill="#60a5fa15" d="M406,84 h66 a6,6 0 0 1 6,6 v13 a6,6 0 0 1 -6,6 h-66 a6,6 0 0 1 -6,-6 v-13 a6,6 0 0 1 6,-6" clip-path="url(#satori_cp-id)" mask="url(#satori_om-id)"/><path width="78" height="25" clip-path="url(#satori_bc-id-2-1-1-3)" fill="none" stroke="#60a5fa35" stroke-width="2" d="M401.757,85.757 A6,6 0 0 1 406,84 h66 a6,6 0 0 1 6,6 v13 a6,6 0 0 1 -6,6 h-66 a6,6 0 0 1 -6,-6 v-13 A6,6 0 0 1 401.757,85.757"/><g mask="url(#satori_om-id)" clip-path="url(#satori_cp-id)"><path fill="rgba(225,220,255,0.85)" d="M418.6 101.1L418.6 101.1Q417.5 101.1 416.5 100.6Q415.6 100.1 415.1 99.1Q414.6 98.1 414.6 96.6L414.6 96.6Q414.6 95.2 415.1 94.2Q415.6 93.2 416.5 92.7Q417.5 92.2 418.6 92.2L418.6 92.2Q419.8 92.2 420.7 92.7Q421.6 93.2 422.2 94.2Q422.7 95.2 422.7 96.6L422.7 96.6Q422.7 98.1 422.2 99.1Q421.6 100.1 420.7 100.6Q419.8 101.1 418.6 101.1ZM418.6 99.5L418.6 99.5Q419.3 99.5 419.8 99.2Q420.3 98.9 420.6 98.2Q420.9 97.6 420.9 96.6L420.9 96.6Q420.9 95.7 420.6 95.0Q420.3 94.4 419.8 94.1Q419.3 93.7 418.6 93.7L418.6 93.7Q417.9 93.7 417.4 94.1Q416.9 94.4 416.6 95.1Q416.4 95.7 416.4 96.6L416.4 96.6Q416.4 97.6 416.6 98.2Q416.9 98.9 417.4 99.2Q417.9 99.5 418.6 99.5ZM425.8 103.4L424.0 103.4L424.0 94.4L425.7 94.4L425.7 95.6L425.8 95.6Q425.9 95.3 426.2 95.0Q426.4 94.7 426.8 94.6Q427.1 94.4 427.7 94.4L427.7 94.4Q428.4 94.4 429.0 94.7Q429.6 95.1 430.0 95.9Q430.3 96.6 430.3 97.7L430.3 97.7Q430.3 98.8 430.0 99.6Q429.6 100.3 429.0 100.7Q428.4 101.1 427.7 101.1L427.7 101.1Q427.1 101.1 426.8 100.9Q426.4 100.7 426.2 100.5Q425.9 100.2 425.8 100.0L425.8 100.0L425.8 100.0L425.8 103.4ZM427.1 99.7L427.1 99.7Q427.6 99.7 427.9 99.4Q428.2 99.2 428.4 98.8Q428.5 98.3 428.5 97.7L428.5 97.7Q428.5 97.2 428.4 96.7Q428.2 96.3 427.9 96.0Q427.6 95.8 427.1 95.8L427.1 95.8Q426.7 95.8 426.4 96.0Q426.0 96.3 425.9 96.7Q425.7 97.1 425.7 97.7L425.7 97.7Q425.7 98.3 425.9 98.8Q426.0 99.2 426.4 99.5Q426.7 99.7 427.1 99.7ZM434.5 101.1L434.5 101.1Q433.5 101.1 432.8 100.7Q432.1 100.3 431.7 99.6Q431.3 98.8 431.3 97.8L431.3 97.8Q431.3 96.7 431.7 96.0Q432.1 95.2 432.8 94.8Q433.5 94.4 434.4 94.4L434.4 94.4Q435.1 94.4 435.6 94.6Q436.2 94.8 436.6 95.2Q437.0 95.6 437.3 96.2Q437.5 96.8 437.5 97.7L437.5 97.7L437.5 98.2L433.0 98.2Q433.0 98.7 433.2 99.0L433.2 99.0Q433.4 99.4 433.7 99.6Q434.1 99.8 434.5 99.8L434.5 99.8Q434.9 99.8 435.1 99.7Q435.4 99.6 435.5 99.5Q435.7 99.3 435.8 99.0L435.8 99.0L437.4 99.3Q437.3 99.9 436.9 100.3Q436.5 100.7 435.9 100.9Q435.3 101.1 434.5 101.1ZM433.0 97.1L433.0 97.1L435.8 97.1Q435.8 96.8 435.7 96.5L435.7 96.5Q435.5 96.1 435.2 95.9Q434.9 95.7 434.4 95.7L434.4 95.7Q434.0 95.7 433.7 95.9Q433.4 96.1 433.2 96.5L433.2 96.5Q433.1 96.7 433.0 97.1ZM440.5 97.2L440.5 97.2L440.5 101L438.7 101L438.7 94.4L440.4 94.4L440.4 95.8Q440.6 95.2 441.1 94.8L441.1 94.8Q441.6 94.4 442.4 94.4L442.4 94.4Q443.1 94.4 443.6 94.7Q444.1 95.0 444.4 95.5Q444.7 96.1 444.7 96.8L444.7 96.8L444.7 101L442.9 101L442.9 97.1Q442.9 96.5 442.6 96.2Q442.3 95.8 441.7 95.8L441.7 95.8Q441.4 95.8 441.1 96.0Q440.8 96.2 440.6 96.5Q440.5 96.8 440.5 97.2ZM450.0 101.1L450.0 101.1Q448.9 101.1 448.0 100.6Q447.0 100.1 446.5 99.1Q446.0 98.1 446.0 96.6L446.0 96.6Q446.0 95.2 446.5 94.2Q447.0 93.2 448.0 92.7Q448.9 92.2 450.0 92.2L450.0 92.2Q450.8 92.2 451.4 92.4Q452.1 92.6 452.6 93.0Q453.1 93.4 453.4 93.9Q453.7 94.5 453.8 95.3L453.8 95.3L452.0 95.3Q451.9 94.9 451.8 94.6Q451.6 94.3 451.3 94.1Q451.1 93.9 450.8 93.8Q450.4 93.7 450.1 93.7L450.1 93.7Q449.4 93.7 448.9 94.1Q448.4 94.4 448.1 95.1Q447.8 95.7 447.8 96.6L447.8 96.6Q447.8 97.6 448.1 98.2Q448.4 98.9 448.9 99.2Q449.4 99.5 450.1 99.5L450.1 99.5Q450.4 99.5 450.8 99.4Q451.1 99.3 451.3 99.1Q451.6 98.9 451.8 98.7Q451.9 98.4 452.0 98.0L452.0 98.0L453.8 98.0Q453.7 98.6 453.4 99.2Q453.1 99.7 452.7 100.2Q452.2 100.6 451.5 100.9Q450.9 101.1 450.0 101.1ZM460.0 101L457.7 101L454.6 92.3L456.6 92.3L458.0 96.5Q458.2 97.3 458.5 98.2L458.5 98.2Q458.7 98.9 458.8 99.6L458.8 99.6Q459.0 98.9 459.2 98.2L459.2 98.2Q459.4 97.3 459.7 96.5L459.7 96.5L461.0 92.3L463.0 92.3L460.0 101Z "/></g><defs><clipPath id="satori_bc-id-2-1-1-4" clip-path="url(#satori_cp-id)"><path x="485" y="84" width="70" height="25" d="M491,84 h58 a6,6 0 0 1 6,6 v13 a6,6 0 0 1 -6,6 h-58 a6,6 0 0 1 -6,-6 v-13 a6,6 0 0 1 6,-6"/></clipPath></defs><mask id="satori_om-id-2-1-1-4"><rect x="486" y="85" width="68" height="23" fill="#fff" mask="url(#satori_om-id)"/><path width="70" height="25" fill="none" stroke="#000" stroke-width="2" d="M486.757,85.757 A6,6 0 0 1 491,84 h58 a6,6 0 0 1 6,6 v13 a6,6 0 0 1 -6,6 h-58 a6,6 0 0 1 -6,-6 v-13 A6,6 0 0 1 486.757,85.757"/></mask><path x="485" y="84" width="70" height="25" fill="#60a5fa15" d="M491,84 h58 a6,6 0 0 1 6,6 v13 a6,6 0 0 1 -6,6 h-58 a6,6 0 0 1 -6,-6 v-13 a6,6 0 0 1 6,-6" clip-path="url(#satori_cp-id)" mask="url(#satori_om-id)"/><path width="70" height="25" clip-path="url(#satori_bc-id-2-1-1-4)" fill="none" stroke="#60a5fa35" stroke-width="2" d="M486.757,85.757 A6,6 0 0 1 491,84 h58 a6,6 0 0 1 6,6 v13 a6,6 0 0 1 -6,6 h-58 a6,6 0 0 1 -6,-6 v-13 A6,6 0 0 1 486.757,85.757"/><g mask="url(#satori_om-id)" clip-path="url(#satori_cp-id)"><path fill="rgba(225,220,255,0.85)" d="M502.9 101L502.9 101L499.8 101L499.8 92.3L502.9 92.3Q504.2 92.3 505.1 92.8Q506.1 93.3 506.6 94.3Q507.1 95.3 507.1 96.6L507.1 96.6Q507.1 98.0 506.6 99.0Q506.1 100.0 505.1 100.5Q504.2 101 502.9 101ZM501.6 93.8L501.6 99.5L502.8 99.5Q503.6 99.5 504.2 99.2Q504.8 98.9 505.0 98.2Q505.3 97.6 505.3 96.6L505.3 96.6Q505.3 95.7 505.0 95.0Q504.8 94.4 504.2 94.1Q503.6 93.8 502.8 93.8L502.8 93.8L501.6 93.8ZM508.4 101.3L508.4 94.4L510.2 94.4L510.2 101.3Q510.2 102.1 509.9 102.5Q509.6 103.0 509.0 103.2Q508.5 103.4 507.7 103.4L507.7 103.4L507.4 103.4L507.4 102.1L507.6 102.1Q508.1 102.1 508.2 101.9Q508.4 101.7 508.4 101.3L508.4 101.3ZM509.3 93.6L509.3 93.6Q508.9 93.6 508.6 93.3Q508.3 93.1 508.3 92.7L508.3 92.7Q508.3 92.3 508.6 92.1Q508.9 91.8 509.3 91.8L509.3 91.8Q509.7 91.8 510.0 92.0Q510.3 92.3 510.3 92.7L510.3 92.7Q510.3 93.1 510.0 93.3Q509.7 93.6 509.3 93.6ZM513.5 101.1L513.5 101.1Q512.9 101.1 512.4 100.9Q511.9 100.7 511.6 100.3Q511.3 99.8 511.3 99.2L511.3 99.2Q511.3 98.6 511.5 98.3Q511.7 97.9 512.1 97.7Q512.4 97.4 512.9 97.3Q513.3 97.2 513.8 97.2L513.8 97.2Q514.4 97.1 514.7 97.0Q515.1 97.0 515.2 96.9Q515.4 96.8 515.4 96.6L515.4 96.6L515.4 96.5Q515.4 96.3 515.3 96.1Q515.1 95.9 514.9 95.8Q514.7 95.7 514.4 95.7L514.4 95.7Q514.0 95.7 513.8 95.8Q513.5 95.9 513.3 96.0Q513.2 96.2 513.1 96.4L513.1 96.4L511.5 96.2Q511.7 95.6 512.1 95.2Q512.5 94.8 513.0 94.6Q513.6 94.4 514.4 94.4L514.4 94.4Q514.9 94.4 515.4 94.5Q515.9 94.6 516.3 94.9Q516.7 95.1 516.9 95.6Q517.1 96.0 517.1 96.6L517.1 96.6L517.1 101L515.5 101L515.5 100.1L515.4 100.1Q515.3 100.4 515.0 100.6Q514.7 100.9 514.4 101.0Q514.0 101.1 513.5 101.1ZM514.0 99.9L514.0 99.9Q514.4 99.9 514.7 99.7Q515.0 99.6 515.2 99.3Q515.4 99.0 515.4 98.7L515.4 98.7L515.4 97.9Q515.3 98.0 515.2 98.1Q515.0 98.1 514.8 98.1Q514.6 98.2 514.4 98.2Q514.2 98.2 514.1 98.2L514.1 98.2Q513.8 98.3 513.5 98.4Q513.3 98.5 513.1 98.7Q513.0 98.8 513.0 99.1L513.0 99.1Q513.0 99.4 513.1 99.5Q513.3 99.7 513.5 99.8Q513.7 99.9 514.0 99.9ZM520.4 97.2L520.4 97.2L520.4 101L518.6 101L518.6 94.4L520.3 94.4L520.3 95.8Q520.6 95.2 521.0 94.8L521.0 94.8Q521.5 94.4 522.4 94.4L522.4 94.4Q523.0 94.4 523.5 94.7Q524.0 95.0 524.3 95.5Q524.6 96.1 524.6 96.8L524.6 96.8L524.6 101L522.8 101L522.8 97.1Q522.8 96.5 522.5 96.2Q522.2 95.8 521.7 95.8L521.7 95.8Q521.3 95.8 521.0 96.0Q520.7 96.2 520.6 96.5Q520.4 96.8 520.4 97.2ZM529.0 103.6L529.0 103.6Q528.2 103.6 527.6 103.4Q527.0 103.2 526.6 102.8Q526.2 102.4 526.1 102.0L526.1 102.0L527.6 101.6Q527.7 101.7 527.8 101.9Q528.0 102.1 528.3 102.2Q528.6 102.3 529.0 102.3L529.0 102.3Q529.7 102.3 530.1 102.0Q530.4 101.7 530.4 101.0L530.4 101.0L530.4 99.8L530.3 99.8Q530.2 100.1 530.0 100.3Q529.8 100.6 529.4 100.8Q529.0 100.9 528.5 100.9L528.5 100.9Q527.8 100.9 527.2 100.6Q526.6 100.2 526.2 99.5Q525.8 98.8 525.8 97.7L525.8 97.7Q525.8 96.6 526.2 95.9Q526.6 95.1 527.2 94.7Q527.8 94.4 528.5 94.4L528.5 94.4Q529.1 94.4 529.4 94.6Q529.8 94.7 530.0 95.0Q530.3 95.3 530.4 95.6L530.4 95.6L530.5 95.6L530.5 94.4L532.2 94.4L532.2 100.9Q532.2 101.8 531.8 102.4Q531.4 103.0 530.7 103.3Q529.9 103.6 529.0 103.6ZM529.0 99.6L529.0 99.6Q529.5 99.6 529.8 99.3Q530.1 99.1 530.3 98.7Q530.5 98.3 530.5 97.7L530.5 97.7Q530.5 97.1 530.3 96.7Q530.1 96.3 529.8 96.0Q529.5 95.8 529.0 95.8L529.0 95.8Q528.6 95.8 528.3 96.0Q528.0 96.3 527.8 96.7Q527.6 97.1 527.6 97.7L527.6 97.7Q527.6 98.3 527.8 98.7Q528.0 99.1 528.3 99.3Q528.6 99.6 529.0 99.6ZM536.6 101.1L536.6 101.1Q535.6 101.1 534.9 100.7Q534.2 100.3 533.8 99.5Q533.4 98.8 533.4 97.8L533.4 97.8Q533.4 96.7 533.8 96.0Q534.2 95.2 534.9 94.8Q535.6 94.4 536.6 94.4L536.6 94.4Q537.6 94.4 538.3 94.8Q539.0 95.2 539.4 96.0Q539.8 96.7 539.8 97.8L539.8 97.8Q539.8 98.8 539.4 99.5Q539.0 100.3 538.3 100.7Q537.6 101.1 536.6 101.1ZM536.6 99.7L536.6 99.7Q537.1 99.7 537.4 99.5Q537.7 99.2 537.9 98.8Q538.0 98.3 538.0 97.7L538.0 97.7Q538.0 97.2 537.9 96.7Q537.7 96.3 537.4 96.0Q537.1 95.8 536.6 95.8L536.6 95.8Q536.1 95.8 535.8 96.0Q535.5 96.3 535.4 96.7Q535.2 97.2 535.2 97.7L535.2 97.7Q535.2 98.3 535.4 98.8Q535.5 99.2 535.8 99.5Q536.1 99.7 536.6 99.7Z "/></g></svg>