<!-- Generated by readme-aura https://github.com/collectioneur/readme-aura -->
<svg width="110" height="44" viewBox="0 0 110 44" xmlns="http://www.w3.org/2000/svg"><mask id="satori_om-id"><rect x="0" y="0" width="110" height="44" fill="#fff"/></mask><path x="0" y="0" width="110" height="44" fill="#0a1e0a" d="M22,0 h66 a22,22 0 0 1 22,22 v0 a22,22 0 0 1 -22,22 h-66 a22,22 0 0 1 -22,-22 v0 a22,22 0 0 1 22,-22"/><clipPath id="satori_cp-id-0"><rect x="0" y="0" width="110" height="44"/></clipPath><mask id="satori_om-id-0"><rect x="0" y="0" width="110" height="44" fill="#fff"/></mask><svg x="0" y="0" width="110" height="44" preserveAspectRatio="none" clip-path="url(#satori_cp-id-0)" mask="url(#satori_om-id-0)"><defs><linearGradient id="smb-grad-Nodejs" gradientUnits="objectBoundingBox" x1="0" y1="0" x2="1" y2="1"><stop offset="0%" stop-color="#ffffff"></stop><stop offset="15%" stop-color="#0a1e0a"></stop><stop offset="30%" stop-color="#cccccc"></stop><stop offset="50%" stop-color="#339933"></stop><stop offset="65%" stop-color="#0a1e0a"></stop><stop offset="80%" stop-color="#888888"></stop><stop offset="100%" stop-color="#444444"></stop><animateTransform attributeName="gradientTransform" type="rotate" from="0 0.5 0.5" to="360 0.5 0.5" dur="8s" repeatCount="indefinite"></animateTransform></linearGradient></defs><rect x="1.25" y="1.25" width="107.5" height="41.5" rx="20.75" ry="20.75" fill="none" stroke="url(#smb-grad-Nodejs)" stroke-width="2" stroke-linecap="round" stroke-linejoin="round"></rect><rect x="0.25" y="0.25" width="109.5" height="43.5" rx="21.75" ry="21.75" fill="none" stroke="#AAAAAA" stroke-width="0.5" stroke-linecap="round" stroke-linejoin="round"></rect></svg><mask id="satori_om-id-0-0"><rect x="0" y="0" width="0" height="44" fill="#fff"/></mask><mask id="satori_om-id-0-0-0"><rect x="0" y="0" width="0" height="44" fill="#fff"/></mask><mask id="satori_om-id-0-0-0-0"><rect x="0" y="0" width="0" height="44" fill="#fff"/></mask><mask id="satori_om-id-0-0-0-1"><rect x="0" y="0" width="0" height="44" fill="#fff"/></mask><mask id="satori_om-id-0-0-0-2"><rect x="0" y="0" width="0" height="44" fill="#fff"/></mask><mask id="satori_om-id-0-0-0-3"><rect x="0" y="0" width="0" height="44" fill="#fff"/></mask><mask id="satori_om-id-0-0-0-4"><rect x="0" y="0" width="0" height="44" fill="#fff"/></mask><mask id="satori_om-id-0-0-0-5"><rect x="0" y="0" width="0" height="44" fill="#fff"/></mask><mask id="satori_om-id-0-0-0-6"><rect x="0" y="0" width="0" height="44" fill="#fff"/></mask><mask id="satori_om-id-0-0-0-7"><rect x="0" y="0" width="0" height="44" fill="#fff"/></mask><mask id="satori_om-id-0-1"><rect x="0" y="0" width="0" height="44" fill="#fff"/></mask><mask id="satori_om-id-0-2"><rect x="0" y="0" width="0" height="44" fill="#fff"/></mask><mask id="satori_om-id-1"><rect x="0" y="0" width="110" height="44" fill="#fff"/></mask><mask id="satori_om-id-1-0"><rect x="18" y="11" width="22" height="22" fill="#fff"/></mask><mask id="satori_om-id-1-1"><rect x="45" y="14" width="48" height="16" fill="#fff"/></mask><g  ><path fill="#ffffff" d="M47.8 27L45.9 27L45.9 17.5L48.0 17.5L51.0 22.3Q51.2 22.7 51.5 23.1Q51.7 23.6 52.0 24.1L52.0 24.1Q52.1 24.3 52.2 24.6L52.2 24.6Q52.2 24.4 52.2 24.1L52.2 24.1Q52.1 23.6 52.1 23.0Q52.1 22.5 52.1 22.1L52.1 22.1L52.1 17.5L54.1 17.5L54.1 27L51.9 27L49.2 22.7Q48.9 22.2 48.6 21.7Q48.4 21.2 48.1 20.7L48.1 20.7Q47.9 20.4 47.7 19.9L47.7 19.9Q47.7 20.3 47.8 20.7L47.8 20.7Q47.8 21.3 47.8 21.8Q47.8 22.3 47.8 22.7L47.8 22.7L47.8 27ZM58.7 27.1L58.7 27.1Q57.6 27.1 56.8 26.7Q56.1 26.2 55.6 25.4Q55.2 24.6 55.2 23.5L55.2 23.5Q55.2 22.4 55.6 21.6Q56.1 20.7 56.8 20.3Q57.6 19.8 58.7 19.8L58.7 19.8Q59.8 19.8 60.5 20.3Q61.3 20.7 61.7 21.6Q62.2 22.4 62.2 23.5L62.2 23.5Q62.2 24.6 61.7 25.4Q61.3 26.2 60.5 26.7Q59.8 27.1 58.7 27.1ZM58.7 25.6L58.7 25.6Q59.2 25.6 59.5 25.4Q59.9 25.1 60.1 24.6Q60.2 24.1 60.2 23.5L60.2 23.5Q60.2 22.8 60.1 22.4Q59.9 21.9 59.5 21.6Q59.2 21.3 58.7 21.3L58.7 21.3Q58.2 21.3 57.8 21.6Q57.5 21.9 57.3 22.4Q57.2 22.8 57.2 23.5L57.2 23.5Q57.2 24.1 57.3 24.6Q57.5 25.1 57.8 25.4Q58.2 25.6 58.7 25.6ZM65.9 27.1L65.9 27.1Q65.1 27.1 64.4 26.7Q63.8 26.3 63.4 25.5Q63.0 24.6 63.0 23.5L63.0 23.5Q63.0 22.3 63.4 21.4Q63.8 20.6 64.4 20.2Q65.1 19.8 65.9 19.8L65.9 19.8Q66.5 19.8 66.9 20.0Q67.3 20.2 67.5 20.5Q67.8 20.8 67.9 21.1L67.9 21.1L68.0 21.1L68.0 17.5L69.9 17.5L69.9 27L68.0 27L68.0 25.9L67.9 25.9Q67.8 26.1 67.5 26.4Q67.3 26.7 66.9 26.9Q66.5 27.1 65.9 27.1ZM66.5 25.6L66.5 25.6Q67.0 25.6 67.3 25.3Q67.6 25.1 67.8 24.6Q68.0 24.1 68.0 23.5L68.0 23.5Q68.0 22.8 67.8 22.3Q67.6 21.9 67.3 21.6Q67.0 21.3 66.5 21.3L66.5 21.3Q66.0 21.3 65.6 21.6Q65.3 21.9 65.1 22.4Q65.0 22.8 65.0 23.5L65.0 23.5Q65.0 24.1 65.1 24.6Q65.3 25.0 65.6 25.3Q66.0 25.6 66.5 25.6ZM74.5 27.1L74.5 27.1Q73.4 27.1 72.6 26.7Q71.8 26.3 71.4 25.4Q71.0 24.6 71.0 23.5L71.0 23.5Q71.0 22.4 71.4 21.6Q71.8 20.7 72.6 20.3Q73.4 19.8 74.4 19.8L74.4 19.8Q75.1 19.8 75.7 20.0Q76.3 20.3 76.8 20.7Q77.2 21.2 77.5 21.8Q77.7 22.5 77.7 23.4L77.7 23.4L77.7 23.9L72.9 23.9Q72.9 24.5 73.1 24.9L73.1 24.9Q73.3 25.3 73.7 25.5Q74.0 25.7 74.5 25.7L74.5 25.7Q74.9 25.7 75.1 25.6Q75.4 25.5 75.6 25.3Q75.8 25.1 75.9 24.9L75.9 24.9L77.6 25.2Q77.5 25.8 77.0 26.2Q76.6 26.7 76.0 26.9Q75.3 27.1 74.5 27.1ZM72.9 22.8L72.9 22.8L75.9 22.8Q75.9 22.4 75.7 22.1L75.7 22.1Q75.6 21.7 75.2 21.5Q74.9 21.2 74.4 21.2L74.4 21.2Q73.9 21.2 73.6 21.5Q73.2 21.7 73.1 22.1L73.1 22.1Q72.9 22.4 72.9 22.8ZM80.2 27.1L80.2 27.1Q79.7 27.1 79.4 26.8Q79.1 26.5 79.1 26.0L79.1 26.0Q79.1 25.6 79.4 25.3Q79.7 24.9 80.2 24.9L80.2 24.9Q80.7 24.9 81.0 25.3Q81.3 25.6 81.3 26.0L81.3 26.0Q81.3 26.5 81.0 26.8Q80.7 27.1 80.2 27.1ZM83.0 27.3L83.0 19.9L84.9 19.9L84.9 27.4Q84.9 28.2 84.6 28.7Q84.2 29.2 83.7 29.4Q83.1 29.7 82.2 29.7L82.2 29.7L81.8 29.7L81.8 28.2L82.1 28.2Q82.6 28.2 82.8 27.9Q83.0 27.7 83.0 27.3L83.0 27.3ZM83.9 19.0L83.9 19.0Q83.5 19.0 83.2 18.7Q82.9 18.4 82.9 18.0L82.9 18.0Q82.9 17.6 83.2 17.3Q83.5 17.0 83.9 17.0L83.9 17.0Q84.4 17.0 84.7 17.3Q85.0 17.6 85.0 18.0L85.0 18.0Q85.0 18.4 84.7 18.7Q84.4 19.0 83.9 19.0ZM89.1 27.1L89.1 27.1Q88.3 27.1 87.6 26.9Q86.9 26.7 86.5 26.2Q86.1 25.7 86.0 25.1L86.0 25.1L87.8 24.8Q87.9 25.2 88.2 25.5Q88.6 25.7 89.2 25.7L89.2 25.7Q89.7 25.7 90.0 25.5Q90.3 25.3 90.3 25.0L90.3 25.0Q90.3 24.7 90.1 24.6Q89.9 24.4 89.4 24.3L89.4 24.3L88.2 24.0Q87.2 23.8 86.7 23.3Q86.2 22.8 86.2 22.0L86.2 22.0Q86.2 21.3 86.5 20.8Q86.9 20.3 87.6 20.1Q88.2 19.8 89.1 19.8L89.1 19.8Q90.0 19.8 90.6 20.0Q91.2 20.3 91.6 20.7Q92.0 21.1 92.1 21.7L92.1 21.7L90.4 22.0Q90.3 21.6 90.0 21.4Q89.7 21.2 89.2 21.2L89.2 21.2Q88.7 21.2 88.4 21.4Q88.1 21.6 88.1 21.9L88.1 21.9Q88.1 22.2 88.3 22.4Q88.5 22.5 89.0 22.6L89.0 22.6L90.3 22.9Q91.3 23.1 91.8 23.6Q92.3 24.0 92.3 24.8L92.3 24.8Q92.3 25.5 91.9 26.0Q91.5 26.6 90.8 26.8Q90.0 27.1 89.1 27.1Z "/></g></svg>