<!-- Generated by readme-aura https://github.com/collectioneur/readme-aura -->
<svg width="860" height="80" viewBox="0 0 860 80" xmlns="http://www.w3.org/2000/svg"><defs><clipPath id="satori_bc-id"><path x="0" y="0" width="860" height="80" d="M12,0 h836 a12,12 0 0 1 12,12 v56 a12,12 0 0 1 -12,12 h-836 a12,12 0 0 1 -12,-12 v-56 a12,12 0 0 1 12,-12"/></clipPath></defs><clipPath id="satori_cp-id"><path x="0" y="0" width="860" height="80" d="M12,0 h836 a12,12 0 0 1 12,12 v56 a12,12 0 0 1 -12,12 h-836 a12,12 0 0 1 -12,-12 v-56 a12,12 0 0 1 12,-12"/></clipPath><mask id="satori_om-id"><rect x="1" y="1" width="858" height="78" fill="#fff"/><path width="860" height="80" fill="none" stroke="#000" stroke-width="2" d="M3.5150000000000006,3.5150000000000006 A12,12 0 0 1 12,0 h836 a12,12 0 0 1 12,12 v56 a12,12 0 0 1 -12,12 h-836 a12,12 0 0 1 -12,-12 v-56 A12,12 0 0 1 3.5150000000000006,3.5150000000000006"/></mask><path x="0" y="0" width="860" height="80" fill="#08080c" d="M12,0 h836 a12,12 0 0 1 12,12 v56 a12,12 0 0 1 -12,12 h-836 a12,12 0 0 1 -12,-12 v-56 a12,12 0 0 1 12,-12"/><path width="860" height="80" clip-path="url(#satori_bc-id)" fill="none" stroke="rgba(110,80,220,0.2)" stroke-width="2" d="M3.5150000000000006,3.5150000000000006 A12,12 0 0 1 12,0 h836 a12,12 0 0 1 12,12 v56 a12,12 0 0 1 -12,12 h-836 a12,12 0 0 1 -12,-12 v-56 A12,12 0 0 1 3.5150000000000006,3.5150000000000006"/><clipPath id="satori_cp-id-0" clip-path="url(#satori_cp-id)"><rect x="1" y="1" width="860" height="80"/></clipPath><mask id="satori_om-id-0"><rect x="1" y="1" width="860" height="80" fill="#fff" mask="url(#satori_om-id)"/></mask><svg x="1" y="1" width="860" height="80" preserveAspectRatio="none" clip-path="url(#satori_cp-id-0)" mask="url(#satori_om-id-0)"><defs><radialGradient id="bg3" cx="50%" cy="50%" r="50%"><stop offset="0%" stop-color="rgba(240,40,140,0.25)"></stop><stop offset="100%" stop-color="transparent"></stop></radialGradient></defs><rect width="860" height="80" fill="url(#bg3)"></rect><style>
 @keyframes pulse-text3 { 0%, 100% { text-shadow: 0 0 10px rgba(240,40,140,0.5); } 50% { text-shadow: 0 0 25px rgba(255,80,180,0.9); } } #title3 { animation: pulse-text3 3s infinite; } 
</style>
</svg><mask id="satori_om-id-0-0"><rect x="1" y="1" width="0" height="80" fill="#fff" mask="url(#satori_om-id)"/></mask><mask id="satori_om-id-0-0-0"><rect x="1" y="1" width="0" height="80" fill="#fff" mask="url(#satori_om-id)"/></mask><mask id="satori_om-id-0-0-0-0"><rect x="1" y="1" width="0" height="80" fill="#fff" mask="url(#satori_om-id)"/></mask><mask id="satori_om-id-0-0-0-1"><rect x="1" y="1" width="0" height="80" fill="#fff" mask="url(#satori_om-id)"/></mask><mask id="satori_om-id-0-1"><rect x="1" y="1" width="0" height="80" fill="#fff" mask="url(#satori_om-id)"/></mask><mask id="satori_om-id-1"><rect x="264" y="25" width="333" height="31" fill="#fff" mask="url(#satori_om-id)"/></mask><g mask="url(#satori_om-id)" clip-path="url(#satori_cp-id)"><path fill="#fff" d="M270.7 34.3L265.0 34.3L265.0 31.1L280.4 31.1L280.4 34.3L274.6 34.3L274.6 50L270.7 50L270.7 34.3ZM298.8 50L286.1 50L286.1 31.1L298.7 31.1L298.7 34.3L289.9 34.3L289.9 38.9L298.1 38.9L298.1 42.0L289.9 42.0L289.9 46.8L298.8 46.8L298.8 50ZM313.1 50.3L313.1 50.3Q310.6 50.3 308.6 49.1Q306.6 48.0 305.5 45.8Q304.3 43.6 304.3 40.6L304.3 40.6Q304.3 37.5 305.5 35.3Q306.7 33.1 308.6 32.0Q310.6 30.8 313.1 30.8L313.1 30.8Q314.7 30.8 316.1 31.3Q317.5 31.7 318.6 32.6Q319.7 33.5 320.4 34.7Q321.0 36.0 321.3 37.6L321.3 37.6L317.3 37.6Q317.2 36.8 316.9 36.2Q316.5 35.6 316.0 35.1Q315.4 34.7 314.7 34.5Q314.0 34.3 313.2 34.3L313.2 34.3Q311.7 34.3 310.6 35.0Q309.5 35.7 308.9 37.1Q308.3 38.5 308.3 40.6L308.3 40.6Q308.3 42.6 308.9 44.0Q309.5 45.4 310.6 46.1Q311.7 46.8 313.2 46.8L313.2 46.8Q314.0 46.8 314.7 46.6Q315.4 46.4 315.9 45.9Q316.5 45.5 316.9 44.9Q317.2 44.3 317.4 43.5L317.4 43.5L321.3 43.5Q321.1 44.8 320.5 46.1Q319.9 47.3 318.8 48.2Q317.8 49.2 316.4 49.7Q314.9 50.3 313.1 50.3ZM331.0 50L327.1 50L327.1 31.1L331.0 31.1L331.0 38.7L339.2 38.7L339.2 31.1L343.1 31.1L343.1 50L339.2 50L339.2 41.9L331.0 41.9L331.0 50ZM353.5 50L349.5 50L349.5 31.1L353.8 31.1L359.8 40.7Q360.3 41.4 360.7 42.3Q361.2 43.1 361.7 44.2L361.7 44.2Q361.9 44.7 362.2 45.3L362.2 45.3Q362.2 44.8 362.1 44.3L362.1 44.3Q362.0 43.1 362.0 42.0Q361.9 40.9 361.9 40.2L361.9 40.2L361.9 31.1L365.9 31.1L365.9 50L361.6 50L356.1 41.3Q355.5 40.3 355.0 39.4Q354.5 38.5 354.0 37.4L354.0 37.4Q353.6 36.7 353.2 35.9L353.2 35.9Q353.3 36.6 353.3 37.4L353.3 37.4Q353.4 38.6 353.4 39.6Q353.5 40.7 353.5 41.3L353.5 41.3L353.5 50ZM372.3 31.1L376.2 31.1L376.2 50L372.3 50L372.3 31.1ZM390.9 50.3L390.9 50.3Q388.4 50.3 386.4 49.1Q384.4 48.0 383.3 45.8Q382.1 43.6 382.1 40.6L382.1 40.6Q382.1 37.5 383.3 35.3Q384.4 33.1 386.4 32.0Q388.4 30.8 390.9 30.8L390.9 30.8Q392.5 30.8 393.9 31.3Q395.3 31.7 396.4 32.6Q397.5 33.5 398.1 34.7Q398.8 36.0 399.0 37.6L399.0 37.6L395.1 37.6Q395.0 36.8 394.6 36.2Q394.3 35.6 393.7 35.1Q393.2 34.7 392.5 34.5Q391.8 34.3 391.0 34.3L391.0 34.3Q389.5 34.3 388.4 35.0Q387.3 35.7 386.7 37.1Q386.1 38.5 386.1 40.6L386.1 40.6Q386.1 42.6 386.7 44.0Q387.3 45.4 388.4 46.1Q389.5 46.8 391.0 46.8L391.0 46.8Q391.8 46.8 392.5 46.6Q393.2 46.4 393.7 45.9Q394.3 45.5 394.6 44.9Q395.0 44.3 395.1 43.5L395.1 43.5L399.1 43.5Q398.9 44.8 398.3 46.1Q397.6 47.3 396.6 48.2Q395.6 49.2 394.1 49.7Q392.7 50.3 390.9 50.3ZM408.1 50L403.8 50L410.2 31.1L415.3 31.1L421.9 50L417.6 50L416.2 45.6L409.5 45.6L408.1 50ZM410.4 42.6L415.2 42.6L414.6 40.9Q414.1 39.1 413.5 37L413.5 37Q413.1 35.6 412.7 34.1L412.7 34.1Q412.4 35.7 412.0 37.0L412.0 37.0Q411.5 39.1 411.0 40.9L411.0 40.9L410.4 42.6ZM439.3 50L427.3 50L427.3 31.1L431.2 31.1L431.2 46.8L439.3 46.8L439.3 50Z M457.3 50L453.0 50L459.5 31.1L464.6 31.1L471.2 50L466.9 50L465.5 45.6L458.7 45.6L457.3 50ZM459.7 42.6L464.4 42.6L463.9 40.9Q463.3 39.1 462.8 37L462.8 37Q462.4 35.6 462.0 34.1L462.0 34.1Q461.6 35.7 461.3 37.0L461.3 37.0Q460.8 39.1 460.2 40.9L460.2 40.9L459.7 42.6ZM480.4 50L476.5 50L476.5 31.1L483.9 31.1Q486.1 31.1 487.6 31.8Q489.1 32.6 489.9 34.0Q490.7 35.4 490.7 37.2Q490.7 39.1 489.9 40.5Q489.1 41.8 487.6 42.5L487.6 42.5Q487.4 42.6 487.3 42.6L487.3 42.6L491.4 50L487.1 50L483.5 43.2L480.4 43.2L480.4 50ZM480.4 34.3L480.4 40.1L483.2 40.1Q484.4 40.1 485.2 39.8Q485.9 39.5 486.3 38.8Q486.7 38.2 486.7 37.2L486.7 37.2Q486.7 36.3 486.3 35.6Q485.9 35.0 485.2 34.6Q484.4 34.3 483.2 34.3L483.2 34.3L480.4 34.3ZM503.6 50.3L503.6 50.3Q501.3 50.3 499.6 49.6Q497.9 48.9 497.0 47.5Q496.0 46.1 496.0 44.1L496.0 44.1L499.8 44.1Q499.8 45.1 500.3 45.7Q500.8 46.4 501.7 46.7Q502.5 47.0 503.5 47.0L503.5 47.0Q504.6 47.0 505.3 46.7Q506.1 46.4 506.5 45.9Q507.0 45.3 507.0 44.6L507.0 44.6Q507.0 43.9 506.6 43.5Q506.2 43.1 505.5 42.8Q504.7 42.4 503.7 42.2L503.7 42.2L501.6 41.7Q499.2 41.1 497.9 39.8Q496.5 38.6 496.5 36.5L496.5 36.5Q496.5 34.8 497.4 33.5Q498.3 32.3 499.9 31.5Q501.6 30.8 503.6 30.8L503.6 30.8Q505.7 30.8 507.3 31.5Q508.8 32.3 509.7 33.5Q510.6 34.8 510.6 36.5L510.6 36.5L506.9 36.5Q506.8 35.3 505.9 34.7Q505.0 34.1 503.6 34.1L503.6 34.1Q502.6 34.1 501.9 34.4Q501.2 34.7 500.8 35.1Q500.5 35.6 500.5 36.3L500.5 36.3Q500.5 37.0 500.9 37.4Q501.3 37.9 502.0 38.2Q502.7 38.5 503.5 38.7L503.5 38.7L505.2 39.1Q506.4 39.3 507.4 39.8Q508.5 40.3 509.2 40.9Q510.0 41.6 510.4 42.5Q510.9 43.4 510.9 44.6L510.9 44.6Q510.9 46.3 510.0 47.6Q509.1 48.9 507.5 49.6Q505.9 50.3 503.6 50.3ZM529.3 50L516.6 50L516.6 31.1L529.3 31.1L529.3 34.3L520.5 34.3L520.5 38.9L528.6 38.9L528.6 42.0L520.5 42.0L520.5 46.8L529.3 46.8L529.3 50ZM539.4 50L535.4 50L535.4 31.1L539.8 31.1L545.7 40.7Q546.2 41.4 546.7 42.3Q547.1 43.1 547.6 44.2L547.6 44.2Q547.9 44.7 548.1 45.3L548.1 45.3Q548.1 44.8 548.0 44.3L548.0 44.3Q548.0 43.1 547.9 42.0Q547.9 40.9 547.9 40.2L547.9 40.2L547.9 31.1L551.8 31.1L551.8 50L547.5 50L542.1 41.3Q541.5 40.3 541.0 39.4Q540.5 38.5 539.9 37.4L539.9 37.4Q539.6 36.7 539.1 35.9L539.1 35.9Q539.2 36.6 539.2 37.4L539.2 37.4Q539.3 38.6 539.4 39.6Q539.4 40.7 539.4 41.3L539.4 41.3L539.4 50ZM561.4 50L557.2 50L563.6 31.1L568.7 31.1L575.3 50L571.0 50L569.6 45.6L562.9 45.6L561.4 50ZM563.8 42.6L568.6 42.6L568.0 40.9Q567.5 39.1 566.9 37L566.9 37Q566.5 35.6 566.1 34.1L566.1 34.1Q565.8 35.7 565.4 37.0L565.4 37.0Q564.9 39.1 564.4 40.9L564.4 40.9L563.8 42.6ZM592.7 50L580.7 50L580.7 31.1L584.5 31.1L584.5 46.8L592.7 46.8L592.7 50Z "/></g></svg>