<!-- Generated by readme-aura https://github.com/collectioneur/readme-aura -->
<svg width="135" height="44" viewBox="0 0 135 44" xmlns="http://www.w3.org/2000/svg"><mask id="satori_om-id"><rect x="0" y="0" width="135" height="44" fill="#fff"/></mask><path x="0" y="0" width="135" height="44" fill="#061925" d="M22,0 h91 a22,22 0 0 1 22,22 v0 a22,22 0 0 1 -22,22 h-91 a22,22 0 0 1 -22,-22 v0 a22,22 0 0 1 22,-22"/><clipPath id="satori_cp-id-0"><rect x="0" y="0" width="135" height="44"/></clipPath><mask id="satori_om-id-0"><rect x="0" y="0" width="135" height="44" fill="#fff"/></mask><svg x="0" y="0" width="135" height="44" preserveAspectRatio="none" clip-path="url(#satori_cp-id-0)" mask="url(#satori_om-id-0)"><defs><linearGradient id="smb-grad-Codeforces" gradientUnits="objectBoundingBox" x1="0" y1="0" x2="1" y2="1"><stop offset="0%" stop-color="#ffffff"></stop><stop offset="15%" stop-color="#061925"></stop><stop offset="30%" stop-color="#cccccc"></stop><stop offset="50%" stop-color="#1F8ACB"></stop><stop offset="65%" stop-color="#061925"></stop><stop offset="80%" stop-color="#888888"></stop><stop offset="100%" stop-color="#444444"></stop><animateTransform attributeName="gradientTransform" type="rotate" from="0 0.5 0.5" to="360 0.5 0.5" dur="8s" repeatCount="indefinite"></animateTransform></linearGradient></defs><rect x="1.25" y="1.25" width="132.5" height="41.5" rx="20.75" ry="20.75" fill="none" stroke="url(#smb-grad-Codeforces)" stroke-width="2" stroke-linecap="round" stroke-linejoin="round"></rect><rect x="0.25" y="0.25" width="134.5" height="43.5" rx="21.75" ry="21.75" fill="none" stroke="#AAAAAA" stroke-width="0.5" stroke-linecap="round" stroke-linejoin="round"></rect></svg><mask id="satori_om-id-0-0"><rect x="0" y="0" width="0" height="44" fill="#fff"/></mask><mask id="satori_om-id-0-0-0"><rect x="0" y="0" width="0" height="44" fill="#fff"/></mask><mask id="satori_om-id-0-0-0-0"><rect x="0" y="0" width="0" height="44" fill="#fff"/></mask><mask id="satori_om-id-0-0-0-1"><rect x="0" y="0" width="0" height="44" fill="#fff"/></mask><mask id="satori_om-id-0-0-0-2"><rect x="0" y="0" width="0" height="44" fill="#fff"/></mask><mask id="satori_om-id-0-0-0-3"><rect x="0" y="0" width="0" height="44" fill="#fff"/></mask><mask id="satori_om-id-0-0-0-4"><rect x="0" y="0" width="0" height="44" fill="#fff"/></mask><mask id="satori_om-id-0-0-0-5"><rect x="0" y="0" width="0" height="44" fill="#fff"/></mask><mask id="satori_om-id-0-0-0-6"><rect x="0" y="0" width="0" height="44" fill="#fff"/></mask><mask id="satori_om-id-0-0-0-7"><rect x="0" y="0" width="0" height="44" fill="#fff"/></mask><mask id="satori_om-id-0-1"><rect x="0" y="0" width="0" height="44" fill="#fff"/></mask><mask id="satori_om-id-0-2"><rect x="0" y="0" width="0" height="44" fill="#fff"/></mask><mask id="satori_om-id-1"><rect x="0" y="0" width="135" height="44" fill="#fff"/></mask><mask id="satori_om-id-1-0"><rect x="19" y="12" width="20" height="20" fill="#fff"/></mask><mask id="satori_om-id-1-1"><rect x="44" y="14" width="73" height="16" fill="#fff"/></mask><g  ><path fill="#ffffff" d="M49.0 27.1L49.0 27.1Q47.7 27.1 46.7 26.6Q45.7 26.0 45.2 24.9Q44.6 23.8 44.6 22.3L44.6 22.3Q44.6 20.7 45.2 19.6Q45.8 18.6 46.7 18.0Q47.7 17.4 49.0 17.4L49.0 17.4Q49.8 17.4 50.5 17.6Q51.2 17.9 51.7 18.3Q52.3 18.7 52.6 19.4Q53.0 20.0 53.1 20.8L53.1 20.8L51.1 20.8Q51.0 20.4 50.9 20.1Q50.7 19.8 50.4 19.6Q50.1 19.4 49.8 19.2Q49.4 19.1 49.0 19.1L49.0 19.1Q48.3 19.1 47.7 19.5Q47.2 19.9 46.9 20.6Q46.6 21.3 46.6 22.3L46.6 22.3Q46.6 23.3 46.9 24.0Q47.2 24.7 47.7 25.1Q48.3 25.4 49.0 25.4L49.0 25.4Q49.4 25.4 49.8 25.3Q50.1 25.2 50.4 25.0Q50.7 24.8 50.9 24.5Q51.0 24.1 51.1 23.8L51.1 23.8L53.1 23.8Q53.0 24.4 52.7 25.0Q52.4 25.6 51.8 26.1Q51.3 26.6 50.6 26.9Q49.9 27.1 49.0 27.1ZM57.4 27.1L57.4 27.1Q56.3 27.1 55.6 26.7Q54.8 26.2 54.4 25.4Q53.9 24.6 53.9 23.5L53.9 23.5Q53.9 22.4 54.4 21.6Q54.8 20.7 55.6 20.3Q56.3 19.8 57.4 19.8L57.4 19.8Q58.5 19.8 59.3 20.3Q60.0 20.7 60.5 21.6Q60.9 22.4 60.9 23.5L60.9 23.5Q60.9 24.6 60.5 25.4Q60.0 26.2 59.3 26.7Q58.5 27.1 57.4 27.1ZM57.4 25.6L57.4 25.6Q57.9 25.6 58.3 25.4Q58.6 25.1 58.8 24.6Q58.9 24.1 58.9 23.5L58.9 23.5Q58.9 22.8 58.8 22.4Q58.6 21.9 58.3 21.6Q57.9 21.3 57.4 21.3L57.4 21.3Q56.9 21.3 56.6 21.6Q56.2 21.9 56.0 22.4Q55.9 22.8 55.9 23.5L55.9 23.5Q55.9 24.1 56.0 24.6Q56.2 25.1 56.6 25.4Q56.9 25.6 57.4 25.6ZM64.6 27.1L64.6 27.1Q63.8 27.1 63.1 26.7Q62.5 26.3 62.1 25.5Q61.7 24.6 61.7 23.5L61.7 23.5Q61.7 22.3 62.1 21.4Q62.5 20.6 63.1 20.2Q63.8 19.8 64.6 19.8L64.6 19.8Q65.2 19.8 65.6 20.0Q66.0 20.2 66.2 20.5Q66.5 20.8 66.6 21.1L66.6 21.1L66.7 21.1L66.7 17.5L68.6 17.5L68.6 27L66.7 27L66.7 25.9L66.6 25.9Q66.5 26.1 66.2 26.4Q66.0 26.7 65.6 26.9Q65.2 27.1 64.6 27.1ZM65.2 25.6L65.2 25.6Q65.7 25.6 66.0 25.3Q66.3 25.1 66.5 24.6Q66.7 24.1 66.7 23.5L66.7 23.5Q66.7 22.8 66.5 22.3Q66.4 21.9 66.0 21.6Q65.7 21.3 65.2 21.3L65.2 21.3Q64.7 21.3 64.3 21.6Q64.0 21.9 63.8 22.4Q63.7 22.8 63.7 23.5L63.7 23.5Q63.7 24.1 63.8 24.6Q64.0 25.0 64.3 25.3Q64.7 25.6 65.2 25.6ZM73.2 27.1L73.2 27.1Q72.1 27.1 71.3 26.7Q70.5 26.3 70.1 25.4Q69.7 24.6 69.7 23.5L69.7 23.5Q69.7 22.4 70.1 21.6Q70.5 20.7 71.3 20.3Q72.1 19.8 73.1 19.8L73.1 19.8Q73.8 19.8 74.4 20.0Q75.0 20.3 75.5 20.7Q75.9 21.2 76.2 21.8Q76.4 22.5 76.4 23.4L76.4 23.4L76.4 23.9L71.6 23.9Q71.6 24.5 71.8 24.9L71.8 24.9Q72.0 25.3 72.4 25.5Q72.7 25.7 73.2 25.7L73.2 25.7Q73.6 25.7 73.8 25.6Q74.1 25.5 74.3 25.3Q74.5 25.1 74.6 24.9L74.6 24.9L76.3 25.2Q76.2 25.8 75.7 26.2Q75.3 26.7 74.7 26.9Q74.0 27.1 73.2 27.1ZM71.6 22.8L71.6 22.8L74.6 22.8Q74.6 22.4 74.5 22.1L74.5 22.1Q74.3 21.7 73.9 21.5Q73.6 21.2 73.1 21.2L73.1 21.2Q72.6 21.2 72.3 21.5Q71.9 21.7 71.8 22.1L71.8 22.1Q71.6 22.4 71.6 22.8ZM80.0 19.9L81.5 19.9L81.5 21.4L80.0 21.4L80.0 27L78.1 27L78.1 21.4L76.9 21.4L76.9 19.9L78.1 19.9L78.1 19.4Q78.1 18.6 78.4 18.1Q78.7 17.6 79.2 17.3Q79.7 17.1 80.4 17.1L80.4 17.1Q80.9 17.1 81.2 17.2Q81.6 17.2 81.8 17.3L81.8 17.3L81.4 18.7Q81.3 18.7 81.1 18.7Q81.0 18.6 80.8 18.6L80.8 18.6Q80.4 18.6 80.2 18.8Q80.0 19.0 80.0 19.4L80.0 19.4L80.0 19.9ZM85.7 27.1L85.7 27.1Q84.6 27.1 83.8 26.7Q83.1 26.2 82.6 25.4Q82.2 24.6 82.2 23.5L82.2 23.5Q82.2 22.4 82.6 21.6Q83.1 20.7 83.8 20.3Q84.6 19.8 85.7 19.8L85.7 19.8Q86.8 19.8 87.5 20.3Q88.3 20.7 88.7 21.6Q89.2 22.4 89.2 23.5L89.2 23.5Q89.2 24.6 88.7 25.4Q88.3 26.2 87.5 26.7Q86.8 27.1 85.7 27.1ZM85.7 25.6L85.7 25.6Q86.2 25.6 86.5 25.4Q86.9 25.1 87.1 24.6Q87.2 24.1 87.2 23.5L87.2 23.5Q87.2 22.8 87.1 22.4Q86.9 21.9 86.5 21.6Q86.2 21.3 85.7 21.3L85.7 21.3Q85.2 21.3 84.8 21.6Q84.5 21.9 84.3 22.4Q84.2 22.8 84.2 23.5L84.2 23.5Q84.2 24.1 84.3 24.6Q84.5 25.1 84.8 25.4Q85.2 25.6 85.7 25.6ZM92.2 27L90.3 27L90.3 19.9L92.1 19.9L92.1 21.1L92.2 21.1Q92.4 20.5 92.9 20.1Q93.3 19.8 93.9 19.8L93.9 19.8Q94.1 19.8 94.2 19.8Q94.4 19.8 94.5 19.9L94.5 19.9L94.5 21.6Q94.4 21.5 94.2 21.5Q93.9 21.5 93.7 21.5L93.7 21.5Q93.3 21.5 92.9 21.7Q92.6 21.9 92.4 22.2Q92.2 22.5 92.2 23.0L92.2 23.0L92.2 27ZM98.6 27.1L98.6 27.1Q97.5 27.1 96.7 26.7Q95.9 26.2 95.5 25.4Q95.1 24.6 95.1 23.5L95.1 23.5Q95.1 22.4 95.5 21.6Q95.9 20.7 96.7 20.3Q97.5 19.8 98.6 19.8L98.6 19.8Q99.2 19.8 99.7 20.0Q100.2 20.1 100.7 20.4Q101.1 20.8 101.3 21.2Q101.6 21.6 101.7 22.2L101.7 22.2L99.9 22.5Q99.9 22.2 99.8 22.0Q99.6 21.8 99.5 21.6Q99.3 21.5 99.1 21.4Q98.8 21.3 98.6 21.3L98.6 21.3Q98.1 21.3 97.7 21.6Q97.4 21.9 97.2 22.3Q97.0 22.8 97.0 23.5L97.0 23.5Q97.0 24.1 97.2 24.6Q97.4 25.1 97.7 25.4Q98.1 25.6 98.6 25.6L98.6 25.6Q98.8 25.6 99.1 25.6Q99.3 25.5 99.5 25.3Q99.7 25.1 99.8 24.9Q99.9 24.7 100.0 24.4L100.0 24.4L101.7 24.7Q101.6 25.3 101.4 25.7Q101.1 26.2 100.7 26.5Q100.3 26.8 99.7 27.0Q99.2 27.1 98.6 27.1ZM106.0 27.1L106.0 27.1Q104.9 27.1 104.2 26.7Q103.4 26.3 103.0 25.4Q102.5 24.6 102.5 23.5L102.5 23.5Q102.5 22.4 103.0 21.6Q103.4 20.7 104.1 20.3Q104.9 19.8 105.9 19.8L105.9 19.8Q106.6 19.8 107.2 20.0Q107.8 20.3 108.3 20.7Q108.8 21.2 109.0 21.8Q109.3 22.5 109.3 23.4L109.3 23.4L109.3 23.9L104.4 23.9Q104.4 24.5 104.6 24.9L104.6 24.9Q104.8 25.3 105.2 25.5Q105.6 25.7 106.1 25.7L106.1 25.7Q106.4 25.7 106.7 25.6Q106.9 25.5 107.1 25.3Q107.3 25.1 107.4 24.9L107.4 24.9L109.2 25.2Q109.0 25.8 108.6 26.2Q108.1 26.7 107.5 26.9Q106.9 27.1 106.0 27.1ZM104.4 22.8L104.4 22.8L107.4 22.8Q107.4 22.4 107.3 22.1L107.3 22.1Q107.1 21.7 106.8 21.5Q106.4 21.2 106.0 21.2L106.0 21.2Q105.5 21.2 105.1 21.5Q104.8 21.7 104.6 22.1L104.6 22.1Q104.5 22.4 104.4 22.8ZM113.2 27.1L113.2 27.1Q112.3 27.1 111.7 26.9Q111.0 26.7 110.6 26.2Q110.2 25.7 110.1 25.1L110.1 25.1L111.8 24.8Q112.0 25.2 112.3 25.5Q112.7 25.7 113.2 25.7L113.2 25.7Q113.8 25.7 114.1 25.5Q114.4 25.3 114.4 25.0L114.4 25.0Q114.4 24.7 114.2 24.6Q114.0 24.4 113.5 24.3L113.5 24.3L112.3 24.0Q111.3 23.8 110.7 23.3Q110.2 22.8 110.2 22.0L110.2 22.0Q110.2 21.3 110.6 20.8Q111.0 20.3 111.7 20.1Q112.3 19.8 113.2 19.8L113.2 19.8Q114.1 19.8 114.7 20.0Q115.3 20.3 115.7 20.7Q116.1 21.1 116.2 21.7L116.2 21.7L114.5 22.0Q114.4 21.6 114.1 21.4Q113.8 21.2 113.2 21.2L113.2 21.2Q112.8 21.2 112.5 21.4Q112.1 21.6 112.1 21.9L112.1 21.9Q112.1 22.2 112.4 22.4Q112.6 22.5 113.1 22.6L113.1 22.6L114.3 22.9Q115.4 23.1 115.9 23.6Q116.4 24.0 116.4 24.8L116.4 24.8Q116.4 25.5 116.0 26.0Q115.6 26.6 114.8 26.8Q114.1 27.1 113.2 27.1Z "/></g></svg>