<!-- Generated by readme-aura https://github.com/collectioneur/readme-aura -->
<svg width="860" height="140" viewBox="0 0 860 140" xmlns="http://www.w3.org/2000/svg"><defs><clipPath id="satori_bc-id"><path x="0" y="0" width="860" height="140" d="M16,0 h828 a16,16 0 0 1 16,16 v108 a16,16 0 0 1 -16,16 h-828 a16,16 0 0 1 -16,-16 v-108 a16,16 0 0 1 16,-16"/></clipPath></defs><clipPath id="satori_cp-id"><path x="0" y="0" width="860" height="140" d="M16,0 h828 a16,16 0 0 1 16,16 v108 a16,16 0 0 1 -16,16 h-828 a16,16 0 0 1 -16,-16 v-108 a16,16 0 0 1 16,-16"/></clipPath><mask id="satori_om-id"><rect x="1" y="1" width="858" height="138" fill="#fff"/><path width="860" height="140" fill="none" stroke="#000" stroke-width="2" d="M4.686,4.686 A16,16 0 0 1 16,0 h828 a16,16 0 0 1 16,16 v108 a16,16 0 0 1 -16,16 h-828 a16,16 0 0 1 -16,-16 v-108 A16,16 0 0 1 4.686,4.686"/></mask><path x="0" y="0" width="860" height="140" fill="#08080c" d="M16,0 h828 a16,16 0 0 1 16,16 v108 a16,16 0 0 1 -16,16 h-828 a16,16 0 0 1 -16,-16 v-108 a16,16 0 0 1 16,-16"/><path width="860" height="140" clip-path="url(#satori_bc-id)" fill="none" stroke="rgba(110,80,220,0.18)" stroke-width="2" d="M4.686,4.686 A16,16 0 0 1 16,0 h828 a16,16 0 0 1 16,16 v108 a16,16 0 0 1 -16,16 h-828 a16,16 0 0 1 -16,-16 v-108 A16,16 0 0 1 4.686,4.686"/><clipPath id="satori_cp-id-0" clip-path="url(#satori_cp-id)"><rect x="1" y="1" width="860" height="140"/></clipPath><mask id="satori_om-id-0"><rect x="1" y="1" width="860" height="140" fill="#fff" mask="url(#satori_om-id)"/></mask><svg x="1" y="1" width="860" height="140" preserveAspectRatio="none" clip-path="url(#satori_cp-id-0)" mask="url(#satori_om-id-0)"><defs><radialGradient id="sg1" cx="50%" cy="50%" r="50%"><stop offset="0%" stop-color="rgba(110,20,210,0.65)"></stop><stop offset="70%" stop-color="rgba(80,15,170,0)"></stop></radialGradient><radialGradient id="sg2" cx="50%" cy="50%" r="50%"><stop offset="0%" stop-color="rgba(40,70,255,0.55)"></stop><stop offset="70%" stop-color="rgba(20,50,200,0)"></stop></radialGradient><radialGradient id="sg3" cx="50%" cy="50%" r="50%"><stop offset="0%" stop-color="rgba(0,195,235,0.30)"></stop><stop offset="70%" stop-color="rgba(0,195,235,0)"></stop></radialGradient></defs><ellipse id="glow-s1" cx="710" cy="150" rx="210" ry="150" fill="url(#sg1)"></ellipse><ellipse id="glow-s2" cx="550" cy="140" rx="190" ry="140" fill="url(#sg2)"></ellipse><ellipse id="glow-s3" cx="250" cy="140" rx="150" ry="120" fill="url(#sg3)"></ellipse><style>

         @keyframes float-slow { 0%, 100% { transform: translateX(0px); opacity: 0.8; } 50% { transform: translateX(350px); opacity: 1.2; } }
         @keyframes float-medium { 0%, 100% { transform: translateX(0px); opacity: 0.7; } 50% { transform: translateX(-250px); opacity: 1.1; } }
         @keyframes float-fast { 0%, 100% { transform: translateX(0px); opacity: 0.9; } 50% { transform: translateX(200px); opacity: 0.6; } }
         #glow-s1 { animation: float-slow 8s ease-in-out infinite; }
         #glow-s2 { animation: float-medium 12s ease-in-out infinite; }
         #glow-s3 { animation: float-fast 9s ease-in-out infinite; }
       
</style>
</svg><mask id="satori_om-id-0-0"><rect x="1" y="1" width="0" height="140" fill="#fff" mask="url(#satori_om-id)"/></mask><mask id="satori_om-id-0-0-0"><rect x="1" y="1" width="0" height="140" fill="#fff" mask="url(#satori_om-id)"/></mask><mask id="satori_om-id-0-0-0-0"><rect x="1" y="1" width="0" height="140" fill="#fff" mask="url(#satori_om-id)"/></mask><mask id="satori_om-id-0-0-0-1"><rect x="1" y="1" width="0" height="140" fill="#fff" mask="url(#satori_om-id)"/></mask><mask id="satori_om-id-0-0-1"><rect x="1" y="1" width="0" height="140" fill="#fff" mask="url(#satori_om-id)"/></mask><mask id="satori_om-id-0-0-1-0"><rect x="1" y="1" width="0" height="140" fill="#fff" mask="url(#satori_om-id)"/></mask><mask id="satori_om-id-0-0-1-1"><rect x="1" y="1" width="0" height="140" fill="#fff" mask="url(#satori_om-id)"/></mask><mask id="satori_om-id-0-0-2"><rect x="1" y="1" width="0" height="140" fill="#fff" mask="url(#satori_om-id)"/></mask><mask id="satori_om-id-0-0-2-0"><rect x="1" y="1" width="0" height="140" fill="#fff" mask="url(#satori_om-id)"/></mask><mask id="satori_om-id-0-0-2-1"><rect x="1" y="1" width="0" height="140" fill="#fff" mask="url(#satori_om-id)"/></mask><mask id="satori_om-id-0-1"><rect x="1" y="1" width="0" height="140" fill="#fff" mask="url(#satori_om-id)"/></mask><mask id="satori_om-id-0-2"><rect x="1" y="1" width="0" height="140" fill="#fff" mask="url(#satori_om-id)"/></mask><mask id="satori_om-id-0-3"><rect x="1" y="1" width="0" height="140" fill="#fff" mask="url(#satori_om-id)"/></mask><defs><clipPath id="satori_bc-id-1" clip-path="url(#satori_cp-id)"><rect x="1" y="30" width="269" height="80"/></clipPath></defs><mask id="satori_om-id-1"><rect x="1" y="30" width="268" height="80" fill="#fff" mask="url(#satori_om-id)"/><path width="269" height="80" fill="none" stroke="#000" stroke-width="2" d="M270,30 A0,0 0 0 1 270,30 v80 A0,0 0 0 1 270,110"/></mask><path width="269" height="80" clip-path="url(#satori_bc-id-1)" fill="none" stroke="rgba(255,255,255,0.06)" stroke-width="2" d="M270,30 A0,0 0 0 1 270,30 v80 A0,0 0 0 1 270,110"/><mask id="satori_om-id-1-0"><rect x="116" y="46" width="39" height="30" fill="#fff" mask="url(#satori_om-id)"/></mask><g mask="url(#satori_om-id)" clip-path="url(#satori_cp-id)"><path fill="#a78bfa" d="M133.3 72L117.8 72L117.8 68.8L125.6 61.5Q126.5 60.6 127.2 59.8Q127.9 59.0 128.3 58.2Q128.6 57.5 128.6 56.6L128.6 56.6Q128.6 55.6 128.2 54.9Q127.7 54.2 127.0 53.8Q126.2 53.5 125.2 53.5L125.2 53.5Q124.2 53.5 123.5 53.9Q122.7 54.3 122.3 55.0Q121.9 55.8 121.9 56.9L121.9 56.9L117.6 56.9Q117.6 54.7 118.6 53.2Q119.6 51.6 121.3 50.7Q123.0 49.9 125.3 49.9L125.3 49.9Q127.6 49.9 129.3 50.7Q131.0 51.5 132.0 53.0Q133.0 54.4 133.0 56.3L133.0 56.3Q133.0 57.5 132.5 58.7Q132.0 59.9 130.8 61.4Q129.6 62.9 127.3 64.9L127.3 64.9L124.0 68.2L124.0 68.3L133.3 68.3L133.3 72ZM144.7 72.3L144.7 72.3Q142.2 72.3 140.3 71.5Q138.4 70.7 137.4 69.3Q136.3 67.9 136.3 66.1L136.3 66.1Q136.3 64.8 136.9 63.6Q137.5 62.5 138.6 61.7Q139.6 60.9 141.0 60.7L141.0 60.7L141.0 60.6Q139.2 60.2 138.1 58.9Q137.1 57.5 137.1 55.7L137.1 55.7Q137.1 54.1 138.0 52.7Q139.0 51.4 140.7 50.6Q142.5 49.9 144.7 49.9L144.7 49.9Q146.8 49.9 148.6 50.6Q150.3 51.4 151.3 52.7Q152.3 54.1 152.3 55.7L152.3 55.7Q152.3 57.5 151.2 58.9Q150.1 60.2 148.4 60.6L148.4 60.6L148.4 60.7Q149.7 60.9 150.7 61.7Q151.8 62.5 152.4 63.6Q153.1 64.8 153.1 66.1L153.1 66.1Q153.1 67.9 152.0 69.3Q150.9 70.7 149.0 71.5Q147.1 72.3 144.7 72.3ZM144.7 69.0L144.7 69.0Q145.8 69.0 146.6 68.6Q147.5 68.2 147.9 67.5Q148.4 66.7 148.4 65.8L148.4 65.8Q148.4 64.8 147.9 64.1Q147.4 63.3 146.6 62.9Q145.7 62.5 144.7 62.5L144.7 62.5Q143.6 62.5 142.7 62.9Q141.9 63.3 141.4 64.1Q140.9 64.8 140.9 65.8L140.9 65.8Q140.9 66.7 141.4 67.4Q141.8 68.2 142.7 68.6Q143.5 69.0 144.7 69.0ZM144.7 59.2L144.7 59.2Q145.6 59.2 146.3 58.8Q147.0 58.4 147.5 57.8Q147.9 57.1 147.9 56.2L147.9 56.2Q147.9 55.3 147.5 54.7Q147.1 54.0 146.3 53.7Q145.6 53.3 144.7 53.3L144.7 53.3Q143.7 53.3 143.0 53.7Q142.3 54.0 141.8 54.7Q141.4 55.3 141.4 56.2L141.4 56.2Q141.4 57.1 141.8 57.8Q142.3 58.4 143.0 58.8Q143.7 59.2 144.7 59.2Z "/></g><mask id="satori_om-id-1-1"><rect x="113" y="81" width="45" height="13" fill="#fff" mask="url(#satori_om-id)"/></mask><g mask="url(#satori_om-id)" clip-path="url(#satori_cp-id)"><path fill="rgba(200,195,225,0.45)" d="M115.4 92L113.7 92L113.7 84.0L116.8 84.0Q117.8 84.0 118.4 84.3Q119.0 84.6 119.4 85.2Q119.7 85.8 119.7 86.6Q119.7 87.4 119.4 88.0Q119.0 88.5 118.4 88.8L118.4 88.8Q118.3 88.9 118.3 88.9L118.3 88.9L120.0 92L118.2 92L116.6 89.1L115.4 89.1L115.4 92ZM115.4 85.4L115.4 87.8L116.5 87.8Q117.0 87.8 117.4 87.7Q117.7 87.5 117.9 87.3Q118.0 87.0 118.0 86.6L118.0 86.6Q118.0 86.2 117.9 85.9Q117.7 85.6 117.4 85.5Q117.0 85.4 116.5 85.4L116.5 85.4L115.4 85.4ZM127.8 92L122.4 92L122.4 84.0L127.8 84.0L127.8 85.4L124.1 85.4L124.1 87.3L127.5 87.3L127.5 88.6L124.1 88.6L124.1 90.6L127.8 90.6L127.8 92ZM132.3 92L130.6 92L130.6 84.0L133.8 84.0Q134.7 84.0 135.3 84.3Q135.9 84.7 136.3 85.3Q136.6 85.9 136.6 86.7L136.6 86.7Q136.6 87.5 136.3 88.1Q135.9 88.7 135.3 89.0Q134.6 89.4 133.7 89.4L133.7 89.4L132.3 89.4L132.3 92ZM132.3 85.4L132.3 88.1L133.5 88.1Q134.0 88.1 134.3 87.9Q134.6 87.7 134.8 87.4Q134.9 87.1 134.9 86.7Q134.9 86.3 134.8 86.0Q134.6 85.7 134.3 85.5Q134.0 85.4 133.4 85.4L133.4 85.4L132.3 85.4ZM142.8 92.1L142.8 92.1Q141.7 92.1 140.9 91.6Q140.0 91.1 139.5 90.2Q139.0 89.3 139.0 88.0L139.0 88.0Q139.0 86.7 139.5 85.8Q140.0 84.9 140.9 84.4Q141.7 83.9 142.8 83.9L142.8 83.9Q143.8 83.9 144.7 84.4Q145.5 84.9 146.0 85.8Q146.5 86.7 146.5 88.0L146.5 88.0Q146.5 89.3 146.0 90.2Q145.5 91.1 144.7 91.6Q143.8 92.1 142.8 92.1ZM142.8 90.7L142.8 90.7Q143.4 90.7 143.9 90.3Q144.3 90.0 144.6 89.5Q144.8 88.9 144.8 88.0L144.8 88.0Q144.8 87.1 144.6 86.5Q144.3 86.0 143.9 85.6Q143.4 85.3 142.8 85.3L142.8 85.3Q142.2 85.3 141.7 85.7Q141.2 86.0 141.0 86.6Q140.7 87.1 140.7 88.0L140.7 88.0Q140.7 88.9 141.0 89.4Q141.2 90.0 141.7 90.3Q142.2 90.7 142.8 90.7ZM152.2 92.1L152.2 92.1Q151.2 92.1 150.5 91.8Q149.8 91.5 149.4 90.9Q149.0 90.4 149.0 89.5L149.0 89.5L150.6 89.5Q150.6 89.9 150.8 90.2Q151.0 90.5 151.4 90.6Q151.7 90.7 152.2 90.7L152.2 90.7Q152.6 90.7 152.9 90.6Q153.2 90.5 153.4 90.2Q153.6 90.0 153.6 89.7L153.6 89.7Q153.6 89.4 153.4 89.3Q153.3 89.1 153.0 88.9Q152.7 88.8 152.2 88.7L152.2 88.7L151.3 88.5Q150.3 88.2 149.8 87.7Q149.2 87.2 149.2 86.3L149.2 86.3Q149.2 85.6 149.6 85.0Q150.0 84.5 150.6 84.2Q151.3 83.9 152.2 83.9L152.2 83.9Q153.1 83.9 153.7 84.2Q154.4 84.5 154.8 85.0Q155.1 85.6 155.1 86.3L155.1 86.3L153.6 86.3Q153.5 85.8 153.2 85.5Q152.8 85.3 152.2 85.3L152.2 85.3Q151.8 85.3 151.5 85.4Q151.2 85.5 151.0 85.7Q150.9 85.9 150.9 86.2L150.9 86.2Q150.9 86.5 151.0 86.7Q151.2 86.9 151.5 87.0Q151.8 87.1 152.1 87.2L152.1 87.2L152.9 87.4Q153.4 87.5 153.8 87.7Q154.2 87.9 154.6 88.2Q154.9 88.4 155.1 88.8Q155.3 89.2 155.3 89.7L155.3 89.7Q155.3 90.4 154.9 91.0Q154.5 91.5 153.8 91.8Q153.1 92.1 152.2 92.1Z "/></g><defs><clipPath id="satori_bc-id-2" clip-path="url(#satori_cp-id)"><rect x="270" y="30" width="269" height="80"/></clipPath></defs><mask id="satori_om-id-2"><rect x="270" y="30" width="268" height="80" fill="#fff" mask="url(#satori_om-id)"/><path width="269" height="80" fill="none" stroke="#000" stroke-width="2" d="M539,30 A0,0 0 0 1 539,30 v80 A0,0 0 0 1 539,110"/></mask><path width="269" height="80" clip-path="url(#satori_bc-id-2)" fill="none" stroke="rgba(255,255,255,0.06)" stroke-width="2" d="M539,30 A0,0 0 0 1 539,30 v80 A0,0 0 0 1 539,110"/><mask id="satori_om-id-2-0"><rect x="394" y="46" width="20" height="30" fill="#fff" mask="url(#satori_om-id)"/></mask><g mask="url(#satori_om-id)" clip-path="url(#satori_cp-id)"><path fill="#60a5fa" d="M403.8 72.3L403.8 72.3Q401.3 72.3 399.4 71.5Q397.5 70.7 396.5 69.3Q395.4 67.9 395.4 66.1L395.4 66.1Q395.4 64.8 396.0 63.6Q396.6 62.5 397.7 61.7Q398.7 60.9 400.1 60.7L400.1 60.7L400.1 60.6Q398.3 60.2 397.3 58.9Q396.2 57.5 396.2 55.7L396.2 55.7Q396.2 54.1 397.1 52.7Q398.1 51.4 399.8 50.6Q401.6 49.9 403.8 49.9L403.8 49.9Q405.9 49.9 407.7 50.6Q409.4 51.4 410.4 52.7Q411.4 54.1 411.4 55.7L411.4 55.7Q411.4 57.5 410.3 58.9Q409.2 60.2 407.5 60.6L407.5 60.6L407.5 60.7Q408.8 60.9 409.8 61.7Q410.9 62.5 411.5 63.6Q412.2 64.8 412.2 66.1L412.2 66.1Q412.2 67.9 411.1 69.3Q410.0 70.7 408.1 71.5Q406.2 72.3 403.8 72.3ZM403.8 69.0L403.8 69.0Q404.9 69.0 405.7 68.6Q406.6 68.2 407.0 67.5Q407.5 66.7 407.5 65.8L407.5 65.8Q407.5 64.8 407.0 64.1Q406.5 63.3 405.7 62.9Q404.8 62.5 403.8 62.5L403.8 62.5Q402.7 62.5 401.8 62.9Q401.0 63.3 400.5 64.1Q400.0 64.8 400.0 65.8L400.0 65.8Q400.0 66.7 400.5 67.4Q400.9 68.2 401.8 68.6Q402.6 69.0 403.8 69.0ZM403.8 59.2L403.8 59.2Q404.7 59.2 405.4 58.8Q406.1 58.4 406.6 57.8Q407.0 57.1 407.0 56.2L407.0 56.2Q407.0 55.3 406.6 54.7Q406.2 54.0 405.4 53.7Q404.7 53.3 403.8 53.3L403.8 53.3Q402.8 53.3 402.1 53.7Q401.4 54.0 400.9 54.7Q400.5 55.3 400.5 56.2L400.5 56.2Q400.5 57.1 400.9 57.8Q401.4 58.4 402.1 58.8Q402.8 59.2 403.8 59.2Z "/></g><mask id="satori_om-id-2-1"><rect x="382" y="81" width="45" height="13" fill="#fff" mask="url(#satori_om-id)"/></mask><g mask="url(#satori_om-id)" clip-path="url(#satori_cp-id)"><path fill="rgba(200,195,225,0.45)" d="M385.7 92.1L385.7 92.1Q384.7 92.1 384.0 91.8Q383.3 91.5 382.9 90.9Q382.5 90.4 382.5 89.5L382.5 89.5L384.1 89.5Q384.1 89.9 384.3 90.2Q384.5 90.5 384.9 90.6Q385.2 90.7 385.6 90.7L385.6 90.7Q386.1 90.7 386.4 90.6Q386.7 90.5 386.9 90.2Q387.1 90.0 387.1 89.7L387.1 89.7Q387.1 89.4 386.9 89.3Q386.8 89.1 386.5 88.9Q386.2 88.8 385.7 88.7L385.7 88.7L384.8 88.5Q383.8 88.2 383.2 87.7Q382.7 87.2 382.7 86.3L382.7 86.3Q382.7 85.6 383.1 85.0Q383.5 84.5 384.1 84.2Q384.8 83.9 385.7 83.9L385.7 83.9Q386.6 83.9 387.2 84.2Q387.9 84.5 388.3 85.0Q388.6 85.6 388.6 86.3L388.6 86.3L387.1 86.3Q387.0 85.8 386.6 85.5Q386.3 85.3 385.7 85.3L385.7 85.3Q385.2 85.3 385.0 85.4Q384.7 85.5 384.5 85.7Q384.4 85.9 384.4 86.2L384.4 86.2Q384.4 86.5 384.5 86.7Q384.7 86.9 385.0 87.0Q385.3 87.1 385.6 87.2L385.6 87.2L386.4 87.4Q386.9 87.5 387.3 87.7Q387.7 87.9 388.1 88.2Q388.4 88.4 388.6 88.8Q388.7 89.2 388.7 89.7L388.7 89.7Q388.7 90.4 388.4 91.0Q388.0 91.5 387.3 91.8Q386.6 92.1 385.7 92.1ZM393.6 85.4L391.1 85.4L391.1 84.0L397.6 84.0L397.6 85.4L395.2 85.4L395.2 92L393.6 92L393.6 85.4ZM401.6 92L399.8 92L402.5 84.0L404.7 84.0L407.5 92L405.7 92L405.1 90.1L402.2 90.1L401.6 92ZM402.6 88.9L404.6 88.9L404.4 88.1Q404.2 87.4 403.9 86.5L403.9 86.5Q403.8 85.9 403.6 85.3L403.6 85.3Q403.4 85.9 403.3 86.5L403.3 86.5Q403.1 87.4 402.9 88.1L402.9 88.1L402.6 88.9ZM411.6 92L410.0 92L410.0 84.0L413.1 84.0Q414.0 84.0 414.7 84.3Q415.3 84.6 415.6 85.2Q416.0 85.8 416.0 86.6Q416.0 87.4 415.6 88.0Q415.3 88.5 414.6 88.8L414.6 88.8Q414.6 88.9 414.5 88.9L414.5 88.9L416.3 92L414.4 92L412.9 89.1L411.6 89.1L411.6 92ZM411.6 85.4L411.6 87.8L412.8 87.8Q413.3 87.8 413.6 87.7Q414.0 87.5 414.1 87.3Q414.3 87.0 414.3 86.6L414.3 86.6Q414.3 86.2 414.1 85.9Q414.0 85.6 413.6 85.5Q413.3 85.4 412.8 85.4L412.8 85.4L411.6 85.4ZM421.6 92.1L421.6 92.1Q420.7 92.1 420.0 91.8Q419.3 91.5 418.9 90.9Q418.5 90.4 418.4 89.5L418.4 89.5L420.0 89.5Q420.1 89.9 420.3 90.2Q420.5 90.5 420.8 90.6Q421.2 90.7 421.6 90.7L421.6 90.7Q422.1 90.7 422.4 90.6Q422.7 90.5 422.9 90.2Q423.1 90.0 423.1 89.7L423.1 89.7Q423.1 89.4 422.9 89.3Q422.8 89.1 422.4 88.9Q422.1 88.8 421.7 88.7L421.7 88.7L420.8 88.5Q419.8 88.2 419.2 87.7Q418.7 87.2 418.7 86.3L418.7 86.3Q418.7 85.6 419.0 85.0Q419.4 84.5 420.1 84.2Q420.8 83.9 421.7 83.9L421.7 83.9Q422.5 83.9 423.2 84.2Q423.9 84.5 424.2 85.0Q424.6 85.6 424.6 86.3L424.6 86.3L423.0 86.3Q423.0 85.8 422.6 85.5Q422.3 85.3 421.6 85.3L421.6 85.3Q421.2 85.3 420.9 85.4Q420.6 85.5 420.5 85.7Q420.3 85.9 420.3 86.2L420.3 86.2Q420.3 86.5 420.5 86.7Q420.7 86.9 421.0 87.0Q421.3 87.1 421.6 87.2L421.6 87.2L422.3 87.4Q422.8 87.5 423.3 87.7Q423.7 87.9 424.0 88.2Q424.4 88.4 424.5 88.8Q424.7 89.2 424.7 89.7L424.7 89.7Q424.7 90.4 424.4 91.0Q424.0 91.5 423.3 91.8Q422.6 92.1 421.6 92.1Z "/></g><mask id="satori_om-id-3"><rect x="539" y="30" width="320" height="80" fill="#fff" mask="url(#satori_om-id)"/></mask><mask id="satori_om-id-3-0"><rect x="651" y="46" width="97" height="30" fill="#fff" mask="url(#satori_om-id)"/></mask><g mask="url(#satori_om-id)" clip-path="url(#satori_cp-id)"><path fill="#f59e0b" d="M660.7 72.3L660.7 72.3Q658.3 72.3 656.4 71.5Q654.6 70.7 653.5 69.2Q652.5 67.8 652.5 65.9L652.5 65.9L656.9 65.9Q657.0 66.7 657.5 67.3Q658.0 67.9 658.8 68.3Q659.6 68.6 660.7 68.6L660.7 68.6Q661.8 68.6 662.6 68.2Q663.4 67.8 663.9 67.2Q664.3 66.5 664.3 65.6L664.3 65.6Q664.3 64.7 663.8 64.0Q663.3 63.3 662.4 62.9Q661.5 62.5 660.3 62.5L660.3 62.5L658.2 62.5L658.2 59.2L660.3 59.2Q661.3 59.2 662.1 58.8Q662.9 58.5 663.4 57.8Q663.9 57.2 663.9 56.3L663.9 56.3Q663.9 55.4 663.5 54.8Q663.1 54.2 662.4 53.8Q661.6 53.5 660.7 53.5L660.7 53.5Q659.7 53.5 659.0 53.8Q658.2 54.1 657.7 54.8Q657.2 55.4 657.2 56.2L657.2 56.2L652.9 56.2Q652.9 54.4 653.9 52.9Q655.0 51.5 656.7 50.7Q658.5 49.9 660.7 49.9L660.7 49.9Q663.0 49.9 664.7 50.7Q666.3 51.5 667.3 52.9Q668.2 54.3 668.2 56.0L668.2 56.0Q668.2 57.8 667.1 59.1Q665.9 60.3 664.1 60.6L664.1 60.6L664.1 60.8Q665.7 61.0 666.8 61.7Q667.9 62.4 668.4 63.5Q669.0 64.5 669.0 65.9L669.0 65.9Q669.0 67.7 667.9 69.2Q666.8 70.6 665.0 71.5Q663.1 72.3 660.7 72.3ZM679.7 72.3L679.7 72.3Q677.5 72.3 675.9 71.5Q674.2 70.6 673.2 69.2Q672.2 67.7 672.0 65.9L672.0 65.9L676.4 65.9Q676.6 67.1 677.5 67.8Q678.4 68.5 679.7 68.5L679.7 68.5Q681.1 68.5 682.1 67.6Q683.1 66.8 683.6 65.2Q684.1 63.6 684.1 61.5L684.1 61.5L684.0 61.5Q683.5 62.4 682.6 63.1Q681.8 63.8 680.7 64.1Q679.7 64.5 678.5 64.5L678.5 64.5Q676.5 64.5 675.0 63.6Q673.5 62.7 672.6 61.1Q671.7 59.5 671.7 57.5L671.7 57.5Q671.7 55.2 672.8 53.5Q673.8 51.8 675.6 50.8Q677.5 49.8 679.9 49.9L679.9 49.9Q681.5 49.9 683.1 50.4Q684.6 51.0 685.8 52.2Q687.0 53.5 687.8 55.5Q688.5 57.6 688.5 60.6L688.5 60.6Q688.5 63.3 687.9 65.5Q687.2 67.7 686.1 69.2Q684.9 70.7 683.3 71.5Q681.7 72.3 679.7 72.3ZM679.8 61.2L679.8 61.2Q680.6 61.2 681.3 60.9Q682.0 60.6 682.6 60.1Q683.1 59.5 683.4 58.8Q683.7 58.1 683.7 57.3L683.7 57.3Q683.7 56.3 683.2 55.4Q682.7 54.5 681.8 54.0Q681.0 53.4 679.9 53.4L679.9 53.4Q678.8 53.4 677.9 53.9Q677.1 54.5 676.6 55.4Q676.1 56.2 676.1 57.3L676.1 57.3Q676.1 58.4 676.6 59.3Q677.1 60.2 677.9 60.7Q678.8 61.2 679.8 61.2ZM699.5 72.3L699.5 72.3Q697.1 72.3 695.3 71.5Q693.5 70.7 692.4 69.2Q691.3 67.8 691.3 65.9L691.3 65.9L695.8 65.9Q695.8 66.7 696.3 67.3Q696.8 67.9 697.7 68.3Q698.5 68.6 699.5 68.6L699.5 68.6Q700.6 68.6 701.4 68.2Q702.2 67.8 702.7 67.2Q703.2 66.5 703.2 65.6L703.2 65.6Q703.2 64.7 702.7 64.0Q702.2 63.3 701.3 62.9Q700.4 62.5 699.1 62.5L699.1 62.5L697.1 62.5L697.1 59.2L699.1 59.2Q700.2 59.2 701.0 58.8Q701.8 58.5 702.2 57.8Q702.7 57.2 702.7 56.3L702.7 56.3Q702.7 55.4 702.3 54.8Q701.9 54.2 701.2 53.8Q700.5 53.5 699.5 53.5L699.5 53.5Q698.6 53.5 697.8 53.8Q697.0 54.1 696.5 54.8Q696.0 55.4 696.0 56.2L696.0 56.2L691.7 56.2Q691.8 54.4 692.8 52.9Q693.8 51.5 695.6 50.7Q697.4 49.9 699.6 49.9L699.6 49.9Q701.8 49.9 703.5 50.7Q705.2 51.5 706.1 52.9Q707.0 54.3 707.0 56.0L707.0 56.0Q707.0 57.8 705.9 59.1Q704.8 60.3 703.0 60.6L703.0 60.6L703.0 60.8Q704.5 61.0 705.6 61.7Q706.7 62.4 707.3 63.5Q707.8 64.5 707.8 65.9L707.8 65.9Q707.8 67.7 706.8 69.2Q705.7 70.6 703.8 71.5Q701.9 72.3 699.5 72.3ZM718.9 72.3L718.9 72.3Q716.5 72.3 714.7 71.5Q712.8 70.7 711.8 69.2Q710.7 67.8 710.7 65.9L710.7 65.9L715.2 65.9Q715.2 66.7 715.7 67.3Q716.2 67.9 717.0 68.3Q717.9 68.6 718.9 68.6L718.9 68.6Q720.0 68.6 720.8 68.2Q721.6 67.8 722.1 67.2Q722.5 66.5 722.5 65.6L722.5 65.6Q722.5 64.7 722.1 64.0Q721.6 63.3 720.7 62.9Q719.7 62.5 718.5 62.5L718.5 62.5L716.4 62.5L716.4 59.2L718.5 59.2Q719.5 59.2 720.3 58.8Q721.2 58.5 721.6 57.8Q722.1 57.2 722.1 56.3L722.1 56.3Q722.1 55.4 721.7 54.8Q721.3 54.2 720.6 53.8Q719.9 53.5 718.9 53.5L718.9 53.5Q718.0 53.5 717.2 53.8Q716.4 54.1 715.9 54.8Q715.4 55.4 715.4 56.2L715.4 56.2L711.1 56.2Q711.1 54.4 712.1 52.9Q713.2 51.5 715.0 50.7Q716.7 49.9 718.9 49.9L718.9 49.9Q721.2 49.9 722.9 50.7Q724.5 51.5 725.5 52.9Q726.4 54.3 726.4 56.0L726.4 56.0Q726.4 57.8 725.3 59.1Q724.1 60.3 722.3 60.6L722.3 60.6L722.3 60.8Q723.9 61.0 725.0 61.7Q726.1 62.4 726.6 63.5Q727.2 64.5 727.2 65.9L727.2 65.9Q727.2 67.7 726.1 69.2Q725.1 70.6 723.2 71.5Q721.3 72.3 718.9 72.3ZM738.2 72.3L738.2 72.3Q735.9 72.3 734.0 71.5Q732.2 70.7 731.1 69.2Q730.1 67.8 730.0 65.9L730.0 65.9L734.5 65.9Q734.6 66.7 735.1 67.3Q735.6 67.9 736.4 68.3Q737.2 68.6 738.2 68.6L738.2 68.6Q739.3 68.6 740.2 68.2Q741.0 67.8 741.4 67.2Q741.9 66.5 741.9 65.6L741.9 65.6Q741.9 64.7 741.4 64.0Q740.9 63.3 740.0 62.9Q739.1 62.5 737.8 62.5L737.8 62.5L735.8 62.5L735.8 59.2L737.8 59.2Q738.9 59.2 739.7 58.8Q740.5 58.5 741.0 57.8Q741.4 57.2 741.4 56.3L741.4 56.3Q741.4 55.4 741.0 54.8Q740.6 54.2 739.9 53.8Q739.2 53.5 738.3 53.5L738.3 53.5Q737.3 53.5 736.5 53.8Q735.7 54.1 735.3 54.8Q734.8 55.4 734.8 56.2L734.8 56.2L730.5 56.2Q730.5 54.4 731.5 52.9Q732.5 51.5 734.3 50.7Q736.1 49.9 738.3 49.9L738.3 49.9Q740.5 49.9 742.2 50.7Q743.9 51.5 744.8 52.9Q745.8 54.3 745.8 56.0L745.8 56.0Q745.8 57.8 744.6 59.1Q743.5 60.3 741.7 60.6L741.7 60.6L741.7 60.8Q743.3 61.0 744.4 61.7Q745.5 62.4 746.0 63.5Q746.6 64.5 746.6 65.9L746.6 65.9Q746.6 67.7 745.5 69.2Q744.4 70.6 742.5 71.5Q740.7 72.3 738.2 72.3Z "/></g><mask id="satori_om-id-3-1"><rect x="666" y="81" width="66" height="13" fill="#fff" mask="url(#satori_om-id)"/></mask><g mask="url(#satori_om-id)" clip-path="url(#satori_cp-id)"><path fill="rgba(200,195,225,0.45)" d="M670.2 92.1L670.2 92.1Q669.2 92.1 668.3 91.6Q667.5 91.1 667.0 90.2Q666.5 89.3 666.5 88.0L666.5 88.0Q666.5 86.7 667.0 85.8Q667.5 84.9 668.3 84.4Q669.2 83.9 670.2 83.9L670.2 83.9Q670.9 83.9 671.5 84.1Q672.1 84.3 672.5 84.6Q673.0 85.0 673.3 85.5Q673.6 86.1 673.7 86.7L673.7 86.7L672.0 86.7Q672.0 86.4 671.8 86.1Q671.6 85.9 671.4 85.7Q671.2 85.5 670.9 85.4Q670.6 85.3 670.3 85.3L670.3 85.3Q669.6 85.3 669.2 85.7Q668.7 86.0 668.4 86.6Q668.2 87.2 668.2 88.0L668.2 88.0Q668.2 88.9 668.4 89.5Q668.7 90.1 669.2 90.4Q669.6 90.7 670.2 90.7L670.2 90.7Q670.6 90.7 670.9 90.6Q671.2 90.5 671.4 90.3Q671.6 90.1 671.8 89.8Q672.0 89.6 672.0 89.3L672.0 89.3L673.7 89.3Q673.6 89.8 673.3 90.3Q673.1 90.8 672.6 91.2Q672.2 91.6 671.6 91.9Q671.0 92.1 670.2 92.1ZM679.9 92.1L679.9 92.1Q678.8 92.1 678.0 91.6Q677.1 91.1 676.6 90.2Q676.1 89.3 676.1 88.0L676.1 88.0Q676.1 86.7 676.6 85.8Q677.1 84.9 678.0 84.4Q678.8 83.9 679.9 83.9L679.9 83.9Q680.9 83.9 681.8 84.4Q682.6 84.9 683.1 85.8Q683.6 86.7 683.6 88.0L683.6 88.0Q683.6 89.3 683.1 90.2Q682.6 91.1 681.8 91.6Q680.9 92.1 679.9 92.1ZM679.9 90.7L679.9 90.7Q680.5 90.7 681.0 90.3Q681.4 90.0 681.7 89.5Q681.9 88.9 681.9 88.0L681.9 88.0Q681.9 87.1 681.7 86.5Q681.4 86.0 681.0 85.6Q680.5 85.3 679.9 85.3L679.9 85.3Q679.3 85.3 678.8 85.7Q678.3 86.0 678.1 86.6Q677.8 87.1 677.8 88.0L677.8 88.0Q677.8 88.9 678.1 89.4Q678.3 90.0 678.8 90.3Q679.3 90.7 679.9 90.7ZM688.0 92L686.3 92L686.3 84.0L688.9 84.0L690.2 87.7Q690.2 87.9 690.3 88.3Q690.4 88.7 690.5 89.2L690.5 89.2Q690.7 89.7 690.7 90.1L690.7 90.1Q690.8 89.7 690.9 89.2L690.9 89.2Q691.0 88.8 691.2 88.3Q691.3 87.9 691.3 87.7L691.3 87.7L692.6 84.0L695.1 84.0L695.1 92L693.5 92L693.5 88.2Q693.5 88.0 693.5 87.6Q693.5 87.2 693.5 86.7Q693.5 86.3 693.5 85.8L693.5 85.8Q693.6 85.6 693.6 85.4L693.6 85.4Q693.5 85.6 693.4 85.9L693.4 85.9Q693.3 86.3 693.2 86.8Q693.1 87.2 692.9 87.6Q692.8 88.0 692.8 88.2L692.8 88.2L691.4 92L690.0 92L688.7 88.2Q688.6 88.0 688.5 87.6Q688.4 87.2 688.3 86.8Q688.1 86.4 688.0 85.9L688.0 85.9Q688.0 85.7 687.9 85.5L687.9 85.5Q687.9 85.6 687.9 85.8L687.9 85.8Q687.9 86.2 687.9 86.7Q687.9 87.2 688.0 87.6Q688.0 88.0 688.0 88.2L688.0 88.2L688.0 92ZM699.7 92L698.1 92L698.1 84.0L700.6 84.0L701.9 87.7Q702.0 87.9 702.1 88.3Q702.2 88.7 702.3 89.2L702.3 89.2Q702.4 89.7 702.5 90.1L702.5 90.1Q702.6 89.7 702.7 89.2L702.7 89.2Q702.8 88.8 702.9 88.3Q703.0 87.9 703.1 87.7L703.1 87.7L704.4 84.0L706.9 84.0L706.9 92L705.2 92L705.2 88.2Q705.2 88.0 705.2 87.6Q705.3 87.2 705.3 86.7Q705.3 86.3 705.3 85.8L705.3 85.8Q705.3 85.6 705.3 85.4L705.3 85.4Q705.2 85.6 705.2 85.9L705.2 85.9Q705.1 86.3 704.9 86.8Q704.8 87.2 704.7 87.6Q704.6 88.0 704.5 88.2L704.5 88.2L703.2 92L701.8 92L700.4 88.2Q700.4 88.0 700.3 87.6Q700.1 87.2 700.0 86.8Q699.9 86.4 699.8 85.9L699.8 85.9Q699.7 85.7 699.7 85.5L699.7 85.5Q699.7 85.6 699.7 85.8L699.7 85.8Q699.7 86.2 699.7 86.7Q699.7 87.2 699.7 87.6Q699.7 88.0 699.7 88.2L699.7 88.2L699.7 92ZM709.8 84.0L711.5 84.0L711.5 92L709.8 92L709.8 84.0ZM716.5 85.4L714.1 85.4L714.1 84.0L720.6 84.0L720.6 85.4L718.2 85.4L718.2 92L716.5 92L716.5 85.4ZM726.2 92.1L726.2 92.1Q725.2 92.1 724.5 91.8Q723.8 91.5 723.4 90.9Q723.0 90.4 723.0 89.5L723.0 89.5L724.6 89.5Q724.6 89.9 724.8 90.2Q725.0 90.5 725.4 90.6Q725.7 90.7 726.2 90.7L726.2 90.7Q726.6 90.7 726.9 90.6Q727.3 90.5 727.5 90.2Q727.6 90.0 727.6 89.7L727.6 89.7Q727.6 89.4 727.5 89.3Q727.3 89.1 727.0 88.9Q726.7 88.8 726.3 88.7L726.3 88.7L725.4 88.5Q724.4 88.2 723.8 87.7Q723.2 87.2 723.2 86.3L723.2 86.3Q723.2 85.6 723.6 85.0Q724.0 84.5 724.7 84.2Q725.3 83.9 726.2 83.9L726.2 83.9Q727.1 83.9 727.8 84.2Q728.4 84.5 728.8 85.0Q729.2 85.6 729.2 86.3L729.2 86.3L727.6 86.3Q727.6 85.8 727.2 85.5Q726.8 85.3 726.2 85.3L726.2 85.3Q725.8 85.3 725.5 85.4Q725.2 85.5 725.0 85.7Q724.9 85.9 724.9 86.2L724.9 86.2Q724.9 86.5 725.1 86.7Q725.2 86.9 725.5 87.0Q725.8 87.1 726.2 87.2L726.2 87.2L726.9 87.4Q727.4 87.5 727.8 87.7Q728.3 87.9 728.6 88.2Q728.9 88.4 729.1 88.8Q729.3 89.2 729.3 89.7L729.3 89.7Q729.3 90.4 728.9 91.0Q728.6 91.5 727.9 91.8Q727.2 92.1 726.2 92.1Z "/></g></svg>