<!-- Generated by readme-aura https://github.com/collectioneur/readme-aura -->
<svg width="100" height="44" viewBox="0 0 100 44" xmlns="http://www.w3.org/2000/svg"><mask id="satori_om-id"><rect x="0" y="0" width="100" height="44" fill="#fff"/></mask><path x="0" y="0" width="100" height="44" fill="#000000" d="M22,0 h56 a22,22 0 0 1 22,22 v0 a22,22 0 0 1 -22,22 h-56 a22,22 0 0 1 -22,-22 v0 a22,22 0 0 1 22,-22"/><clipPath id="satori_cp-id-0"><rect x="0" y="0" width="100" height="44"/></clipPath><mask id="satori_om-id-0"><rect x="0" y="0" width="100" height="44" fill="#fff"/></mask><svg x="0" y="0" width="100" height="44" preserveAspectRatio="none" clip-path="url(#satori_cp-id-0)" mask="url(#satori_om-id-0)"><defs><linearGradient id="smb-grad-Flask" gradientUnits="objectBoundingBox" x1="0" y1="0" x2="1" y2="1"><stop offset="0%" stop-color="#818cf8"></stop><stop offset="30%" stop-color="#000000"></stop><stop offset="60%" stop-color="#9298f8"></stop><stop offset="80%" stop-color="#000000"></stop><stop offset="100%" stop-color="#7479f5"></stop><animateTransform attributeName="gradientTransform" type="rotate" from="0 0.5 0.5" to="360 0.5 0.5" dur="8s" repeatCount="indefinite"></animateTransform></linearGradient></defs><rect x="1.25" y="1.25" width="97.5" height="41.5" rx="20.75" ry="20.75" fill="none" stroke="url(#smb-grad-Flask)" stroke-width="2" stroke-linecap="round" stroke-linejoin="round"></rect><rect x="0.25" y="0.25" width="99.5" height="43.5" rx="21.75" ry="21.75" fill="none" stroke="#AAAAAA" stroke-width="0.5" stroke-linecap="round" stroke-linejoin="round"></rect></svg><mask id="satori_om-id-0-0"><rect x="0" y="0" width="0" height="44" fill="#fff"/></mask><mask id="satori_om-id-0-0-0"><rect x="0" y="0" width="0" height="44" fill="#fff"/></mask><mask id="satori_om-id-0-0-0-0"><rect x="0" y="0" width="0" height="44" fill="#fff"/></mask><mask id="satori_om-id-0-0-0-1"><rect x="0" y="0" width="0" height="44" fill="#fff"/></mask><mask id="satori_om-id-0-0-0-2"><rect x="0" y="0" width="0" height="44" fill="#fff"/></mask><mask id="satori_om-id-0-0-0-3"><rect x="0" y="0" width="0" height="44" fill="#fff"/></mask><mask id="satori_om-id-0-0-0-4"><rect x="0" y="0" width="0" height="44" fill="#fff"/></mask><mask id="satori_om-id-0-0-0-5"><rect x="0" y="0" width="0" height="44" fill="#fff"/></mask><mask id="satori_om-id-0-1"><rect x="0" y="0" width="0" height="44" fill="#fff"/></mask><mask id="satori_om-id-0-2"><rect x="0" y="0" width="0" height="44" fill="#fff"/></mask><mask id="satori_om-id-1"><rect x="0" y="0" width="100" height="44" fill="#fff"/></mask><mask id="satori_om-id-1-0"><rect x="22" y="13" width="18" height="18" fill="#fff"/></mask><mask id="satori_om-id-1-1"><rect x="45" y="14" width="33" height="16" fill="#fff"/></mask><g  ><path fill="#f5f5f5" d="M47.8 27L45.9 27L45.9 17.5L52.1 17.5L52.1 19.1L47.8 19.1L47.8 21.8L51.7 21.8L51.7 23.4L47.8 23.4L47.8 27ZM53.2 17.5L55.1 17.5L55.1 27L53.2 27L53.2 17.5ZM58.5 27.1L58.5 27.1Q57.9 27.1 57.3 26.9Q56.8 26.7 56.5 26.2Q56.2 25.7 56.2 25.0L56.2 25.0Q56.2 24.4 56.4 24.0Q56.6 23.6 57.0 23.4Q57.4 23.1 57.9 23.0Q58.3 22.9 58.9 22.8L58.9 22.8Q59.5 22.8 59.9 22.7Q60.2 22.7 60.4 22.5Q60.6 22.4 60.6 22.2L60.6 22.2L60.6 22.2Q60.6 21.9 60.5 21.7Q60.3 21.4 60.1 21.3Q59.8 21.2 59.5 21.2L59.5 21.2Q59.1 21.2 58.8 21.3Q58.6 21.4 58.4 21.6Q58.2 21.8 58.1 22.0L58.1 22.0L56.4 21.8Q56.6 21.1 57.0 20.7Q57.4 20.3 58.1 20.0Q58.7 19.8 59.5 19.8L59.5 19.8Q60.1 19.8 60.6 20.0Q61.1 20.1 61.6 20.4Q62.0 20.7 62.2 21.1Q62.5 21.6 62.5 22.2L62.5 22.2L62.5 27L60.7 27L60.7 26.0L60.6 26.0Q60.5 26.3 60.2 26.6Q59.9 26.8 59.5 27.0Q59.1 27.1 58.5 27.1ZM59.1 25.8L59.1 25.8Q59.5 25.8 59.9 25.6Q60.2 25.4 60.4 25.1Q60.6 24.8 60.6 24.5L60.6 24.5L60.6 23.7Q60.5 23.8 60.3 23.8Q60.2 23.9 60.0 23.9Q59.8 23.9 59.5 24.0Q59.3 24.0 59.2 24.0L59.2 24.0Q58.8 24.1 58.6 24.2Q58.3 24.3 58.2 24.5Q58.0 24.7 58.0 25.0L58.0 25.0Q58.0 25.2 58.2 25.4Q58.3 25.6 58.5 25.7Q58.8 25.8 59.1 25.8ZM66.7 27.1L66.7 27.1Q65.9 27.1 65.2 26.9Q64.6 26.7 64.1 26.2Q63.7 25.7 63.6 25.1L63.6 25.1L65.4 24.8Q65.5 25.2 65.9 25.5Q66.2 25.7 66.8 25.7L66.8 25.7Q67.3 25.7 67.6 25.5Q68.0 25.3 68.0 25.0L68.0 25.0Q68.0 24.7 67.7 24.6Q67.5 24.4 67.0 24.3L67.0 24.3L65.8 24.0Q64.8 23.8 64.3 23.3Q63.8 22.8 63.8 22.0L63.8 22.0Q63.8 21.3 64.2 20.8Q64.5 20.3 65.2 20.1Q65.9 19.8 66.8 19.8L66.8 19.8Q67.6 19.8 68.2 20.0Q68.8 20.3 69.2 20.7Q69.6 21.1 69.7 21.7L69.7 21.7L68.0 22.0Q67.9 21.6 67.6 21.4Q67.3 21.2 66.8 21.2L66.8 21.2Q66.3 21.2 66.0 21.4Q65.7 21.6 65.7 21.9L65.7 21.9Q65.7 22.2 65.9 22.4Q66.1 22.5 66.6 22.6L66.6 22.6L67.9 22.9Q68.9 23.1 69.4 23.6Q69.9 24.0 69.9 24.8L69.9 24.8Q69.9 25.5 69.5 26.0Q69.1 26.6 68.4 26.8Q67.7 27.1 66.7 27.1ZM72.9 27L71.0 27L71.0 17.5L72.9 17.5L72.9 22.6L73.0 22.6L75.3 19.9L77.5 19.9L74.9 23.0L77.7 27L75.4 27L73.4 24.1L72.9 24.7L72.9 27Z "/></g></svg>