<!-- Generated by readme-aura https://github.com/collectioneur/readme-aura -->
<svg width="100" height="44" viewBox="0 0 100 44" xmlns="http://www.w3.org/2000/svg"><mask id="satori_om-id"><rect x="0" y="0" width="100" height="44" fill="#fff"/></mask><path x="0" y="0" width="100" height="44" fill="#331e00" d="M22,0 h56 a22,22 0 0 1 22,22 v0 a22,22 0 0 1 -22,22 h-56 a22,22 0 0 1 -22,-22 v0 a22,22 0 0 1 22,-22"/><clipPath id="satori_cp-id-0"><rect x="0" y="0" width="100" height="44"/></clipPath><mask id="satori_om-id-0"><rect x="0" y="0" width="100" height="44" fill="#fff"/></mask><svg x="0" y="0" width="100" height="44" preserveAspectRatio="none" clip-path="url(#satori_cp-id-0)" mask="url(#satori_om-id-0)"><defs><linearGradient id="smb-grad-Java" gradientUnits="objectBoundingBox" x1="0" y1="0" x2="1" y2="1"><stop offset="0%" stop-color="#ffffff"></stop><stop offset="15%" stop-color="#331e00"></stop><stop offset="30%" stop-color="#cccccc"></stop><stop offset="50%" stop-color="#ED8B00"></stop><stop offset="65%" stop-color="#331e00"></stop><stop offset="80%" stop-color="#888888"></stop><stop offset="100%" stop-color="#444444"></stop><animateTransform attributeName="gradientTransform" type="rotate" from="0 0.5 0.5" to="360 0.5 0.5" dur="8s" repeatCount="indefinite"></animateTransform></linearGradient></defs><rect x="1.25" y="1.25" width="97.5" height="41.5" rx="20.75" ry="20.75" fill="none" stroke="url(#smb-grad-Java)" stroke-width="2" stroke-linecap="round" stroke-linejoin="round"></rect><rect x="0.25" y="0.25" width="99.5" height="43.5" rx="21.75" ry="21.75" fill="none" stroke="#AAAAAA" stroke-width="0.5" stroke-linecap="round" stroke-linejoin="round"></rect></svg><mask id="satori_om-id-0-0"><rect x="0" y="0" width="0" height="44" fill="#fff"/></mask><mask id="satori_om-id-0-0-0"><rect x="0" y="0" width="0" height="44" fill="#fff"/></mask><mask id="satori_om-id-0-0-0-0"><rect x="0" y="0" width="0" height="44" fill="#fff"/></mask><mask id="satori_om-id-0-0-0-1"><rect x="0" y="0" width="0" height="44" fill="#fff"/></mask><mask id="satori_om-id-0-0-0-2"><rect x="0" y="0" width="0" height="44" fill="#fff"/></mask><mask id="satori_om-id-0-0-0-3"><rect x="0" y="0" width="0" height="44" fill="#fff"/></mask><mask id="satori_om-id-0-0-0-4"><rect x="0" y="0" width="0" height="44" fill="#fff"/></mask><mask id="satori_om-id-0-0-0-5"><rect x="0" y="0" width="0" height="44" fill="#fff"/></mask><mask id="satori_om-id-0-0-0-6"><rect x="0" y="0" width="0" height="44" fill="#fff"/></mask><mask id="satori_om-id-0-0-0-7"><rect x="0" y="0" width="0" height="44" fill="#fff"/></mask><mask id="satori_om-id-0-1"><rect x="0" y="0" width="0" height="44" fill="#fff"/></mask><mask id="satori_om-id-0-2"><rect x="0" y="0" width="0" height="44" fill="#fff"/></mask><mask id="satori_om-id-1"><rect x="0" y="0" width="100" height="44" fill="#fff"/></mask><mask id="satori_om-id-1-0"><rect x="22" y="11" width="22" height="22" fill="#fff"/></mask><mask id="satori_om-id-1-1"><rect x="49" y="14" width="30" height="16" fill="#fff"/></mask><g  ><path fill="#ffffff" d="M52.6 27.1L52.6 27.1Q51.1 27.1 50.3 26.4Q49.4 25.6 49.4 24.2L49.4 24.2L49.4 23.6L51.4 23.6L51.4 24.2Q51.4 24.9 51.7 25.2Q52.0 25.6 52.6 25.6L52.6 25.6Q53.2 25.6 53.5 25.2Q53.8 24.9 53.8 24.2L53.8 24.2L53.8 17.5L55.7 17.5L55.7 24.1Q55.7 25.6 54.9 26.4Q54.1 27.1 52.6 27.1ZM59.2 27.1L59.2 27.1Q58.5 27.1 58.0 26.9Q57.4 26.7 57.1 26.2Q56.8 25.7 56.8 25.0L56.8 25.0Q56.8 24.4 57.0 24.0Q57.3 23.6 57.6 23.4Q58.0 23.1 58.5 23.0Q59.0 22.9 59.5 22.8L59.5 22.8Q60.1 22.8 60.5 22.7Q60.9 22.7 61.1 22.5Q61.2 22.4 61.2 22.2L61.2 22.2L61.2 22.2Q61.2 21.9 61.1 21.7Q61.0 21.4 60.7 21.3Q60.5 21.2 60.1 21.2L60.1 21.2Q59.7 21.2 59.5 21.3Q59.2 21.4 59.0 21.6Q58.9 21.8 58.8 22.0L58.8 22.0L57.0 21.8Q57.2 21.1 57.6 20.7Q58.1 20.3 58.7 20.0Q59.3 19.8 60.1 19.8L60.1 19.8Q60.7 19.8 61.2 20.0Q61.8 20.1 62.2 20.4Q62.6 20.7 62.9 21.1Q63.1 21.6 63.1 22.2L63.1 22.2L63.1 27L61.3 27L61.3 26.0L61.3 26.0Q61.1 26.3 60.8 26.6Q60.5 26.8 60.1 27.0Q59.7 27.1 59.2 27.1ZM59.7 25.8L59.7 25.8Q60.2 25.8 60.5 25.6Q60.9 25.4 61.1 25.1Q61.2 24.8 61.2 24.5L61.2 24.5L61.2 23.7Q61.2 23.8 61.0 23.8Q60.8 23.9 60.6 23.9Q60.4 23.9 60.2 24.0Q60.0 24.0 59.8 24.0L59.8 24.0Q59.5 24.1 59.2 24.2Q58.9 24.3 58.8 24.5Q58.7 24.7 58.7 25.0L58.7 25.0Q58.7 25.2 58.8 25.4Q58.9 25.6 59.2 25.7Q59.4 25.8 59.7 25.8ZM68.7 27L66.6 27L63.9 19.9L66.0 19.9L67.2 23.6Q67.4 24.3 67.5 25.0L67.5 25.0Q67.6 25.3 67.7 25.5L67.7 25.5Q67.7 25.3 67.8 25.0L67.8 25.0Q67.9 24.3 68.2 23.6L68.2 23.6L69.3 19.9L71.3 19.9L68.7 27ZM74.1 27.1L74.1 27.1Q73.5 27.1 72.9 26.9Q72.4 26.7 72.1 26.2Q71.8 25.7 71.8 25.0L71.8 25.0Q71.8 24.4 72.0 24.0Q72.2 23.6 72.6 23.4Q73.0 23.1 73.4 23.0Q73.9 22.9 74.5 22.8L74.5 22.8Q75.1 22.8 75.4 22.7Q75.8 22.7 76.0 22.5Q76.2 22.4 76.2 22.2L76.2 22.2L76.2 22.2Q76.2 21.9 76.0 21.7Q75.9 21.4 75.7 21.3Q75.4 21.2 75.1 21.2L75.1 21.2Q74.7 21.2 74.4 21.3Q74.1 21.4 74.0 21.6Q73.8 21.8 73.7 22.0L73.7 22.0L72.0 21.8Q72.2 21.1 72.6 20.7Q73.0 20.3 73.6 20.0Q74.3 19.8 75.1 19.8L75.1 19.8Q75.6 19.8 76.2 20.0Q76.7 20.1 77.1 20.4Q77.6 20.7 77.8 21.1Q78.1 21.6 78.1 22.2L78.1 22.2L78.1 27L76.3 27L76.3 26.0L76.2 26.0Q76.0 26.3 75.8 26.6Q75.5 26.8 75.1 27.0Q74.7 27.1 74.1 27.1ZM74.7 25.8L74.7 25.8Q75.1 25.8 75.5 25.6Q75.8 25.4 76.0 25.1Q76.2 24.8 76.2 24.5L76.2 24.5L76.2 23.7Q76.1 23.8 75.9 23.8Q75.8 23.9 75.5 23.9Q75.3 23.9 75.1 24.0Q74.9 24.0 74.8 24.0L74.8 24.0Q74.4 24.1 74.2 24.2Q73.9 24.3 73.7 24.5Q73.6 24.7 73.6 25.0L73.6 25.0Q73.6 25.2 73.7 25.4Q73.9 25.6 74.1 25.7Q74.4 25.8 74.7 25.8Z "/></g></svg>