<!-- Generated by readme-aura https://github.com/collectioneur/readme-aura -->
<svg width="140" height="44" viewBox="0 0 140 44" xmlns="http://www.w3.org/2000/svg"><mask id="satori_om-id"><rect x="0" y="0" width="140" height="44" fill="#fff"/></mask><path x="0" y="0" width="140" height="44" fill="#3d2008" d="M22,0 h96 a22,22 0 0 1 22,22 v0 a22,22 0 0 1 -22,22 h-96 a22,22 0 0 1 -22,-22 v0 a22,22 0 0 1 22,-22"/><clipPath id="satori_cp-id-0"><rect x="0" y="0" width="140" height="44"/></clipPath><mask id="satori_om-id-0"><rect x="0" y="0" width="140" height="44" fill="#fff"/></mask><svg x="0" y="0" width="140" height="44" preserveAspectRatio="none" clip-path="url(#satori_cp-id-0)" mask="url(#satori_om-id-0)"><defs><linearGradient id="smb-grad-Cloudflare" gradientUnits="objectBoundingBox" x1="0" y1="0" x2="1" y2="1"><stop offset="0%" stop-color="#ffffff"></stop><stop offset="15%" stop-color="#3d2008"></stop><stop offset="30%" stop-color="#cccccc"></stop><stop offset="50%" stop-color="#F38020"></stop><stop offset="65%" stop-color="#3d2008"></stop><stop offset="80%" stop-color="#888888"></stop><stop offset="100%" stop-color="#444444"></stop><animateTransform attributeName="gradientTransform" type="rotate" from="0 0.5 0.5" to="360 0.5 0.5" dur="8s" repeatCount="indefinite"></animateTransform></linearGradient></defs><rect x="1.25" y="1.25" width="137.5" height="41.5" rx="20.75" ry="20.75" fill="none" stroke="url(#smb-grad-Cloudflare)" stroke-width="2" stroke-linecap="round" stroke-linejoin="round"></rect><rect x="0.25" y="0.25" width="139.5" height="43.5" rx="21.75" ry="21.75" fill="none" stroke="#AAAAAA" stroke-width="0.5" stroke-linecap="round" stroke-linejoin="round"></rect></svg><mask id="satori_om-id-0-0"><rect x="0" y="0" width="0" height="44" fill="#fff"/></mask><mask id="satori_om-id-0-0-0"><rect x="0" y="0" width="0" height="44" fill="#fff"/></mask><mask id="satori_om-id-0-0-0-0"><rect x="0" y="0" width="0" height="44" fill="#fff"/></mask><mask id="satori_om-id-0-0-0-1"><rect x="0" y="0" width="0" height="44" fill="#fff"/></mask><mask id="satori_om-id-0-0-0-2"><rect x="0" y="0" width="0" height="44" fill="#fff"/></mask><mask id="satori_om-id-0-0-0-3"><rect x="0" y="0" width="0" height="44" fill="#fff"/></mask><mask id="satori_om-id-0-0-0-4"><rect x="0" y="0" width="0" height="44" fill="#fff"/></mask><mask id="satori_om-id-0-0-0-5"><rect x="0" y="0" width="0" height="44" fill="#fff"/></mask><mask id="satori_om-id-0-0-0-6"><rect x="0" y="0" width="0" height="44" fill="#fff"/></mask><mask id="satori_om-id-0-0-0-7"><rect x="0" y="0" width="0" height="44" fill="#fff"/></mask><mask id="satori_om-id-0-1"><rect x="0" y="0" width="0" height="44" fill="#fff"/></mask><mask id="satori_om-id-0-2"><rect x="0" y="0" width="0" height="44" fill="#fff"/></mask><mask id="satori_om-id-1"><rect x="0" y="0" width="140" height="44" fill="#fff"/></mask><mask id="satori_om-id-1-0"><rect x="24" y="11" width="22" height="22" fill="#fff"/></mask><mask id="satori_om-id-1-1"><rect x="51" y="14" width="65" height="16" fill="#fff"/></mask><g  ><path fill="#ffffff" d="M56.0 27.1L56.0 27.1Q54.7 27.1 53.7 26.6Q52.7 26.0 52.2 24.9Q51.6 23.8 51.6 22.3L51.6 22.3Q51.6 20.7 52.2 19.6Q52.8 18.6 53.7 18.0Q54.7 17.4 56.0 17.4L56.0 17.4Q56.8 17.4 57.5 17.6Q58.2 17.9 58.7 18.3Q59.3 18.7 59.6 19.4Q60.0 20.0 60.1 20.8L60.1 20.8L58.1 20.8Q58.0 20.4 57.9 20.1Q57.7 19.8 57.4 19.6Q57.1 19.4 56.8 19.2Q56.4 19.1 56.0 19.1L56.0 19.1Q55.3 19.1 54.7 19.5Q54.2 19.9 53.9 20.6Q53.6 21.3 53.6 22.3L53.6 22.3Q53.6 23.3 53.9 24.0Q54.2 24.7 54.7 25.1Q55.3 25.4 56.0 25.4L56.0 25.4Q56.4 25.4 56.8 25.3Q57.1 25.2 57.4 25.0Q57.7 24.8 57.9 24.5Q58.0 24.1 58.1 23.8L58.1 23.8L60.1 23.8Q60.0 24.4 59.7 25.0Q59.4 25.6 58.8 26.1Q58.3 26.6 57.6 26.9Q56.9 27.1 56.0 27.1ZM61.2 17.5L63.1 17.5L63.1 27L61.2 27L61.2 17.5ZM67.7 27.1L67.7 27.1Q66.7 27.1 65.9 26.7Q65.1 26.2 64.7 25.4Q64.3 24.6 64.3 23.5L64.3 23.5Q64.3 22.4 64.7 21.6Q65.1 20.7 65.9 20.3Q66.7 19.8 67.7 19.8L67.7 19.8Q68.8 19.8 69.6 20.3Q70.4 20.7 70.8 21.6Q71.2 22.4 71.2 23.5L71.2 23.5Q71.2 24.6 70.8 25.4Q70.4 26.2 69.6 26.7Q68.8 27.1 67.7 27.1ZM67.7 25.6L67.7 25.6Q68.2 25.6 68.6 25.4Q68.9 25.1 69.1 24.6Q69.3 24.1 69.3 23.5L69.3 23.5Q69.3 22.8 69.1 22.4Q68.9 21.9 68.6 21.6Q68.2 21.3 67.7 21.3L67.7 21.3Q67.2 21.3 66.9 21.6Q66.5 21.9 66.4 22.4Q66.2 22.8 66.2 23.5L66.2 23.5Q66.2 24.1 66.4 24.6Q66.5 25.1 66.9 25.4Q67.2 25.6 67.7 25.6ZM74.8 27.1L74.8 27.1Q74.0 27.1 73.5 26.8Q72.9 26.4 72.6 25.8Q72.3 25.2 72.3 24.4L72.3 24.4L72.3 19.9L74.2 19.9L74.2 24.1Q74.2 24.7 74.6 25.1Q74.9 25.5 75.5 25.5L75.5 25.5Q75.9 25.5 76.2 25.3Q76.5 25.1 76.7 24.8Q76.9 24.5 76.9 24.0L76.9 24.0L76.9 19.9L78.8 19.9L78.8 27L77.0 27L77.0 25.5Q76.7 26.2 76.2 26.6L76.2 26.6Q75.7 27.1 74.8 27.1ZM82.8 27.1L82.8 27.1Q82.0 27.1 81.3 26.7Q80.7 26.3 80.3 25.5Q79.9 24.6 79.9 23.5L79.9 23.5Q79.9 22.3 80.3 21.4Q80.7 20.6 81.4 20.2Q82.0 19.8 82.8 19.8L82.8 19.8Q83.4 19.8 83.8 20.0Q84.2 20.2 84.5 20.5Q84.7 20.8 84.8 21.1L84.8 21.1L84.9 21.1L84.9 17.5L86.8 17.5L86.8 27L84.9 27L84.9 25.9L84.8 25.9Q84.7 26.1 84.4 26.4Q84.2 26.7 83.8 26.9Q83.4 27.1 82.8 27.1ZM83.4 25.6L83.4 25.6Q83.9 25.6 84.2 25.3Q84.6 25.1 84.7 24.6Q84.9 24.1 84.9 23.5L84.9 23.5Q84.9 22.8 84.7 22.3Q84.6 21.9 84.2 21.6Q83.9 21.3 83.4 21.3L83.4 21.3Q82.9 21.3 82.6 21.6Q82.2 21.9 82.0 22.4Q81.9 22.8 81.9 23.5L81.9 23.5Q81.9 24.1 82.0 24.6Q82.2 25.0 82.6 25.3Q82.9 25.6 83.4 25.6ZM90.7 19.9L92.2 19.9L92.2 21.4L90.7 21.4L90.7 27L88.8 27L88.8 21.4L87.5 21.4L87.5 19.9L88.8 19.9L88.8 19.4Q88.8 18.6 89.1 18.1Q89.4 17.6 89.9 17.3Q90.4 17.1 91.1 17.1L91.1 17.1Q91.5 17.1 91.9 17.2Q92.3 17.2 92.4 17.3L92.4 17.3L92.1 18.7Q92.0 18.7 91.8 18.7Q91.7 18.6 91.5 18.6L91.5 18.6Q91.0 18.6 90.9 18.8Q90.7 19.0 90.7 19.4L90.7 19.4L90.7 19.9ZM93.2 17.5L95.1 17.5L95.1 27L93.2 27L93.2 17.5ZM98.5 27.1L98.5 27.1Q97.8 27.1 97.3 26.9Q96.7 26.7 96.4 26.2Q96.1 25.7 96.1 25.0L96.1 25.0Q96.1 24.4 96.3 24.0Q96.6 23.6 96.9 23.4Q97.3 23.1 97.8 23.0Q98.3 22.9 98.8 22.8L98.8 22.8Q99.4 22.8 99.8 22.7Q100.2 22.7 100.4 22.5Q100.5 22.4 100.5 22.2L100.5 22.2L100.5 22.2Q100.5 21.9 100.4 21.7Q100.3 21.4 100.0 21.3Q99.8 21.2 99.4 21.2L99.4 21.2Q99.0 21.2 98.8 21.3Q98.5 21.4 98.3 21.6Q98.2 21.8 98.1 22.0L98.1 22.0L96.3 21.8Q96.5 21.1 96.9 20.7Q97.4 20.3 98.0 20.0Q98.6 19.8 99.4 19.8L99.4 19.8Q100.0 19.8 100.5 20.0Q101.1 20.1 101.5 20.4Q101.9 20.7 102.2 21.1Q102.4 21.6 102.4 22.2L102.4 22.2L102.4 27L100.6 27L100.6 26.0L100.6 26.0Q100.4 26.3 100.1 26.6Q99.8 26.8 99.4 27.0Q99.0 27.1 98.5 27.1ZM99.0 25.8L99.0 25.8Q99.5 25.8 99.8 25.6Q100.2 25.4 100.3 25.1Q100.5 24.8 100.5 24.5L100.5 24.5L100.5 23.7Q100.5 23.8 100.3 23.8Q100.1 23.9 99.9 23.9Q99.7 23.9 99.5 24.0Q99.3 24.0 99.1 24.0L99.1 24.0Q98.8 24.1 98.5 24.2Q98.2 24.3 98.1 24.5Q98.0 24.7 98.0 25.0L98.0 25.0Q98.0 25.2 98.1 25.4Q98.2 25.6 98.5 25.7Q98.7 25.8 99.0 25.8ZM105.8 27L103.9 27L103.9 19.9L105.7 19.9L105.7 21.1L105.8 21.1Q106.0 20.5 106.4 20.1Q106.9 19.8 107.5 19.8L107.5 19.8Q107.6 19.8 107.8 19.8Q108.0 19.8 108.1 19.9L108.1 19.9L108.1 21.6Q108.0 21.5 107.7 21.5Q107.5 21.5 107.3 21.5L107.3 21.5Q106.8 21.5 106.5 21.7Q106.1 21.9 106.0 22.2Q105.8 22.5 105.8 23.0L105.8 23.0L105.8 27ZM112.2 27.1L112.2 27.1Q111.1 27.1 110.3 26.7Q109.5 26.3 109.1 25.4Q108.7 24.6 108.7 23.5L108.7 23.5Q108.7 22.4 109.1 21.6Q109.5 20.7 110.3 20.3Q111.0 19.8 112.1 19.8L112.1 19.8Q112.8 19.8 113.4 20.0Q114.0 20.3 114.4 20.7Q114.9 21.2 115.1 21.8Q115.4 22.5 115.4 23.4L115.4 23.4L115.4 23.9L110.5 23.9Q110.6 24.5 110.7 24.9L110.7 24.9Q110.9 25.3 111.3 25.5Q111.7 25.7 112.2 25.7L112.2 25.7Q112.5 25.7 112.8 25.6Q113.1 25.5 113.3 25.3Q113.5 25.1 113.6 24.9L113.6 24.9L115.3 25.2Q115.1 25.8 114.7 26.2Q114.3 26.7 113.6 26.9Q113.0 27.1 112.2 27.1ZM110.6 22.8L110.6 22.8L113.6 22.8Q113.5 22.4 113.4 22.1L113.4 22.1Q113.2 21.7 112.9 21.5Q112.6 21.2 112.1 21.2L112.1 21.2Q111.6 21.2 111.2 21.5Q110.9 21.7 110.7 22.1L110.7 22.1Q110.6 22.4 110.6 22.8Z "/></g></svg>