<!-- Generated by readme-aura https://github.com/collectioneur/readme-aura -->
<svg width="100" height="44" viewBox="0 0 100 44" xmlns="http://www.w3.org/2000/svg"><mask id="satori_om-id"><rect x="0" y="0" width="100" height="44" fill="#fff"/></mask><path x="0" y="0" width="100" height="44" fill="#000000" d="M22,0 h56 a22,22 0 0 1 22,22 v0 a22,22 0 0 1 -22,22 h-56 a22,22 0 0 1 -22,-22 v0 a22,22 0 0 1 22,-22"/><clipPath id="satori_cp-id-0"><rect x="0" y="0" width="100" height="44"/></clipPath><mask id="satori_om-id-0"><rect x="0" y="0" width="100" height="44" fill="#fff"/></mask><svg x="0" y="0" width="100" height="44" preserveAspectRatio="none" clip-path="url(#satori_cp-id-0)" mask="url(#satori_om-id-0)"><defs><linearGradient id="smb-grad-Python" gradientUnits="objectBoundingBox" x1="0" y1="0" x2="1" y2="1"><stop offset="0%" stop-color="#d855f7"></stop><stop offset="30%" stop-color="#000000"></stop><stop offset="60%" stop-color="#b557e8"></stop><stop offset="80%" stop-color="#000000"></stop><stop offset="100%" stop-color="#cc6ef9"></stop><animateTransform attributeName="gradientTransform" type="rotate" from="0 0.5 0.5" to="360 0.5 0.5" dur="8s" repeatCount="indefinite"></animateTransform></linearGradient></defs><rect x="1.25" y="1.25" width="97.5" height="41.5" rx="20.75" ry="20.75" fill="none" stroke="url(#smb-grad-Python)" stroke-width="2" stroke-linecap="round" stroke-linejoin="round"></rect><rect x="0.25" y="0.25" width="99.5" height="43.5" rx="21.75" ry="21.75" fill="none" stroke="#AAAAAA" stroke-width="0.5" stroke-linecap="round" stroke-linejoin="round"></rect></svg><mask id="satori_om-id-0-0"><rect x="0" y="0" width="0" height="44" fill="#fff"/></mask><mask id="satori_om-id-0-0-0"><rect x="0" y="0" width="0" height="44" fill="#fff"/></mask><mask id="satori_om-id-0-0-0-0"><rect x="0" y="0" width="0" height="44" fill="#fff"/></mask><mask id="satori_om-id-0-0-0-1"><rect x="0" y="0" width="0" height="44" fill="#fff"/></mask><mask id="satori_om-id-0-0-0-2"><rect x="0" y="0" width="0" height="44" fill="#fff"/></mask><mask id="satori_om-id-0-0-0-3"><rect x="0" y="0" width="0" height="44" fill="#fff"/></mask><mask id="satori_om-id-0-0-0-4"><rect x="0" y="0" width="0" height="44" fill="#fff"/></mask><mask id="satori_om-id-0-0-0-5"><rect x="0" y="0" width="0" height="44" fill="#fff"/></mask><mask id="satori_om-id-0-1"><rect x="0" y="0" width="0" height="44" fill="#fff"/></mask><mask id="satori_om-id-0-2"><rect x="0" y="0" width="0" height="44" fill="#fff"/></mask><mask id="satori_om-id-1"><rect x="0" y="0" width="100" height="44" fill="#fff"/></mask><mask id="satori_om-id-1-0"><rect x="17" y="13" width="18" height="18" fill="#fff"/></mask><mask id="satori_om-id-1-1"><rect x="40" y="14" width="44" height="16" fill="#fff"/></mask><g  ><path fill="#f5f5f5" d="M42.8 27L40.9 27L40.9 17.5L44.5 17.5Q45.6 17.5 46.4 18.0Q47.1 18.4 47.5 19.1Q47.9 19.8 47.9 20.7L47.9 20.7Q47.9 21.7 47.5 22.4Q47.1 23.1 46.4 23.5Q45.6 23.9 44.5 23.9L44.5 23.9L42.8 23.9L42.8 27ZM42.8 19.1L42.8 22.3L44.2 22.3Q44.8 22.3 45.2 22.1Q45.6 21.9 45.7 21.6Q45.9 21.2 45.9 20.7Q45.9 20.3 45.7 19.9Q45.6 19.5 45.2 19.3Q44.8 19.1 44.2 19.1L44.2 19.1L42.8 19.1ZM49.0 29.5L49.0 29.5L49.4 28.1L49.7 28.1Q50.0 28.2 50.3 28.2Q50.6 28.1 50.8 28.0Q51.0 27.8 51.0 27.4L51.0 27.4L51.1 27.0L48.4 19.9L50.4 19.9L51.6 23.6Q51.9 24.3 52.0 25.0L52.0 25.0Q52.0 25.2 52.1 25.5L52.1 25.5Q52.1 25.2 52.2 25.0L52.2 25.0Q52.4 24.3 52.6 23.6L52.6 23.6L53.8 19.9L55.8 19.9L52.8 27.8Q52.6 28.4 52.3 28.8Q51.9 29.2 51.4 29.5Q50.9 29.7 50.2 29.7L50.2 29.7Q49.8 29.7 49.5 29.7Q49.2 29.6 49.0 29.5ZM58.9 19.9L60.2 19.9L60.2 21.4L58.9 21.4L58.9 24.9Q58.9 25.3 59.0 25.4Q59.2 25.6 59.5 25.6L59.5 25.6Q59.6 25.6 59.8 25.6Q60.0 25.5 60.1 25.5L60.1 25.5L60.4 26.9Q60.1 27.0 59.8 27.1Q59.4 27.1 59.2 27.1L59.2 27.1Q58.1 27.1 57.5 26.6Q57.0 26.1 57.0 25.1L57.0 25.1L57.0 21.4L56.0 21.4L56.0 19.9L57.0 19.9L57.0 18.2L58.9 18.2L58.9 19.9ZM63.1 22.9L63.1 22.9L63.1 27L61.2 27L61.2 17.5L63.1 17.5L63.1 21.3Q63.4 20.7 63.8 20.3L63.8 20.3Q64.4 19.8 65.3 19.8L65.3 19.8Q66.0 19.8 66.5 20.1Q67.1 20.5 67.4 21.1Q67.7 21.7 67.7 22.5L67.7 22.5L67.7 27L65.8 27L65.8 22.8Q65.8 22.2 65.4 21.8Q65.1 21.4 64.5 21.4L64.5 21.4Q64.1 21.4 63.8 21.6Q63.5 21.8 63.3 22.1Q63.1 22.4 63.1 22.9ZM72.3 27.1L72.3 27.1Q71.2 27.1 70.4 26.7Q69.7 26.2 69.2 25.4Q68.8 24.6 68.8 23.5L68.8 23.5Q68.8 22.4 69.2 21.6Q69.7 20.7 70.4 20.3Q71.2 19.8 72.3 19.8L72.3 19.8Q73.4 19.8 74.1 20.3Q74.9 20.7 75.3 21.6Q75.8 22.4 75.8 23.5L75.8 23.5Q75.8 24.6 75.3 25.4Q74.9 26.2 74.1 26.7Q73.4 27.1 72.3 27.1ZM72.3 25.6L72.3 25.6Q72.8 25.6 73.1 25.4Q73.5 25.1 73.7 24.6Q73.8 24.1 73.8 23.5L73.8 23.5Q73.8 22.8 73.7 22.4Q73.5 21.9 73.1 21.6Q72.8 21.3 72.3 21.3L72.3 21.3Q71.8 21.3 71.4 21.6Q71.1 21.9 70.9 22.4Q70.8 22.8 70.8 23.5L70.8 23.5Q70.8 24.1 70.9 24.6Q71.1 25.1 71.4 25.4Q71.8 25.6 72.3 25.6ZM78.8 22.9L78.8 22.9L78.8 27L76.9 27L76.9 19.9L78.7 19.9L78.7 21.4Q79.0 20.7 79.5 20.3L79.5 20.3Q80.0 19.8 80.9 19.8L80.9 19.8Q81.7 19.8 82.2 20.1Q82.8 20.5 83.1 21.1Q83.4 21.7 83.4 22.5L83.4 22.5L83.4 27L81.5 27L81.5 22.8Q81.5 22.2 81.1 21.8Q80.8 21.4 80.2 21.4L80.2 21.4Q79.8 21.4 79.5 21.6Q79.1 21.8 79.0 22.1Q78.8 22.4 78.8 22.9Z "/></g></svg>