<!-- Generated by readme-aura https://github.com/collectioneur/readme-aura -->
<svg width="110" height="44" viewBox="0 0 110 44" xmlns="http://www.w3.org/2000/svg"><mask id="satori_om-id"><rect x="0" y="0" width="110" height="44" fill="#fff"/></mask><path x="0" y="0" width="110" height="44" fill="#000000" d="M22,0 h66 a22,22 0 0 1 22,22 v0 a22,22 0 0 1 -22,22 h-66 a22,22 0 0 1 -22,-22 v0 a22,22 0 0 1 22,-22"/><clipPath id="satori_cp-id-0"><rect x="0" y="0" width="110" height="44"/></clipPath><mask id="satori_om-id-0"><rect x="0" y="0" width="110" height="44" fill="#fff"/></mask><svg x="0" y="0" width="110" height="44" preserveAspectRatio="none" clip-path="url(#satori_cp-id-0)" mask="url(#satori_om-id-0)"><defs><linearGradient id="smb-grad-Nodejs" gradientUnits="objectBoundingBox" x1="0" y1="0" x2="1" y2="1"><stop offset="0%" stop-color="#818cf8"></stop><stop offset="30%" stop-color="#000000"></stop><stop offset="60%" stop-color="#9298f8"></stop><stop offset="80%" stop-color="#000000"></stop><stop offset="100%" stop-color="#7479f5"></stop><animateTransform attributeName="gradientTransform" type="rotate" from="0 0.5 0.5" to="360 0.5 0.5" dur="8s" repeatCount="indefinite"></animateTransform></linearGradient></defs><rect x="1.25" y="1.25" width="107.5" height="41.5" rx="20.75" ry="20.75" fill="none" stroke="url(#smb-grad-Nodejs)" stroke-width="2" stroke-linecap="round" stroke-linejoin="round"></rect><rect x="0.25" y="0.25" width="109.5" height="43.5" rx="21.75" ry="21.75" fill="none" stroke="#AAAAAA" stroke-width="0.5" stroke-linecap="round" stroke-linejoin="round"></rect></svg><mask id="satori_om-id-0-0"><rect x="0" y="0" width="0" height="44" fill="#fff"/></mask><mask id="satori_om-id-0-0-0"><rect x="0" y="0" width="0" height="44" fill="#fff"/></mask><mask id="satori_om-id-0-0-0-0"><rect x="0" y="0" width="0" height="44" fill="#fff"/></mask><mask id="satori_om-id-0-0-0-1"><rect x="0" y="0" width="0" height="44" fill="#fff"/></mask><mask id="satori_om-id-0-0-0-2"><rect x="0" y="0" width="0" height="44" fill="#fff"/></mask><mask id="satori_om-id-0-0-0-3"><rect x="0" y="0" width="0" height="44" fill="#fff"/></mask><mask id="satori_om-id-0-0-0-4"><rect x="0" y="0" width="0" height="44" fill="#fff"/></mask><mask id="satori_om-id-0-0-0-5"><rect x="0" y="0" width="0" height="44" fill="#fff"/></mask><mask id="satori_om-id-0-1"><rect x="0" y="0" width="0" height="44" fill="#fff"/></mask><mask id="satori_om-id-0-2"><rect x="0" y="0" width="0" height="44" fill="#fff"/></mask><mask id="satori_om-id-1"><rect x="0" y="0" width="110" height="44" fill="#fff"/></mask><mask id="satori_om-id-1-0"><rect x="20" y="13" width="18" height="18" fill="#fff"/></mask><mask id="satori_om-id-1-1"><rect x="43" y="14" width="48" height="16" fill="#fff"/></mask><g  ><path fill="#f5f5f5" d="M45.8 27L43.9 27L43.9 17.5L46.0 17.5L49.0 22.3Q49.2 22.7 49.5 23.1Q49.7 23.6 50.0 24.1L50.0 24.1Q50.1 24.3 50.2 24.6L50.2 24.6Q50.2 24.4 50.2 24.1L50.2 24.1Q50.1 23.6 50.1 23.0Q50.1 22.5 50.1 22.1L50.1 22.1L50.1 17.5L52.1 17.5L52.1 27L49.9 27L47.2 22.7Q46.9 22.2 46.6 21.7Q46.4 21.2 46.1 20.7L46.1 20.7Q45.9 20.4 45.7 19.9L45.7 19.9Q45.7 20.3 45.8 20.7L45.8 20.7Q45.8 21.3 45.8 21.8Q45.8 22.3 45.8 22.7L45.8 22.7L45.8 27ZM56.7 27.1L56.7 27.1Q55.6 27.1 54.8 26.7Q54.1 26.2 53.6 25.4Q53.2 24.6 53.2 23.5L53.2 23.5Q53.2 22.4 53.6 21.6Q54.1 20.7 54.8 20.3Q55.6 19.8 56.7 19.8L56.7 19.8Q57.8 19.8 58.5 20.3Q59.3 20.7 59.7 21.6Q60.2 22.4 60.2 23.5L60.2 23.5Q60.2 24.6 59.7 25.4Q59.3 26.2 58.5 26.7Q57.8 27.1 56.7 27.1ZM56.7 25.6L56.7 25.6Q57.2 25.6 57.5 25.4Q57.9 25.1 58.1 24.6Q58.2 24.1 58.2 23.5L58.2 23.5Q58.2 22.8 58.1 22.4Q57.9 21.9 57.5 21.6Q57.2 21.3 56.7 21.3L56.7 21.3Q56.2 21.3 55.8 21.6Q55.5 21.9 55.3 22.4Q55.2 22.8 55.2 23.5L55.2 23.5Q55.2 24.1 55.3 24.6Q55.5 25.1 55.8 25.4Q56.2 25.6 56.7 25.6ZM63.9 27.1L63.9 27.1Q63.1 27.1 62.4 26.7Q61.8 26.3 61.4 25.5Q61.0 24.6 61.0 23.5L61.0 23.5Q61.0 22.3 61.4 21.4Q61.8 20.6 62.4 20.2Q63.1 19.8 63.9 19.8L63.9 19.8Q64.5 19.8 64.9 20.0Q65.3 20.2 65.5 20.5Q65.8 20.8 65.9 21.1L65.9 21.1L66.0 21.1L66.0 17.5L67.9 17.5L67.9 27L66.0 27L66.0 25.9L65.9 25.9Q65.8 26.1 65.5 26.4Q65.3 26.7 64.9 26.9Q64.5 27.1 63.9 27.1ZM64.5 25.6L64.5 25.6Q65.0 25.6 65.3 25.3Q65.6 25.1 65.8 24.6Q66.0 24.1 66.0 23.5L66.0 23.5Q66.0 22.8 65.8 22.3Q65.6 21.9 65.3 21.6Q65.0 21.3 64.5 21.3L64.5 21.3Q64.0 21.3 63.6 21.6Q63.3 21.9 63.1 22.4Q63.0 22.8 63.0 23.5L63.0 23.5Q63.0 24.1 63.1 24.6Q63.3 25.0 63.6 25.3Q64.0 25.6 64.5 25.6ZM72.5 27.1L72.5 27.1Q71.4 27.1 70.6 26.7Q69.8 26.3 69.4 25.4Q69.0 24.6 69.0 23.5L69.0 23.5Q69.0 22.4 69.4 21.6Q69.8 20.7 70.6 20.3Q71.4 19.8 72.4 19.8L72.4 19.8Q73.1 19.8 73.7 20.0Q74.3 20.3 74.8 20.7Q75.2 21.2 75.5 21.8Q75.7 22.5 75.7 23.4L75.7 23.4L75.7 23.9L70.9 23.9Q70.9 24.5 71.1 24.9L71.1 24.9Q71.3 25.3 71.7 25.5Q72.0 25.7 72.5 25.7L72.5 25.7Q72.9 25.7 73.1 25.6Q73.4 25.5 73.6 25.3Q73.8 25.1 73.9 24.9L73.9 24.9L75.6 25.2Q75.5 25.8 75.0 26.2Q74.6 26.7 74.0 26.9Q73.3 27.1 72.5 27.1ZM70.9 22.8L70.9 22.8L73.9 22.8Q73.9 22.4 73.7 22.1L73.7 22.1Q73.6 21.7 73.2 21.5Q72.9 21.2 72.4 21.2L72.4 21.2Q71.9 21.2 71.6 21.5Q71.2 21.7 71.1 22.1L71.1 22.1Q70.9 22.4 70.9 22.8ZM78.2 27.1L78.2 27.1Q77.7 27.1 77.4 26.8Q77.1 26.5 77.1 26.0L77.1 26.0Q77.1 25.6 77.4 25.3Q77.7 24.9 78.2 24.9L78.2 24.9Q78.7 24.9 79.0 25.3Q79.3 25.6 79.3 26.0L79.3 26.0Q79.3 26.5 79.0 26.8Q78.7 27.1 78.2 27.1ZM81.0 27.3L81.0 19.9L82.9 19.9L82.9 27.4Q82.9 28.2 82.6 28.7Q82.2 29.2 81.7 29.4Q81.1 29.7 80.2 29.7L80.2 29.7L79.8 29.7L79.8 28.2L80.1 28.2Q80.6 28.2 80.8 27.9Q81.0 27.7 81.0 27.3L81.0 27.3ZM81.9 19.0L81.9 19.0Q81.5 19.0 81.2 18.7Q80.9 18.4 80.9 18.0L80.9 18.0Q80.9 17.6 81.2 17.3Q81.5 17.0 81.9 17.0L81.9 17.0Q82.4 17.0 82.7 17.3Q83.0 17.6 83.0 18.0L83.0 18.0Q83.0 18.4 82.7 18.7Q82.4 19.0 81.9 19.0ZM87.1 27.1L87.1 27.1Q86.3 27.1 85.6 26.9Q84.9 26.7 84.5 26.2Q84.1 25.7 84.0 25.1L84.0 25.1L85.8 24.8Q85.9 25.2 86.2 25.5Q86.6 25.7 87.2 25.7L87.2 25.7Q87.7 25.7 88.0 25.5Q88.3 25.3 88.3 25.0L88.3 25.0Q88.3 24.7 88.1 24.6Q87.9 24.4 87.4 24.3L87.4 24.3L86.2 24.0Q85.2 23.8 84.7 23.3Q84.2 22.8 84.2 22.0L84.2 22.0Q84.2 21.3 84.5 20.8Q84.9 20.3 85.6 20.1Q86.2 19.8 87.1 19.8L87.1 19.8Q88.0 19.8 88.6 20.0Q89.2 20.3 89.6 20.7Q90.0 21.1 90.1 21.7L90.1 21.7L88.4 22.0Q88.3 21.6 88.0 21.4Q87.7 21.2 87.2 21.2L87.2 21.2Q86.7 21.2 86.4 21.4Q86.1 21.6 86.1 21.9L86.1 21.9Q86.1 22.2 86.3 22.4Q86.5 22.5 87.0 22.6L87.0 22.6L88.3 22.9Q89.3 23.1 89.8 23.6Q90.3 24.0 90.3 24.8L90.3 24.8Q90.3 25.5 89.9 26.0Q89.5 26.6 88.8 26.8Q88.0 27.1 87.1 27.1Z "/></g></svg>