<!-- Generated by readme-aura https://github.com/collectioneur/readme-aura -->
<svg width="100" height="44" viewBox="0 0 100 44" xmlns="http://www.w3.org/2000/svg"><mask id="satori_om-id"><rect x="0" y="0" width="100" height="44" fill="#fff"/></mask><path x="0" y="0" width="100" height="44" fill="#141414" d="M22,0 h56 a22,22 0 0 1 22,22 v0 a22,22 0 0 1 -22,22 h-56 a22,22 0 0 1 -22,-22 v0 a22,22 0 0 1 22,-22"/><clipPath id="satori_cp-id-0"><rect x="0" y="0" width="100" height="44"/></clipPath><mask id="satori_om-id-0"><rect x="0" y="0" width="100" height="44" fill="#fff"/></mask><svg x="0" y="0" width="100" height="44" preserveAspectRatio="none" clip-path="url(#satori_cp-id-0)" mask="url(#satori_om-id-0)"><defs><linearGradient id="smb-grad-GitHub" gradientUnits="objectBoundingBox" x1="0" y1="0" x2="1" y2="1"><stop offset="0%" stop-color="#ffffff"></stop><stop offset="15%" stop-color="#141414"></stop><stop offset="30%" stop-color="#cccccc"></stop><stop offset="50%" stop-color="#ffffff"></stop><stop offset="65%" stop-color="#141414"></stop><stop offset="80%" stop-color="#888888"></stop><stop offset="100%" stop-color="#444444"></stop><animateTransform attributeName="gradientTransform" type="rotate" from="0 0.5 0.5" to="360 0.5 0.5" dur="8s" repeatCount="indefinite"></animateTransform></linearGradient></defs><rect x="1.25" y="1.25" width="97.5" height="41.5" rx="20.75" ry="20.75" fill="none" stroke="url(#smb-grad-GitHub)" stroke-width="2" stroke-linecap="round" stroke-linejoin="round"></rect><rect x="0.25" y="0.25" width="99.5" height="43.5" rx="21.75" ry="21.75" fill="none" stroke="#AAAAAA" stroke-width="0.5" stroke-linecap="round" stroke-linejoin="round"></rect></svg><mask id="satori_om-id-0-0"><rect x="0" y="0" width="0" height="44" fill="#fff"/></mask><mask id="satori_om-id-0-0-0"><rect x="0" y="0" width="0" height="44" fill="#fff"/></mask><mask id="satori_om-id-0-0-0-0"><rect x="0" y="0" width="0" height="44" fill="#fff"/></mask><mask id="satori_om-id-0-0-0-1"><rect x="0" y="0" width="0" height="44" fill="#fff"/></mask><mask id="satori_om-id-0-0-0-2"><rect x="0" y="0" width="0" height="44" fill="#fff"/></mask><mask id="satori_om-id-0-0-0-3"><rect x="0" y="0" width="0" height="44" fill="#fff"/></mask><mask id="satori_om-id-0-0-0-4"><rect x="0" y="0" width="0" height="44" fill="#fff"/></mask><mask id="satori_om-id-0-0-0-5"><rect x="0" y="0" width="0" height="44" fill="#fff"/></mask><mask id="satori_om-id-0-0-0-6"><rect x="0" y="0" width="0" height="44" fill="#fff"/></mask><mask id="satori_om-id-0-0-0-7"><rect x="0" y="0" width="0" height="44" fill="#fff"/></mask><mask id="satori_om-id-0-1"><rect x="0" y="0" width="0" height="44" fill="#fff"/></mask><mask id="satori_om-id-0-2"><rect x="0" y="0" width="0" height="44" fill="#fff"/></mask><mask id="satori_om-id-1"><rect x="0" y="0" width="100" height="44" fill="#fff"/></mask><mask id="satori_om-id-1-0"><rect x="15" y="11" width="22" height="22" fill="#fff"/></mask><mask id="satori_om-id-1-1"><rect x="42" y="14" width="43" height="16" fill="#fff"/></mask><g  ><path fill="#ffffff" d="M47.0 27.1L47.0 27.1Q45.7 27.1 44.7 26.5Q43.7 26.0 43.2 24.9Q42.6 23.8 42.6 22.3L42.6 22.3Q42.6 20.7 43.2 19.7Q43.8 18.6 44.8 18.0Q45.8 17.4 47.0 17.4L47.0 17.4Q47.8 17.4 48.5 17.6Q49.2 17.9 49.7 18.3Q50.3 18.7 50.6 19.3Q50.9 19.9 51.0 20.6L51.0 20.6L49.1 20.6Q49.0 20.3 48.8 20.0Q48.6 19.7 48.3 19.5Q48.1 19.3 47.8 19.2Q47.4 19.1 47.0 19.1L47.0 19.1Q46.3 19.1 45.7 19.5Q45.2 19.9 44.9 20.6Q44.6 21.3 44.6 22.3Q44.6 23.3 44.9 24.0Q45.2 24.7 45.7 25.0Q46.3 25.4 47.1 25.4L47.1 25.4Q47.7 25.4 48.2 25.2Q48.7 24.9 49.0 24.4L49.0 24.4Q49.2 24.0 49.2 23.4L49.2 23.4L47.2 23.4L47.2 22.0L51.1 22.0L51.1 23.1Q51.1 24.4 50.6 25.3Q50.1 26.2 49.2 26.6Q48.2 27.1 47.0 27.1ZM54.3 27L52.4 27L52.4 19.9L54.3 19.9L54.3 27ZM53.3 19.0L53.3 19.0Q52.9 19.0 52.6 18.7Q52.3 18.4 52.3 18.0L52.3 18.0Q52.3 17.6 52.6 17.3Q52.9 17.0 53.3 17.0L53.3 17.0Q53.8 17.0 54.1 17.3Q54.4 17.6 54.4 18.0L54.4 18.0Q54.4 18.4 54.1 18.7Q53.8 19.0 53.3 19.0ZM57.9 19.9L59.2 19.9L59.2 21.4L57.9 21.4L57.9 24.9Q57.9 25.3 58.0 25.4Q58.2 25.6 58.5 25.6L58.5 25.6Q58.6 25.6 58.8 25.6Q59.0 25.5 59.1 25.5L59.1 25.5L59.4 26.9Q59.1 27.0 58.8 27.1Q58.5 27.1 58.2 27.1L58.2 27.1Q57.1 27.1 56.5 26.6Q56.0 26.1 56.0 25.1L56.0 25.1L56.0 21.4L55.0 21.4L55.0 19.9L56.0 19.9L56.0 18.2L57.9 18.2L57.9 19.9ZM62.2 27L60.3 27L60.3 17.5L62.2 17.5L62.2 21.4L66.4 21.4L66.4 17.5L68.3 17.5L68.3 27L66.4 27L66.4 23.0L62.2 23.0L62.2 27ZM72.2 27.1L72.2 27.1Q71.5 27.1 70.9 26.8Q70.4 26.4 70.1 25.8Q69.8 25.2 69.8 24.4L69.8 24.4L69.8 19.9L71.7 19.9L71.7 24.1Q71.7 24.7 72.0 25.1Q72.4 25.5 73.0 25.5L73.0 25.5Q73.4 25.5 73.7 25.3Q74.0 25.1 74.2 24.8Q74.3 24.5 74.3 24.0L74.3 24.0L74.3 19.9L76.2 19.9L76.2 27L74.4 27L74.4 25.5Q74.1 26.2 73.7 26.6L73.7 26.6Q73.1 27.1 72.2 27.1ZM81.6 27.1L81.6 27.1Q81.1 27.1 80.7 26.9Q80.3 26.7 80.0 26.4Q79.8 26.1 79.6 25.9L79.6 25.9L79.5 25.9L79.5 27L77.7 27L77.7 17.5L79.6 17.5L79.6 21.1L79.6 21.1Q79.8 20.8 80.0 20.5Q80.2 20.2 80.6 20.0Q81.0 19.8 81.6 19.8L81.6 19.8Q82.4 19.8 83.1 20.2Q83.7 20.6 84.1 21.4Q84.5 22.3 84.5 23.5L84.5 23.5Q84.5 24.6 84.1 25.5Q83.8 26.3 83.1 26.7Q82.5 27.1 81.6 27.1ZM81.0 25.6L81.0 25.6Q81.5 25.6 81.9 25.3Q82.2 25.0 82.4 24.6Q82.6 24.1 82.6 23.5L82.6 23.5Q82.6 22.8 82.4 22.4Q82.2 21.9 81.9 21.6Q81.5 21.3 81.0 21.3L81.0 21.3Q80.6 21.3 80.2 21.6Q79.9 21.9 79.7 22.3Q79.5 22.8 79.5 23.5L79.5 23.5Q79.5 24.1 79.7 24.6Q79.9 25.1 80.2 25.3Q80.6 25.6 81.0 25.6Z "/></g></svg>