<!-- Generated by readme-aura https://github.com/collectioneur/readme-aura -->
<svg width="90" height="44" viewBox="0 0 90 44" xmlns="http://www.w3.org/2000/svg"><mask id="satori_om-id"><rect x="0" y="0" width="90" height="44" fill="#fff"/></mask><path x="0" y="0" width="90" height="44" fill="#000000" d="M22,0 h46 a22,22 0 0 1 22,22 v0 a22,22 0 0 1 -22,22 h-46 a22,22 0 0 1 -22,-22 v0 a22,22 0 0 1 22,-22"/><clipPath id="satori_cp-id-0"><rect x="0" y="0" width="90" height="44"/></clipPath><mask id="satori_om-id-0"><rect x="0" y="0" width="90" height="44" fill="#fff"/></mask><svg x="0" y="0" width="90" height="44" preserveAspectRatio="none" clip-path="url(#satori_cp-id-0)" mask="url(#satori_om-id-0)"><defs><linearGradient id="smb-grad-Java" gradientUnits="objectBoundingBox" x1="0" y1="0" x2="1" y2="1"><stop offset="0%" stop-color="#d855f7"></stop><stop offset="30%" stop-color="#000000"></stop><stop offset="60%" stop-color="#b557e8"></stop><stop offset="80%" stop-color="#000000"></stop><stop offset="100%" stop-color="#cc6ef9"></stop><animateTransform attributeName="gradientTransform" type="rotate" from="0 0.5 0.5" to="360 0.5 0.5" dur="8s" repeatCount="indefinite"></animateTransform></linearGradient></defs><rect x="1.25" y="1.25" width="87.5" height="41.5" rx="20.75" ry="20.75" fill="none" stroke="url(#smb-grad-Java)" stroke-width="2" stroke-linecap="round" stroke-linejoin="round"></rect><rect x="0.25" y="0.25" width="89.5" height="43.5" rx="21.75" ry="21.75" fill="none" stroke="#AAAAAA" stroke-width="0.5" stroke-linecap="round" stroke-linejoin="round"></rect></svg><mask id="satori_om-id-0-0"><rect x="0" y="0" width="0" height="44" fill="#fff"/></mask><mask id="satori_om-id-0-0-0"><rect x="0" y="0" width="0" height="44" fill="#fff"/></mask><mask id="satori_om-id-0-0-0-0"><rect x="0" y="0" width="0" height="44" fill="#fff"/></mask><mask id="satori_om-id-0-0-0-1"><rect x="0" y="0" width="0" height="44" fill="#fff"/></mask><mask id="satori_om-id-0-0-0-2"><rect x="0" y="0" width="0" height="44" fill="#fff"/></mask><mask id="satori_om-id-0-0-0-3"><rect x="0" y="0" width="0" height="44" fill="#fff"/></mask><mask id="satori_om-id-0-0-0-4"><rect x="0" y="0" width="0" height="44" fill="#fff"/></mask><mask id="satori_om-id-0-0-0-5"><rect x="0" y="0" width="0" height="44" fill="#fff"/></mask><mask id="satori_om-id-0-1"><rect x="0" y="0" width="0" height="44" fill="#fff"/></mask><mask id="satori_om-id-0-2"><rect x="0" y="0" width="0" height="44" fill="#fff"/></mask><mask id="satori_om-id-1"><rect x="0" y="0" width="90" height="44" fill="#fff"/></mask><mask id="satori_om-id-1-0"><rect x="19" y="13" width="18" height="18" fill="#fff"/></mask><mask id="satori_om-id-1-1"><rect x="42" y="14" width="30" height="16" fill="#fff"/></mask><g  ><path fill="#f5f5f5" d="M45.6 27.1L45.6 27.1Q44.1 27.1 43.3 26.4Q42.4 25.6 42.4 24.2L42.4 24.2L42.4 23.6L44.4 23.6L44.4 24.2Q44.4 24.9 44.7 25.2Q45.0 25.6 45.6 25.6L45.6 25.6Q46.2 25.6 46.5 25.2Q46.8 24.9 46.8 24.2L46.8 24.2L46.8 17.5L48.7 17.5L48.7 24.1Q48.7 25.6 47.9 26.4Q47.1 27.1 45.6 27.1ZM52.2 27.1L52.2 27.1Q51.5 27.1 51.0 26.9Q50.4 26.7 50.1 26.2Q49.8 25.7 49.8 25.0L49.8 25.0Q49.8 24.4 50.0 24.0Q50.3 23.6 50.6 23.4Q51.0 23.1 51.5 23.0Q52.0 22.9 52.5 22.8L52.5 22.8Q53.1 22.8 53.5 22.7Q53.9 22.7 54.1 22.5Q54.2 22.4 54.2 22.2L54.2 22.2L54.2 22.2Q54.2 21.9 54.1 21.7Q54.0 21.4 53.7 21.3Q53.5 21.2 53.1 21.2L53.1 21.2Q52.7 21.2 52.5 21.3Q52.2 21.4 52.0 21.6Q51.9 21.8 51.8 22.0L51.8 22.0L50.0 21.8Q50.2 21.1 50.6 20.7Q51.1 20.3 51.7 20.0Q52.3 19.8 53.1 19.8L53.1 19.8Q53.7 19.8 54.2 20.0Q54.8 20.1 55.2 20.4Q55.6 20.7 55.9 21.1Q56.1 21.6 56.1 22.2L56.1 22.2L56.1 27L54.3 27L54.3 26.0L54.3 26.0Q54.1 26.3 53.8 26.6Q53.5 26.8 53.1 27.0Q52.7 27.1 52.2 27.1ZM52.7 25.8L52.7 25.8Q53.2 25.8 53.5 25.6Q53.9 25.4 54.1 25.1Q54.2 24.8 54.2 24.5L54.2 24.5L54.2 23.7Q54.2 23.8 54.0 23.8Q53.8 23.9 53.6 23.9Q53.4 23.9 53.2 24.0Q53.0 24.0 52.8 24.0L52.8 24.0Q52.5 24.1 52.2 24.2Q51.9 24.3 51.8 24.5Q51.7 24.7 51.7 25.0L51.7 25.0Q51.7 25.2 51.8 25.4Q51.9 25.6 52.2 25.7Q52.4 25.8 52.7 25.8ZM61.7 27L59.6 27L56.9 19.9L59.0 19.9L60.2 23.6Q60.4 24.3 60.5 25.0L60.5 25.0Q60.6 25.3 60.7 25.5L60.7 25.5Q60.7 25.3 60.8 25.0L60.8 25.0Q60.9 24.3 61.2 23.6L61.2 23.6L62.3 19.9L64.3 19.9L61.7 27ZM67.1 27.1L67.1 27.1Q66.5 27.1 65.9 26.9Q65.4 26.7 65.1 26.2Q64.8 25.7 64.8 25.0L64.8 25.0Q64.8 24.4 65.0 24.0Q65.2 23.6 65.6 23.4Q66.0 23.1 66.4 23.0Q66.9 22.9 67.5 22.8L67.5 22.8Q68.1 22.8 68.4 22.7Q68.8 22.7 69.0 22.5Q69.2 22.4 69.2 22.2L69.2 22.2L69.2 22.2Q69.2 21.9 69.0 21.7Q68.9 21.4 68.7 21.3Q68.4 21.2 68.1 21.2L68.1 21.2Q67.7 21.2 67.4 21.3Q67.1 21.4 67.0 21.6Q66.8 21.8 66.7 22.0L66.7 22.0L65.0 21.8Q65.2 21.1 65.6 20.7Q66.0 20.3 66.6 20.0Q67.3 19.8 68.1 19.8L68.1 19.8Q68.6 19.8 69.2 20.0Q69.7 20.1 70.1 20.4Q70.6 20.7 70.8 21.1Q71.1 21.6 71.1 22.2L71.1 22.2L71.1 27L69.3 27L69.3 26.0L69.2 26.0Q69.0 26.3 68.8 26.6Q68.5 26.8 68.1 27.0Q67.7 27.1 67.1 27.1ZM67.7 25.8L67.7 25.8Q68.1 25.8 68.5 25.6Q68.8 25.4 69.0 25.1Q69.2 24.8 69.2 24.5L69.2 24.5L69.2 23.7Q69.1 23.8 68.9 23.8Q68.8 23.9 68.5 23.9Q68.3 23.9 68.1 24.0Q67.9 24.0 67.8 24.0L67.8 24.0Q67.4 24.1 67.2 24.2Q66.9 24.3 66.7 24.5Q66.6 24.7 66.6 25.0L66.6 25.0Q66.6 25.2 66.7 25.4Q66.9 25.6 67.1 25.7Q67.4 25.8 67.7 25.8Z "/></g></svg>