<!-- Generated by readme-aura https://github.com/collectioneur/readme-aura -->
<svg width="100" height="44" viewBox="0 0 100 44" xmlns="http://www.w3.org/2000/svg"><mask id="satori_om-id"><rect x="0" y="0" width="100" height="44" fill="#fff"/></mask><path x="0" y="0" width="100" height="44" fill="#3c140d" d="M22,0 h56 a22,22 0 0 1 22,22 v0 a22,22 0 0 1 -22,22 h-56 a22,22 0 0 1 -22,-22 v0 a22,22 0 0 1 22,-22"/><clipPath id="satori_cp-id-0"><rect x="0" y="0" width="100" height="44"/></clipPath><mask id="satori_om-id-0"><rect x="0" y="0" width="100" height="44" fill="#fff"/></mask><svg x="0" y="0" width="100" height="44" preserveAspectRatio="none" clip-path="url(#satori_cp-id-0)" mask="url(#satori_om-id-0)"><defs><linearGradient id="smb-grad-Git" gradientUnits="objectBoundingBox" x1="0" y1="0" x2="1" y2="1"><stop offset="0%" stop-color="#ffffff"></stop><stop offset="15%" stop-color="#3c140d"></stop><stop offset="30%" stop-color="#cccccc"></stop><stop offset="50%" stop-color="#F05032"></stop><stop offset="65%" stop-color="#3c140d"></stop><stop offset="80%" stop-color="#888888"></stop><stop offset="100%" stop-color="#444444"></stop><animateTransform attributeName="gradientTransform" type="rotate" from="0 0.5 0.5" to="360 0.5 0.5" dur="8s" repeatCount="indefinite"></animateTransform></linearGradient></defs><rect x="1.25" y="1.25" width="97.5" height="41.5" rx="20.75" ry="20.75" fill="none" stroke="url(#smb-grad-Git)" stroke-width="2" stroke-linecap="round" stroke-linejoin="round"></rect><rect x="0.25" y="0.25" width="99.5" height="43.5" rx="21.75" ry="21.75" fill="none" stroke="#AAAAAA" stroke-width="0.5" stroke-linecap="round" stroke-linejoin="round"></rect></svg><mask id="satori_om-id-0-0"><rect x="0" y="0" width="0" height="44" fill="#fff"/></mask><mask id="satori_om-id-0-0-0"><rect x="0" y="0" width="0" height="44" fill="#fff"/></mask><mask id="satori_om-id-0-0-0-0"><rect x="0" y="0" width="0" height="44" fill="#fff"/></mask><mask id="satori_om-id-0-0-0-1"><rect x="0" y="0" width="0" height="44" fill="#fff"/></mask><mask id="satori_om-id-0-0-0-2"><rect x="0" y="0" width="0" height="44" fill="#fff"/></mask><mask id="satori_om-id-0-0-0-3"><rect x="0" y="0" width="0" height="44" fill="#fff"/></mask><mask id="satori_om-id-0-0-0-4"><rect x="0" y="0" width="0" height="44" fill="#fff"/></mask><mask id="satori_om-id-0-0-0-5"><rect x="0" y="0" width="0" height="44" fill="#fff"/></mask><mask id="satori_om-id-0-0-0-6"><rect x="0" y="0" width="0" height="44" fill="#fff"/></mask><mask id="satori_om-id-0-0-0-7"><rect x="0" y="0" width="0" height="44" fill="#fff"/></mask><mask id="satori_om-id-0-1"><rect x="0" y="0" width="0" height="44" fill="#fff"/></mask><mask id="satori_om-id-0-2"><rect x="0" y="0" width="0" height="44" fill="#fff"/></mask><mask id="satori_om-id-1"><rect x="0" y="0" width="100" height="44" fill="#fff"/></mask><mask id="satori_om-id-1-0"><rect x="28" y="11" width="22" height="22" fill="#fff"/></mask><mask id="satori_om-id-1-1"><rect x="55" y="14" width="18" height="16" fill="#fff"/></mask><g  ><path fill="#ffffff" d="M60.0 27.1L60.0 27.1Q58.7 27.1 57.7 26.5Q56.7 26.0 56.2 24.9Q55.6 23.8 55.6 22.3L55.6 22.3Q55.6 20.7 56.2 19.7Q56.8 18.6 57.8 18.0Q58.8 17.4 60.0 17.4L60.0 17.4Q60.8 17.4 61.5 17.6Q62.2 17.9 62.7 18.3Q63.3 18.7 63.6 19.3Q63.9 19.9 64.0 20.6L64.0 20.6L62.1 20.6Q62.0 20.3 61.8 20.0Q61.6 19.7 61.3 19.5Q61.1 19.3 60.8 19.2Q60.4 19.1 60.0 19.1L60.0 19.1Q59.3 19.1 58.7 19.5Q58.2 19.9 57.9 20.6Q57.6 21.3 57.6 22.3Q57.6 23.3 57.9 24.0Q58.2 24.7 58.7 25.0Q59.3 25.4 60.1 25.4L60.1 25.4Q60.7 25.4 61.2 25.2Q61.7 24.9 62.0 24.4L62.0 24.4Q62.2 24.0 62.2 23.4L62.2 23.4L60.2 23.4L60.2 22.0L64.1 22.0L64.1 23.1Q64.1 24.4 63.6 25.3Q63.1 26.2 62.2 26.6Q61.2 27.1 60.0 27.1ZM67.3 27L65.4 27L65.4 19.9L67.3 19.9L67.3 27ZM66.3 19.0L66.3 19.0Q65.9 19.0 65.6 18.7Q65.3 18.4 65.3 18.0L65.3 18.0Q65.3 17.6 65.6 17.3Q65.9 17.0 66.3 17.0L66.3 17.0Q66.8 17.0 67.1 17.3Q67.4 17.6 67.4 18.0L67.4 18.0Q67.4 18.4 67.1 18.7Q66.8 19.0 66.3 19.0ZM70.9 19.9L72.2 19.9L72.2 21.4L70.9 21.4L70.9 24.9Q70.9 25.3 71.0 25.4Q71.2 25.6 71.5 25.6L71.5 25.6Q71.6 25.6 71.8 25.6Q72.0 25.5 72.1 25.5L72.1 25.5L72.4 26.9Q72.1 27.0 71.8 27.1Q71.5 27.1 71.2 27.1L71.2 27.1Q70.1 27.1 69.5 26.6Q69.0 26.1 69.0 25.1L69.0 25.1L69.0 21.4L68.0 21.4L68.0 19.9L69.0 19.9L69.0 18.2L70.9 18.2L70.9 19.9Z "/></g></svg>