<!-- Generated by readme-aura https://github.com/collectioneur/readme-aura -->
<svg width="90" height="44" viewBox="0 0 90 44" xmlns="http://www.w3.org/2000/svg"><mask id="satori_om-id"><rect x="0" y="0" width="90" height="44" fill="#fff"/></mask><path x="0" y="0" width="90" height="44" fill="#000000" d="M22,0 h46 a22,22 0 0 1 22,22 v0 a22,22 0 0 1 -22,22 h-46 a22,22 0 0 1 -22,-22 v0 a22,22 0 0 1 22,-22"/><clipPath id="satori_cp-id-0"><rect x="0" y="0" width="90" height="44"/></clipPath><mask id="satori_om-id-0"><rect x="0" y="0" width="90" height="44" fill="#fff"/></mask><svg x="0" y="0" width="90" height="44" preserveAspectRatio="none" clip-path="url(#satori_cp-id-0)" mask="url(#satori_om-id-0)"><defs><linearGradient id="smb-grad-GCP" gradientUnits="objectBoundingBox" x1="0" y1="0" x2="1" y2="1"><stop offset="0%" stop-color="#818cf8"></stop><stop offset="30%" stop-color="#000000"></stop><stop offset="60%" stop-color="#9298f8"></stop><stop offset="80%" stop-color="#000000"></stop><stop offset="100%" stop-color="#7479f5"></stop><animateTransform attributeName="gradientTransform" type="rotate" from="0 0.5 0.5" to="360 0.5 0.5" dur="8s" repeatCount="indefinite"></animateTransform></linearGradient></defs><rect x="1.25" y="1.25" width="87.5" height="41.5" rx="20.75" ry="20.75" fill="none" stroke="url(#smb-grad-GCP)" stroke-width="2" stroke-linecap="round" stroke-linejoin="round"></rect><rect x="0.25" y="0.25" width="89.5" height="43.5" rx="21.75" ry="21.75" fill="none" stroke="#AAAAAA" stroke-width="0.5" stroke-linecap="round" stroke-linejoin="round"></rect></svg><mask id="satori_om-id-0-0"><rect x="0" y="0" width="0" height="44" fill="#fff"/></mask><mask id="satori_om-id-0-0-0"><rect x="0" y="0" width="0" height="44" fill="#fff"/></mask><mask id="satori_om-id-0-0-0-0"><rect x="0" y="0" width="0" height="44" fill="#fff"/></mask><mask id="satori_om-id-0-0-0-1"><rect x="0" y="0" width="0" height="44" fill="#fff"/></mask><mask id="satori_om-id-0-0-0-2"><rect x="0" y="0" width="0" height="44" fill="#fff"/></mask><mask id="satori_om-id-0-0-0-3"><rect x="0" y="0" width="0" height="44" fill="#fff"/></mask><mask id="satori_om-id-0-0-0-4"><rect x="0" y="0" width="0" height="44" fill="#fff"/></mask><mask id="satori_om-id-0-0-0-5"><rect x="0" y="0" width="0" height="44" fill="#fff"/></mask><mask id="satori_om-id-0-1"><rect x="0" y="0" width="0" height="44" fill="#fff"/></mask><mask id="satori_om-id-0-2"><rect x="0" y="0" width="0" height="44" fill="#fff"/></mask><mask id="satori_om-id-1"><rect x="0" y="0" width="90" height="44" fill="#fff"/></mask><mask id="satori_om-id-1-0"><rect x="20" y="13" width="18" height="18" fill="#fff"/></mask><mask id="satori_om-id-1-1"><rect x="43" y="14" width="28" height="16" fill="#fff"/></mask><g  ><path fill="#f5f5f5" d="M48.0 27.1L48.0 27.1Q46.7 27.1 45.7 26.5Q44.7 26.0 44.2 24.9Q43.6 23.8 43.6 22.3L43.6 22.3Q43.6 20.7 44.2 19.7Q44.8 18.6 45.8 18.0Q46.8 17.4 48.0 17.4L48.0 17.4Q48.8 17.4 49.5 17.6Q50.2 17.9 50.7 18.3Q51.3 18.7 51.6 19.3Q51.9 19.9 52.0 20.6L52.0 20.6L50.1 20.6Q50.0 20.3 49.8 20.0Q49.6 19.7 49.3 19.5Q49.1 19.3 48.8 19.2Q48.4 19.1 48.0 19.1L48.0 19.1Q47.3 19.1 46.7 19.5Q46.2 19.9 45.9 20.6Q45.6 21.3 45.6 22.3Q45.6 23.3 45.9 24.0Q46.2 24.7 46.7 25.0Q47.3 25.4 48.1 25.4L48.1 25.4Q48.7 25.4 49.2 25.2Q49.7 24.9 50.0 24.4L50.0 24.4Q50.2 24.0 50.2 23.4L50.2 23.4L48.2 23.4L48.2 22.0L52.1 22.0L52.1 23.1Q52.1 24.4 51.6 25.3Q51.1 26.2 50.2 26.6Q49.2 27.1 48.0 27.1ZM57.5 27.1L57.5 27.1Q56.3 27.1 55.3 26.6Q54.3 26.0 53.7 24.9Q53.2 23.8 53.2 22.3L53.2 22.3Q53.2 20.7 53.7 19.6Q54.3 18.6 55.3 18.0Q56.3 17.4 57.5 17.4L57.5 17.4Q58.4 17.4 59.0 17.6Q59.7 17.9 60.3 18.3Q60.8 18.7 61.2 19.4Q61.5 20.0 61.6 20.8L61.6 20.8L59.7 20.8Q59.6 20.4 59.4 20.1Q59.2 19.8 59.0 19.6Q58.7 19.4 58.3 19.2Q58.0 19.1 57.6 19.1L57.6 19.1Q56.8 19.1 56.3 19.5Q55.7 19.9 55.4 20.6Q55.1 21.3 55.1 22.3L55.1 22.3Q55.1 23.3 55.4 24.0Q55.7 24.7 56.3 25.1Q56.8 25.4 57.6 25.4L57.6 25.4Q58.0 25.4 58.3 25.3Q58.7 25.2 59.0 25.0Q59.2 24.8 59.4 24.5Q59.6 24.1 59.7 23.8L59.7 23.8L61.6 23.8Q61.5 24.4 61.2 25.0Q60.9 25.6 60.4 26.1Q59.9 26.6 59.2 26.9Q58.4 27.1 57.5 27.1ZM64.8 27L62.8 27L62.8 17.5L66.5 17.5Q67.6 17.5 68.4 18.0Q69.1 18.4 69.5 19.1Q69.9 19.8 69.9 20.7L69.9 20.7Q69.9 21.7 69.5 22.4Q69.1 23.1 68.3 23.5Q67.6 23.9 66.5 23.9L66.5 23.9L64.8 23.9L64.8 27ZM64.8 19.1L64.8 22.3L66.2 22.3Q66.8 22.3 67.1 22.1Q67.5 21.9 67.7 21.6Q67.9 21.2 67.9 20.7Q67.9 20.3 67.7 19.9Q67.5 19.5 67.1 19.3Q66.8 19.1 66.2 19.1L66.2 19.1L64.8 19.1Z "/></g></svg>