<!-- Generated by readme-aura https://github.com/collectioneur/readme-aura -->
<svg width="100" height="44" viewBox="0 0 100 44" xmlns="http://www.w3.org/2000/svg"><mask id="satori_om-id"><rect x="0" y="0" width="100" height="44" fill="#fff"/></mask><path x="0" y="0" width="100" height="44" fill="#000000" d="M22,0 h56 a22,22 0 0 1 22,22 v0 a22,22 0 0 1 -22,22 h-56 a22,22 0 0 1 -22,-22 v0 a22,22 0 0 1 22,-22"/><clipPath id="satori_cp-id-0"><rect x="0" y="0" width="100" height="44"/></clipPath><mask id="satori_om-id-0"><rect x="0" y="0" width="100" height="44" fill="#fff"/></mask><svg x="0" y="0" width="100" height="44" preserveAspectRatio="none" clip-path="url(#satori_cp-id-0)" mask="url(#satori_om-id-0)"><defs><linearGradient id="smb-grad-FastAPI" gradientUnits="objectBoundingBox" x1="0" y1="0" x2="1" y2="1"><stop offset="0%" stop-color="#818cf8"></stop><stop offset="30%" stop-color="#000000"></stop><stop offset="60%" stop-color="#9298f8"></stop><stop offset="80%" stop-color="#000000"></stop><stop offset="100%" stop-color="#7479f5"></stop><animateTransform attributeName="gradientTransform" type="rotate" from="0 0.5 0.5" to="360 0.5 0.5" dur="8s" repeatCount="indefinite"></animateTransform></linearGradient></defs><rect x="1.25" y="1.25" width="97.5" height="41.5" rx="20.75" ry="20.75" fill="none" stroke="url(#smb-grad-FastAPI)" stroke-width="2" stroke-linecap="round" stroke-linejoin="round"></rect><rect x="0.25" y="0.25" width="99.5" height="43.5" rx="21.75" ry="21.75" fill="none" stroke="#AAAAAA" stroke-width="0.5" stroke-linecap="round" stroke-linejoin="round"></rect></svg><mask id="satori_om-id-0-0"><rect x="0" y="0" width="0" height="44" fill="#fff"/></mask><mask id="satori_om-id-0-0-0"><rect x="0" y="0" width="0" height="44" fill="#fff"/></mask><mask id="satori_om-id-0-0-0-0"><rect x="0" y="0" width="0" height="44" fill="#fff"/></mask><mask id="satori_om-id-0-0-0-1"><rect x="0" y="0" width="0" height="44" fill="#fff"/></mask><mask id="satori_om-id-0-0-0-2"><rect x="0" y="0" width="0" height="44" fill="#fff"/></mask><mask id="satori_om-id-0-0-0-3"><rect x="0" y="0" width="0" height="44" fill="#fff"/></mask><mask id="satori_om-id-0-0-0-4"><rect x="0" y="0" width="0" height="44" fill="#fff"/></mask><mask id="satori_om-id-0-0-0-5"><rect x="0" y="0" width="0" height="44" fill="#fff"/></mask><mask id="satori_om-id-0-1"><rect x="0" y="0" width="0" height="44" fill="#fff"/></mask><mask id="satori_om-id-0-2"><rect x="0" y="0" width="0" height="44" fill="#fff"/></mask><mask id="satori_om-id-1"><rect x="0" y="0" width="100" height="44" fill="#fff"/></mask><mask id="satori_om-id-1-0"><rect x="15" y="13" width="18" height="18" fill="#fff"/></mask><mask id="satori_om-id-1-1"><rect x="38" y="14" width="48" height="16" fill="#fff"/></mask><g  ><path fill="#f5f5f5" d="M40.8 27L38.9 27L38.9 17.5L45.1 17.5L45.1 19.1L40.8 19.1L40.8 21.8L44.7 21.8L44.7 23.4L40.8 23.4L40.8 27ZM48.2 27.1L48.2 27.1Q47.5 27.1 47.0 26.9Q46.5 26.7 46.2 26.2Q45.9 25.7 45.9 25.0L45.9 25.0Q45.9 24.4 46.1 24.0Q46.3 23.6 46.7 23.4Q47.1 23.1 47.5 23.0Q48.0 22.9 48.5 22.8L48.5 22.8Q49.2 22.8 49.5 22.7Q49.9 22.7 50.1 22.5Q50.3 22.4 50.3 22.2L50.3 22.2L50.3 22.2Q50.3 21.9 50.1 21.7Q50.0 21.4 49.8 21.3Q49.5 21.2 49.1 21.2L49.1 21.2Q48.8 21.2 48.5 21.3Q48.2 21.4 48.1 21.6Q47.9 21.8 47.8 22.0L47.8 22.0L46.1 21.8Q46.2 21.1 46.7 20.7Q47.1 20.3 47.7 20.0Q48.4 19.8 49.2 19.8L49.2 19.8Q49.7 19.8 50.3 20.0Q50.8 20.1 51.2 20.4Q51.7 20.7 51.9 21.1Q52.2 21.6 52.2 22.2L52.2 22.2L52.2 27L50.4 27L50.4 26.0L50.3 26.0Q50.1 26.3 49.8 26.6Q49.6 26.8 49.2 27.0Q48.7 27.1 48.2 27.1ZM48.8 25.8L48.8 25.8Q49.2 25.8 49.6 25.6Q49.9 25.4 50.1 25.1Q50.3 24.8 50.3 24.5L50.3 24.5L50.3 23.7Q50.2 23.8 50.0 23.8Q49.8 23.9 49.6 23.9Q49.4 23.9 49.2 24.0Q49.0 24.0 48.9 24.0L48.9 24.0Q48.5 24.1 48.2 24.2Q48.0 24.3 47.8 24.5Q47.7 24.7 47.7 25.0L47.7 25.0Q47.7 25.2 47.8 25.4Q48.0 25.6 48.2 25.7Q48.5 25.8 48.8 25.8ZM56.4 27.1L56.4 27.1Q55.6 27.1 54.9 26.9Q54.2 26.7 53.8 26.2Q53.4 25.7 53.3 25.1L53.3 25.1L55.0 24.8Q55.2 25.2 55.5 25.5Q55.9 25.7 56.5 25.7L56.5 25.7Q57.0 25.7 57.3 25.5Q57.6 25.3 57.6 25.0L57.6 25.0Q57.6 24.7 57.4 24.6Q57.2 24.4 56.7 24.3L56.7 24.3L55.5 24.0Q54.5 23.8 54.0 23.3Q53.5 22.8 53.5 22.0L53.5 22.0Q53.5 21.3 53.8 20.8Q54.2 20.3 54.9 20.1Q55.5 19.8 56.4 19.8L56.4 19.8Q57.3 19.8 57.9 20.0Q58.5 20.3 58.9 20.7Q59.3 21.1 59.4 21.7L59.4 21.7L57.7 22.0Q57.6 21.6 57.3 21.4Q57.0 21.2 56.5 21.2L56.5 21.2Q56.0 21.2 55.7 21.4Q55.4 21.6 55.4 21.9L55.4 21.9Q55.4 22.2 55.6 22.4Q55.8 22.5 56.3 22.6L56.3 22.6L57.6 22.9Q58.6 23.1 59.1 23.6Q59.6 24.0 59.6 24.8L59.6 24.8Q59.6 25.5 59.2 26.0Q58.8 26.6 58.1 26.8Q57.3 27.1 56.4 27.1ZM62.9 19.9L64.2 19.9L64.2 21.4L62.9 21.4L62.9 24.9Q62.9 25.3 63.0 25.4Q63.2 25.6 63.5 25.6L63.5 25.6Q63.6 25.6 63.8 25.6Q64.0 25.5 64.1 25.5L64.1 25.5L64.4 26.9Q64.1 27.0 63.8 27.1Q63.4 27.1 63.2 27.1L63.2 27.1Q62.1 27.1 61.5 26.6Q61.0 26.1 61.0 25.1L61.0 25.1L61.0 21.4L60.0 21.4L60.0 19.9L61.0 19.9L61.0 18.2L62.9 18.2L62.9 19.9ZM66.9 27L64.7 27L68.0 17.5L70.5 17.5L73.8 27L71.7 27L70.9 24.8L67.6 24.8L66.9 27ZM68.1 23.3L70.4 23.3L70.1 22.4Q69.9 21.6 69.6 20.5L69.6 20.5Q69.4 19.8 69.2 19.1L69.2 19.1Q69.0 19.8 68.9 20.5L68.9 20.5Q68.6 21.6 68.3 22.4L68.3 22.4L68.1 23.3ZM76.7 27L74.8 27L74.8 17.5L78.5 17.5Q79.5 17.5 80.3 18.0Q81.1 18.4 81.5 19.1Q81.9 19.8 81.9 20.7L81.9 20.7Q81.9 21.7 81.4 22.4Q81.0 23.1 80.3 23.5Q79.5 23.9 78.4 23.9L78.4 23.9L76.7 23.9L76.7 27ZM76.7 19.1L76.7 22.3L78.1 22.3Q78.7 22.3 79.1 22.1Q79.5 21.9 79.7 21.6Q79.9 21.2 79.9 20.7Q79.9 20.3 79.7 19.9Q79.5 19.5 79.1 19.3Q78.7 19.1 78.1 19.1L78.1 19.1L76.7 19.1ZM83.0 17.5L84.9 17.5L84.9 27L83.0 27L83.0 17.5Z "/></g></svg>