<!-- Generated by readme-aura https://github.com/collectioneur/readme-aura -->
<svg width="110" height="44" viewBox="0 0 110 44" xmlns="http://www.w3.org/2000/svg"><mask id="satori_om-id"><rect x="0" y="0" width="110" height="44" fill="#fff"/></mask><path x="0" y="0" width="110" height="44" fill="#122912" d="M22,0 h66 a22,22 0 0 1 22,22 v0 a22,22 0 0 1 -22,22 h-66 a22,22 0 0 1 -22,-22 v0 a22,22 0 0 1 22,-22"/><clipPath id="satori_cp-id-0"><rect x="0" y="0" width="110" height="44"/></clipPath><mask id="satori_om-id-0"><rect x="0" y="0" width="110" height="44" fill="#fff"/></mask><svg x="0" y="0" width="110" height="44" preserveAspectRatio="none" clip-path="url(#satori_cp-id-0)" mask="url(#satori_om-id-0)"><defs><linearGradient id="smb-grad-MongoDB" gradientUnits="objectBoundingBox" x1="0" y1="0" x2="1" y2="1"><stop offset="0%" stop-color="#ffffff"></stop><stop offset="15%" stop-color="#122912"></stop><stop offset="30%" stop-color="#cccccc"></stop><stop offset="50%" stop-color="#47A248"></stop><stop offset="65%" stop-color="#122912"></stop><stop offset="80%" stop-color="#888888"></stop><stop offset="100%" stop-color="#444444"></stop><animateTransform attributeName="gradientTransform" type="rotate" from="0 0.5 0.5" to="360 0.5 0.5" dur="8s" repeatCount="indefinite"></animateTransform></linearGradient></defs><rect x="1.25" y="1.25" width="107.5" height="41.5" rx="20.75" ry="20.75" fill="none" stroke="url(#smb-grad-MongoDB)" stroke-width="2" stroke-linecap="round" stroke-linejoin="round"></rect><rect x="0.25" y="0.25" width="109.5" height="43.5" rx="21.75" ry="21.75" fill="none" stroke="#AAAAAA" stroke-width="0.5" stroke-linecap="round" stroke-linejoin="round"></rect></svg><mask id="satori_om-id-0-0"><rect x="0" y="0" width="0" height="44" fill="#fff"/></mask><mask id="satori_om-id-0-0-0"><rect x="0" y="0" width="0" height="44" fill="#fff"/></mask><mask id="satori_om-id-0-0-0-0"><rect x="0" y="0" width="0" height="44" fill="#fff"/></mask><mask id="satori_om-id-0-0-0-1"><rect x="0" y="0" width="0" height="44" fill="#fff"/></mask><mask id="satori_om-id-0-0-0-2"><rect x="0" y="0" width="0" height="44" fill="#fff"/></mask><mask id="satori_om-id-0-0-0-3"><rect x="0" y="0" width="0" height="44" fill="#fff"/></mask><mask id="satori_om-id-0-0-0-4"><rect x="0" y="0" width="0" height="44" fill="#fff"/></mask><mask id="satori_om-id-0-0-0-5"><rect x="0" y="0" width="0" height="44" fill="#fff"/></mask><mask id="satori_om-id-0-0-0-6"><rect x="0" y="0" width="0" height="44" fill="#fff"/></mask><mask id="satori_om-id-0-0-0-7"><rect x="0" y="0" width="0" height="44" fill="#fff"/></mask><mask id="satori_om-id-0-1"><rect x="0" y="0" width="0" height="44" fill="#fff"/></mask><mask id="satori_om-id-0-2"><rect x="0" y="0" width="0" height="44" fill="#fff"/></mask><mask id="satori_om-id-1"><rect x="0" y="0" width="110" height="44" fill="#fff"/></mask><mask id="satori_om-id-1-0"><rect x="12" y="11" width="22" height="22" fill="#fff"/></mask><mask id="satori_om-id-1-1"><rect x="39" y="14" width="59" height="16" fill="#fff"/></mask><g  ><path fill="#ffffff" d="M41.8 27L39.9 27L39.9 17.5L42.8 17.5L44.4 21.9Q44.5 22.2 44.6 22.7Q44.7 23.2 44.8 23.7L44.8 23.7Q45.0 24.3 45.1 24.8L45.1 24.8Q45.2 24.3 45.3 23.7L45.3 23.7Q45.4 23.2 45.5 22.7Q45.7 22.2 45.8 21.9L45.8 21.9L47.3 17.5L50.3 17.5L50.3 27L48.3 27L48.3 22.5Q48.3 22.2 48.3 21.8Q48.3 21.3 48.3 20.8Q48.4 20.2 48.4 19.7L48.4 19.7Q48.4 19.4 48.4 19.2L48.4 19.2Q48.3 19.5 48.2 19.8L48.2 19.8Q48.1 20.3 48.0 20.8Q47.8 21.4 47.7 21.8Q47.5 22.3 47.4 22.5L47.4 22.5L45.9 27L44.2 27L42.6 22.5Q42.6 22.3 42.4 21.8Q42.3 21.4 42.1 20.9Q42.0 20.3 41.8 19.8L41.8 19.8Q41.8 19.5 41.7 19.3L41.7 19.3Q41.7 19.5 41.7 19.7L41.7 19.7Q41.7 20.2 41.7 20.7Q41.8 21.3 41.8 21.8Q41.8 22.2 41.8 22.5L41.8 22.5L41.8 27ZM54.9 27.1L54.9 27.1Q53.8 27.1 53.1 26.7Q52.3 26.2 51.8 25.4Q51.4 24.6 51.4 23.5L51.4 23.5Q51.4 22.4 51.8 21.6Q52.3 20.7 53.1 20.3Q53.8 19.8 54.9 19.8L54.9 19.8Q56.0 19.8 56.7 20.3Q57.5 20.7 57.9 21.6Q58.4 22.4 58.4 23.5L58.4 23.5Q58.4 24.6 57.9 25.4Q57.5 26.2 56.7 26.7Q56.0 27.1 54.9 27.1ZM54.9 25.6L54.9 25.6Q55.4 25.6 55.7 25.4Q56.1 25.1 56.3 24.6Q56.4 24.1 56.4 23.5L56.4 23.5Q56.4 22.8 56.3 22.4Q56.1 21.9 55.7 21.6Q55.4 21.3 54.9 21.3L54.9 21.3Q54.4 21.3 54.1 21.6Q53.7 21.9 53.5 22.4Q53.4 22.8 53.4 23.5L53.4 23.5Q53.4 24.1 53.5 24.6Q53.7 25.1 54.1 25.4Q54.4 25.6 54.9 25.6ZM61.4 22.9L61.4 22.9L61.4 27L59.5 27L59.5 19.9L61.3 19.9L61.3 21.4Q61.6 20.7 62.1 20.3L62.1 20.3Q62.6 19.8 63.5 19.8L63.5 19.8Q64.3 19.8 64.8 20.1Q65.4 20.5 65.7 21.1Q66.0 21.7 66.0 22.5L66.0 22.5L66.0 27L64.1 27L64.1 22.8Q64.1 22.2 63.7 21.8Q63.4 21.4 62.8 21.4L62.8 21.4Q62.4 21.4 62.1 21.6Q61.7 21.8 61.6 22.1Q61.4 22.4 61.4 22.9ZM70.5 29.8L70.5 29.8Q69.7 29.8 69.0 29.6Q68.3 29.4 67.9 29.0Q67.5 28.6 67.4 28.1L67.4 28.1L69.0 27.6Q69.1 27.8 69.3 28.0Q69.5 28.2 69.8 28.3Q70.1 28.4 70.5 28.4L70.5 28.4Q71.3 28.4 71.7 28.1Q72.1 27.8 72.1 27.1L72.1 27.1L72.1 25.7L71.9 25.7Q71.8 26.0 71.6 26.3Q71.3 26.6 70.9 26.7Q70.6 26.9 70.0 26.9L70.0 26.9Q69.2 26.9 68.5 26.5Q67.9 26.1 67.5 25.4Q67.1 24.6 67.1 23.4L67.1 23.4Q67.1 22.2 67.5 21.4Q67.9 20.6 68.5 20.2Q69.2 19.8 70.0 19.8L70.0 19.8Q70.6 19.8 71.0 20.0Q71.4 20.2 71.6 20.5Q71.9 20.8 72.0 21.1L72.0 21.1L72.1 21.1L72.1 19.9L74.0 19.9L74.0 26.9Q74.0 27.9 73.5 28.5Q73.1 29.2 72.3 29.5Q71.5 29.8 70.5 29.8ZM70.6 25.5L70.6 25.5Q71.1 25.5 71.4 25.2Q71.7 25.0 71.9 24.5Q72.1 24.1 72.1 23.4L72.1 23.4Q72.1 22.8 71.9 22.3Q71.7 21.9 71.4 21.6Q71.1 21.3 70.6 21.3L70.6 21.3Q70.1 21.3 69.7 21.6Q69.4 21.9 69.2 22.3Q69.0 22.8 69.0 23.4L69.0 23.4Q69.0 24.0 69.2 24.5Q69.4 25.0 69.7 25.2Q70.1 25.5 70.6 25.5ZM78.6 27.1L78.6 27.1Q77.5 27.1 76.7 26.7Q75.9 26.2 75.5 25.4Q75.1 24.6 75.1 23.5L75.1 23.5Q75.1 22.4 75.5 21.6Q75.9 20.7 76.7 20.3Q77.5 19.8 78.6 19.8L78.6 19.8Q79.7 19.8 80.4 20.3Q81.2 20.7 81.6 21.6Q82.0 22.4 82.0 23.5L82.0 23.5Q82.0 24.6 81.6 25.4Q81.2 26.2 80.4 26.7Q79.7 27.1 78.6 27.1ZM78.6 25.6L78.6 25.6Q79.1 25.6 79.4 25.4Q79.8 25.1 79.9 24.6Q80.1 24.1 80.1 23.5L80.1 23.5Q80.1 22.8 79.9 22.4Q79.8 21.9 79.4 21.6Q79.1 21.3 78.6 21.3L78.6 21.3Q78.1 21.3 77.7 21.6Q77.4 21.9 77.2 22.4Q77.0 22.8 77.0 23.5L77.0 23.5Q77.0 24.1 77.2 24.6Q77.4 25.1 77.7 25.4Q78.1 25.6 78.6 25.6ZM86.5 27L86.5 27L83.2 27L83.2 17.5L86.6 17.5Q88.0 17.5 89.0 18.1Q90.1 18.7 90.6 19.7Q91.2 20.8 91.2 22.3L91.2 22.3Q91.2 23.7 90.6 24.8Q90.1 25.9 89.0 26.4Q88.0 27 86.5 27ZM85.2 19.2L85.2 25.3L86.5 25.3Q87.4 25.3 88.0 25.0Q88.6 24.7 88.9 24.0Q89.2 23.3 89.2 22.3L89.2 22.3Q89.2 21.2 88.9 20.5Q88.6 19.9 88.0 19.5Q87.4 19.2 86.5 19.2L86.5 19.2L85.2 19.2ZM96.4 27L92.4 27L92.4 17.5L96.2 17.5Q97.2 17.5 97.9 17.9Q98.6 18.2 98.9 18.7Q99.3 19.3 99.3 20.0L99.3 20.0Q99.3 20.5 99.1 20.9Q98.8 21.4 98.5 21.6Q98.1 21.9 97.6 22.0L97.6 22.0L97.6 22.1Q98.1 22.1 98.6 22.4Q99.1 22.7 99.4 23.2Q99.7 23.7 99.7 24.4L99.7 24.4Q99.7 25.1 99.3 25.7Q98.9 26.3 98.2 26.7Q97.5 27 96.4 27L96.4 27ZM94.3 22.8L94.3 25.4L96.0 25.4Q96.9 25.4 97.3 25.1Q97.7 24.7 97.7 24.2L97.7 24.2Q97.7 23.8 97.5 23.5Q97.3 23.2 96.9 23.0Q96.6 22.8 96.1 22.8L96.1 22.8L94.3 22.8ZM94.3 19.1L94.3 21.5L95.9 21.5Q96.3 21.5 96.6 21.4Q96.9 21.2 97.1 20.9Q97.3 20.7 97.3 20.3L97.3 20.3Q97.3 19.8 97.0 19.4Q96.6 19.1 95.9 19.1L95.9 19.1L94.3 19.1Z "/></g></svg>