<!-- Generated by readme-aura https://github.com/collectioneur/readme-aura -->
<svg width="130" height="44" viewBox="0 0 130 44" xmlns="http://www.w3.org/2000/svg"><mask id="satori_om-id"><rect x="0" y="0" width="130" height="44" fill="#fff"/></mask><path x="0" y="0" width="130" height="44" fill="#311d06" d="M22,0 h86 a22,22 0 0 1 22,22 v0 a22,22 0 0 1 -22,22 h-86 a22,22 0 0 1 -22,-22 v0 a22,22 0 0 1 22,-22"/><clipPath id="satori_cp-id-0"><rect x="0" y="0" width="130" height="44"/></clipPath><mask id="satori_om-id-0"><rect x="0" y="0" width="130" height="44" fill="#fff"/></mask><svg x="0" y="0" width="130" height="44" preserveAspectRatio="none" clip-path="url(#satori_cp-id-0)" mask="url(#satori_om-id-0)"><defs><linearGradient id="smb-grad-ScikitLearn" gradientUnits="objectBoundingBox" x1="0" y1="0" x2="1" y2="1"><stop offset="0%" stop-color="#ffffff"></stop><stop offset="15%" stop-color="#311d06"></stop><stop offset="30%" stop-color="#cccccc"></stop><stop offset="50%" stop-color="#F7931E"></stop><stop offset="65%" stop-color="#311d06"></stop><stop offset="80%" stop-color="#888888"></stop><stop offset="100%" stop-color="#444444"></stop><animateTransform attributeName="gradientTransform" type="rotate" from="0 0.5 0.5" to="360 0.5 0.5" dur="8s" repeatCount="indefinite"></animateTransform></linearGradient></defs><rect x="1.25" y="1.25" width="127.5" height="41.5" rx="20.75" ry="20.75" fill="none" stroke="url(#smb-grad-ScikitLearn)" stroke-width="2" stroke-linecap="round" stroke-linejoin="round"></rect><rect x="0.25" y="0.25" width="129.5" height="43.5" rx="21.75" ry="21.75" fill="none" stroke="#AAAAAA" stroke-width="0.5" stroke-linecap="round" stroke-linejoin="round"></rect></svg><mask id="satori_om-id-0-0"><rect x="0" y="0" width="0" height="44" fill="#fff"/></mask><mask id="satori_om-id-0-0-0"><rect x="0" y="0" width="0" height="44" fill="#fff"/></mask><mask id="satori_om-id-0-0-0-0"><rect x="0" y="0" width="0" height="44" fill="#fff"/></mask><mask id="satori_om-id-0-0-0-1"><rect x="0" y="0" width="0" height="44" fill="#fff"/></mask><mask id="satori_om-id-0-0-0-2"><rect x="0" y="0" width="0" height="44" fill="#fff"/></mask><mask id="satori_om-id-0-0-0-3"><rect x="0" y="0" width="0" height="44" fill="#fff"/></mask><mask id="satori_om-id-0-0-0-4"><rect x="0" y="0" width="0" height="44" fill="#fff"/></mask><mask id="satori_om-id-0-0-0-5"><rect x="0" y="0" width="0" height="44" fill="#fff"/></mask><mask id="satori_om-id-0-0-0-6"><rect x="0" y="0" width="0" height="44" fill="#fff"/></mask><mask id="satori_om-id-0-0-0-7"><rect x="0" y="0" width="0" height="44" fill="#fff"/></mask><mask id="satori_om-id-0-1"><rect x="0" y="0" width="0" height="44" fill="#fff"/></mask><mask id="satori_om-id-0-2"><rect x="0" y="0" width="0" height="44" fill="#fff"/></mask><mask id="satori_om-id-1"><rect x="0" y="0" width="130" height="44" fill="#fff"/></mask><mask id="satori_om-id-1-0"><rect x="14" y="11" width="22" height="22" fill="#fff"/></mask><mask id="satori_om-id-1-1"><rect x="41" y="14" width="76" height="16" fill="#fff"/></mask><g  ><path fill="#ffffff" d="M45.3 27.1L45.3 27.1Q44.2 27.1 43.3 26.8Q42.5 26.4 42.0 25.8Q41.6 25.1 41.5 24.1L41.5 24.1L43.4 24.1Q43.5 24.5 43.7 24.9Q44.0 25.2 44.4 25.3Q44.8 25.5 45.3 25.5L45.3 25.5Q45.8 25.5 46.2 25.4Q46.6 25.2 46.8 24.9Q47.0 24.7 47.0 24.3L47.0 24.3Q47.0 24.0 46.8 23.8Q46.6 23.5 46.3 23.4Q45.9 23.2 45.4 23.1L45.4 23.1L44.4 22.8Q43.2 22.5 42.5 21.9Q41.8 21.3 41.8 20.3L41.8 20.3Q41.8 19.4 42.3 18.8Q42.7 18.1 43.5 17.8Q44.3 17.4 45.3 17.4L45.3 17.4Q46.4 17.4 47.2 17.8Q48.0 18.1 48.4 18.8Q48.8 19.4 48.8 20.2L48.8 20.2L47.0 20.2Q46.9 19.7 46.5 19.4Q46.1 19.0 45.3 19.0L45.3 19.0Q44.8 19.0 44.5 19.2Q44.1 19.3 44.0 19.6Q43.8 19.8 43.8 20.1L43.8 20.1Q43.8 20.5 44.0 20.7Q44.2 21.0 44.5 21.1Q44.9 21.2 45.3 21.3L45.3 21.3L46.1 21.5Q46.7 21.7 47.3 21.9Q47.8 22.1 48.2 22.5Q48.5 22.8 48.8 23.3Q49.0 23.7 49.0 24.3L49.0 24.3Q49.0 25.2 48.5 25.8Q48.1 26.4 47.3 26.8Q46.5 27.1 45.3 27.1ZM53.3 27.1L53.3 27.1Q52.2 27.1 51.4 26.7Q50.7 26.2 50.2 25.4Q49.8 24.6 49.8 23.5L49.8 23.5Q49.8 22.4 50.2 21.6Q50.7 20.7 51.4 20.3Q52.2 19.8 53.3 19.8L53.3 19.8Q53.9 19.8 54.5 20.0Q55.0 20.1 55.4 20.4Q55.8 20.8 56.1 21.2Q56.4 21.6 56.5 22.2L56.5 22.2L54.7 22.5Q54.6 22.2 54.5 22.0Q54.4 21.8 54.2 21.6Q54.0 21.5 53.8 21.4Q53.6 21.3 53.3 21.3L53.3 21.3Q52.8 21.3 52.5 21.6Q52.1 21.9 51.9 22.3Q51.8 22.8 51.8 23.5L51.8 23.5Q51.8 24.1 51.9 24.6Q52.1 25.1 52.5 25.4Q52.8 25.6 53.3 25.6L53.3 25.6Q53.6 25.6 53.8 25.6Q54.0 25.5 54.2 25.3Q54.4 25.1 54.5 24.9Q54.6 24.7 54.7 24.4L54.7 24.4L56.5 24.7Q56.4 25.3 56.1 25.7Q55.8 26.2 55.4 26.5Q55.0 26.8 54.5 27.0Q53.9 27.1 53.3 27.1ZM59.5 27L57.6 27L57.6 19.9L59.5 19.9L59.5 27ZM58.5 19.0L58.5 19.0Q58.1 19.0 57.8 18.7Q57.5 18.4 57.5 18.0L57.5 18.0Q57.5 17.6 57.8 17.3Q58.1 17.0 58.5 17.0L58.5 17.0Q59.0 17.0 59.3 17.3Q59.6 17.6 59.6 18.0L59.6 18.0Q59.6 18.4 59.3 18.7Q59.0 19.0 58.5 19.0ZM62.8 27L60.9 27L60.9 17.5L62.8 17.5L62.8 22.6L62.9 22.6L65.2 19.9L67.4 19.9L64.8 23.0L67.6 27L65.3 27L63.3 24.1L62.8 24.7L62.8 27ZM70.1 27L68.2 27L68.2 19.9L70.1 19.9L70.1 27ZM69.2 19.0L69.2 19.0Q68.8 19.0 68.5 18.7Q68.1 18.4 68.1 18.0L68.1 18.0Q68.1 17.6 68.5 17.3Q68.8 17.0 69.2 17.0L69.2 17.0Q69.6 17.0 69.9 17.3Q70.2 17.6 70.2 18.0L70.2 18.0Q70.2 18.4 69.9 18.7Q69.6 19.0 69.2 19.0ZM73.8 19.9L75.1 19.9L75.1 21.4L73.8 21.4L73.8 24.9Q73.8 25.3 73.9 25.4Q74.1 25.6 74.4 25.6L74.4 25.6Q74.5 25.6 74.7 25.6Q74.9 25.5 75.0 25.5L75.0 25.5L75.3 26.9Q75.0 27.0 74.6 27.1Q74.3 27.1 74.0 27.1L74.0 27.1Q73.0 27.1 72.4 26.6Q71.9 26.1 71.9 25.1L71.9 25.1L71.9 21.4L70.9 21.4L70.9 19.9L71.9 19.9L71.9 18.2L73.8 18.2L73.8 19.9ZM76.2 22.3L80.5 22.3L80.5 23.9L76.2 23.9L76.2 22.3ZM88.1 27L82.0 27L82.0 17.5L84.0 17.5L84.0 25.4L88.1 25.4L88.1 27ZM92.4 27.1L92.4 27.1Q91.3 27.1 90.5 26.7Q89.7 26.3 89.3 25.4Q88.9 24.6 88.9 23.5L88.9 23.5Q88.9 22.4 89.3 21.6Q89.7 20.7 90.5 20.3Q91.2 19.8 92.3 19.8L92.3 19.8Q93.0 19.8 93.6 20.0Q94.2 20.3 94.6 20.7Q95.1 21.2 95.3 21.8Q95.6 22.5 95.6 23.4L95.6 23.4L95.6 23.9L90.7 23.9Q90.8 24.5 90.9 24.9L90.9 24.9Q91.2 25.3 91.5 25.5Q91.9 25.7 92.4 25.7L92.4 25.7Q92.7 25.7 93.0 25.6Q93.3 25.5 93.5 25.3Q93.7 25.1 93.8 24.9L93.8 24.9L95.5 25.2Q95.3 25.8 94.9 26.2Q94.5 26.7 93.8 26.9Q93.2 27.1 92.4 27.1ZM90.8 22.8L90.8 22.8L93.8 22.8Q93.7 22.4 93.6 22.1L93.6 22.1Q93.4 21.7 93.1 21.5Q92.8 21.2 92.3 21.2L92.3 21.2Q91.8 21.2 91.4 21.5Q91.1 21.7 90.9 22.1L90.9 22.1Q90.8 22.4 90.8 22.8ZM98.7 27.1L98.7 27.1Q98.0 27.1 97.5 26.9Q96.9 26.7 96.6 26.2Q96.3 25.7 96.3 25.0L96.3 25.0Q96.3 24.4 96.5 24.0Q96.8 23.6 97.1 23.4Q97.5 23.1 98.0 23.0Q98.5 22.9 99.0 22.8L99.0 22.8Q99.6 22.8 100.0 22.7Q100.4 22.7 100.5 22.5Q100.7 22.4 100.7 22.2L100.7 22.2L100.7 22.2Q100.7 21.9 100.6 21.7Q100.5 21.4 100.2 21.3Q100.0 21.2 99.6 21.2L99.6 21.2Q99.2 21.2 99.0 21.3Q98.7 21.4 98.5 21.6Q98.3 21.8 98.3 22.0L98.3 22.0L96.5 21.8Q96.7 21.1 97.1 20.7Q97.6 20.3 98.2 20.0Q98.8 19.8 99.6 19.8L99.6 19.8Q100.2 19.8 100.7 20.0Q101.3 20.1 101.7 20.4Q102.1 20.7 102.4 21.1Q102.6 21.6 102.6 22.2L102.6 22.2L102.6 27L100.8 27L100.8 26.0L100.8 26.0Q100.6 26.3 100.3 26.6Q100.0 26.8 99.6 27.0Q99.2 27.1 98.7 27.1ZM99.2 25.8L99.2 25.8Q99.7 25.8 100.0 25.6Q100.3 25.4 100.5 25.1Q100.7 24.8 100.7 24.5L100.7 24.5L100.7 23.7Q100.6 23.8 100.5 23.8Q100.3 23.9 100.1 23.9Q99.9 23.9 99.7 24.0Q99.5 24.0 99.3 24.0L99.3 24.0Q99.0 24.1 98.7 24.2Q98.4 24.3 98.3 24.5Q98.1 24.7 98.1 25.0L98.1 25.0Q98.1 25.2 98.3 25.4Q98.4 25.6 98.7 25.7Q98.9 25.8 99.2 25.8ZM105.9 27L104.0 27L104.0 19.9L105.9 19.9L105.9 21.1L106.0 21.1Q106.2 20.5 106.6 20.1Q107.1 19.8 107.7 19.8L107.7 19.8Q107.8 19.8 108.0 19.8Q108.2 19.8 108.3 19.9L108.3 19.9L108.3 21.6Q108.2 21.5 107.9 21.5Q107.7 21.5 107.5 21.5L107.5 21.5Q107.0 21.5 106.7 21.7Q106.3 21.9 106.1 22.2Q105.9 22.5 105.9 23.0L105.9 23.0L105.9 27ZM111.0 22.9L111.0 22.9L111.0 27L109.1 27L109.1 19.9L110.9 19.9L111.0 21.4Q111.2 20.7 111.7 20.3L111.7 20.3Q112.3 19.8 113.2 19.8L113.2 19.8Q113.9 19.8 114.5 20.1Q115.0 20.5 115.3 21.1Q115.6 21.7 115.6 22.5L115.6 22.5L115.6 27L113.7 27L113.7 22.8Q113.7 22.2 113.4 21.8Q113.0 21.4 112.4 21.4L112.4 21.4Q112.0 21.4 111.7 21.6Q111.4 21.8 111.2 22.1Q111.0 22.4 111.0 22.9Z "/></g></svg>