<!-- Generated by readme-aura https://github.com/collectioneur/readme-aura -->
<svg width="100" height="44" viewBox="0 0 100 44" xmlns="http://www.w3.org/2000/svg"><mask id="satori_om-id"><rect x="0" y="0" width="100" height="44" fill="#fff"/></mask><path x="0" y="0" width="100" height="44" fill="#071e2f" d="M22,0 h56 a22,22 0 0 1 22,22 v0 a22,22 0 0 1 -22,22 h-56 a22,22 0 0 1 -22,-22 v0 a22,22 0 0 1 22,-22"/><clipPath id="satori_cp-id-0"><rect x="0" y="0" width="100" height="44"/></clipPath><mask id="satori_om-id-0"><rect x="0" y="0" width="100" height="44" fill="#fff"/></mask><svg x="0" y="0" width="100" height="44" preserveAspectRatio="none" clip-path="url(#satori_cp-id-0)" mask="url(#satori_om-id-0)"><defs><linearGradient id="smb-grad-Docker" gradientUnits="objectBoundingBox" x1="0" y1="0" x2="1" y2="1"><stop offset="0%" stop-color="#ffffff"></stop><stop offset="15%" stop-color="#071e2f"></stop><stop offset="30%" stop-color="#cccccc"></stop><stop offset="50%" stop-color="#2496ED"></stop><stop offset="65%" stop-color="#071e2f"></stop><stop offset="80%" stop-color="#888888"></stop><stop offset="100%" stop-color="#444444"></stop><animateTransform attributeName="gradientTransform" type="rotate" from="0 0.5 0.5" to="360 0.5 0.5" dur="8s" repeatCount="indefinite"></animateTransform></linearGradient></defs><rect x="1.25" y="1.25" width="97.5" height="41.5" rx="20.75" ry="20.75" fill="none" stroke="url(#smb-grad-Docker)" stroke-width="2" stroke-linecap="round" stroke-linejoin="round"></rect><rect x="0.25" y="0.25" width="99.5" height="43.5" rx="21.75" ry="21.75" fill="none" stroke="#AAAAAA" stroke-width="0.5" stroke-linecap="round" stroke-linejoin="round"></rect></svg><mask id="satori_om-id-0-0"><rect x="0" y="0" width="0" height="44" fill="#fff"/></mask><mask id="satori_om-id-0-0-0"><rect x="0" y="0" width="0" height="44" fill="#fff"/></mask><mask id="satori_om-id-0-0-0-0"><rect x="0" y="0" width="0" height="44" fill="#fff"/></mask><mask id="satori_om-id-0-0-0-1"><rect x="0" y="0" width="0" height="44" fill="#fff"/></mask><mask id="satori_om-id-0-0-0-2"><rect x="0" y="0" width="0" height="44" fill="#fff"/></mask><mask id="satori_om-id-0-0-0-3"><rect x="0" y="0" width="0" height="44" fill="#fff"/></mask><mask id="satori_om-id-0-0-0-4"><rect x="0" y="0" width="0" height="44" fill="#fff"/></mask><mask id="satori_om-id-0-0-0-5"><rect x="0" y="0" width="0" height="44" fill="#fff"/></mask><mask id="satori_om-id-0-0-0-6"><rect x="0" y="0" width="0" height="44" fill="#fff"/></mask><mask id="satori_om-id-0-0-0-7"><rect x="0" y="0" width="0" height="44" fill="#fff"/></mask><mask id="satori_om-id-0-1"><rect x="0" y="0" width="0" height="44" fill="#fff"/></mask><mask id="satori_om-id-0-2"><rect x="0" y="0" width="0" height="44" fill="#fff"/></mask><mask id="satori_om-id-1"><rect x="0" y="0" width="100" height="44" fill="#fff"/></mask><mask id="satori_om-id-1-0"><rect x="14" y="11" width="22" height="22" fill="#fff"/></mask><mask id="satori_om-id-1-1"><rect x="41" y="14" width="45" height="16" fill="#fff"/></mask><g  ><path fill="#ffffff" d="M45.2 27L45.2 27L41.9 27L41.9 17.5L45.2 17.5Q46.6 17.5 47.7 18.1Q48.7 18.7 49.2 19.7Q49.8 20.8 49.8 22.3L49.8 22.3Q49.8 23.7 49.2 24.8Q48.7 25.9 47.7 26.4Q46.6 27 45.2 27ZM43.8 19.2L43.8 25.3L45.1 25.3Q46.0 25.3 46.6 25.0Q47.2 24.7 47.6 24.0Q47.9 23.3 47.9 22.3L47.9 22.3Q47.9 21.2 47.5 20.5Q47.2 19.9 46.6 19.5Q46.0 19.2 45.1 19.2L45.1 19.2L43.8 19.2ZM54.2 27.1L54.2 27.1Q53.1 27.1 52.3 26.7Q51.5 26.2 51.1 25.4Q50.7 24.6 50.7 23.5L50.7 23.5Q50.7 22.4 51.1 21.6Q51.5 20.7 52.3 20.3Q53.1 19.8 54.2 19.8L54.2 19.8Q55.2 19.8 56.0 20.3Q56.8 20.7 57.2 21.6Q57.6 22.4 57.6 23.5L57.6 23.5Q57.6 24.6 57.2 25.4Q56.8 26.2 56.0 26.7Q55.2 27.1 54.2 27.1ZM54.2 25.6L54.2 25.6Q54.7 25.6 55.0 25.4Q55.4 25.1 55.5 24.6Q55.7 24.1 55.7 23.5L55.7 23.5Q55.7 22.8 55.5 22.4Q55.4 21.9 55.0 21.6Q54.7 21.3 54.2 21.3L54.2 21.3Q53.7 21.3 53.3 21.6Q53.0 21.9 52.8 22.4Q52.6 22.8 52.6 23.5L52.6 23.5Q52.6 24.1 52.8 24.6Q53.0 25.1 53.3 25.4Q53.7 25.6 54.2 25.6ZM61.9 27.1L61.9 27.1Q60.9 27.1 60.1 26.7Q59.3 26.2 58.9 25.4Q58.5 24.6 58.5 23.5L58.5 23.5Q58.5 22.4 58.9 21.6Q59.3 20.7 60.1 20.3Q60.9 19.8 61.9 19.8L61.9 19.8Q62.6 19.8 63.1 20.0Q63.6 20.1 64.1 20.4Q64.5 20.8 64.7 21.2Q65.0 21.6 65.1 22.2L65.1 22.2L63.3 22.5Q63.3 22.2 63.2 22.0Q63.0 21.8 62.9 21.6Q62.7 21.5 62.5 21.4Q62.2 21.3 62.0 21.3L62.0 21.3Q61.5 21.3 61.1 21.6Q60.8 21.9 60.6 22.3Q60.4 22.8 60.4 23.5L60.4 23.5Q60.4 24.1 60.6 24.6Q60.8 25.1 61.1 25.4Q61.5 25.6 62.0 25.6L62.0 25.6Q62.2 25.6 62.5 25.6Q62.7 25.5 62.9 25.3Q63.1 25.1 63.2 24.9Q63.3 24.7 63.3 24.4L63.3 24.4L65.1 24.7Q65.0 25.3 64.7 25.7Q64.5 26.2 64.1 26.5Q63.7 26.8 63.1 27.0Q62.6 27.1 61.9 27.1ZM68.1 27L66.2 27L66.2 17.5L68.1 17.5L68.1 22.6L68.2 22.6L70.6 19.9L72.8 19.9L70.1 23.0L72.9 27L70.7 27L68.7 24.1L68.1 24.7L68.1 27ZM76.8 27.1L76.8 27.1Q75.7 27.1 74.9 26.7Q74.1 26.3 73.7 25.4Q73.3 24.6 73.3 23.5L73.3 23.5Q73.3 22.4 73.7 21.6Q74.1 20.7 74.9 20.3Q75.6 19.8 76.7 19.8L76.7 19.8Q77.4 19.8 78.0 20.0Q78.6 20.3 79.0 20.7Q79.5 21.2 79.7 21.8Q80.0 22.5 80.0 23.4L80.0 23.4L80.0 23.9L75.2 23.9Q75.2 24.5 75.4 24.9L75.4 24.9Q75.6 25.3 75.9 25.5Q76.3 25.7 76.8 25.7L76.8 25.7Q77.1 25.7 77.4 25.6Q77.7 25.5 77.9 25.3Q78.1 25.1 78.2 24.9L78.2 24.9L79.9 25.2Q79.7 25.8 79.3 26.2Q78.9 26.7 78.2 26.9Q77.6 27.1 76.8 27.1ZM75.2 22.8L75.2 22.8L78.2 22.8Q78.1 22.4 78.0 22.1L78.0 22.1Q77.8 21.7 77.5 21.5Q77.2 21.2 76.7 21.2L76.7 21.2Q76.2 21.2 75.9 21.5Q75.5 21.7 75.3 22.1L75.3 22.1Q75.2 22.4 75.2 22.8ZM83.0 27L81.1 27L81.1 19.9L82.9 19.9L82.9 21.1L83.0 21.1Q83.2 20.5 83.7 20.1Q84.1 19.8 84.7 19.8L84.7 19.8Q84.9 19.8 85.1 19.8Q85.2 19.8 85.4 19.9L85.4 19.9L85.4 21.6Q85.2 21.5 85.0 21.5Q84.7 21.5 84.5 21.5L84.5 21.5Q84.1 21.5 83.7 21.7Q83.4 21.9 83.2 22.2Q83.0 22.5 83.0 23.0L83.0 23.0L83.0 27Z "/></g></svg>