<!-- Generated by readme-aura https://github.com/collectioneur/readme-aura -->
<svg width="100" height="44" viewBox="0 0 100 44" xmlns="http://www.w3.org/2000/svg"><mask id="satori_om-id"><rect x="0" y="0" width="100" height="44" fill="#fff"/></mask><path x="0" y="0" width="100" height="44" fill="#020c08" d="M22,0 h56 a22,22 0 0 1 22,22 v0 a22,22 0 0 1 -22,22 h-56 a22,22 0 0 1 -22,-22 v0 a22,22 0 0 1 22,-22"/><clipPath id="satori_cp-id-0"><rect x="0" y="0" width="100" height="44"/></clipPath><mask id="satori_om-id-0"><rect x="0" y="0" width="100" height="44" fill="#fff"/></mask><svg x="0" y="0" width="100" height="44" preserveAspectRatio="none" clip-path="url(#satori_cp-id-0)" mask="url(#satori_om-id-0)"><defs><linearGradient id="smb-grad-Django" gradientUnits="objectBoundingBox" x1="0" y1="0" x2="1" y2="1"><stop offset="0%" stop-color="#ffffff"></stop><stop offset="15%" stop-color="#020c08"></stop><stop offset="30%" stop-color="#cccccc"></stop><stop offset="50%" stop-color="#092E20"></stop><stop offset="65%" stop-color="#020c08"></stop><stop offset="80%" stop-color="#888888"></stop><stop offset="100%" stop-color="#444444"></stop><animateTransform attributeName="gradientTransform" type="rotate" from="0 0.5 0.5" to="360 0.5 0.5" dur="8s" repeatCount="indefinite"></animateTransform></linearGradient></defs><rect x="1.25" y="1.25" width="97.5" height="41.5" rx="20.75" ry="20.75" fill="none" stroke="url(#smb-grad-Django)" stroke-width="2" stroke-linecap="round" stroke-linejoin="round"></rect><rect x="0.25" y="0.25" width="99.5" height="43.5" rx="21.75" ry="21.75" fill="none" stroke="#AAAAAA" stroke-width="0.5" stroke-linecap="round" stroke-linejoin="round"></rect></svg><mask id="satori_om-id-0-0"><rect x="0" y="0" width="0" height="44" fill="#fff"/></mask><mask id="satori_om-id-0-0-0"><rect x="0" y="0" width="0" height="44" fill="#fff"/></mask><mask id="satori_om-id-0-0-0-0"><rect x="0" y="0" width="0" height="44" fill="#fff"/></mask><mask id="satori_om-id-0-0-0-1"><rect x="0" y="0" width="0" height="44" fill="#fff"/></mask><mask id="satori_om-id-0-0-0-2"><rect x="0" y="0" width="0" height="44" fill="#fff"/></mask><mask id="satori_om-id-0-0-0-3"><rect x="0" y="0" width="0" height="44" fill="#fff"/></mask><mask id="satori_om-id-0-0-0-4"><rect x="0" y="0" width="0" height="44" fill="#fff"/></mask><mask id="satori_om-id-0-0-0-5"><rect x="0" y="0" width="0" height="44" fill="#fff"/></mask><mask id="satori_om-id-0-0-0-6"><rect x="0" y="0" width="0" height="44" fill="#fff"/></mask><mask id="satori_om-id-0-0-0-7"><rect x="0" y="0" width="0" height="44" fill="#fff"/></mask><mask id="satori_om-id-0-1"><rect x="0" y="0" width="0" height="44" fill="#fff"/></mask><mask id="satori_om-id-0-2"><rect x="0" y="0" width="0" height="44" fill="#fff"/></mask><mask id="satori_om-id-1"><rect x="0" y="0" width="100" height="44" fill="#fff"/></mask><mask id="satori_om-id-1-0"><rect x="15" y="11" width="22" height="22" fill="#fff"/></mask><mask id="satori_om-id-1-1"><rect x="42" y="14" width="44" height="16" fill="#fff"/></mask><g  ><path fill="#ffffff" d="M46.2 27L46.2 27L42.9 27L42.9 17.5L46.2 17.5Q47.6 17.5 48.7 18.1Q49.7 18.7 50.2 19.7Q50.8 20.8 50.8 22.3L50.8 22.3Q50.8 23.7 50.2 24.8Q49.7 25.9 48.7 26.4Q47.6 27 46.2 27ZM44.8 19.2L44.8 25.3L46.1 25.3Q47.0 25.3 47.6 25.0Q48.2 24.7 48.6 24.0Q48.9 23.3 48.9 22.3L48.9 22.3Q48.9 21.2 48.5 20.5Q48.2 19.9 47.6 19.5Q47.0 19.2 46.1 19.2L46.1 19.2L44.8 19.2ZM52.0 27.3L52.0 19.9L53.9 19.9L53.9 27.4Q53.9 28.2 53.6 28.7Q53.3 29.2 52.7 29.4Q52.1 29.7 51.3 29.7L51.3 29.7L50.9 29.7L50.9 28.2L51.1 28.2Q51.6 28.2 51.8 27.9Q52.0 27.7 52.0 27.3L52.0 27.3ZM53.0 19.0L53.0 19.0Q52.5 19.0 52.2 18.7Q51.9 18.4 51.9 18.0L51.9 18.0Q51.9 17.6 52.2 17.3Q52.5 17.0 53.0 17.0L53.0 17.0Q53.4 17.0 53.7 17.3Q54.0 17.6 54.0 18.0L54.0 18.0Q54.0 18.4 53.7 18.7Q53.4 19.0 53.0 19.0ZM57.3 27.1L57.3 27.1Q56.6 27.1 56.1 26.9Q55.6 26.7 55.3 26.2Q54.9 25.7 54.9 25.0L54.9 25.0Q54.9 24.4 55.2 24.0Q55.4 23.6 55.8 23.4Q56.1 23.1 56.6 23.0Q57.1 22.9 57.6 22.8L57.6 22.8Q58.2 22.8 58.6 22.7Q59.0 22.7 59.2 22.5Q59.3 22.4 59.3 22.2L59.3 22.2L59.3 22.2Q59.3 21.9 59.2 21.7Q59.1 21.4 58.8 21.3Q58.6 21.2 58.2 21.2L58.2 21.2Q57.9 21.2 57.6 21.3Q57.3 21.4 57.1 21.6Q57.0 21.8 56.9 22.0L56.9 22.0L55.1 21.8Q55.3 21.1 55.8 20.7Q56.2 20.3 56.8 20.0Q57.4 19.8 58.2 19.8L58.2 19.8Q58.8 19.8 59.3 20.0Q59.9 20.1 60.3 20.4Q60.7 20.7 61.0 21.1Q61.2 21.6 61.2 22.2L61.2 22.2L61.2 27L59.4 27L59.4 26.0L59.4 26.0Q59.2 26.3 58.9 26.6Q58.6 26.8 58.2 27.0Q57.8 27.1 57.3 27.1ZM57.8 25.8L57.8 25.8Q58.3 25.8 58.6 25.6Q59.0 25.4 59.2 25.1Q59.4 24.8 59.4 24.5L59.4 24.5L59.4 23.7Q59.3 23.8 59.1 23.8Q58.9 23.9 58.7 23.9Q58.5 23.9 58.3 24.0Q58.1 24.0 57.9 24.0L57.9 24.0Q57.6 24.1 57.3 24.2Q57.1 24.3 56.9 24.5Q56.8 24.7 56.8 25.0L56.8 25.0Q56.8 25.2 56.9 25.4Q57.1 25.6 57.3 25.7Q57.5 25.8 57.8 25.8ZM64.6 22.9L64.6 22.9L64.6 27L62.7 27L62.7 19.9L64.5 19.9L64.5 21.4Q64.8 20.7 65.2 20.3L65.2 20.3Q65.8 19.8 66.7 19.8L66.7 19.8Q67.4 19.8 68.0 20.1Q68.5 20.5 68.8 21.1Q69.1 21.7 69.1 22.5L69.1 22.5L69.1 27L67.2 27L67.2 22.8Q67.2 22.2 66.9 21.8Q66.6 21.4 66.0 21.4L66.0 21.4Q65.6 21.4 65.2 21.6Q64.9 21.8 64.7 22.1Q64.6 22.4 64.6 22.9ZM73.7 29.8L73.7 29.8Q72.8 29.8 72.2 29.6Q71.5 29.4 71.1 29.0Q70.7 28.6 70.5 28.1L70.5 28.1L72.2 27.6Q72.3 27.8 72.4 28.0Q72.6 28.2 72.9 28.3Q73.2 28.4 73.7 28.4L73.7 28.4Q74.4 28.4 74.9 28.1Q75.3 27.8 75.3 27.1L75.3 27.1L75.3 25.7L75.1 25.7Q75.0 26.0 74.8 26.3Q74.5 26.6 74.1 26.7Q73.7 26.9 73.2 26.9L73.2 26.9Q72.4 26.9 71.7 26.5Q71.0 26.1 70.7 25.4Q70.3 24.6 70.3 23.4L70.3 23.4Q70.3 22.2 70.7 21.4Q71.1 20.6 71.7 20.2Q72.4 19.8 73.2 19.8L73.2 19.8Q73.8 19.8 74.2 20.0Q74.6 20.2 74.8 20.5Q75.1 20.8 75.2 21.1L75.2 21.1L75.3 21.1L75.3 19.9L77.2 19.9L77.2 26.9Q77.2 27.9 76.7 28.5Q76.3 29.2 75.5 29.5Q74.7 29.8 73.7 29.8ZM73.8 25.5L73.8 25.5Q74.2 25.5 74.6 25.2Q74.9 25.0 75.1 24.5Q75.3 24.1 75.3 23.4L75.3 23.4Q75.3 22.8 75.1 22.3Q74.9 21.9 74.6 21.6Q74.2 21.3 73.8 21.3L73.8 21.3Q73.2 21.3 72.9 21.6Q72.6 21.9 72.4 22.3Q72.2 22.8 72.2 23.4L72.2 23.4Q72.2 24.0 72.4 24.5Q72.6 25.0 72.9 25.2Q73.3 25.5 73.8 25.5ZM81.8 27.1L81.8 27.1Q80.7 27.1 79.9 26.7Q79.1 26.2 78.7 25.4Q78.3 24.6 78.3 23.5L78.3 23.5Q78.3 22.4 78.7 21.6Q79.1 20.7 79.9 20.3Q80.7 19.8 81.8 19.8L81.8 19.8Q82.8 19.8 83.6 20.3Q84.4 20.7 84.8 21.6Q85.2 22.4 85.2 23.5L85.2 23.5Q85.2 24.6 84.8 25.4Q84.4 26.2 83.6 26.7Q82.8 27.1 81.8 27.1ZM81.8 25.6L81.8 25.6Q82.3 25.6 82.6 25.4Q82.9 25.1 83.1 24.6Q83.3 24.1 83.3 23.5L83.3 23.5Q83.3 22.8 83.1 22.4Q82.9 21.9 82.6 21.6Q82.3 21.3 81.8 21.3L81.8 21.3Q81.2 21.3 80.9 21.6Q80.6 21.9 80.4 22.4Q80.2 22.8 80.2 23.5L80.2 23.5Q80.2 24.1 80.4 24.6Q80.6 25.1 80.9 25.4Q81.2 25.6 81.8 25.6Z "/></g></svg>