<!-- Generated by readme-aura https://github.com/collectioneur/readme-aura -->
<svg width="100" height="44" viewBox="0 0 100 44" xmlns="http://www.w3.org/2000/svg"><mask id="satori_om-id"><rect x="0" y="0" width="100" height="44" fill="#fff"/></mask><path x="0" y="0" width="100" height="44" fill="#0e1e2b" d="M22,0 h56 a22,22 0 0 1 22,22 v0 a22,22 0 0 1 -22,22 h-56 a22,22 0 0 1 -22,-22 v0 a22,22 0 0 1 22,-22"/><clipPath id="satori_cp-id-0"><rect x="0" y="0" width="100" height="44"/></clipPath><mask id="satori_om-id-0"><rect x="0" y="0" width="100" height="44" fill="#fff"/></mask><svg x="0" y="0" width="100" height="44" preserveAspectRatio="none" clip-path="url(#satori_cp-id-0)" mask="url(#satori_om-id-0)"><defs><linearGradient id="smb-grad-Python" gradientUnits="objectBoundingBox" x1="0" y1="0" x2="1" y2="1"><stop offset="0%" stop-color="#ffffff"></stop><stop offset="15%" stop-color="#0e1e2b"></stop><stop offset="30%" stop-color="#cccccc"></stop><stop offset="50%" stop-color="#3776AB"></stop><stop offset="65%" stop-color="#0e1e2b"></stop><stop offset="80%" stop-color="#888888"></stop><stop offset="100%" stop-color="#444444"></stop><animateTransform attributeName="gradientTransform" type="rotate" from="0 0.5 0.5" to="360 0.5 0.5" dur="8s" repeatCount="indefinite"></animateTransform></linearGradient></defs><rect x="1.25" y="1.25" width="97.5" height="41.5" rx="20.75" ry="20.75" fill="none" stroke="url(#smb-grad-Python)" stroke-width="2" stroke-linecap="round" stroke-linejoin="round"></rect><rect x="0.25" y="0.25" width="99.5" height="43.5" rx="21.75" ry="21.75" fill="none" stroke="#AAAAAA" stroke-width="0.5" stroke-linecap="round" stroke-linejoin="round"></rect></svg><mask id="satori_om-id-0-0"><rect x="0" y="0" width="0" height="44" fill="#fff"/></mask><mask id="satori_om-id-0-0-0"><rect x="0" y="0" width="0" height="44" fill="#fff"/></mask><mask id="satori_om-id-0-0-0-0"><rect x="0" y="0" width="0" height="44" fill="#fff"/></mask><mask id="satori_om-id-0-0-0-1"><rect x="0" y="0" width="0" height="44" fill="#fff"/></mask><mask id="satori_om-id-0-0-0-2"><rect x="0" y="0" width="0" height="44" fill="#fff"/></mask><mask id="satori_om-id-0-0-0-3"><rect x="0" y="0" width="0" height="44" fill="#fff"/></mask><mask id="satori_om-id-0-0-0-4"><rect x="0" y="0" width="0" height="44" fill="#fff"/></mask><mask id="satori_om-id-0-0-0-5"><rect x="0" y="0" width="0" height="44" fill="#fff"/></mask><mask id="satori_om-id-0-0-0-6"><rect x="0" y="0" width="0" height="44" fill="#fff"/></mask><mask id="satori_om-id-0-0-0-7"><rect x="0" y="0" width="0" height="44" fill="#fff"/></mask><mask id="satori_om-id-0-1"><rect x="0" y="0" width="0" height="44" fill="#fff"/></mask><mask id="satori_om-id-0-2"><rect x="0" y="0" width="0" height="44" fill="#fff"/></mask><mask id="satori_om-id-1"><rect x="0" y="0" width="100" height="44" fill="#fff"/></mask><mask id="satori_om-id-1-0"><rect x="15" y="11" width="22" height="22" fill="#fff"/></mask><mask id="satori_om-id-1-1"><rect x="42" y="14" width="44" height="16" fill="#fff"/></mask><g  ><path fill="#ffffff" d="M44.8 27L42.9 27L42.9 17.5L46.5 17.5Q47.6 17.5 48.4 18.0Q49.1 18.4 49.5 19.1Q49.9 19.8 49.9 20.7L49.9 20.7Q49.9 21.7 49.5 22.4Q49.1 23.1 48.4 23.5Q47.6 23.9 46.5 23.9L46.5 23.9L44.8 23.9L44.8 27ZM44.8 19.1L44.8 22.3L46.2 22.3Q46.8 22.3 47.2 22.1Q47.6 21.9 47.7 21.6Q47.9 21.2 47.9 20.7Q47.9 20.3 47.7 19.9Q47.6 19.5 47.2 19.3Q46.8 19.1 46.2 19.1L46.2 19.1L44.8 19.1ZM51.0 29.5L51.0 29.5L51.4 28.1L51.7 28.1Q52.0 28.2 52.3 28.2Q52.6 28.1 52.8 28.0Q53.0 27.8 53.0 27.4L53.0 27.4L53.1 27.0L50.4 19.9L52.4 19.9L53.6 23.6Q53.9 24.3 54.0 25.0L54.0 25.0Q54.0 25.2 54.1 25.5L54.1 25.5Q54.1 25.2 54.2 25.0L54.2 25.0Q54.4 24.3 54.6 23.6L54.6 23.6L55.8 19.9L57.8 19.9L54.8 27.8Q54.6 28.4 54.3 28.8Q53.9 29.2 53.4 29.5Q52.9 29.7 52.2 29.7L52.2 29.7Q51.8 29.7 51.5 29.7Q51.2 29.6 51.0 29.5ZM60.9 19.9L62.2 19.9L62.2 21.4L60.9 21.4L60.9 24.9Q60.9 25.3 61.0 25.4Q61.2 25.6 61.5 25.6L61.5 25.6Q61.6 25.6 61.8 25.6Q62.0 25.5 62.1 25.5L62.1 25.5L62.4 26.9Q62.1 27.0 61.8 27.1Q61.4 27.1 61.2 27.1L61.2 27.1Q60.1 27.1 59.5 26.6Q59.0 26.1 59.0 25.1L59.0 25.1L59.0 21.4L58.0 21.4L58.0 19.9L59.0 19.9L59.0 18.2L60.9 18.2L60.9 19.9ZM65.1 22.9L65.1 22.9L65.1 27L63.2 27L63.2 17.5L65.1 17.5L65.1 21.3Q65.4 20.7 65.8 20.3L65.8 20.3Q66.4 19.8 67.3 19.8L67.3 19.8Q68.0 19.8 68.5 20.1Q69.1 20.5 69.4 21.1Q69.7 21.7 69.7 22.5L69.7 22.5L69.7 27L67.8 27L67.8 22.8Q67.8 22.2 67.4 21.8Q67.1 21.4 66.5 21.4L66.5 21.4Q66.1 21.4 65.8 21.6Q65.5 21.8 65.3 22.1Q65.1 22.4 65.1 22.9ZM74.3 27.1L74.3 27.1Q73.2 27.1 72.4 26.7Q71.7 26.2 71.2 25.4Q70.8 24.6 70.8 23.5L70.8 23.5Q70.8 22.4 71.2 21.6Q71.7 20.7 72.4 20.3Q73.2 19.8 74.3 19.8L74.3 19.8Q75.4 19.8 76.1 20.3Q76.9 20.7 77.3 21.6Q77.8 22.4 77.8 23.5L77.8 23.5Q77.8 24.6 77.3 25.4Q76.9 26.2 76.1 26.7Q75.4 27.1 74.3 27.1ZM74.3 25.6L74.3 25.6Q74.8 25.6 75.1 25.4Q75.5 25.1 75.7 24.6Q75.8 24.1 75.8 23.5L75.8 23.5Q75.8 22.8 75.7 22.4Q75.5 21.9 75.1 21.6Q74.8 21.3 74.3 21.3L74.3 21.3Q73.8 21.3 73.4 21.6Q73.1 21.9 72.9 22.4Q72.8 22.8 72.8 23.5L72.8 23.5Q72.8 24.1 72.9 24.6Q73.1 25.1 73.4 25.4Q73.8 25.6 74.3 25.6ZM80.8 22.9L80.8 22.9L80.8 27L78.9 27L78.9 19.9L80.7 19.9L80.7 21.4Q81.0 20.7 81.5 20.3L81.5 20.3Q82.0 19.8 82.9 19.8L82.9 19.8Q83.7 19.8 84.2 20.1Q84.8 20.5 85.1 21.1Q85.4 21.7 85.4 22.5L85.4 22.5L85.4 27L83.5 27L83.5 22.8Q83.5 22.2 83.1 21.8Q82.8 21.4 82.2 21.4L82.2 21.4Q81.8 21.4 81.5 21.6Q81.1 21.8 81.0 22.1Q80.8 22.4 80.8 22.9Z "/></g></svg>