<!-- Generated by readme-aura https://github.com/collectioneur/readme-aura -->
<svg width="860" height="80" viewBox="0 0 860 80" xmlns="http://www.w3.org/2000/svg"><defs><clipPath id="satori_bc-id"><path x="0" y="0" width="860" height="80" d="M12,0 h836 a12,12 0 0 1 12,12 v56 a12,12 0 0 1 -12,12 h-836 a12,12 0 0 1 -12,-12 v-56 a12,12 0 0 1 12,-12"/></clipPath></defs><clipPath id="satori_cp-id"><path x="0" y="0" width="860" height="80" d="M12,0 h836 a12,12 0 0 1 12,12 v56 a12,12 0 0 1 -12,12 h-836 a12,12 0 0 1 -12,-12 v-56 a12,12 0 0 1 12,-12"/></clipPath><mask id="satori_om-id"><rect x="1" y="1" width="858" height="78" fill="#fff"/><path width="860" height="80" fill="none" stroke="#000" stroke-width="2" d="M3.5150000000000006,3.5150000000000006 A12,12 0 0 1 12,0 h836 a12,12 0 0 1 12,12 v56 a12,12 0 0 1 -12,12 h-836 a12,12 0 0 1 -12,-12 v-56 A12,12 0 0 1 3.5150000000000006,3.5150000000000006"/></mask><path x="0" y="0" width="860" height="80" fill="#08080c" d="M12,0 h836 a12,12 0 0 1 12,12 v56 a12,12 0 0 1 -12,12 h-836 a12,12 0 0 1 -12,-12 v-56 a12,12 0 0 1 12,-12"/><path width="860" height="80" clip-path="url(#satori_bc-id)" fill="none" stroke="rgba(110,80,220,0.2)" stroke-width="2" d="M3.5150000000000006,3.5150000000000006 A12,12 0 0 1 12,0 h836 a12,12 0 0 1 12,12 v56 a12,12 0 0 1 -12,12 h-836 a12,12 0 0 1 -12,-12 v-56 A12,12 0 0 1 3.5150000000000006,3.5150000000000006"/><clipPath id="satori_cp-id-0" clip-path="url(#satori_cp-id)"><rect x="1" y="1" width="860" height="80"/></clipPath><mask id="satori_om-id-0"><rect x="1" y="1" width="860" height="80" fill="#fff" mask="url(#satori_om-id)"/></mask><svg x="1" y="1" width="860" height="80" preserveAspectRatio="none" clip-path="url(#satori_cp-id-0)" mask="url(#satori_om-id-0)"><defs><radialGradient id="bg" cx="50%" cy="50%" r="50%"><stop offset="0%" stop-color="rgba(110,40,240,0.3)"></stop><stop offset="100%" stop-color="transparent"></stop></radialGradient></defs><rect width="860" height="80" fill="url(#bg)"></rect><style>
 @keyframes pulse-text { 0%, 100% { text-shadow: 0 0 10px rgba(110,80,220,0.5); } 50% { text-shadow: 0 0 25px rgba(160,100,255,0.9); } } #title { animation: pulse-text 3s infinite; } 
</style>
</svg><mask id="satori_om-id-0-0"><rect x="1" y="1" width="0" height="80" fill="#fff" mask="url(#satori_om-id)"/></mask><mask id="satori_om-id-0-0-0"><rect x="1" y="1" width="0" height="80" fill="#fff" mask="url(#satori_om-id)"/></mask><mask id="satori_om-id-0-0-0-0"><rect x="1" y="1" width="0" height="80" fill="#fff" mask="url(#satori_om-id)"/></mask><mask id="satori_om-id-0-0-0-1"><rect x="1" y="1" width="0" height="80" fill="#fff" mask="url(#satori_om-id)"/></mask><mask id="satori_om-id-0-1"><rect x="1" y="1" width="0" height="80" fill="#fff" mask="url(#satori_om-id)"/></mask><mask id="satori_om-id-1"><rect x="348" y="25" width="164" height="31" fill="#fff" mask="url(#satori_om-id)"/></mask><g mask="url(#satori_om-id)" clip-path="url(#satori_cp-id)"><path fill="#fff" d="M352.9 50L348.6 50L355.1 31.1L360.2 31.1L366.8 50L362.5 50L361.0 45.6L354.3 45.6L352.9 50ZM355.3 42.6L360.0 42.6L359.5 40.9Q358.9 39.1 358.3 37L358.3 37Q358.0 35.6 357.6 34.1L357.6 34.1Q357.2 35.7 356.9 37.0L356.9 37.0Q356.3 39.1 355.8 40.9L355.8 40.9L355.3 42.6ZM380.1 50L372.1 50L372.1 31.1L379.6 31.1Q381.7 31.1 383.1 31.7Q384.5 32.3 385.2 33.4Q385.9 34.5 385.9 35.9L385.9 35.9Q385.9 37.1 385.4 37.9Q385.0 38.7 384.2 39.3Q383.4 39.8 382.5 40.0L382.5 40.0L382.5 40.2Q383.5 40.2 384.5 40.8Q385.4 41.4 386.0 42.4Q386.6 43.4 386.6 44.8L386.6 44.8Q386.6 46.3 385.9 47.5Q385.1 48.6 383.7 49.3Q382.3 50 380.1 50L380.1 50ZM376.0 41.7L376.0 46.8L379.3 46.8Q381.0 46.8 381.8 46.2Q382.6 45.5 382.6 44.4L382.6 44.4Q382.6 43.6 382.2 43.0Q381.8 42.4 381.1 42.0Q380.4 41.7 379.5 41.7L379.5 41.7L376.0 41.7ZM376.0 34.2L376.0 39.0L379.1 39.0Q379.9 39.0 380.5 38.7Q381.2 38.4 381.6 37.9Q382.0 37.3 382.0 36.6L382.0 36.6Q382.0 35.5 381.2 34.9Q380.5 34.2 379.1 34.2L379.1 34.2L376.0 34.2ZM400.6 50.3L400.6 50.3Q398.1 50.3 396.1 49.1Q394.1 48.0 393.0 45.8Q391.8 43.6 391.8 40.6L391.8 40.6Q391.8 37.5 393.0 35.3Q394.1 33.1 396.1 32.0Q398.1 30.8 400.6 30.8L400.6 30.8Q403.1 30.8 405.1 32.0Q407.1 33.1 408.3 35.3Q409.5 37.5 409.5 40.6L409.5 40.6Q409.5 43.6 408.3 45.8Q407.1 48.0 405.1 49.1Q403.1 50.3 400.6 50.3ZM400.6 46.8L400.6 46.8Q402.1 46.8 403.2 46.1Q404.3 45.4 404.9 44.0Q405.5 42.6 405.5 40.6L405.5 40.6Q405.5 38.5 404.9 37.1Q404.3 35.7 403.2 35.0Q402.1 34.3 400.6 34.3L400.6 34.3Q399.2 34.3 398.1 35.0Q397.0 35.7 396.4 37.1Q395.7 38.5 395.7 40.6L395.7 40.6Q395.7 42.6 396.4 44.0Q397.0 45.4 398.1 46.1Q399.2 46.8 400.6 46.8ZM423.2 50.3L423.2 50.3Q420.8 50.3 419.1 49.4Q417.3 48.5 416.3 47.0Q415.4 45.4 415.4 43.4L415.4 43.4L415.4 31.1L419.2 31.1L419.2 43.0Q419.2 44.1 419.7 45.0Q420.2 45.9 421.1 46.4Q422.0 46.8 423.2 46.8L423.2 46.8Q424.3 46.8 425.2 46.4Q426.1 45.9 426.6 45.0Q427.1 44.1 427.1 43.0L427.1 43.0L427.1 31.1L431.0 31.1L431.0 43.4Q431.0 45.4 430.0 47.0Q429.0 48.5 427.3 49.4Q425.5 50.3 423.2 50.3ZM442.4 34.3L436.6 34.3L436.6 31.1L452.1 31.1L452.1 34.3L446.3 34.3L446.3 50L442.4 50L442.4 34.3Z M470.7 50L466.9 50L466.9 31.1L472.8 31.1L475.9 39.8Q476.1 40.4 476.4 41.3Q476.6 42.3 476.9 43.4L476.9 43.4Q477.1 44.5 477.3 45.5L477.3 45.5Q477.5 44.5 477.8 43.4L477.8 43.4Q478.0 42.3 478.3 41.4Q478.5 40.4 478.7 39.8L478.7 39.8L481.7 31.1L487.7 31.1L487.7 50L483.8 50L483.8 41.1Q483.8 40.5 483.8 39.5Q483.9 38.6 483.9 37.5Q483.9 36.5 483.9 35.4L483.9 35.4Q484.0 34.9 484.0 34.4L484.0 34.4Q483.8 35.0 483.7 35.5L483.7 35.5Q483.4 36.6 483.1 37.7Q482.8 38.7 482.5 39.6Q482.3 40.5 482.1 41.1L482.1 41.1L478.9 50L475.7 50L472.5 41.1Q472.3 40.5 472.0 39.6Q471.8 38.8 471.5 37.7Q471.2 36.7 470.9 35.5L470.9 35.5Q470.7 35.0 470.6 34.6L470.6 34.6Q470.6 34.9 470.6 35.3L470.6 35.3Q470.6 36.4 470.7 37.5Q470.7 38.6 470.7 39.5Q470.7 40.4 470.7 41.1L470.7 41.1L470.7 50ZM506.8 50L494.1 50L494.1 31.1L506.8 31.1L506.8 34.3L498.0 34.3L498.0 38.9L506.1 38.9L506.1 42.0L498.0 42.0L498.0 46.8L506.8 46.8L506.8 50Z "/></g></svg>