<!-- Generated by readme-aura https://github.com/collectioneur/readme-aura -->
<svg width="100" height="44" viewBox="0 0 100 44" xmlns="http://www.w3.org/2000/svg"><mask id="satori_om-id"><rect x="0" y="0" width="100" height="44" fill="#fff"/></mask><path x="0" y="0" width="100" height="44" fill="#001627" d="M22,0 h56 a22,22 0 0 1 22,22 v0 a22,22 0 0 1 -22,22 h-56 a22,22 0 0 1 -22,-22 v0 a22,22 0 0 1 22,-22"/><clipPath id="satori_cp-id-0"><rect x="0" y="0" width="100" height="44"/></clipPath><mask id="satori_om-id-0"><rect x="0" y="0" width="100" height="44" fill="#fff"/></mask><svg x="0" y="0" width="100" height="44" preserveAspectRatio="none" clip-path="url(#satori_cp-id-0)" mask="url(#satori_om-id-0)"><defs><linearGradient id="smb-grad-C" gradientUnits="objectBoundingBox" x1="0" y1="0" x2="1" y2="1"><stop offset="0%" stop-color="#ffffff"></stop><stop offset="15%" stop-color="#001627"></stop><stop offset="30%" stop-color="#cccccc"></stop><stop offset="50%" stop-color="#00599C"></stop><stop offset="65%" stop-color="#001627"></stop><stop offset="80%" stop-color="#888888"></stop><stop offset="100%" stop-color="#444444"></stop><animateTransform attributeName="gradientTransform" type="rotate" from="0 0.5 0.5" to="360 0.5 0.5" dur="8s" repeatCount="indefinite"></animateTransform></linearGradient></defs><rect x="1.25" y="1.25" width="97.5" height="41.5" rx="20.75" ry="20.75" fill="none" stroke="url(#smb-grad-C)" stroke-width="2" stroke-linecap="round" stroke-linejoin="round"></rect><rect x="0.25" y="0.25" width="99.5" height="43.5" rx="21.75" ry="21.75" fill="none" stroke="#AAAAAA" stroke-width="0.5" stroke-linecap="round" stroke-linejoin="round"></rect></svg><mask id="satori_om-id-0-0"><rect x="0" y="0" width="0" height="44" fill="#fff"/></mask><mask id="satori_om-id-0-0-0"><rect x="0" y="0" width="0" height="44" fill="#fff"/></mask><mask id="satori_om-id-0-0-0-0"><rect x="0" y="0" width="0" height="44" fill="#fff"/></mask><mask id="satori_om-id-0-0-0-1"><rect x="0" y="0" width="0" height="44" fill="#fff"/></mask><mask id="satori_om-id-0-0-0-2"><rect x="0" y="0" width="0" height="44" fill="#fff"/></mask><mask id="satori_om-id-0-0-0-3"><rect x="0" y="0" width="0" height="44" fill="#fff"/></mask><mask id="satori_om-id-0-0-0-4"><rect x="0" y="0" width="0" height="44" fill="#fff"/></mask><mask id="satori_om-id-0-0-0-5"><rect x="0" y="0" width="0" height="44" fill="#fff"/></mask><mask id="satori_om-id-0-0-0-6"><rect x="0" y="0" width="0" height="44" fill="#fff"/></mask><mask id="satori_om-id-0-0-0-7"><rect x="0" y="0" width="0" height="44" fill="#fff"/></mask><mask id="satori_om-id-0-1"><rect x="0" y="0" width="0" height="44" fill="#fff"/></mask><mask id="satori_om-id-0-2"><rect x="0" y="0" width="0" height="44" fill="#fff"/></mask><mask id="satori_om-id-1"><rect x="0" y="0" width="100" height="44" fill="#fff"/></mask><mask id="satori_om-id-1-0"><rect x="23" y="11" width="22" height="22" fill="#fff"/></mask><mask id="satori_om-id-1-1"><rect x="50" y="14" width="27" height="16" fill="#fff"/></mask><g  ><path fill="#ffffff" d="M55.0 27.1L55.0 27.1Q53.7 27.1 52.7 26.6Q51.7 26.0 51.2 24.9Q50.6 23.8 50.6 22.3L50.6 22.3Q50.6 20.7 51.2 19.6Q51.8 18.6 52.7 18.0Q53.7 17.4 55.0 17.4L55.0 17.4Q55.8 17.4 56.5 17.6Q57.2 17.9 57.7 18.3Q58.3 18.7 58.6 19.4Q59.0 20.0 59.1 20.8L59.1 20.8L57.1 20.8Q57.0 20.4 56.9 20.1Q56.7 19.8 56.4 19.6Q56.1 19.4 55.8 19.2Q55.4 19.1 55.0 19.1L55.0 19.1Q54.3 19.1 53.7 19.5Q53.2 19.9 52.9 20.6Q52.6 21.3 52.6 22.3L52.6 22.3Q52.6 23.3 52.9 24.0Q53.2 24.7 53.7 25.1Q54.3 25.4 55.0 25.4L55.0 25.4Q55.4 25.4 55.8 25.3Q56.1 25.2 56.4 25.0Q56.7 24.8 56.9 24.5Q57.0 24.1 57.1 23.8L57.1 23.8L59.1 23.8Q59.0 24.4 58.7 25.0Q58.4 25.6 57.8 26.1Q57.3 26.6 56.6 26.9Q55.9 27.1 55.0 27.1ZM64.6 26.5L63.0 26.5L63.0 24.0L60.6 24.0L60.6 22.5L63.0 22.5L63.0 20.0L64.6 20.0L64.6 22.5L67.1 22.5L67.1 24.0L64.6 24.0L64.6 26.5ZM73.3 26.5L71.6 26.5L71.6 24.0L69.2 24.0L69.2 22.5L71.6 22.5L71.6 20.0L73.3 20.0L73.3 22.5L75.7 22.5L75.7 24.0L73.3 24.0L73.3 26.5Z "/></g></svg>