<!-- Generated by readme-aura https://github.com/collectioneur/readme-aura -->
<svg width="110" height="44" viewBox="0 0 110 44" xmlns="http://www.w3.org/2000/svg"><mask id="satori_om-id"><rect x="0" y="0" width="110" height="44" fill="#fff"/></mask><path x="0" y="0" width="110" height="44" fill="#330e0b" d="M22,0 h66 a22,22 0 0 1 22,22 v0 a22,22 0 0 1 -22,22 h-66 a22,22 0 0 1 -22,-22 v0 a22,22 0 0 1 22,-22"/><clipPath id="satori_cp-id-0"><rect x="0" y="0" width="110" height="44"/></clipPath><mask id="satori_om-id-0"><rect x="0" y="0" width="110" height="44" fill="#fff"/></mask><svg x="0" y="0" width="110" height="44" preserveAspectRatio="none" clip-path="url(#satori_cp-id-0)" mask="url(#satori_om-id-0)"><defs><linearGradient id="smb-grad-Email" gradientUnits="objectBoundingBox" x1="0" y1="0" x2="1" y2="1"><stop offset="0%" stop-color="#ffffff"></stop><stop offset="15%" stop-color="#330e0b"></stop><stop offset="30%" stop-color="#cccccc"></stop><stop offset="50%" stop-color="#EA4335"></stop><stop offset="65%" stop-color="#330e0b"></stop><stop offset="80%" stop-color="#888888"></stop><stop offset="100%" stop-color="#444444"></stop><animateTransform attributeName="gradientTransform" type="rotate" from="0 0.5 0.5" to="360 0.5 0.5" dur="8s" repeatCount="indefinite"></animateTransform></linearGradient></defs><rect x="1.25" y="1.25" width="107.5" height="41.5" rx="20.75" ry="20.75" fill="none" stroke="url(#smb-grad-Email)" stroke-width="2" stroke-linecap="round" stroke-linejoin="round"></rect><rect x="0.25" y="0.25" width="109.5" height="43.5" rx="21.75" ry="21.75" fill="none" stroke="#AAAAAA" stroke-width="0.5" stroke-linecap="round" stroke-linejoin="round"></rect></svg><mask id="satori_om-id-0-0"><rect x="0" y="0" width="0" height="44" fill="#fff"/></mask><mask id="satori_om-id-0-0-0"><rect x="0" y="0" width="0" height="44" fill="#fff"/></mask><mask id="satori_om-id-0-0-0-0"><rect x="0" y="0" width="0" height="44" fill="#fff"/></mask><mask id="satori_om-id-0-0-0-1"><rect x="0" y="0" width="0" height="44" fill="#fff"/></mask><mask id="satori_om-id-0-0-0-2"><rect x="0" y="0" width="0" height="44" fill="#fff"/></mask><mask id="satori_om-id-0-0-0-3"><rect x="0" y="0" width="0" height="44" fill="#fff"/></mask><mask id="satori_om-id-0-0-0-4"><rect x="0" y="0" width="0" height="44" fill="#fff"/></mask><mask id="satori_om-id-0-0-0-5"><rect x="0" y="0" width="0" height="44" fill="#fff"/></mask><mask id="satori_om-id-0-0-0-6"><rect x="0" y="0" width="0" height="44" fill="#fff"/></mask><mask id="satori_om-id-0-0-0-7"><rect x="0" y="0" width="0" height="44" fill="#fff"/></mask><mask id="satori_om-id-0-1"><rect x="0" y="0" width="0" height="44" fill="#fff"/></mask><mask id="satori_om-id-0-2"><rect x="0" y="0" width="0" height="44" fill="#fff"/></mask><mask id="satori_om-id-1"><rect x="0" y="0" width="110" height="44" fill="#fff"/></mask><mask id="satori_om-id-1-0"><rect x="26" y="12" width="20" height="20" fill="#fff"/></mask><mask id="satori_om-id-1-1"><rect x="51" y="14" width="34" height="16" fill="#fff"/></mask><g  ><path fill="#ffffff" d="M58.2 27L51.9 27L51.9 17.5L58.2 17.5L58.2 19.1L53.8 19.1L53.8 21.4L57.9 21.4L57.9 23.0L53.8 23.0L53.8 25.4L58.2 25.4L58.2 27ZM61.4 27L59.5 27L59.5 19.9L61.3 19.9L61.3 21.3Q61.5 20.9 61.7 20.6L61.7 20.6Q62.0 20.2 62.5 20.0Q62.9 19.8 63.4 19.8L63.4 19.8Q64.1 19.8 64.6 20.3L64.6 20.3Q65.0 20.7 65.2 21.4L65.2 21.4Q65.4 21.0 65.6 20.7L65.6 20.7Q66.0 20.2 66.5 20.0Q66.9 19.8 67.5 19.8L67.5 19.8Q68.1 19.8 68.6 20.1Q69.2 20.4 69.5 20.9Q69.7 21.4 69.7 22.2L69.7 22.2L69.7 27L67.8 27L67.8 22.6Q67.8 22.0 67.5 21.7Q67.2 21.4 66.7 21.4L66.7 21.4Q66.4 21.4 66.1 21.5Q65.8 21.7 65.7 22.0Q65.5 22.3 65.5 22.6L65.5 22.6L65.5 27L63.7 27L63.7 22.5Q63.7 22.0 63.4 21.7Q63.1 21.4 62.6 21.4L62.6 21.4Q62.3 21.4 62.0 21.5Q61.7 21.7 61.6 22.0Q61.4 22.3 61.4 22.7L61.4 22.7L61.4 27ZM73.2 27.1L73.2 27.1Q72.5 27.1 71.9 26.9Q71.4 26.7 71.1 26.2Q70.8 25.7 70.8 25.0L70.8 25.0Q70.8 24.4 71.0 24.0Q71.2 23.6 71.6 23.4Q72.0 23.1 72.5 23.0Q72.9 22.9 73.5 22.8L73.5 22.8Q74.1 22.8 74.5 22.7Q74.8 22.7 75.0 22.5Q75.2 22.4 75.2 22.2L75.2 22.2L75.2 22.2Q75.2 21.9 75.1 21.7Q74.9 21.4 74.7 21.3Q74.4 21.2 74.1 21.2L74.1 21.2Q73.7 21.2 73.4 21.3Q73.2 21.4 73.0 21.6Q72.8 21.8 72.7 22.0L72.7 22.0L71.0 21.8Q71.2 21.1 71.6 20.7Q72.0 20.3 72.7 20.0Q73.3 19.8 74.1 19.8L74.1 19.8Q74.7 19.8 75.2 20.0Q75.7 20.1 76.2 20.4Q76.6 20.7 76.8 21.1Q77.1 21.6 77.1 22.2L77.1 22.2L77.1 27L75.3 27L75.3 26.0L75.2 26.0Q75.1 26.3 74.8 26.6Q74.5 26.8 74.1 27.0Q73.7 27.1 73.2 27.1ZM73.7 25.8L73.7 25.8Q74.1 25.8 74.5 25.6Q74.8 25.4 75.0 25.1Q75.2 24.8 75.2 24.5L75.2 24.5L75.2 23.7Q75.1 23.8 74.9 23.8Q74.8 23.9 74.6 23.9Q74.4 23.9 74.2 24.0Q74.0 24.0 73.8 24.0L73.8 24.0Q73.4 24.1 73.2 24.2Q72.9 24.3 72.8 24.5Q72.6 24.7 72.6 25.0L72.6 25.0Q72.6 25.2 72.8 25.4Q72.9 25.6 73.1 25.7Q73.4 25.8 73.7 25.8ZM80.4 27L78.5 27L78.5 19.9L80.4 19.9L80.4 27ZM79.5 19.0L79.5 19.0Q79.0 19.0 78.7 18.7Q78.4 18.4 78.4 18.0L78.4 18.0Q78.4 17.6 78.7 17.3Q79.0 17.0 79.5 17.0L79.5 17.0Q79.9 17.0 80.2 17.3Q80.5 17.6 80.5 18.0L80.5 18.0Q80.5 18.4 80.2 18.7Q79.9 19.0 79.5 19.0ZM81.8 17.5L83.7 17.5L83.7 27L81.8 27L81.8 17.5Z "/></g></svg>