<!-- Generated by readme-aura https://github.com/collectioneur/readme-aura -->
<svg width="860" height="140" viewBox="0 0 860 140" xmlns="http://www.w3.org/2000/svg"><defs><clipPath id="satori_bc-id"><path x="0" y="0" width="860" height="140" d="M16,0 h828 a16,16 0 0 1 16,16 v108 a16,16 0 0 1 -16,16 h-828 a16,16 0 0 1 -16,-16 v-108 a16,16 0 0 1 16,-16"/></clipPath></defs><clipPath id="satori_cp-id"><path x="0" y="0" width="860" height="140" d="M16,0 h828 a16,16 0 0 1 16,16 v108 a16,16 0 0 1 -16,16 h-828 a16,16 0 0 1 -16,-16 v-108 a16,16 0 0 1 16,-16"/></clipPath><mask id="satori_om-id"><rect x="1" y="1" width="858" height="138" fill="#fff"/><path width="860" height="140" fill="none" stroke="#000" stroke-width="2" d="M4.686,4.686 A16,16 0 0 1 16,0 h828 a16,16 0 0 1 16,16 v108 a16,16 0 0 1 -16,16 h-828 a16,16 0 0 1 -16,-16 v-108 A16,16 0 0 1 4.686,4.686"/></mask><path x="0" y="0" width="860" height="140" fill="#08080c" d="M16,0 h828 a16,16 0 0 1 16,16 v108 a16,16 0 0 1 -16,16 h-828 a16,16 0 0 1 -16,-16 v-108 a16,16 0 0 1 16,-16"/><path width="860" height="140" clip-path="url(#satori_bc-id)" fill="none" stroke="rgba(110,80,220,0.18)" stroke-width="2" d="M4.686,4.686 A16,16 0 0 1 16,0 h828 a16,16 0 0 1 16,16 v108 a16,16 0 0 1 -16,16 h-828 a16,16 0 0 1 -16,-16 v-108 A16,16 0 0 1 4.686,4.686"/><clipPath id="satori_cp-id-0" clip-path="url(#satori_cp-id)"><rect x="1" y="1" width="860" height="140"/></clipPath><mask id="satori_om-id-0"><rect x="1" y="1" width="860" height="140" fill="#fff" mask="url(#satori_om-id)"/></mask><svg x="1" y="1" width="860" height="140" preserveAspectRatio="none" clip-path="url(#satori_cp-id-0)" mask="url(#satori_om-id-0)"><defs><radialGradient id="g1" cx="50%" cy="50%" r="50%"><stop offset="0%" stop-color="rgba(110,20,210,0.65)"></stop><stop offset="45%" stop-color="rgba(80,15,170,0.28)"></stop><stop offset="70%" stop-color="rgba(80,15,170,0)"></stop></radialGradient><radialGradient id="g2" cx="50%" cy="50%" r="50%"><stop offset="0%" stop-color="rgba(40,70,255,0.55)"></stop><stop offset="45%" stop-color="rgba(20,50,200,0.22)"></stop><stop offset="70%" stop-color="rgba(20,50,200,0)"></stop></radialGradient><radialGradient id="g3" cx="50%" cy="50%" r="50%"><stop offset="0%" stop-color="rgba(0,140,255,0.42)"></stop><stop offset="70%" stop-color="rgba(0,140,255,0)"></stop></radialGradient><radialGradient id="g4" cx="50%" cy="50%" r="50%"><stop offset="0%" stop-color="rgba(0,195,235,0.30)"></stop><stop offset="70%" stop-color="rgba(0,195,235,0)"></stop></radialGradient><radialGradient id="g5" cx="50%" cy="50%" r="50%"><stop offset="0%" stop-color="rgba(100,30,210,0.40)"></stop><stop offset="70%" stop-color="rgba(100,30,210,0)"></stop></radialGradient></defs><ellipse id="glow-1" cx="710" cy="150" rx="210" ry="150" fill="url(#g1)"></ellipse><ellipse id="glow-2" cx="550" cy="140" rx="190" ry="140" fill="url(#g2)"></ellipse><ellipse id="glow-3" cx="400" cy="130" rx="170" ry="130" fill="url(#g3)"></ellipse><ellipse id="glow-4" cx="250" cy="140" rx="150" ry="120" fill="url(#g4)"></ellipse><ellipse id="glow-5" cx="100" cy="150" rx="130" ry="110" fill="url(#g5)"></ellipse><style>

         @keyframes float-slow {
           0%, 100% { transform: translateX(0px); opacity: 0.8; }
           50% { transform: translateX(350px); opacity: 1.2; }
         }
         @keyframes float-medium {
           0%, 100% { transform: translateX(0px); opacity: 0.7; }
           50% { transform: translateX(-250px); opacity: 1.1; }
         }
         @keyframes float-fast {
           0%, 100% { transform: translateX(0px); opacity: 0.9; }
           50% { transform: translateX(200px); opacity: 0.6; }
         }
         @keyframes float-diagonal {
           0%, 100% { transform: translate(0px, 0px); opacity: 0.75; }
           50% { transform: translate(120px, 30px); opacity: 1.0; }
         }
         @keyframes float-wave {
           0%, 100% { transform: translateX(0px); opacity: 0.65; }
           33% { transform: translateX(-160px); opacity: 0.9; }
           66% { transform: translateX(80px); opacity: 1.0; }
         }
         @keyframes float-pulse {
           0%, 100% { transform: scale(1); opacity: 0.8; }
           50% { transform: scale(1.3); opacity: 0.4; }
         }
         #glow-1 { animation: float-slow 8s ease-in-out infinite; }
         #glow-2 { animation: float-medium 12s ease-in-out infinite; }
         #glow-3 { animation: float-fast 9s ease-in-out infinite; }
         #glow-4 { animation: float-diagonal 10s ease-in-out infinite; }
         #glow-5 { animation: float-wave 14s ease-in-out infinite; }
       
</style>
</svg><mask id="satori_om-id-0-0"><rect x="1" y="1" width="0" height="140" fill="#fff" mask="url(#satori_om-id)"/></mask><mask id="satori_om-id-0-0-0"><rect x="1" y="1" width="0" height="140" fill="#fff" mask="url(#satori_om-id)"/></mask><mask id="satori_om-id-0-0-0-0"><rect x="1" y="1" width="0" height="140" fill="#fff" mask="url(#satori_om-id)"/></mask><mask id="satori_om-id-0-0-0-1"><rect x="1" y="1" width="0" height="140" fill="#fff" mask="url(#satori_om-id)"/></mask><mask id="satori_om-id-0-0-0-2"><rect x="1" y="1" width="0" height="140" fill="#fff" mask="url(#satori_om-id)"/></mask><mask id="satori_om-id-0-0-1"><rect x="1" y="1" width="0" height="140" fill="#fff" mask="url(#satori_om-id)"/></mask><mask id="satori_om-id-0-0-1-0"><rect x="1" y="1" width="0" height="140" fill="#fff" mask="url(#satori_om-id)"/></mask><mask id="satori_om-id-0-0-1-1"><rect x="1" y="1" width="0" height="140" fill="#fff" mask="url(#satori_om-id)"/></mask><mask id="satori_om-id-0-0-1-2"><rect x="1" y="1" width="0" height="140" fill="#fff" mask="url(#satori_om-id)"/></mask><mask id="satori_om-id-0-0-2"><rect x="1" y="1" width="0" height="140" fill="#fff" mask="url(#satori_om-id)"/></mask><mask id="satori_om-id-0-0-2-0"><rect x="1" y="1" width="0" height="140" fill="#fff" mask="url(#satori_om-id)"/></mask><mask id="satori_om-id-0-0-2-1"><rect x="1" y="1" width="0" height="140" fill="#fff" mask="url(#satori_om-id)"/></mask><mask id="satori_om-id-0-0-3"><rect x="1" y="1" width="0" height="140" fill="#fff" mask="url(#satori_om-id)"/></mask><mask id="satori_om-id-0-0-3-0"><rect x="1" y="1" width="0" height="140" fill="#fff" mask="url(#satori_om-id)"/></mask><mask id="satori_om-id-0-0-3-1"><rect x="1" y="1" width="0" height="140" fill="#fff" mask="url(#satori_om-id)"/></mask><mask id="satori_om-id-0-0-4"><rect x="1" y="1" width="0" height="140" fill="#fff" mask="url(#satori_om-id)"/></mask><mask id="satori_om-id-0-0-4-0"><rect x="1" y="1" width="0" height="140" fill="#fff" mask="url(#satori_om-id)"/></mask><mask id="satori_om-id-0-0-4-1"><rect x="1" y="1" width="0" height="140" fill="#fff" mask="url(#satori_om-id)"/></mask><mask id="satori_om-id-0-1"><rect x="1" y="1" width="0" height="140" fill="#fff" mask="url(#satori_om-id)"/></mask><mask id="satori_om-id-0-2"><rect x="1" y="1" width="0" height="140" fill="#fff" mask="url(#satori_om-id)"/></mask><mask id="satori_om-id-0-3"><rect x="1" y="1" width="0" height="140" fill="#fff" mask="url(#satori_om-id)"/></mask><mask id="satori_om-id-0-4"><rect x="1" y="1" width="0" height="140" fill="#fff" mask="url(#satori_om-id)"/></mask><mask id="satori_om-id-0-5"><rect x="1" y="1" width="0" height="140" fill="#fff" mask="url(#satori_om-id)"/></mask><defs><clipPath id="satori_bc-id-1" clip-path="url(#satori_cp-id)"><rect x="1" y="30" width="271" height="80"/></clipPath></defs><mask id="satori_om-id-1"><rect x="1" y="30" width="270" height="80" fill="#fff" mask="url(#satori_om-id)"/><path width="271" height="80" fill="none" stroke="#000" stroke-width="2" d="M272,30 A0,0 0 0 1 272,30 v80 A0,0 0 0 1 272,110"/></mask><path width="271" height="80" clip-path="url(#satori_bc-id-1)" fill="none" stroke="rgba(255,255,255,0.06)" stroke-width="2" d="M272,30 A0,0 0 0 1 272,30 v80 A0,0 0 0 1 272,110"/><mask id="satori_om-id-1-0"><rect x="117" y="46" width="39" height="30" fill="#fff" mask="url(#satori_om-id)"/></mask><g mask="url(#satori_om-id)" clip-path="url(#satori_cp-id)"><path fill="#a78bfa" d="M134.3 72L118.8 72L118.8 68.8L126.6 61.5Q127.5 60.6 128.2 59.8Q128.9 59.0 129.3 58.2Q129.6 57.5 129.6 56.6L129.6 56.6Q129.6 55.6 129.2 54.9Q128.7 54.2 128.0 53.8Q127.2 53.5 126.2 53.5L126.2 53.5Q125.2 53.5 124.5 53.9Q123.7 54.3 123.3 55.0Q122.9 55.8 122.9 56.9L122.9 56.9L118.6 56.9Q118.6 54.7 119.6 53.2Q120.6 51.6 122.3 50.7Q124.0 49.9 126.3 49.9L126.3 49.9Q128.6 49.9 130.3 50.7Q132.0 51.5 133.0 53.0Q134.0 54.4 134.0 56.3L134.0 56.3Q134.0 57.5 133.5 58.7Q133.0 59.9 131.8 61.4Q130.6 62.9 128.3 64.9L128.3 64.9L125.0 68.2L125.0 68.3L134.3 68.3L134.3 72ZM145.7 72.3L145.7 72.3Q143.2 72.3 141.3 71.5Q139.4 70.7 138.4 69.3Q137.3 67.9 137.3 66.1L137.3 66.1Q137.3 64.8 137.9 63.6Q138.5 62.5 139.6 61.7Q140.6 60.9 142.0 60.7L142.0 60.7L142.0 60.6Q140.2 60.2 139.1 58.9Q138.1 57.5 138.1 55.7L138.1 55.7Q138.1 54.1 139.0 52.7Q140.0 51.4 141.7 50.6Q143.5 49.9 145.7 49.9L145.7 49.9Q147.8 49.9 149.6 50.6Q151.3 51.4 152.3 52.7Q153.3 54.1 153.3 55.7L153.3 55.7Q153.3 57.5 152.2 58.9Q151.1 60.2 149.4 60.6L149.4 60.6L149.4 60.7Q150.7 60.9 151.7 61.7Q152.8 62.5 153.4 63.6Q154.1 64.8 154.1 66.1L154.1 66.1Q154.1 67.9 153.0 69.3Q151.9 70.7 150.0 71.5Q148.1 72.3 145.7 72.3ZM145.7 69.0L145.7 69.0Q146.8 69.0 147.6 68.6Q148.5 68.2 148.9 67.5Q149.4 66.7 149.4 65.8L149.4 65.8Q149.4 64.8 148.9 64.1Q148.4 63.3 147.6 62.9Q146.7 62.5 145.7 62.5L145.7 62.5Q144.6 62.5 143.7 62.9Q142.9 63.3 142.4 64.1Q141.9 64.8 141.9 65.8L141.9 65.8Q141.9 66.7 142.4 67.4Q142.8 68.2 143.7 68.6Q144.5 69.0 145.7 69.0ZM145.7 59.2L145.7 59.2Q146.6 59.2 147.3 58.8Q148.0 58.4 148.5 57.8Q148.9 57.1 148.9 56.2L148.9 56.2Q148.9 55.3 148.5 54.7Q148.1 54.0 147.3 53.7Q146.6 53.3 145.7 53.3L145.7 53.3Q144.7 53.3 144.0 53.7Q143.3 54.0 142.8 54.7Q142.4 55.3 142.4 56.2L142.4 56.2Q142.4 57.1 142.8 57.8Q143.3 58.4 144.0 58.8Q144.7 59.2 145.7 59.2Z "/></g><mask id="satori_om-id-1-1"><rect x="114" y="81" width="45" height="13" fill="#fff" mask="url(#satori_om-id)"/></mask><g mask="url(#satori_om-id)" clip-path="url(#satori_cp-id)"><path fill="rgba(200,195,225,0.45)" d="M116.4 92L114.7 92L114.7 84.0L117.8 84.0Q118.8 84.0 119.4 84.3Q120.0 84.6 120.4 85.2Q120.7 85.8 120.7 86.6Q120.7 87.4 120.4 88.0Q120.0 88.5 119.4 88.8L119.4 88.8Q119.3 88.9 119.3 88.9L119.3 88.9L121.0 92L119.2 92L117.6 89.1L116.4 89.1L116.4 92ZM116.4 85.4L116.4 87.8L117.5 87.8Q118.0 87.8 118.4 87.7Q118.7 87.5 118.9 87.3Q119.0 87.0 119.0 86.6L119.0 86.6Q119.0 86.2 118.9 85.9Q118.7 85.6 118.4 85.5Q118.0 85.4 117.5 85.4L117.5 85.4L116.4 85.4ZM128.8 92L123.4 92L123.4 84.0L128.8 84.0L128.8 85.4L125.1 85.4L125.1 87.3L128.5 87.3L128.5 88.6L125.1 88.6L125.1 90.6L128.8 90.6L128.8 92ZM133.3 92L131.6 92L131.6 84.0L134.8 84.0Q135.7 84.0 136.3 84.3Q136.9 84.7 137.3 85.3Q137.6 85.9 137.6 86.7L137.6 86.7Q137.6 87.5 137.3 88.1Q136.9 88.7 136.3 89.0Q135.6 89.4 134.7 89.4L134.7 89.4L133.3 89.4L133.3 92ZM133.3 85.4L133.3 88.1L134.5 88.1Q135.0 88.1 135.3 87.9Q135.6 87.7 135.8 87.4Q135.9 87.1 135.9 86.7Q135.9 86.3 135.8 86.0Q135.6 85.7 135.3 85.5Q135.0 85.4 134.4 85.4L134.4 85.4L133.3 85.4ZM143.8 92.1L143.8 92.1Q142.7 92.1 141.9 91.6Q141.0 91.1 140.5 90.2Q140.0 89.3 140.0 88.0L140.0 88.0Q140.0 86.7 140.5 85.8Q141.0 84.9 141.9 84.4Q142.7 83.9 143.8 83.9L143.8 83.9Q144.8 83.9 145.7 84.4Q146.5 84.9 147.0 85.8Q147.5 86.7 147.5 88.0L147.5 88.0Q147.5 89.3 147.0 90.2Q146.5 91.1 145.7 91.6Q144.8 92.1 143.8 92.1ZM143.8 90.7L143.8 90.7Q144.4 90.7 144.9 90.3Q145.3 90.0 145.6 89.5Q145.8 88.9 145.8 88.0L145.8 88.0Q145.8 87.1 145.6 86.5Q145.3 86.0 144.9 85.6Q144.4 85.3 143.8 85.3L143.8 85.3Q143.2 85.3 142.7 85.7Q142.2 86.0 142.0 86.6Q141.7 87.1 141.7 88.0L141.7 88.0Q141.7 88.9 142.0 89.4Q142.2 90.0 142.7 90.3Q143.2 90.7 143.8 90.7ZM153.2 92.1L153.2 92.1Q152.2 92.1 151.5 91.8Q150.8 91.5 150.4 90.9Q150.0 90.4 150.0 89.5L150.0 89.5L151.6 89.5Q151.6 89.9 151.8 90.2Q152.0 90.5 152.4 90.6Q152.7 90.7 153.2 90.7L153.2 90.7Q153.6 90.7 153.9 90.6Q154.2 90.5 154.4 90.2Q154.6 90.0 154.6 89.7L154.6 89.7Q154.6 89.4 154.4 89.3Q154.3 89.1 154.0 88.9Q153.7 88.8 153.2 88.7L153.2 88.7L152.3 88.5Q151.3 88.2 150.8 87.7Q150.2 87.2 150.2 86.3L150.2 86.3Q150.2 85.6 150.6 85.0Q151.0 84.5 151.6 84.2Q152.3 83.9 153.2 83.9L153.2 83.9Q154.1 83.9 154.7 84.2Q155.4 84.5 155.8 85.0Q156.1 85.6 156.1 86.3L156.1 86.3L154.6 86.3Q154.5 85.8 154.2 85.5Q153.8 85.3 153.2 85.3L153.2 85.3Q152.8 85.3 152.5 85.4Q152.2 85.5 152.0 85.7Q151.9 85.9 151.9 86.2L151.9 86.2Q151.9 86.5 152.0 86.7Q152.2 86.9 152.5 87.0Q152.8 87.1 153.1 87.2L153.1 87.2L153.9 87.4Q154.4 87.5 154.8 87.7Q155.2 87.9 155.6 88.2Q155.9 88.4 156.1 88.8Q156.3 89.2 156.3 89.7L156.3 89.7Q156.3 90.4 155.9 91.0Q155.5 91.5 154.8 91.8Q154.1 92.1 153.2 92.1Z "/></g><defs><clipPath id="satori_bc-id-2" clip-path="url(#satori_cp-id)"><rect x="272" y="30" width="271" height="80"/></clipPath></defs><mask id="satori_om-id-2"><rect x="272" y="30" width="270" height="80" fill="#fff" mask="url(#satori_om-id)"/><path width="271" height="80" fill="none" stroke="#000" stroke-width="2" d="M543,30 A0,0 0 0 1 543,30 v80 A0,0 0 0 1 543,110"/></mask><path width="271" height="80" clip-path="url(#satori_bc-id-2)" fill="none" stroke="rgba(255,255,255,0.06)" stroke-width="2" d="M543,30 A0,0 0 0 1 543,30 v80 A0,0 0 0 1 543,110"/><mask id="satori_om-id-2-0"><rect x="397" y="46" width="20" height="30" fill="#fff" mask="url(#satori_om-id)"/></mask><g mask="url(#satori_om-id)" clip-path="url(#satori_cp-id)"><path fill="#60a5fa" d="M406.8 72.3L406.8 72.3Q404.3 72.3 402.4 71.5Q400.5 70.7 399.5 69.3Q398.4 67.9 398.4 66.1L398.4 66.1Q398.4 64.8 399.0 63.6Q399.6 62.5 400.7 61.7Q401.7 60.9 403.1 60.7L403.1 60.7L403.1 60.6Q401.3 60.2 400.3 58.9Q399.2 57.5 399.2 55.7L399.2 55.7Q399.2 54.1 400.1 52.7Q401.1 51.4 402.8 50.6Q404.6 49.9 406.8 49.9L406.8 49.9Q408.9 49.9 410.7 50.6Q412.4 51.4 413.4 52.7Q414.4 54.1 414.4 55.7L414.4 55.7Q414.4 57.5 413.3 58.9Q412.2 60.2 410.5 60.6L410.5 60.6L410.5 60.7Q411.8 60.9 412.8 61.7Q413.9 62.5 414.5 63.6Q415.2 64.8 415.2 66.1L415.2 66.1Q415.2 67.9 414.1 69.3Q413.0 70.7 411.1 71.5Q409.2 72.3 406.8 72.3ZM406.8 69.0L406.8 69.0Q407.9 69.0 408.7 68.6Q409.6 68.2 410.0 67.5Q410.5 66.7 410.5 65.8L410.5 65.8Q410.5 64.8 410.0 64.1Q409.5 63.3 408.7 62.9Q407.8 62.5 406.8 62.5L406.8 62.5Q405.7 62.5 404.8 62.9Q404.0 63.3 403.5 64.1Q403.0 64.8 403.0 65.8L403.0 65.8Q403.0 66.7 403.5 67.4Q403.9 68.2 404.8 68.6Q405.6 69.0 406.8 69.0ZM406.8 59.2L406.8 59.2Q407.7 59.2 408.4 58.8Q409.1 58.4 409.6 57.8Q410.0 57.1 410.0 56.2L410.0 56.2Q410.0 55.3 409.6 54.7Q409.2 54.0 408.4 53.7Q407.7 53.3 406.8 53.3L406.8 53.3Q405.8 53.3 405.1 53.7Q404.4 54.0 403.9 54.7Q403.5 55.3 403.5 56.2L403.5 56.2Q403.5 57.1 403.9 57.8Q404.4 58.4 405.1 58.8Q405.8 59.2 406.8 59.2Z "/></g><mask id="satori_om-id-2-1"><rect x="385" y="81" width="45" height="13" fill="#fff" mask="url(#satori_om-id)"/></mask><g mask="url(#satori_om-id)" clip-path="url(#satori_cp-id)"><path fill="rgba(200,195,225,0.45)" d="M388.7 92.1L388.7 92.1Q387.7 92.1 387.0 91.8Q386.3 91.5 385.9 90.9Q385.5 90.4 385.5 89.5L385.5 89.5L387.1 89.5Q387.1 89.9 387.3 90.2Q387.5 90.5 387.9 90.6Q388.2 90.7 388.6 90.7L388.6 90.7Q389.1 90.7 389.4 90.6Q389.7 90.5 389.9 90.2Q390.1 90.0 390.1 89.7L390.1 89.7Q390.1 89.4 389.9 89.3Q389.8 89.1 389.5 88.9Q389.2 88.8 388.7 88.7L388.7 88.7L387.8 88.5Q386.8 88.2 386.2 87.7Q385.7 87.2 385.7 86.3L385.7 86.3Q385.7 85.6 386.1 85.0Q386.5 84.5 387.1 84.2Q387.8 83.9 388.7 83.9L388.7 83.9Q389.6 83.9 390.2 84.2Q390.9 84.5 391.3 85.0Q391.6 85.6 391.6 86.3L391.6 86.3L390.1 86.3Q390.0 85.8 389.6 85.5Q389.3 85.3 388.7 85.3L388.7 85.3Q388.2 85.3 388.0 85.4Q387.7 85.5 387.5 85.7Q387.4 85.9 387.4 86.2L387.4 86.2Q387.4 86.5 387.5 86.7Q387.7 86.9 388.0 87.0Q388.3 87.1 388.6 87.2L388.6 87.2L389.4 87.4Q389.9 87.5 390.3 87.7Q390.7 87.9 391.1 88.2Q391.4 88.4 391.6 88.8Q391.7 89.2 391.7 89.7L391.7 89.7Q391.7 90.4 391.4 91.0Q391.0 91.5 390.3 91.8Q389.6 92.1 388.7 92.1ZM396.6 85.4L394.1 85.4L394.1 84.0L400.6 84.0L400.6 85.4L398.2 85.4L398.2 92L396.6 92L396.6 85.4ZM404.6 92L402.8 92L405.5 84.0L407.7 84.0L410.5 92L408.7 92L408.1 90.1L405.2 90.1L404.6 92ZM405.6 88.9L407.6 88.9L407.4 88.1Q407.2 87.4 406.9 86.5L406.9 86.5Q406.8 85.9 406.6 85.3L406.6 85.3Q406.4 85.9 406.3 86.5L406.3 86.5Q406.1 87.4 405.9 88.1L405.9 88.1L405.6 88.9ZM414.6 92L413.0 92L413.0 84.0L416.1 84.0Q417.0 84.0 417.7 84.3Q418.3 84.6 418.6 85.2Q419.0 85.8 419.0 86.6Q419.0 87.4 418.6 88.0Q418.3 88.5 417.6 88.8L417.6 88.8Q417.6 88.9 417.5 88.9L417.5 88.9L419.3 92L417.4 92L415.9 89.1L414.6 89.1L414.6 92ZM414.6 85.4L414.6 87.8L415.8 87.8Q416.3 87.8 416.6 87.7Q417.0 87.5 417.1 87.3Q417.3 87.0 417.3 86.6L417.3 86.6Q417.3 86.2 417.1 85.9Q417.0 85.6 416.6 85.5Q416.3 85.4 415.8 85.4L415.8 85.4L414.6 85.4ZM424.6 92.1L424.6 92.1Q423.7 92.1 423.0 91.8Q422.3 91.5 421.9 90.9Q421.5 90.4 421.4 89.5L421.4 89.5L423.0 89.5Q423.1 89.9 423.3 90.2Q423.5 90.5 423.8 90.6Q424.2 90.7 424.6 90.7L424.6 90.7Q425.1 90.7 425.4 90.6Q425.7 90.5 425.9 90.2Q426.1 90.0 426.1 89.7L426.1 89.7Q426.1 89.4 425.9 89.3Q425.8 89.1 425.4 88.9Q425.1 88.8 424.7 88.7L424.7 88.7L423.8 88.5Q422.8 88.2 422.2 87.7Q421.7 87.2 421.7 86.3L421.7 86.3Q421.7 85.6 422.0 85.0Q422.4 84.5 423.1 84.2Q423.8 83.9 424.7 83.9L424.7 83.9Q425.5 83.9 426.2 84.2Q426.9 84.5 427.2 85.0Q427.6 85.6 427.6 86.3L427.6 86.3L426.0 86.3Q426.0 85.8 425.6 85.5Q425.3 85.3 424.6 85.3L424.6 85.3Q424.2 85.3 423.9 85.4Q423.6 85.5 423.5 85.7Q423.3 85.9 423.3 86.2L423.3 86.2Q423.3 86.5 423.5 86.7Q423.7 86.9 424.0 87.0Q424.3 87.1 424.6 87.2L424.6 87.2L425.3 87.4Q425.8 87.5 426.3 87.7Q426.7 87.9 427.0 88.2Q427.4 88.4 427.5 88.8Q427.7 89.2 427.7 89.7L427.7 89.7Q427.7 90.4 427.4 91.0Q427.0 91.5 426.3 91.8Q425.6 92.1 424.6 92.1Z "/></g><mask id="satori_om-id-3"><rect x="543" y="30" width="316" height="80" fill="#fff" mask="url(#satori_om-id)"/></mask><mask id="satori_om-id-3-0"><rect x="656" y="46" width="91" height="30" fill="#fff" mask="url(#satori_om-id)"/></mask><g mask="url(#satori_om-id)" clip-path="url(#satori_cp-id)"><path fill="#f59e0b" d="M665.7 72.3L665.7 72.3Q663.3 72.3 661.4 71.5Q659.6 70.7 658.5 69.2Q657.5 67.8 657.5 65.9L657.5 65.9L661.9 65.9Q662.0 66.7 662.5 67.3Q663.0 67.9 663.8 68.3Q664.6 68.6 665.7 68.6L665.7 68.6Q666.8 68.6 667.6 68.2Q668.4 67.8 668.9 67.2Q669.3 66.5 669.3 65.6L669.3 65.6Q669.3 64.7 668.8 64.0Q668.3 63.3 667.4 62.9Q666.5 62.5 665.3 62.5L665.3 62.5L663.2 62.5L663.2 59.2L665.3 59.2Q666.3 59.2 667.1 58.8Q667.9 58.5 668.4 57.8Q668.9 57.2 668.9 56.3L668.9 56.3Q668.9 55.4 668.5 54.8Q668.1 54.2 667.4 53.8Q666.6 53.5 665.7 53.5L665.7 53.5Q664.7 53.5 664.0 53.8Q663.2 54.1 662.7 54.8Q662.2 55.4 662.2 56.2L662.2 56.2L657.9 56.2Q657.9 54.4 658.9 52.9Q660.0 51.5 661.7 50.7Q663.5 49.9 665.7 49.9L665.7 49.9Q668.0 49.9 669.7 50.7Q671.3 51.5 672.3 52.9Q673.2 54.3 673.2 56.0L673.2 56.0Q673.2 57.8 672.1 59.1Q670.9 60.3 669.1 60.6L669.1 60.6L669.1 60.8Q670.7 61.0 671.8 61.7Q672.9 62.4 673.4 63.5Q674.0 64.5 674.0 65.9L674.0 65.9Q674.0 67.7 672.9 69.2Q671.8 70.6 670.0 71.5Q668.1 72.3 665.7 72.3ZM684.7 72.3L684.7 72.3Q682.5 72.3 680.9 71.5Q679.2 70.6 678.2 69.2Q677.2 67.7 677.0 65.9L677.0 65.9L681.4 65.9Q681.6 67.1 682.5 67.8Q683.4 68.5 684.7 68.5L684.7 68.5Q686.1 68.5 687.1 67.6Q688.1 66.8 688.6 65.2Q689.1 63.6 689.1 61.5L689.1 61.5L689.0 61.5Q688.5 62.4 687.6 63.1Q686.8 63.8 685.7 64.1Q684.7 64.5 683.5 64.5L683.5 64.5Q681.5 64.5 680.0 63.6Q678.5 62.7 677.6 61.1Q676.7 59.5 676.7 57.5L676.7 57.5Q676.7 55.2 677.8 53.5Q678.8 51.8 680.6 50.8Q682.5 49.8 684.9 49.9L684.9 49.9Q686.5 49.9 688.1 50.4Q689.6 51.0 690.8 52.2Q692.0 53.5 692.8 55.5Q693.5 57.6 693.5 60.6L693.5 60.6Q693.5 63.3 692.9 65.5Q692.2 67.7 691.1 69.2Q689.9 70.7 688.3 71.5Q686.7 72.3 684.7 72.3ZM684.8 61.2L684.8 61.2Q685.6 61.2 686.3 60.9Q687.0 60.6 687.6 60.1Q688.1 59.5 688.4 58.8Q688.7 58.1 688.7 57.3L688.7 57.3Q688.7 56.3 688.2 55.4Q687.7 54.5 686.8 54.0Q686.0 53.4 684.9 53.4L684.9 53.4Q683.8 53.4 682.9 53.9Q682.1 54.5 681.6 55.4Q681.1 56.2 681.1 57.3L681.1 57.3Q681.1 58.4 681.6 59.3Q682.1 60.2 682.9 60.7Q683.8 61.2 684.8 61.2ZM704.5 72.3L704.5 72.3Q702.1 72.3 700.3 71.5Q698.5 70.7 697.4 69.2Q696.3 67.8 696.3 65.9L696.3 65.9L700.8 65.9Q700.8 66.7 701.3 67.3Q701.8 67.9 702.7 68.3Q703.5 68.6 704.5 68.6L704.5 68.6Q705.6 68.6 706.4 68.2Q707.2 67.8 707.7 67.2Q708.2 66.5 708.2 65.6L708.2 65.6Q708.2 64.7 707.7 64.0Q707.2 63.3 706.3 62.9Q705.4 62.5 704.1 62.5L704.1 62.5L702.1 62.5L702.1 59.2L704.1 59.2Q705.2 59.2 706.0 58.8Q706.8 58.5 707.2 57.8Q707.7 57.2 707.7 56.3L707.7 56.3Q707.7 55.4 707.3 54.8Q706.9 54.2 706.2 53.8Q705.5 53.5 704.5 53.5L704.5 53.5Q703.6 53.5 702.8 53.8Q702.0 54.1 701.5 54.8Q701.0 55.4 701.0 56.2L701.0 56.2L696.7 56.2Q696.8 54.4 697.8 52.9Q698.8 51.5 700.6 50.7Q702.4 49.9 704.6 49.9L704.6 49.9Q706.8 49.9 708.5 50.7Q710.2 51.5 711.1 52.9Q712.0 54.3 712.0 56.0L712.0 56.0Q712.0 57.8 710.9 59.1Q709.8 60.3 708.0 60.6L708.0 60.6L708.0 60.8Q709.5 61.0 710.6 61.7Q711.7 62.4 712.3 63.5Q712.8 64.5 712.8 65.9L712.8 65.9Q712.8 67.7 711.8 69.2Q710.7 70.6 708.8 71.5Q706.9 72.3 704.5 72.3ZM723.9 72.3L723.9 72.3Q721.5 72.3 719.7 71.5Q717.8 70.7 716.8 69.2Q715.7 67.8 715.7 65.9L715.7 65.9L720.2 65.9Q720.2 66.7 720.7 67.3Q721.2 67.9 722.0 68.3Q722.9 68.6 723.9 68.6L723.9 68.6Q725.0 68.6 725.8 68.2Q726.6 67.8 727.1 67.2Q727.5 66.5 727.5 65.6L727.5 65.6Q727.5 64.7 727.1 64.0Q726.6 63.3 725.7 62.9Q724.7 62.5 723.5 62.5L723.5 62.5L721.4 62.5L721.4 59.2L723.5 59.2Q724.5 59.2 725.3 58.8Q726.2 58.5 726.6 57.8Q727.1 57.2 727.1 56.3L727.1 56.3Q727.1 55.4 726.7 54.8Q726.3 54.2 725.6 53.8Q724.9 53.5 723.9 53.5L723.9 53.5Q723.0 53.5 722.2 53.8Q721.4 54.1 720.9 54.8Q720.4 55.4 720.4 56.2L720.4 56.2L716.1 56.2Q716.1 54.4 717.1 52.9Q718.2 51.5 720.0 50.7Q721.7 49.9 723.9 49.9L723.9 49.9Q726.2 49.9 727.9 50.7Q729.5 51.5 730.5 52.9Q731.4 54.3 731.4 56.0L731.4 56.0Q731.4 57.8 730.3 59.1Q729.1 60.3 727.3 60.6L727.3 60.6L727.3 60.8Q728.9 61.0 730.0 61.7Q731.1 62.4 731.6 63.5Q732.2 64.5 732.2 65.9L732.2 65.9Q732.2 67.7 731.1 69.2Q730.1 70.6 728.2 71.5Q726.3 72.3 723.9 72.3ZM739.8 50.2L744.5 50.2L744.5 72L740.1 72L740.1 54.1L739.9 54.1L734.9 57.7L734.9 53.6L739.8 50.2Z "/></g><mask id="satori_om-id-3-1"><rect x="668" y="81" width="66" height="13" fill="#fff" mask="url(#satori_om-id)"/></mask><g mask="url(#satori_om-id)" clip-path="url(#satori_cp-id)"><path fill="rgba(200,195,225,0.45)" d="M672.2 92.1L672.2 92.1Q671.2 92.1 670.3 91.6Q669.5 91.1 669.0 90.2Q668.5 89.3 668.5 88.0L668.5 88.0Q668.5 86.7 669.0 85.8Q669.5 84.9 670.3 84.4Q671.2 83.9 672.2 83.9L672.2 83.9Q672.9 83.9 673.5 84.1Q674.1 84.3 674.5 84.6Q675.0 85.0 675.3 85.5Q675.6 86.1 675.7 86.7L675.7 86.7L674.0 86.7Q674.0 86.4 673.8 86.1Q673.6 85.9 673.4 85.7Q673.2 85.5 672.9 85.4Q672.6 85.3 672.3 85.3L672.3 85.3Q671.6 85.3 671.2 85.7Q670.7 86.0 670.4 86.6Q670.2 87.2 670.2 88.0L670.2 88.0Q670.2 88.9 670.4 89.5Q670.7 90.1 671.2 90.4Q671.6 90.7 672.2 90.7L672.2 90.7Q672.6 90.7 672.9 90.6Q673.2 90.5 673.4 90.3Q673.6 90.1 673.8 89.8Q674.0 89.6 674.0 89.3L674.0 89.3L675.7 89.3Q675.6 89.8 675.3 90.3Q675.1 90.8 674.6 91.2Q674.2 91.6 673.6 91.9Q673.0 92.1 672.2 92.1ZM681.9 92.1L681.9 92.1Q680.8 92.1 680.0 91.6Q679.1 91.1 678.6 90.2Q678.1 89.3 678.1 88.0L678.1 88.0Q678.1 86.7 678.6 85.8Q679.1 84.9 680.0 84.4Q680.8 83.9 681.9 83.9L681.9 83.9Q682.9 83.9 683.8 84.4Q684.6 84.9 685.1 85.8Q685.6 86.7 685.6 88.0L685.6 88.0Q685.6 89.3 685.1 90.2Q684.6 91.1 683.8 91.6Q682.9 92.1 681.9 92.1ZM681.9 90.7L681.9 90.7Q682.5 90.7 683.0 90.3Q683.4 90.0 683.7 89.5Q683.9 88.9 683.9 88.0L683.9 88.0Q683.9 87.1 683.7 86.5Q683.4 86.0 683.0 85.6Q682.5 85.3 681.9 85.3L681.9 85.3Q681.3 85.3 680.8 85.7Q680.3 86.0 680.1 86.6Q679.8 87.1 679.8 88.0L679.8 88.0Q679.8 88.9 680.1 89.4Q680.3 90.0 680.8 90.3Q681.3 90.7 681.9 90.7ZM690.0 92L688.3 92L688.3 84.0L690.9 84.0L692.2 87.7Q692.2 87.9 692.3 88.3Q692.4 88.7 692.5 89.2L692.5 89.2Q692.7 89.7 692.7 90.1L692.7 90.1Q692.8 89.7 692.9 89.2L692.9 89.2Q693.0 88.8 693.2 88.3Q693.3 87.9 693.3 87.7L693.3 87.7L694.6 84.0L697.1 84.0L697.1 92L695.5 92L695.5 88.2Q695.5 88.0 695.5 87.6Q695.5 87.2 695.5 86.7Q695.5 86.3 695.5 85.8L695.5 85.8Q695.6 85.6 695.6 85.4L695.6 85.4Q695.5 85.6 695.4 85.9L695.4 85.9Q695.3 86.3 695.2 86.8Q695.1 87.2 694.9 87.6Q694.8 88.0 694.8 88.2L694.8 88.2L693.4 92L692.0 92L690.7 88.2Q690.6 88.0 690.5 87.6Q690.4 87.2 690.3 86.8Q690.1 86.4 690.0 85.9L690.0 85.9Q690.0 85.7 689.9 85.5L689.9 85.5Q689.9 85.6 689.9 85.8L689.9 85.8Q689.9 86.2 689.9 86.7Q689.9 87.2 690.0 87.6Q690.0 88.0 690.0 88.2L690.0 88.2L690.0 92ZM701.7 92L700.1 92L700.1 84.0L702.6 84.0L703.9 87.7Q704.0 87.9 704.1 88.3Q704.2 88.7 704.3 89.2L704.3 89.2Q704.4 89.7 704.5 90.1L704.5 90.1Q704.6 89.7 704.7 89.2L704.7 89.2Q704.8 88.8 704.9 88.3Q705.0 87.9 705.1 87.7L705.1 87.7L706.4 84.0L708.9 84.0L708.9 92L707.2 92L707.2 88.2Q707.2 88.0 707.2 87.6Q707.3 87.2 707.3 86.7Q707.3 86.3 707.3 85.8L707.3 85.8Q707.3 85.6 707.3 85.4L707.3 85.4Q707.2 85.6 707.2 85.9L707.2 85.9Q707.1 86.3 706.9 86.8Q706.8 87.2 706.7 87.6Q706.6 88.0 706.5 88.2L706.5 88.2L705.2 92L703.8 92L702.4 88.2Q702.4 88.0 702.3 87.6Q702.1 87.2 702.0 86.8Q701.9 86.4 701.8 85.9L701.8 85.9Q701.7 85.7 701.7 85.5L701.7 85.5Q701.7 85.6 701.7 85.8L701.7 85.8Q701.7 86.2 701.7 86.7Q701.7 87.2 701.7 87.6Q701.7 88.0 701.7 88.2L701.7 88.2L701.7 92ZM711.8 84.0L713.5 84.0L713.5 92L711.8 92L711.8 84.0ZM718.5 85.4L716.1 85.4L716.1 84.0L722.6 84.0L722.6 85.4L720.2 85.4L720.2 92L718.5 92L718.5 85.4ZM728.2 92.1L728.2 92.1Q727.2 92.1 726.5 91.8Q725.8 91.5 725.4 90.9Q725.0 90.4 725.0 89.5L725.0 89.5L726.6 89.5Q726.6 89.9 726.8 90.2Q727.0 90.5 727.4 90.6Q727.7 90.7 728.2 90.7L728.2 90.7Q728.6 90.7 728.9 90.6Q729.3 90.5 729.5 90.2Q729.6 90.0 729.6 89.7L729.6 89.7Q729.6 89.4 729.5 89.3Q729.3 89.1 729.0 88.9Q728.7 88.8 728.3 88.7L728.3 88.7L727.4 88.5Q726.4 88.2 725.8 87.7Q725.2 87.2 725.2 86.3L725.2 86.3Q725.2 85.6 725.6 85.0Q726.0 84.5 726.7 84.2Q727.3 83.9 728.2 83.9L728.2 83.9Q729.1 83.9 729.8 84.2Q730.4 84.5 730.8 85.0Q731.2 85.6 731.2 86.3L731.2 86.3L729.6 86.3Q729.6 85.8 729.2 85.5Q728.8 85.3 728.2 85.3L728.2 85.3Q727.8 85.3 727.5 85.4Q727.2 85.5 727.0 85.7Q726.9 85.9 726.9 86.2L726.9 86.2Q726.9 86.5 727.1 86.7Q727.2 86.9 727.5 87.0Q727.8 87.1 728.2 87.2L728.2 87.2L728.9 87.4Q729.4 87.5 729.8 87.7Q730.3 87.9 730.6 88.2Q730.9 88.4 731.1 88.8Q731.3 89.2 731.3 89.7L731.3 89.7Q731.3 90.4 730.9 91.0Q730.6 91.5 729.9 91.8Q729.2 92.1 728.2 92.1Z "/></g></svg>