<!-- Generated by readme-aura https://github.com/collectioneur/readme-aura -->
<svg width="110" height="44" viewBox="0 0 110 44" xmlns="http://www.w3.org/2000/svg"><mask id="satori_om-id"><rect x="0" y="0" width="110" height="44" fill="#fff"/></mask><path x="0" y="0" width="110" height="44" fill="#120c2e" d="M22,0 h66 a22,22 0 0 1 22,22 v0 a22,22 0 0 1 -22,22 h-66 a22,22 0 0 1 -22,-22 v0 a22,22 0 0 1 22,-22"/><clipPath id="satori_cp-id-0"><rect x="0" y="0" width="110" height="44"/></clipPath><mask id="satori_om-id-0"><rect x="0" y="0" width="110" height="44" fill="#fff"/></mask><svg x="0" y="0" width="110" height="44" preserveAspectRatio="none" clip-path="url(#satori_cp-id-0)" mask="url(#satori_om-id-0)"><defs><linearGradient id="smb-grad-OpenCV" gradientUnits="objectBoundingBox" x1="0" y1="0" x2="1" y2="1"><stop offset="0%" stop-color="#ffffff"></stop><stop offset="15%" stop-color="#120c2e"></stop><stop offset="30%" stop-color="#cccccc"></stop><stop offset="50%" stop-color="#5C3EE8"></stop><stop offset="65%" stop-color="#120c2e"></stop><stop offset="80%" stop-color="#888888"></stop><stop offset="100%" stop-color="#444444"></stop><animateTransform attributeName="gradientTransform" type="rotate" from="0 0.5 0.5" to="360 0.5 0.5" dur="8s" repeatCount="indefinite"></animateTransform></linearGradient></defs><rect x="1.25" y="1.25" width="107.5" height="41.5" rx="20.75" ry="20.75" fill="none" stroke="url(#smb-grad-OpenCV)" stroke-width="2" stroke-linecap="round" stroke-linejoin="round"></rect><rect x="0.25" y="0.25" width="109.5" height="43.5" rx="21.75" ry="21.75" fill="none" stroke="#AAAAAA" stroke-width="0.5" stroke-linecap="round" stroke-linejoin="round"></rect></svg><mask id="satori_om-id-0-0"><rect x="0" y="0" width="0" height="44" fill="#fff"/></mask><mask id="satori_om-id-0-0-0"><rect x="0" y="0" width="0" height="44" fill="#fff"/></mask><mask id="satori_om-id-0-0-0-0"><rect x="0" y="0" width="0" height="44" fill="#fff"/></mask><mask id="satori_om-id-0-0-0-1"><rect x="0" y="0" width="0" height="44" fill="#fff"/></mask><mask id="satori_om-id-0-0-0-2"><rect x="0" y="0" width="0" height="44" fill="#fff"/></mask><mask id="satori_om-id-0-0-0-3"><rect x="0" y="0" width="0" height="44" fill="#fff"/></mask><mask id="satori_om-id-0-0-0-4"><rect x="0" y="0" width="0" height="44" fill="#fff"/></mask><mask id="satori_om-id-0-0-0-5"><rect x="0" y="0" width="0" height="44" fill="#fff"/></mask><mask id="satori_om-id-0-0-0-6"><rect x="0" y="0" width="0" height="44" fill="#fff"/></mask><mask id="satori_om-id-0-0-0-7"><rect x="0" y="0" width="0" height="44" fill="#fff"/></mask><mask id="satori_om-id-0-1"><rect x="0" y="0" width="0" height="44" fill="#fff"/></mask><mask id="satori_om-id-0-2"><rect x="0" y="0" width="0" height="44" fill="#fff"/></mask><mask id="satori_om-id-1"><rect x="0" y="0" width="110" height="44" fill="#fff"/></mask><mask id="satori_om-id-1-0"><rect x="15" y="11" width="22" height="22" fill="#fff"/></mask><mask id="satori_om-id-1-1"><rect x="42" y="14" width="53" height="16" fill="#fff"/></mask><g  ><path fill="#ffffff" d="M47.0 27.1L47.0 27.1Q45.8 27.1 44.8 26.6Q43.8 26.0 43.2 24.9Q42.6 23.8 42.6 22.3L42.6 22.3Q42.6 20.7 43.2 19.6Q43.8 18.6 44.8 18.0Q45.8 17.4 47.0 17.4L47.0 17.4Q48.3 17.4 49.3 18.0Q50.3 18.6 50.8 19.6Q51.4 20.7 51.4 22.3L51.4 22.3Q51.4 23.8 50.8 24.9Q50.3 26.0 49.3 26.6Q48.3 27.1 47.0 27.1ZM47.0 25.4L47.0 25.4Q47.7 25.4 48.3 25.0Q48.8 24.7 49.1 24.0Q49.5 23.3 49.5 22.3L49.5 22.3Q49.5 21.3 49.1 20.6Q48.8 19.9 48.3 19.5Q47.7 19.1 47.0 19.1L47.0 19.1Q46.3 19.1 45.7 19.5Q45.2 19.9 44.9 20.6Q44.6 21.3 44.6 22.3L44.6 22.3Q44.6 23.3 44.9 24.0Q45.2 24.7 45.7 25.0Q46.3 25.4 47.0 25.4ZM54.5 29.7L52.6 29.7L52.6 19.9L54.5 19.9L54.5 21.1L54.6 21.1Q54.7 20.8 55.0 20.5Q55.2 20.2 55.6 20.0Q56.0 19.8 56.6 19.8L56.6 19.8Q57.4 19.8 58.1 20.2Q58.7 20.6 59.1 21.4Q59.5 22.3 59.5 23.5L59.5 23.5Q59.5 24.6 59.1 25.5Q58.7 26.3 58.1 26.7Q57.4 27.1 56.6 27.1L56.6 27.1Q56.0 27.1 55.6 26.9Q55.2 26.7 55.0 26.4Q54.7 26.1 54.6 25.9L54.6 25.9L54.5 25.9L54.5 29.7ZM56.0 25.6L56.0 25.6Q56.5 25.6 56.9 25.3Q57.2 25.0 57.4 24.6Q57.5 24.1 57.5 23.5L57.5 23.5Q57.5 22.8 57.4 22.4Q57.2 21.9 56.9 21.6Q56.5 21.3 56.0 21.3L56.0 21.3Q55.5 21.3 55.2 21.6Q54.8 21.9 54.7 22.3Q54.5 22.8 54.5 23.5L54.5 23.5Q54.5 24.1 54.7 24.6Q54.9 25.1 55.2 25.3Q55.5 25.6 56.0 25.6ZM63.8 27.1L63.8 27.1Q62.7 27.1 62.0 26.7Q61.2 26.3 60.7 25.4Q60.3 24.6 60.3 23.5L60.3 23.5Q60.3 22.4 60.7 21.6Q61.2 20.7 61.9 20.3Q62.7 19.8 63.7 19.8L63.7 19.8Q64.4 19.8 65.0 20.0Q65.6 20.3 66.1 20.7Q66.6 21.2 66.8 21.8Q67.1 22.5 67.1 23.4L67.1 23.4L67.1 23.9L62.2 23.9Q62.2 24.5 62.4 24.9L62.4 24.9Q62.6 25.3 63.0 25.5Q63.4 25.7 63.9 25.7L63.9 25.7Q64.2 25.7 64.5 25.6Q64.7 25.5 64.9 25.3Q65.1 25.1 65.2 24.9L65.2 24.9L67.0 25.2Q66.8 25.8 66.4 26.2Q65.9 26.7 65.3 26.9Q64.7 27.1 63.8 27.1ZM62.2 22.8L62.2 22.8L65.2 22.8Q65.2 22.4 65.1 22.1L65.1 22.1Q64.9 21.7 64.6 21.5Q64.2 21.2 63.8 21.2L63.8 21.2Q63.3 21.2 62.9 21.5Q62.6 21.7 62.4 22.1L62.4 22.1Q62.3 22.4 62.2 22.8ZM70.1 22.9L70.1 22.9L70.1 27L68.2 27L68.2 19.9L70.0 19.9L70.0 21.4Q70.3 20.7 70.7 20.3L70.7 20.3Q71.3 19.8 72.2 19.8L72.2 19.8Q72.9 19.8 73.5 20.1Q74.0 20.5 74.3 21.1Q74.6 21.7 74.6 22.5L74.6 22.5L74.6 27L72.7 27L72.7 22.8Q72.7 22.2 72.4 21.8Q72.1 21.4 71.4 21.4L71.4 21.4Q71.0 21.4 70.7 21.6Q70.4 21.8 70.2 22.1Q70.1 22.4 70.1 22.9ZM80.2 27.1L80.2 27.1Q79.0 27.1 78.0 26.6Q77.0 26.0 76.4 24.9Q75.8 23.8 75.8 22.3L75.8 22.3Q75.8 20.7 76.4 19.6Q77.0 18.6 78.0 18.0Q79.0 17.4 80.2 17.4L80.2 17.4Q81.0 17.4 81.7 17.6Q82.4 17.9 83.0 18.3Q83.5 18.7 83.9 19.4Q84.2 20.0 84.3 20.8L84.3 20.8L82.3 20.8Q82.3 20.4 82.1 20.1Q81.9 19.8 81.7 19.6Q81.4 19.4 81.0 19.2Q80.7 19.1 80.3 19.1L80.3 19.1Q79.5 19.1 79.0 19.5Q78.4 19.9 78.1 20.6Q77.8 21.3 77.8 22.3L77.8 22.3Q77.8 23.3 78.1 24.0Q78.4 24.7 79.0 25.1Q79.5 25.4 80.3 25.4L80.3 25.4Q80.7 25.4 81.0 25.3Q81.4 25.2 81.6 25.0Q81.9 24.8 82.1 24.5Q82.3 24.1 82.4 23.8L82.4 23.8L84.3 23.8Q84.2 24.4 83.9 25.0Q83.6 25.6 83.1 26.1Q82.6 26.6 81.9 26.9Q81.1 27.1 80.2 27.1ZM90.8 27L88.3 27L85.0 17.5L87.1 17.5L88.6 22.1Q88.9 23.0 89.2 24.0L89.2 24.0Q89.4 24.7 89.6 25.4L89.6 25.4Q89.8 24.7 89.9 24.0L89.9 24.0Q90.2 23.0 90.5 22.1L90.5 22.1L91.9 17.5L94.1 17.5L90.8 27Z "/></g></svg>