<!-- Generated by readme-aura https://github.com/collectioneur/readme-aura -->
<svg width="120" height="44" viewBox="0 0 120 44" xmlns="http://www.w3.org/2000/svg"><mask id="satori_om-id"><rect x="0" y="0" width="120" height="44" fill="#fff"/></mask><path x="0" y="0" width="120" height="44" fill="#000000" d="M22,0 h76 a22,22 0 0 1 22,22 v0 a22,22 0 0 1 -22,22 h-76 a22,22 0 0 1 -22,-22 v0 a22,22 0 0 1 22,-22"/><clipPath id="satori_cp-id-0"><rect x="0" y="0" width="120" height="44"/></clipPath><mask id="satori_om-id-0"><rect x="0" y="0" width="120" height="44" fill="#fff"/></mask><svg x="0" y="0" width="120" height="44" preserveAspectRatio="none" clip-path="url(#satori_cp-id-0)" mask="url(#satori_om-id-0)"><defs><linearGradient id="smb-grad-MongoDB" gradientUnits="objectBoundingBox" x1="0" y1="0" x2="1" y2="1"><stop offset="0%" stop-color="#818cf8"></stop><stop offset="30%" stop-color="#000000"></stop><stop offset="60%" stop-color="#9298f8"></stop><stop offset="80%" stop-color="#000000"></stop><stop offset="100%" stop-color="#7479f5"></stop><animateTransform attributeName="gradientTransform" type="rotate" from="0 0.5 0.5" to="360 0.5 0.5" dur="8s" repeatCount="indefinite"></animateTransform></linearGradient></defs><rect x="1.25" y="1.25" width="117.5" height="41.5" rx="20.75" ry="20.75" fill="none" stroke="url(#smb-grad-MongoDB)" stroke-width="2" stroke-linecap="round" stroke-linejoin="round"></rect><rect x="0.25" y="0.25" width="119.5" height="43.5" rx="21.75" ry="21.75" fill="none" stroke="#AAAAAA" stroke-width="0.5" stroke-linecap="round" stroke-linejoin="round"></rect></svg><mask id="satori_om-id-0-0"><rect x="0" y="0" width="0" height="44" fill="#fff"/></mask><mask id="satori_om-id-0-0-0"><rect x="0" y="0" width="0" height="44" fill="#fff"/></mask><mask id="satori_om-id-0-0-0-0"><rect x="0" y="0" width="0" height="44" fill="#fff"/></mask><mask id="satori_om-id-0-0-0-1"><rect x="0" y="0" width="0" height="44" fill="#fff"/></mask><mask id="satori_om-id-0-0-0-2"><rect x="0" y="0" width="0" height="44" fill="#fff"/></mask><mask id="satori_om-id-0-0-0-3"><rect x="0" y="0" width="0" height="44" fill="#fff"/></mask><mask id="satori_om-id-0-0-0-4"><rect x="0" y="0" width="0" height="44" fill="#fff"/></mask><mask id="satori_om-id-0-0-0-5"><rect x="0" y="0" width="0" height="44" fill="#fff"/></mask><mask id="satori_om-id-0-1"><rect x="0" y="0" width="0" height="44" fill="#fff"/></mask><mask id="satori_om-id-0-2"><rect x="0" y="0" width="0" height="44" fill="#fff"/></mask><mask id="satori_om-id-1"><rect x="0" y="0" width="120" height="44" fill="#fff"/></mask><mask id="satori_om-id-1-0"><rect x="18" y="13" width="18" height="18" fill="#fff"/></mask><mask id="satori_om-id-1-1"><rect x="41" y="14" width="61" height="16" fill="#fff"/></mask><g  ><path fill="#f5f5f5" d="M43.8 27L41.9 27L41.9 17.5L44.8 17.5L46.4 21.9Q46.5 22.2 46.6 22.7Q46.7 23.2 46.8 23.7L46.8 23.7Q47.0 24.3 47.1 24.8L47.1 24.8Q47.2 24.3 47.3 23.7L47.3 23.7Q47.4 23.2 47.5 22.7Q47.7 22.2 47.8 21.9L47.8 21.9L49.3 17.5L52.3 17.5L52.3 27L50.3 27L50.3 22.5Q50.3 22.2 50.3 21.8Q50.3 21.3 50.3 20.8Q50.4 20.2 50.4 19.7L50.4 19.7Q50.4 19.4 50.4 19.2L50.4 19.2Q50.3 19.5 50.2 19.8L50.2 19.8Q50.1 20.3 50.0 20.8Q49.8 21.4 49.7 21.8Q49.5 22.3 49.4 22.5L49.4 22.5L47.9 27L46.2 27L44.6 22.5Q44.6 22.3 44.4 21.8Q44.3 21.4 44.1 20.9Q44.0 20.3 43.8 19.8L43.8 19.8Q43.8 19.5 43.7 19.3L43.7 19.3Q43.7 19.5 43.7 19.7L43.7 19.7Q43.7 20.2 43.7 20.7Q43.8 21.3 43.8 21.8Q43.8 22.2 43.8 22.5L43.8 22.5L43.8 27ZM56.9 27.1L56.9 27.1Q55.8 27.1 55.1 26.7Q54.3 26.2 53.8 25.4Q53.4 24.6 53.4 23.5L53.4 23.5Q53.4 22.4 53.8 21.6Q54.3 20.7 55.1 20.3Q55.8 19.8 56.9 19.8L56.9 19.8Q58.0 19.8 58.7 20.3Q59.5 20.7 59.9 21.6Q60.4 22.4 60.4 23.5L60.4 23.5Q60.4 24.6 59.9 25.4Q59.5 26.2 58.7 26.7Q58.0 27.1 56.9 27.1ZM56.9 25.6L56.9 25.6Q57.4 25.6 57.7 25.4Q58.1 25.1 58.3 24.6Q58.4 24.1 58.4 23.5L58.4 23.5Q58.4 22.8 58.3 22.4Q58.1 21.9 57.7 21.6Q57.4 21.3 56.9 21.3L56.9 21.3Q56.4 21.3 56.1 21.6Q55.7 21.9 55.5 22.4Q55.4 22.8 55.4 23.5L55.4 23.5Q55.4 24.1 55.5 24.6Q55.7 25.1 56.1 25.4Q56.4 25.6 56.9 25.6ZM63.4 22.9L63.4 22.9L63.4 27L61.5 27L61.5 19.9L63.3 19.9L63.3 21.4Q63.6 20.7 64.1 20.3L64.1 20.3Q64.6 19.8 65.5 19.8L65.5 19.8Q66.3 19.8 66.8 20.1Q67.4 20.5 67.7 21.1Q68.0 21.7 68.0 22.5L68.0 22.5L68.0 27L66.1 27L66.1 22.8Q66.1 22.2 65.7 21.8Q65.4 21.4 64.8 21.4L64.8 21.4Q64.4 21.4 64.1 21.6Q63.7 21.8 63.6 22.1Q63.4 22.4 63.4 22.9ZM72.5 29.8L72.5 29.8Q71.7 29.8 71.0 29.6Q70.3 29.4 69.9 29.0Q69.5 28.6 69.4 28.1L69.4 28.1L71.0 27.6Q71.1 27.8 71.3 28.0Q71.5 28.2 71.8 28.3Q72.1 28.4 72.5 28.4L72.5 28.4Q73.3 28.4 73.7 28.1Q74.1 27.8 74.1 27.1L74.1 27.1L74.1 25.7L73.9 25.7Q73.8 26.0 73.6 26.3Q73.3 26.6 72.9 26.7Q72.6 26.9 72.0 26.9L72.0 26.9Q71.2 26.9 70.5 26.5Q69.9 26.1 69.5 25.4Q69.1 24.6 69.1 23.4L69.1 23.4Q69.1 22.2 69.5 21.4Q69.9 20.6 70.5 20.2Q71.2 19.8 72.0 19.8L72.0 19.8Q72.6 19.8 73.0 20.0Q73.4 20.2 73.6 20.5Q73.9 20.8 74.0 21.1L74.0 21.1L74.1 21.1L74.1 19.9L76.0 19.9L76.0 26.9Q76.0 27.9 75.5 28.5Q75.1 29.2 74.3 29.5Q73.5 29.8 72.5 29.8ZM72.6 25.5L72.6 25.5Q73.1 25.5 73.4 25.2Q73.7 25.0 73.9 24.5Q74.1 24.1 74.1 23.4L74.1 23.4Q74.1 22.8 73.9 22.3Q73.7 21.9 73.4 21.6Q73.1 21.3 72.6 21.3L72.6 21.3Q72.1 21.3 71.7 21.6Q71.4 21.9 71.2 22.3Q71.0 22.8 71.0 23.4L71.0 23.4Q71.0 24.0 71.2 24.5Q71.4 25.0 71.7 25.2Q72.1 25.5 72.6 25.5ZM80.6 27.1L80.6 27.1Q79.5 27.1 78.7 26.7Q77.9 26.2 77.5 25.4Q77.1 24.6 77.1 23.5L77.1 23.5Q77.1 22.4 77.5 21.6Q77.9 20.7 78.7 20.3Q79.5 19.8 80.6 19.8L80.6 19.8Q81.7 19.8 82.4 20.3Q83.2 20.7 83.6 21.6Q84.0 22.4 84.0 23.5L84.0 23.5Q84.0 24.6 83.6 25.4Q83.2 26.2 82.4 26.7Q81.7 27.1 80.6 27.1ZM80.6 25.6L80.6 25.6Q81.1 25.6 81.4 25.4Q81.8 25.1 81.9 24.6Q82.1 24.1 82.1 23.5L82.1 23.5Q82.1 22.8 81.9 22.4Q81.8 21.9 81.4 21.6Q81.1 21.3 80.6 21.3L80.6 21.3Q80.1 21.3 79.7 21.6Q79.4 21.9 79.2 22.4Q79.0 22.8 79.0 23.5L79.0 23.5Q79.0 24.1 79.2 24.6Q79.4 25.1 79.7 25.4Q80.1 25.6 80.6 25.6ZM88.5 27L88.5 27L85.2 27L85.2 17.5L88.6 17.5Q90.0 17.5 91.0 18.1Q92.1 18.7 92.6 19.7Q93.2 20.8 93.2 22.3L93.2 22.3Q93.2 23.7 92.6 24.8Q92.1 25.9 91.0 26.4Q90.0 27 88.5 27ZM87.2 19.2L87.2 25.3L88.5 25.3Q89.4 25.3 90.0 25.0Q90.6 24.7 90.9 24.0Q91.2 23.3 91.2 22.3L91.2 22.3Q91.2 21.2 90.9 20.5Q90.6 19.9 90.0 19.5Q89.4 19.2 88.5 19.2L88.5 19.2L87.2 19.2ZM98.4 27L94.4 27L94.4 17.5L98.2 17.5Q99.2 17.5 99.9 17.9Q100.6 18.2 100.9 18.7Q101.3 19.3 101.3 20.0L101.3 20.0Q101.3 20.5 101.1 20.9Q100.8 21.4 100.5 21.6Q100.1 21.9 99.6 22.0L99.6 22.0L99.6 22.1Q100.1 22.1 100.6 22.4Q101.1 22.7 101.4 23.2Q101.7 23.7 101.7 24.4L101.7 24.4Q101.7 25.1 101.3 25.7Q100.9 26.3 100.2 26.7Q99.5 27 98.4 27L98.4 27ZM96.3 22.8L96.3 25.4L98.0 25.4Q98.9 25.4 99.3 25.1Q99.7 24.7 99.7 24.2L99.7 24.2Q99.7 23.8 99.5 23.5Q99.3 23.2 98.9 23.0Q98.6 22.8 98.1 22.8L98.1 22.8L96.3 22.8ZM96.3 19.1L96.3 21.5L97.9 21.5Q98.3 21.5 98.6 21.4Q98.9 21.2 99.1 20.9Q99.3 20.7 99.3 20.3L99.3 20.3Q99.3 19.8 99.0 19.4Q98.6 19.1 97.9 19.1L97.9 19.1L96.3 19.1Z "/></g></svg>