<!-- Generated by readme-aura https://github.com/collectioneur/readme-aura -->
<svg width="130" height="44" viewBox="0 0 130 44" xmlns="http://www.w3.org/2000/svg"><mask id="satori_om-id"><rect x="0" y="0" width="130" height="44" fill="#fff"/></mask><path x="0" y="0" width="130" height="44" fill="#000000" d="M22,0 h86 a22,22 0 0 1 22,22 v0 a22,22 0 0 1 -22,22 h-86 a22,22 0 0 1 -22,-22 v0 a22,22 0 0 1 22,-22"/><clipPath id="satori_cp-id-0"><rect x="0" y="0" width="130" height="44"/></clipPath><mask id="satori_om-id-0"><rect x="0" y="0" width="130" height="44" fill="#fff"/></mask><svg x="0" y="0" width="130" height="44" preserveAspectRatio="none" clip-path="url(#satori_cp-id-0)" mask="url(#satori_om-id-0)"><defs><linearGradient id="smb-grad-ScikitLearn" gradientUnits="objectBoundingBox" x1="0" y1="0" x2="1" y2="1"><stop offset="0%" stop-color="#b57af9"></stop><stop offset="30%" stop-color="#000000"></stop><stop offset="60%" stop-color="#9d6bf0"></stop><stop offset="80%" stop-color="#000000"></stop><stop offset="100%" stop-color="#c89dfb"></stop><animateTransform attributeName="gradientTransform" type="rotate" from="0 0.5 0.5" to="360 0.5 0.5" dur="8s" repeatCount="indefinite"></animateTransform></linearGradient></defs><rect x="1.25" y="1.25" width="127.5" height="41.5" rx="20.75" ry="20.75" fill="none" stroke="url(#smb-grad-ScikitLearn)" stroke-width="2" stroke-linecap="round" stroke-linejoin="round"></rect><rect x="0.25" y="0.25" width="129.5" height="43.5" rx="21.75" ry="21.75" fill="none" stroke="#AAAAAA" stroke-width="0.5" stroke-linecap="round" stroke-linejoin="round"></rect></svg><mask id="satori_om-id-0-0"><rect x="0" y="0" width="0" height="44" fill="#fff"/></mask><mask id="satori_om-id-0-0-0"><rect x="0" y="0" width="0" height="44" fill="#fff"/></mask><mask id="satori_om-id-0-0-0-0"><rect x="0" y="0" width="0" height="44" fill="#fff"/></mask><mask id="satori_om-id-0-0-0-1"><rect x="0" y="0" width="0" height="44" fill="#fff"/></mask><mask id="satori_om-id-0-0-0-2"><rect x="0" y="0" width="0" height="44" fill="#fff"/></mask><mask id="satori_om-id-0-0-0-3"><rect x="0" y="0" width="0" height="44" fill="#fff"/></mask><mask id="satori_om-id-0-0-0-4"><rect x="0" y="0" width="0" height="44" fill="#fff"/></mask><mask id="satori_om-id-0-0-0-5"><rect x="0" y="0" width="0" height="44" fill="#fff"/></mask><mask id="satori_om-id-0-1"><rect x="0" y="0" width="0" height="44" fill="#fff"/></mask><mask id="satori_om-id-0-2"><rect x="0" y="0" width="0" height="44" fill="#fff"/></mask><mask id="satori_om-id-1"><rect x="0" y="0" width="130" height="44" fill="#fff"/></mask><mask id="satori_om-id-1-0"><rect x="16" y="13" width="18" height="18" fill="#fff"/></mask><mask id="satori_om-id-1-1"><rect x="39" y="14" width="76" height="16" fill="#fff"/></mask><g  ><path fill="#f5f5f5" d="M43.3 27.1L43.3 27.1Q42.2 27.1 41.3 26.8Q40.5 26.4 40.0 25.8Q39.6 25.1 39.5 24.1L39.5 24.1L41.4 24.1Q41.5 24.5 41.7 24.9Q42.0 25.2 42.4 25.3Q42.8 25.5 43.3 25.5L43.3 25.5Q43.8 25.5 44.2 25.4Q44.6 25.2 44.8 24.9Q45.0 24.7 45.0 24.3L45.0 24.3Q45.0 24.0 44.8 23.8Q44.6 23.5 44.3 23.4Q43.9 23.2 43.4 23.1L43.4 23.1L42.4 22.8Q41.2 22.5 40.5 21.9Q39.8 21.3 39.8 20.3L39.8 20.3Q39.8 19.4 40.3 18.8Q40.7 18.1 41.5 17.8Q42.3 17.4 43.3 17.4L43.3 17.4Q44.4 17.4 45.2 17.8Q46.0 18.1 46.4 18.8Q46.8 19.4 46.8 20.2L46.8 20.2L45.0 20.2Q44.9 19.7 44.5 19.4Q44.1 19.0 43.3 19.0L43.3 19.0Q42.8 19.0 42.5 19.2Q42.1 19.3 42.0 19.6Q41.8 19.8 41.8 20.1L41.8 20.1Q41.8 20.5 42.0 20.7Q42.2 21.0 42.5 21.1Q42.9 21.2 43.3 21.3L43.3 21.3L44.1 21.5Q44.7 21.7 45.3 21.9Q45.8 22.1 46.2 22.5Q46.5 22.8 46.8 23.3Q47.0 23.7 47.0 24.3L47.0 24.3Q47.0 25.2 46.5 25.8Q46.1 26.4 45.3 26.8Q44.5 27.1 43.3 27.1ZM51.3 27.1L51.3 27.1Q50.2 27.1 49.4 26.7Q48.7 26.2 48.2 25.4Q47.8 24.6 47.8 23.5L47.8 23.5Q47.8 22.4 48.2 21.6Q48.7 20.7 49.4 20.3Q50.2 19.8 51.3 19.8L51.3 19.8Q51.9 19.8 52.5 20.0Q53.0 20.1 53.4 20.4Q53.8 20.8 54.1 21.2Q54.4 21.6 54.5 22.2L54.5 22.2L52.7 22.5Q52.6 22.2 52.5 22.0Q52.4 21.8 52.2 21.6Q52.0 21.5 51.8 21.4Q51.6 21.3 51.3 21.3L51.3 21.3Q50.8 21.3 50.5 21.6Q50.1 21.9 49.9 22.3Q49.8 22.8 49.8 23.5L49.8 23.5Q49.8 24.1 49.9 24.6Q50.1 25.1 50.5 25.4Q50.8 25.6 51.3 25.6L51.3 25.6Q51.6 25.6 51.8 25.6Q52.0 25.5 52.2 25.3Q52.4 25.1 52.5 24.9Q52.6 24.7 52.7 24.4L52.7 24.4L54.5 24.7Q54.4 25.3 54.1 25.7Q53.8 26.2 53.4 26.5Q53.0 26.8 52.5 27.0Q51.9 27.1 51.3 27.1ZM57.5 27L55.6 27L55.6 19.9L57.5 19.9L57.5 27ZM56.5 19.0L56.5 19.0Q56.1 19.0 55.8 18.7Q55.5 18.4 55.5 18.0L55.5 18.0Q55.5 17.6 55.8 17.3Q56.1 17.0 56.5 17.0L56.5 17.0Q57.0 17.0 57.3 17.3Q57.6 17.6 57.6 18.0L57.6 18.0Q57.6 18.4 57.3 18.7Q57.0 19.0 56.5 19.0ZM60.8 27L58.9 27L58.9 17.5L60.8 17.5L60.8 22.6L60.9 22.6L63.2 19.9L65.4 19.9L62.8 23.0L65.6 27L63.3 27L61.3 24.1L60.8 24.7L60.8 27ZM68.1 27L66.2 27L66.2 19.9L68.1 19.9L68.1 27ZM67.2 19.0L67.2 19.0Q66.8 19.0 66.5 18.7Q66.1 18.4 66.1 18.0L66.1 18.0Q66.1 17.6 66.5 17.3Q66.8 17.0 67.2 17.0L67.2 17.0Q67.6 17.0 67.9 17.3Q68.2 17.6 68.2 18.0L68.2 18.0Q68.2 18.4 67.9 18.7Q67.6 19.0 67.2 19.0ZM71.8 19.9L73.1 19.9L73.1 21.4L71.8 21.4L71.8 24.9Q71.8 25.3 71.9 25.4Q72.1 25.6 72.4 25.6L72.4 25.6Q72.5 25.6 72.7 25.6Q72.9 25.5 73.0 25.5L73.0 25.5L73.3 26.9Q73.0 27.0 72.6 27.1Q72.3 27.1 72.0 27.1L72.0 27.1Q71.0 27.1 70.4 26.6Q69.9 26.1 69.9 25.1L69.9 25.1L69.9 21.4L68.9 21.4L68.9 19.9L69.9 19.9L69.9 18.2L71.8 18.2L71.8 19.9ZM74.2 22.3L78.5 22.3L78.5 23.9L74.2 23.9L74.2 22.3ZM86.1 27L80.0 27L80.0 17.5L82.0 17.5L82.0 25.4L86.1 25.4L86.1 27ZM90.4 27.1L90.4 27.1Q89.3 27.1 88.5 26.7Q87.7 26.3 87.3 25.4Q86.9 24.6 86.9 23.5L86.9 23.5Q86.9 22.4 87.3 21.6Q87.7 20.7 88.5 20.3Q89.2 19.8 90.3 19.8L90.3 19.8Q91.0 19.8 91.6 20.0Q92.2 20.3 92.6 20.7Q93.1 21.2 93.3 21.8Q93.6 22.5 93.6 23.4L93.6 23.4L93.6 23.9L88.7 23.9Q88.8 24.5 88.9 24.9L88.9 24.9Q89.2 25.3 89.5 25.5Q89.9 25.7 90.4 25.7L90.4 25.7Q90.7 25.7 91.0 25.6Q91.3 25.5 91.5 25.3Q91.7 25.1 91.8 24.9L91.8 24.9L93.5 25.2Q93.3 25.8 92.9 26.2Q92.5 26.7 91.8 26.9Q91.2 27.1 90.4 27.1ZM88.8 22.8L88.8 22.8L91.8 22.8Q91.7 22.4 91.6 22.1L91.6 22.1Q91.4 21.7 91.1 21.5Q90.8 21.2 90.3 21.2L90.3 21.2Q89.8 21.2 89.4 21.5Q89.1 21.7 88.9 22.1L88.9 22.1Q88.8 22.4 88.8 22.8ZM96.7 27.1L96.7 27.1Q96.0 27.1 95.5 26.9Q94.9 26.7 94.6 26.2Q94.3 25.7 94.3 25.0L94.3 25.0Q94.3 24.4 94.5 24.0Q94.8 23.6 95.1 23.4Q95.5 23.1 96.0 23.0Q96.5 22.9 97.0 22.8L97.0 22.8Q97.6 22.8 98.0 22.7Q98.4 22.7 98.5 22.5Q98.7 22.4 98.7 22.2L98.7 22.2L98.7 22.2Q98.7 21.9 98.6 21.7Q98.5 21.4 98.2 21.3Q98.0 21.2 97.6 21.2L97.6 21.2Q97.2 21.2 97.0 21.3Q96.7 21.4 96.5 21.6Q96.3 21.8 96.3 22.0L96.3 22.0L94.5 21.8Q94.7 21.1 95.1 20.7Q95.6 20.3 96.2 20.0Q96.8 19.8 97.6 19.8L97.6 19.8Q98.2 19.8 98.7 20.0Q99.3 20.1 99.7 20.4Q100.1 20.7 100.4 21.1Q100.6 21.6 100.6 22.2L100.6 22.2L100.6 27L98.8 27L98.8 26.0L98.8 26.0Q98.6 26.3 98.3 26.6Q98.0 26.8 97.6 27.0Q97.2 27.1 96.7 27.1ZM97.2 25.8L97.2 25.8Q97.7 25.8 98.0 25.6Q98.3 25.4 98.5 25.1Q98.7 24.8 98.7 24.5L98.7 24.5L98.7 23.7Q98.6 23.8 98.5 23.8Q98.3 23.9 98.1 23.9Q97.9 23.9 97.7 24.0Q97.5 24.0 97.3 24.0L97.3 24.0Q97.0 24.1 96.7 24.2Q96.4 24.3 96.3 24.5Q96.1 24.7 96.1 25.0L96.1 25.0Q96.1 25.2 96.3 25.4Q96.4 25.6 96.7 25.7Q96.9 25.8 97.2 25.8ZM103.9 27L102.0 27L102.0 19.9L103.9 19.9L103.9 21.1L104.0 21.1Q104.2 20.5 104.6 20.1Q105.1 19.8 105.7 19.8L105.7 19.8Q105.8 19.8 106.0 19.8Q106.2 19.8 106.3 19.9L106.3 19.9L106.3 21.6Q106.2 21.5 105.9 21.5Q105.7 21.5 105.5 21.5L105.5 21.5Q105.0 21.5 104.7 21.7Q104.3 21.9 104.1 22.2Q103.9 22.5 103.9 23.0L103.9 23.0L103.9 27ZM109.0 22.9L109.0 22.9L109.0 27L107.1 27L107.1 19.9L108.9 19.9L109.0 21.4Q109.2 20.7 109.7 20.3L109.7 20.3Q110.3 19.8 111.2 19.8L111.2 19.8Q111.9 19.8 112.5 20.1Q113.0 20.5 113.3 21.1Q113.6 21.7 113.6 22.5L113.6 22.5L113.6 27L111.7 27L111.7 22.8Q111.7 22.2 111.4 21.8Q111.0 21.4 110.4 21.4L110.4 21.4Q110.0 21.4 109.7 21.6Q109.4 21.8 109.2 22.1Q109.0 22.4 109.0 22.9Z "/></g></svg>