<!-- Generated by readme-aura https://github.com/collectioneur/readme-aura -->
<svg width="100" height="44" viewBox="0 0 100 44" xmlns="http://www.w3.org/2000/svg"><mask id="satori_om-id"><rect x="0" y="0" width="100" height="44" fill="#fff"/></mask><path x="0" y="0" width="100" height="44" fill="#0f2207" d="M22,0 h56 a22,22 0 0 1 22,22 v0 a22,22 0 0 1 -22,22 h-56 a22,22 0 0 1 -22,-22 v0 a22,22 0 0 1 22,-22"/><clipPath id="satori_cp-id-0"><rect x="0" y="0" width="100" height="44"/></clipPath><mask id="satori_om-id-0"><rect x="0" y="0" width="100" height="44" fill="#fff"/></mask><svg x="0" y="0" width="100" height="44" preserveAspectRatio="none" clip-path="url(#satori_cp-id-0)" mask="url(#satori_om-id-0)"><defs><linearGradient id="smb-grad-Bash" gradientUnits="objectBoundingBox" x1="0" y1="0" x2="1" y2="1"><stop offset="0%" stop-color="#ffffff"></stop><stop offset="15%" stop-color="#0f2207"></stop><stop offset="30%" stop-color="#cccccc"></stop><stop offset="50%" stop-color="#4EAA25"></stop><stop offset="65%" stop-color="#0f2207"></stop><stop offset="80%" stop-color="#888888"></stop><stop offset="100%" stop-color="#444444"></stop><animateTransform attributeName="gradientTransform" type="rotate" from="0 0.5 0.5" to="360 0.5 0.5" dur="8s" repeatCount="indefinite"></animateTransform></linearGradient></defs><rect x="1.25" y="1.25" width="97.5" height="41.5" rx="20.75" ry="20.75" fill="none" stroke="url(#smb-grad-Bash)" stroke-width="2" stroke-linecap="round" stroke-linejoin="round"></rect><rect x="0.25" y="0.25" width="99.5" height="43.5" rx="21.75" ry="21.75" fill="none" stroke="#AAAAAA" stroke-width="0.5" stroke-linecap="round" stroke-linejoin="round"></rect></svg><mask id="satori_om-id-0-0"><rect x="0" y="0" width="0" height="44" fill="#fff"/></mask><mask id="satori_om-id-0-0-0"><rect x="0" y="0" width="0" height="44" fill="#fff"/></mask><mask id="satori_om-id-0-0-0-0"><rect x="0" y="0" width="0" height="44" fill="#fff"/></mask><mask id="satori_om-id-0-0-0-1"><rect x="0" y="0" width="0" height="44" fill="#fff"/></mask><mask id="satori_om-id-0-0-0-2"><rect x="0" y="0" width="0" height="44" fill="#fff"/></mask><mask id="satori_om-id-0-0-0-3"><rect x="0" y="0" width="0" height="44" fill="#fff"/></mask><mask id="satori_om-id-0-0-0-4"><rect x="0" y="0" width="0" height="44" fill="#fff"/></mask><mask id="satori_om-id-0-0-0-5"><rect x="0" y="0" width="0" height="44" fill="#fff"/></mask><mask id="satori_om-id-0-0-0-6"><rect x="0" y="0" width="0" height="44" fill="#fff"/></mask><mask id="satori_om-id-0-0-0-7"><rect x="0" y="0" width="0" height="44" fill="#fff"/></mask><mask id="satori_om-id-0-1"><rect x="0" y="0" width="0" height="44" fill="#fff"/></mask><mask id="satori_om-id-0-2"><rect x="0" y="0" width="0" height="44" fill="#fff"/></mask><mask id="satori_om-id-1"><rect x="0" y="0" width="100" height="44" fill="#fff"/></mask><mask id="satori_om-id-1-0"><rect x="21" y="11" width="22" height="22" fill="#fff"/></mask><mask id="satori_om-id-1-1"><rect x="48" y="14" width="31" height="16" fill="#fff"/></mask><g  ><path fill="#ffffff" d="M52.8 27L48.9 27L48.9 17.5L52.6 17.5Q53.6 17.5 54.3 17.9Q55.0 18.2 55.4 18.7Q55.7 19.3 55.7 20.0L55.7 20.0Q55.7 20.5 55.5 20.9Q55.3 21.4 54.9 21.6Q54.5 21.9 54.0 22.0L54.0 22.0L54.0 22.1Q54.6 22.1 55.0 22.4Q55.5 22.7 55.8 23.2Q56.1 23.7 56.1 24.4L56.1 24.4Q56.1 25.1 55.7 25.7Q55.4 26.3 54.6 26.7Q53.9 27 52.8 27L52.8 27ZM50.8 22.8L50.8 25.4L52.5 25.4Q53.3 25.4 53.7 25.1Q54.1 24.7 54.1 24.2L54.1 24.2Q54.1 23.8 53.9 23.5Q53.7 23.2 53.4 23.0Q53.0 22.8 52.5 22.8L52.5 22.8L50.8 22.8ZM50.8 19.1L50.8 21.5L52.3 21.5Q52.7 21.5 53.1 21.4Q53.4 21.2 53.6 20.9Q53.8 20.7 53.8 20.3L53.8 20.3Q53.8 19.8 53.4 19.4Q53.0 19.1 52.4 19.1L52.4 19.1L50.8 19.1ZM59.2 27.1L59.2 27.1Q58.5 27.1 58.0 26.9Q57.4 26.7 57.1 26.2Q56.8 25.7 56.8 25.0L56.8 25.0Q56.8 24.4 57.1 24.0Q57.3 23.6 57.6 23.4Q58.0 23.1 58.5 23.0Q59.0 22.9 59.5 22.8L59.5 22.8Q60.1 22.8 60.5 22.7Q60.9 22.7 61.1 22.5Q61.2 22.4 61.2 22.2L61.2 22.2L61.2 22.2Q61.2 21.9 61.1 21.7Q61.0 21.4 60.7 21.3Q60.5 21.2 60.1 21.2L60.1 21.2Q59.8 21.2 59.5 21.3Q59.2 21.4 59.0 21.6Q58.9 21.8 58.8 22.0L58.8 22.0L57.0 21.8Q57.2 21.1 57.6 20.7Q58.1 20.3 58.7 20.0Q59.3 19.8 60.1 19.8L60.1 19.8Q60.7 19.8 61.2 20.0Q61.8 20.1 62.2 20.4Q62.6 20.7 62.9 21.1Q63.1 21.6 63.1 22.2L63.1 22.2L63.1 27L61.3 27L61.3 26.0L61.3 26.0Q61.1 26.3 60.8 26.6Q60.5 26.8 60.1 27.0Q59.7 27.1 59.2 27.1ZM59.7 25.8L59.7 25.8Q60.2 25.8 60.5 25.6Q60.9 25.4 61.1 25.1Q61.2 24.8 61.2 24.5L61.2 24.5L61.2 23.7Q61.2 23.8 61.0 23.8Q60.8 23.9 60.6 23.9Q60.4 23.9 60.2 24.0Q60.0 24.0 59.8 24.0L59.8 24.0Q59.5 24.1 59.2 24.2Q59.0 24.3 58.8 24.5Q58.7 24.7 58.7 25.0L58.7 25.0Q58.7 25.2 58.8 25.4Q58.9 25.6 59.2 25.7Q59.4 25.8 59.7 25.8ZM67.4 27.1L67.4 27.1Q66.5 27.1 65.9 26.9Q65.2 26.7 64.8 26.2Q64.4 25.7 64.2 25.1L64.2 25.1L66.0 24.8Q66.2 25.2 66.5 25.5Q66.9 25.7 67.4 25.7L67.4 25.7Q68.0 25.7 68.3 25.5Q68.6 25.3 68.6 25.0L68.6 25.0Q68.6 24.7 68.4 24.6Q68.2 24.4 67.7 24.3L67.7 24.3L66.5 24.0Q65.4 23.8 64.9 23.3Q64.4 22.8 64.4 22.0L64.4 22.0Q64.4 21.3 64.8 20.8Q65.2 20.3 65.8 20.1Q66.5 19.8 67.4 19.8L67.4 19.8Q68.2 19.8 68.9 20.0Q69.5 20.3 69.9 20.7Q70.2 21.1 70.4 21.7L70.4 21.7L68.7 22.0Q68.6 21.6 68.3 21.4Q68.0 21.2 67.4 21.2L67.4 21.2Q67.0 21.2 66.6 21.4Q66.3 21.6 66.3 21.9L66.3 21.9Q66.3 22.2 66.5 22.4Q66.7 22.5 67.2 22.6L67.2 22.6L68.5 22.9Q69.6 23.1 70.1 23.6Q70.6 24.0 70.6 24.8L70.6 24.8Q70.6 25.5 70.1 26.0Q69.7 26.6 69.0 26.8Q68.3 27.1 67.4 27.1ZM73.5 22.9L73.5 22.9L73.5 27L71.6 27L71.6 17.5L73.5 17.5L73.5 21.3Q73.8 20.7 74.2 20.3L74.2 20.3Q74.8 19.8 75.7 19.8L75.7 19.8Q76.4 19.8 77.0 20.1Q77.5 20.5 77.8 21.1Q78.1 21.7 78.1 22.5L78.1 22.5L78.1 27L76.2 27L76.2 22.8Q76.2 22.2 75.9 21.8Q75.5 21.4 74.9 21.4L74.9 21.4Q74.5 21.4 74.2 21.6Q73.9 21.8 73.7 22.1Q73.5 22.4 73.5 22.9Z "/></g></svg>