<!-- Generated by readme-aura https://github.com/collectioneur/readme-aura -->
<svg width="120" height="44" viewBox="0 0 120 44" xmlns="http://www.w3.org/2000/svg"><mask id="satori_om-id"><rect x="0" y="0" width="120" height="44" fill="#fff"/></mask><path x="0" y="0" width="120" height="44" fill="#041221" d="M22,0 h76 a22,22 0 0 1 22,22 v0 a22,22 0 0 1 -22,22 h-76 a22,22 0 0 1 -22,-22 v0 a22,22 0 0 1 22,-22"/><clipPath id="satori_cp-id-0"><rect x="0" y="0" width="120" height="44"/></clipPath><mask id="satori_om-id-0"><rect x="0" y="0" width="120" height="44" fill="#fff"/></mask><svg x="0" y="0" width="120" height="44" preserveAspectRatio="none" clip-path="url(#satori_cp-id-0)" mask="url(#satori_om-id-0)"><defs><linearGradient id="smb-grad-LinkedIn" gradientUnits="objectBoundingBox" x1="0" y1="0" x2="1" y2="1"><stop offset="0%" stop-color="#ffffff"></stop><stop offset="15%" stop-color="#041221"></stop><stop offset="30%" stop-color="#cccccc"></stop><stop offset="50%" stop-color="#0A66C2"></stop><stop offset="65%" stop-color="#041221"></stop><stop offset="80%" stop-color="#888888"></stop><stop offset="100%" stop-color="#444444"></stop><animateTransform attributeName="gradientTransform" type="rotate" from="0 0.5 0.5" to="360 0.5 0.5" dur="8s" repeatCount="indefinite"></animateTransform></linearGradient></defs><rect x="1.25" y="1.25" width="117.5" height="41.5" rx="20.75" ry="20.75" fill="none" stroke="url(#smb-grad-LinkedIn)" stroke-width="2" stroke-linecap="round" stroke-linejoin="round"></rect><rect x="0.25" y="0.25" width="119.5" height="43.5" rx="21.75" ry="21.75" fill="none" stroke="#AAAAAA" stroke-width="0.5" stroke-linecap="round" stroke-linejoin="round"></rect></svg><mask id="satori_om-id-0-0"><rect x="0" y="0" width="0" height="44" fill="#fff"/></mask><mask id="satori_om-id-0-0-0"><rect x="0" y="0" width="0" height="44" fill="#fff"/></mask><mask id="satori_om-id-0-0-0-0"><rect x="0" y="0" width="0" height="44" fill="#fff"/></mask><mask id="satori_om-id-0-0-0-1"><rect x="0" y="0" width="0" height="44" fill="#fff"/></mask><mask id="satori_om-id-0-0-0-2"><rect x="0" y="0" width="0" height="44" fill="#fff"/></mask><mask id="satori_om-id-0-0-0-3"><rect x="0" y="0" width="0" height="44" fill="#fff"/></mask><mask id="satori_om-id-0-0-0-4"><rect x="0" y="0" width="0" height="44" fill="#fff"/></mask><mask id="satori_om-id-0-0-0-5"><rect x="0" y="0" width="0" height="44" fill="#fff"/></mask><mask id="satori_om-id-0-0-0-6"><rect x="0" y="0" width="0" height="44" fill="#fff"/></mask><mask id="satori_om-id-0-0-0-7"><rect x="0" y="0" width="0" height="44" fill="#fff"/></mask><mask id="satori_om-id-0-1"><rect x="0" y="0" width="0" height="44" fill="#fff"/></mask><mask id="satori_om-id-0-2"><rect x="0" y="0" width="0" height="44" fill="#fff"/></mask><mask id="satori_om-id-1"><rect x="0" y="0" width="120" height="44" fill="#fff"/></mask><mask id="satori_om-id-1-0"><rect x="21" y="12" width="20" height="20" fill="#fff"/></mask><mask id="satori_om-id-1-1"><rect x="46" y="14" width="53" height="16" fill="#fff"/></mask><g  ><path fill="#ffffff" d="M52.9 27L46.9 27L46.9 17.5L48.8 17.5L48.8 25.4L52.9 25.4L52.9 27ZM55.9 27L54.0 27L54.0 19.9L55.9 19.9L55.9 27ZM54.9 19.0L54.9 19.0Q54.5 19.0 54.2 18.7Q53.9 18.4 53.9 18.0L53.9 18.0Q53.9 17.6 54.2 17.3Q54.5 17.0 54.9 17.0L54.9 17.0Q55.3 17.0 55.7 17.3Q56.0 17.6 56.0 18.0L56.0 18.0Q56.0 18.4 55.7 18.7Q55.3 19.0 54.9 19.0ZM59.2 22.9L59.2 22.9L59.2 27L57.3 27L57.3 19.9L59.1 19.9L59.1 21.4Q59.4 20.7 59.9 20.3L59.9 20.3Q60.4 19.8 61.3 19.8L61.3 19.8Q62.1 19.8 62.6 20.1Q63.2 20.5 63.5 21.1Q63.8 21.7 63.8 22.5L63.8 22.5L63.8 27L61.8 27L61.8 22.8Q61.8 22.2 61.5 21.8Q61.2 21.4 60.6 21.4L60.6 21.4Q60.2 21.4 59.9 21.6Q59.5 21.8 59.4 22.1Q59.2 22.4 59.2 22.9ZM67.1 27L65.2 27L65.2 17.5L67.1 17.5L67.1 22.6L67.2 22.6L69.5 19.9L71.7 19.9L69.1 23.0L71.9 27L69.6 27L67.6 24.1L67.1 24.7L67.1 27ZM75.7 27.1L75.7 27.1Q74.6 27.1 73.9 26.7Q73.1 26.3 72.6 25.4Q72.2 24.6 72.2 23.5L72.2 23.5Q72.2 22.4 72.6 21.6Q73.1 20.7 73.8 20.3Q74.6 19.8 75.6 19.8L75.6 19.8Q76.3 19.8 76.9 20.0Q77.5 20.3 78.0 20.7Q78.4 21.2 78.7 21.8Q79.0 22.5 79.0 23.4L79.0 23.4L79.0 23.9L74.1 23.9Q74.1 24.5 74.3 24.9L74.3 24.9Q74.5 25.3 74.9 25.5Q75.3 25.7 75.8 25.7L75.8 25.7Q76.1 25.7 76.4 25.6Q76.6 25.5 76.8 25.3Q77.0 25.1 77.1 24.9L77.1 24.9L78.9 25.2Q78.7 25.8 78.3 26.2Q77.8 26.7 77.2 26.9Q76.6 27.1 75.7 27.1ZM74.1 22.8L74.1 22.8L77.1 22.8Q77.1 22.4 77.0 22.1L77.0 22.1Q76.8 21.7 76.5 21.5Q76.1 21.2 75.6 21.2L75.6 21.2Q75.2 21.2 74.8 21.5Q74.5 21.7 74.3 22.1L74.3 22.1Q74.2 22.4 74.1 22.8ZM82.7 27.1L82.7 27.1Q81.8 27.1 81.2 26.7Q80.5 26.3 80.1 25.5Q79.8 24.6 79.8 23.5L79.8 23.5Q79.8 22.3 80.2 21.4Q80.6 20.6 81.2 20.2Q81.9 19.8 82.6 19.8L82.6 19.8Q83.3 19.8 83.7 20.0Q84.1 20.2 84.3 20.5Q84.5 20.8 84.7 21.1L84.7 21.1L84.7 21.1L84.7 17.5L86.6 17.5L86.6 27L84.8 27L84.8 25.9L84.7 25.9Q84.5 26.1 84.3 26.4Q84.0 26.7 83.6 26.9Q83.2 27.1 82.7 27.1ZM83.2 25.6L83.2 25.6Q83.7 25.6 84.1 25.3Q84.4 25.1 84.6 24.6Q84.8 24.1 84.8 23.5L84.8 23.5Q84.8 22.8 84.6 22.3Q84.4 21.9 84.1 21.6Q83.7 21.3 83.2 21.3L83.2 21.3Q82.7 21.3 82.4 21.6Q82.1 21.9 81.9 22.4Q81.7 22.8 81.7 23.5L81.7 23.5Q81.7 24.1 81.9 24.6Q82.1 25.0 82.4 25.3Q82.7 25.6 83.2 25.6ZM88.1 17.5L90.0 17.5L90.0 27L88.1 27L88.1 17.5ZM93.4 22.9L93.4 22.9L93.4 27L91.5 27L91.5 19.9L93.3 19.9L93.3 21.4Q93.6 20.7 94.1 20.3L94.1 20.3Q94.6 19.8 95.5 19.8L95.5 19.8Q96.3 19.8 96.8 20.1Q97.4 20.5 97.7 21.1Q98.0 21.7 98.0 22.5L98.0 22.5L98.0 27L96.1 27L96.1 22.8Q96.1 22.2 95.7 21.8Q95.4 21.4 94.8 21.4L94.8 21.4Q94.4 21.4 94.1 21.6Q93.8 21.8 93.6 22.1Q93.4 22.4 93.4 22.9Z "/></g></svg>