<!-- Generated by readme-aura https://github.com/collectioneur/readme-aura -->
<svg width="90" height="44" viewBox="0 0 90 44" xmlns="http://www.w3.org/2000/svg"><mask id="satori_om-id"><rect x="0" y="0" width="90" height="44" fill="#fff"/></mask><path x="0" y="0" width="90" height="44" fill="#000000" d="M22,0 h46 a22,22 0 0 1 22,22 v0 a22,22 0 0 1 -22,22 h-46 a22,22 0 0 1 -22,-22 v0 a22,22 0 0 1 22,-22"/><clipPath id="satori_cp-id-0"><rect x="0" y="0" width="90" height="44"/></clipPath><mask id="satori_om-id-0"><rect x="0" y="0" width="90" height="44" fill="#fff"/></mask><svg x="0" y="0" width="90" height="44" preserveAspectRatio="none" clip-path="url(#satori_cp-id-0)" mask="url(#satori_om-id-0)"><defs><linearGradient id="smb-grad-C" gradientUnits="objectBoundingBox" x1="0" y1="0" x2="1" y2="1"><stop offset="0%" stop-color="#d855f7"></stop><stop offset="30%" stop-color="#000000"></stop><stop offset="60%" stop-color="#b557e8"></stop><stop offset="80%" stop-color="#000000"></stop><stop offset="100%" stop-color="#cc6ef9"></stop><animateTransform attributeName="gradientTransform" type="rotate" from="0 0.5 0.5" to="360 0.5 0.5" dur="8s" repeatCount="indefinite"></animateTransform></linearGradient></defs><rect x="1.25" y="1.25" width="87.5" height="41.5" rx="20.75" ry="20.75" fill="none" stroke="url(#smb-grad-C)" stroke-width="2" stroke-linecap="round" stroke-linejoin="round"></rect><rect x="0.25" y="0.25" width="89.5" height="43.5" rx="21.75" ry="21.75" fill="none" stroke="#AAAAAA" stroke-width="0.5" stroke-linecap="round" stroke-linejoin="round"></rect></svg><mask id="satori_om-id-0-0"><rect x="0" y="0" width="0" height="44" fill="#fff"/></mask><mask id="satori_om-id-0-0-0"><rect x="0" y="0" width="0" height="44" fill="#fff"/></mask><mask id="satori_om-id-0-0-0-0"><rect x="0" y="0" width="0" height="44" fill="#fff"/></mask><mask id="satori_om-id-0-0-0-1"><rect x="0" y="0" width="0" height="44" fill="#fff"/></mask><mask id="satori_om-id-0-0-0-2"><rect x="0" y="0" width="0" height="44" fill="#fff"/></mask><mask id="satori_om-id-0-0-0-3"><rect x="0" y="0" width="0" height="44" fill="#fff"/></mask><mask id="satori_om-id-0-0-0-4"><rect x="0" y="0" width="0" height="44" fill="#fff"/></mask><mask id="satori_om-id-0-0-0-5"><rect x="0" y="0" width="0" height="44" fill="#fff"/></mask><mask id="satori_om-id-0-1"><rect x="0" y="0" width="0" height="44" fill="#fff"/></mask><mask id="satori_om-id-0-2"><rect x="0" y="0" width="0" height="44" fill="#fff"/></mask><mask id="satori_om-id-1"><rect x="0" y="0" width="90" height="44" fill="#fff"/></mask><mask id="satori_om-id-1-0"><rect x="29" y="13" width="18" height="18" fill="#fff"/></mask><mask id="satori_om-id-1-1"><rect x="52" y="14" width="10" height="16" fill="#fff"/></mask><g  ><path fill="#f5f5f5" d="M57.0 27.1L57.0 27.1Q55.7 27.1 54.7 26.6Q53.7 26.0 53.2 24.9Q52.6 23.8 52.6 22.3L52.6 22.3Q52.6 20.7 53.2 19.6Q53.8 18.6 54.7 18.0Q55.7 17.4 57.0 17.4L57.0 17.4Q57.8 17.4 58.5 17.6Q59.2 17.9 59.7 18.3Q60.3 18.7 60.6 19.4Q61.0 20.0 61.1 20.8L61.1 20.8L59.1 20.8Q59.0 20.4 58.9 20.1Q58.7 19.8 58.4 19.6Q58.1 19.4 57.8 19.2Q57.4 19.1 57.0 19.1L57.0 19.1Q56.3 19.1 55.7 19.5Q55.2 19.9 54.9 20.6Q54.6 21.3 54.6 22.3L54.6 22.3Q54.6 23.3 54.9 24.0Q55.2 24.7 55.7 25.1Q56.3 25.4 57.0 25.4L57.0 25.4Q57.4 25.4 57.8 25.3Q58.1 25.2 58.4 25.0Q58.7 24.8 58.9 24.5Q59.0 24.1 59.1 23.8L59.1 23.8L61.1 23.8Q61.0 24.4 60.7 25.0Q60.4 25.6 59.8 26.1Q59.3 26.6 58.6 26.9Q57.9 27.1 57.0 27.1Z "/></g></svg>