<!-- Generated by readme-aura https://github.com/collectioneur/readme-aura -->
<svg width="100" height="44" viewBox="0 0 100 44" xmlns="http://www.w3.org/2000/svg"><mask id="satori_om-id"><rect x="0" y="0" width="100" height="44" fill="#fff"/></mask><path x="0" y="0" width="100" height="44" fill="#3f3209" d="M22,0 h56 a22,22 0 0 1 22,22 v0 a22,22 0 0 1 -22,22 h-56 a22,22 0 0 1 -22,-22 v0 a22,22 0 0 1 22,-22"/><clipPath id="satori_cp-id-0"><rect x="0" y="0" width="100" height="44"/></clipPath><mask id="satori_om-id-0"><rect x="0" y="0" width="100" height="44" fill="#fff"/></mask><svg x="0" y="0" width="100" height="44" preserveAspectRatio="none" clip-path="url(#satori_cp-id-0)" mask="url(#satori_om-id-0)"><defs><linearGradient id="smb-grad-Linux" gradientUnits="objectBoundingBox" x1="0" y1="0" x2="1" y2="1"><stop offset="0%" stop-color="#ffffff"></stop><stop offset="15%" stop-color="#3f3209"></stop><stop offset="30%" stop-color="#cccccc"></stop><stop offset="50%" stop-color="#FCC624"></stop><stop offset="65%" stop-color="#3f3209"></stop><stop offset="80%" stop-color="#888888"></stop><stop offset="100%" stop-color="#444444"></stop><animateTransform attributeName="gradientTransform" type="rotate" from="0 0.5 0.5" to="360 0.5 0.5" dur="8s" repeatCount="indefinite"></animateTransform></linearGradient></defs><rect x="1.25" y="1.25" width="97.5" height="41.5" rx="20.75" ry="20.75" fill="none" stroke="url(#smb-grad-Linux)" stroke-width="2" stroke-linecap="round" stroke-linejoin="round"></rect><rect x="0.25" y="0.25" width="99.5" height="43.5" rx="21.75" ry="21.75" fill="none" stroke="#AAAAAA" stroke-width="0.5" stroke-linecap="round" stroke-linejoin="round"></rect></svg><mask id="satori_om-id-0-0"><rect x="0" y="0" width="0" height="44" fill="#fff"/></mask><mask id="satori_om-id-0-0-0"><rect x="0" y="0" width="0" height="44" fill="#fff"/></mask><mask id="satori_om-id-0-0-0-0"><rect x="0" y="0" width="0" height="44" fill="#fff"/></mask><mask id="satori_om-id-0-0-0-1"><rect x="0" y="0" width="0" height="44" fill="#fff"/></mask><mask id="satori_om-id-0-0-0-2"><rect x="0" y="0" width="0" height="44" fill="#fff"/></mask><mask id="satori_om-id-0-0-0-3"><rect x="0" y="0" width="0" height="44" fill="#fff"/></mask><mask id="satori_om-id-0-0-0-4"><rect x="0" y="0" width="0" height="44" fill="#fff"/></mask><mask id="satori_om-id-0-0-0-5"><rect x="0" y="0" width="0" height="44" fill="#fff"/></mask><mask id="satori_om-id-0-0-0-6"><rect x="0" y="0" width="0" height="44" fill="#fff"/></mask><mask id="satori_om-id-0-0-0-7"><rect x="0" y="0" width="0" height="44" fill="#fff"/></mask><mask id="satori_om-id-0-1"><rect x="0" y="0" width="0" height="44" fill="#fff"/></mask><mask id="satori_om-id-0-2"><rect x="0" y="0" width="0" height="44" fill="#fff"/></mask><mask id="satori_om-id-1"><rect x="0" y="0" width="100" height="44" fill="#fff"/></mask><mask id="satori_om-id-1-0"><rect x="20" y="11" width="22" height="22" fill="#fff"/></mask><mask id="satori_om-id-1-1"><rect x="47" y="14" width="34" height="16" fill="#fff"/></mask><g  ><path fill="#ffffff" d="M53.9 27L47.9 27L47.9 17.5L49.8 17.5L49.8 25.4L53.9 25.4L53.9 27ZM56.9 27L55.0 27L55.0 19.9L56.9 19.9L56.9 27ZM55.9 19.0L55.9 19.0Q55.5 19.0 55.2 18.7Q54.9 18.4 54.9 18.0L54.9 18.0Q54.9 17.6 55.2 17.3Q55.5 17.0 55.9 17.0L55.9 17.0Q56.3 17.0 56.7 17.3Q57.0 17.6 57.0 18.0L57.0 18.0Q57.0 18.4 56.7 18.7Q56.3 19.0 55.9 19.0ZM60.2 22.9L60.2 22.9L60.2 27L58.3 27L58.3 19.9L60.1 19.9L60.1 21.4Q60.4 20.7 60.9 20.3L60.9 20.3Q61.4 19.8 62.3 19.8L62.3 19.8Q63.1 19.8 63.6 20.1Q64.2 20.5 64.5 21.1Q64.8 21.7 64.8 22.5L64.8 22.5L64.8 27L62.8 27L62.8 22.8Q62.8 22.2 62.5 21.8Q62.2 21.4 61.6 21.4L61.6 21.4Q61.2 21.4 60.9 21.6Q60.5 21.8 60.4 22.1Q60.2 22.4 60.2 22.9ZM68.6 27.1L68.6 27.1Q67.9 27.1 67.3 26.8Q66.8 26.4 66.5 25.8Q66.2 25.2 66.2 24.4L66.2 24.4L66.2 19.9L68.1 19.9L68.1 24.1Q68.1 24.7 68.4 25.1Q68.8 25.5 69.4 25.5L69.4 25.5Q69.8 25.5 70.1 25.3Q70.4 25.1 70.6 24.8Q70.7 24.5 70.7 24.0L70.7 24.0L70.7 19.9L72.7 19.9L72.7 27L70.9 27L70.8 25.5Q70.6 26.2 70.1 26.6L70.1 26.6Q69.5 27.1 68.6 27.1ZM75.5 27L73.5 27L75.8 23.4L73.7 19.9L75.7 19.9L76.4 21.0Q76.7 21.6 76.9 22.1L76.9 22.1Q77.0 22.3 77.0 22.4L77.0 22.4Q77.1 22.3 77.2 22.1L77.2 22.1Q77.4 21.6 77.7 21.0L77.7 21.0L78.4 19.9L80.4 19.9L78.2 23.4L80.5 27L78.5 27L77.7 25.7Q77.4 25.1 77.1 24.6L77.1 24.6Q77.1 24.4 77.0 24.3L77.0 24.3Q76.9 24.4 76.9 24.6L76.9 24.6Q76.6 25.1 76.3 25.7L76.3 25.7L75.5 27Z "/></g></svg>